<?xml version="1.0" encoding="UTF-8" standalone="no"?>
<!DOCTYPE svg PUBLIC "-//W3C//DTD SVG 1.1//EN" "http://www.w3.org/Graphics/SVG/1.1/DTD/svg11.dtd">
<svg width="100%" height="100%" viewBox="0 0 243 408" version="1.1" xmlns="http://www.w3.org/2000/svg" xmlns:xlink="http://www.w3.org/1999/xlink" xml:space="preserve" xmlns:serif="http://www.serif.com/" style="fill-rule:evenodd;clip-rule:evenodd;stroke-linejoin:round;stroke-miterlimit:2;">
    <g transform="matrix(1,0,0,1,-336.878,-722.568)">
        <g>
            <path d="M436.993,823.637L436.993,823.635C436.992,823.631 436.992,823.631 436.991,823.626C436.976,823.513 436.956,823.401 436.928,823.291C436.923,823.28 436.918,823.268 436.909,823.247C436.897,823.216 436.878,823.186 436.86,823.156C436.874,823.192 436.742,823.003 436.696,822.953C436.458,822.692 436.257,822.555 435.918,822.302C434.918,821.556 433.937,820.809 432.834,820.368C433.075,821.162 433.065,822.03 432.716,822.865C432.168,824.176 431.074,825.133 429.784,825.657C430.068,825.723 430.354,825.776 430.645,825.809C431.258,825.88 431.866,825.817 432.479,825.861C432.871,825.889 433.328,826.056 433.697,825.863C433.651,825.887 433.818,825.771 433.852,825.742C433.92,825.658 433.976,825.565 434.034,825.474C434.191,825.226 434.338,824.984 434.556,824.78C435.202,824.17 436.077,824.095 436.924,824.164C436.944,824.166 436.96,824.172 436.978,824.174C436.982,824.093 436.989,824.013 436.991,823.932C436.995,823.832 436.996,823.734 436.993,823.637Z" style="fill-rule:nonzero;"/>
            <path d="M495.555,827.655C495.502,827.694 495.476,827.722 495.555,827.655Z" style="fill-rule:nonzero;"/>
            <path d="M436.138,826.403L436.14,826.402L436.139,826.402L436.138,826.403Z" style="fill-rule:nonzero;"/>
            <path d="M436.088,826.433C436.089,826.433 436.089,826.433 436.09,826.432C436.103,826.424 436.11,826.42 436.133,826.406C436.134,826.405 436.134,826.403 436.136,826.402C436.098,826.391 436.084,826.416 436.088,826.433Z" style="fill-rule:nonzero;"/>
            <path d="M436.092,826.438C436.096,826.444 436.103,826.444 436.113,826.435C436.107,826.435 436.102,826.436 436.096,826.436C436.093,826.437 436.095,826.436 436.092,826.438Z" style="fill-rule:nonzero;"/>
            <path d="M486.321,828.278C486.687,828.921 486.579,829.275 487.385,829.315C488.233,829.357 489.061,829.486 489.898,829.515C488.552,828.782 487.417,827.383 487.257,825.826C487.196,825.23 487.272,824.663 487.451,824.141C486.463,824.518 485.487,825.076 484.6,825.609C484.48,825.681 484.278,825.818 484.102,825.986C484.105,825.99 484.046,826.066 484.001,826.125C483.983,826.16 483.941,826.238 483.924,826.289C483.9,826.359 483.881,826.431 483.862,826.503C483.86,826.515 483.859,826.524 483.857,826.539C483.836,826.681 483.818,826.823 483.804,826.966C483.802,826.983 483.802,826.999 483.8,827.016C483.82,827.016 483.837,827.013 483.857,827.014C484.855,827.076 485.8,827.362 486.321,828.278Z" style="fill-rule:nonzero;"/>
            <path d="M433.845,825.754C433.846,825.753 433.846,825.752 433.846,825.751C433.821,825.781 433.779,825.833 433.845,825.754Z" style="fill-rule:nonzero;"/>
            <path d="M483.868,826.461C483.875,826.42 483.879,826.392 483.868,826.461Z" style="fill-rule:nonzero;"/>
            <path d="M483.129,757.663C476.682,756.532 470.112,756.046 463.585,756.029C452.942,756.002 442.255,757.257 431.933,759.864C430.995,760.101 430.062,760.36 429.13,760.621C429.334,760.665 429.536,760.769 429.714,760.956C431.596,762.926 432.056,765.648 433.009,768.098C433.969,770.563 435.145,773.078 436.803,775.154C438.251,776.966 440.087,778.419 442.022,779.679C446.127,782.353 450.982,784.368 455.901,784.748C457.359,784.861 457.195,787.124 455.738,787.012C452.808,786.786 449.92,785.995 447.199,784.901C442.55,783.031 437.713,780.217 434.688,776.12C433.078,773.939 431.826,771.409 430.885,768.87C430.08,766.698 429.652,764.172 427.998,762.442C427.494,761.915 427.669,761.283 428.095,760.911C427.012,761.226 425.932,761.554 424.861,761.905C422.587,762.649 420.247,763.913 417.837,764.042C417.759,764.493 417.476,764.873 416.966,764.975C416.414,765.085 415.681,764.696 415.63,764.084C415.628,764.065 415.63,764.047 415.628,764.029C413.467,763.898 411.272,763.445 409.272,762.772C407.711,762.247 406.202,761.622 404.601,761.218C403.161,760.854 401.698,760.6 400.244,760.306C398.53,759.96 396.85,759.523 395.108,759.337C393.547,759.17 391.976,759.118 390.409,759.04C387.19,758.88 383.933,758.161 380.723,758.696C377.586,759.218 374.532,760.113 371.373,760.526C368.082,760.957 364.796,761.416 361.51,761.88C354.931,762.81 348.348,763.736 341.731,764.358C340.536,764.471 339.305,764.49 338.121,764.707C337.664,764.791 337.519,764.822 337.231,764.966C336.88,765.141 337.22,765.007 336.944,765.156C337.061,765.093 336.884,765.31 336.947,765.109C336.904,765.247 336.899,765.509 336.891,765.211C336.895,765.359 336.886,765.379 336.878,765.366C336.939,765.631 337.052,765.919 337.205,766.214C337.545,766.089 337.937,766.101 338.214,766.339C340.417,768.231 343.373,769.002 346.136,769.672C349.259,770.43 352.425,771.031 355.612,771.448C358.693,771.852 361.798,772.017 364.898,772.188C366.361,772.269 367.828,772.404 369.294,772.425C370.533,772.443 371.784,772.4 373.001,772.675C373.755,772.846 374.809,772.998 375.367,773.598C375.904,774.176 375.756,774.865 375.568,775.55C375.56,775.579 375.538,775.676 375.53,775.713C375.521,775.764 375.511,775.814 375.504,775.865C375.473,776.099 375.455,776.332 375.437,776.567C375.408,776.958 375.376,777.349 375.366,777.741C375.363,777.85 375.362,777.96 375.363,778.069C375.363,778.069 375.368,778.152 375.371,778.212C375.381,778.261 375.4,778.381 375.411,778.456C375.419,778.443 375.428,778.513 375.431,778.556C375.459,778.586 375.5,778.637 375.522,778.668C375.56,778.696 375.604,778.728 375.631,778.746C375.794,778.813 375.96,778.867 376.13,778.915C376.425,778.997 376.832,779.047 377.241,779.092C378.722,779.254 380.214,779.347 381.699,779.459C384.799,779.693 387.801,779.747 390.872,779.192C392.336,778.928 393.792,778.578 395.212,778.133C396.219,777.818 397.199,777.404 398.211,777.097C400.426,776.425 403.015,776.313 404.547,778.36C404.671,778.526 404.738,778.698 404.767,778.868C405.719,779.144 406.56,779.683 407.117,780.635C408.68,783.306 407.355,787.076 406.415,789.713C404.446,795.238 402.423,800.756 400.918,806.43C399.877,810.356 399.041,814.455 399.257,818.538C399.491,822.957 401.353,827.223 403.635,830.954C406.038,834.884 409.25,838.233 411.509,842.268C414.579,847.751 416.417,853.97 418.102,859.993C419.855,866.255 421.313,872.597 423.153,878.835C424.441,883.203 425.903,887.448 428.46,891.234C428.798,891.002 429.248,890.934 429.694,891.211C432.743,893.099 436.114,894.599 439.708,894.995C442.182,895.268 444.64,895.001 447.023,894.298C448.135,893.97 449.213,893.54 450.267,893.059C451.355,892.562 452.438,891.956 453.139,890.959C453.234,890.823 453.306,890.677 453.384,890.533C453.358,890.494 453.331,890.457 453.306,890.418C452.973,889.899 453.322,889.146 453.823,888.898C453.871,888.875 453.918,888.861 453.965,888.845C454.211,887.505 454.128,886.03 454.173,884.674C454.295,880.989 454.674,877.298 454.941,873.62C453.826,873.35 452.881,872.742 451.887,872.165C450.515,871.37 449.097,870.658 447.734,869.847C447.123,869.483 446.546,869.066 445.946,868.684C445.179,868.195 444.587,867.826 443.752,867.568C443.711,867.555 443.489,867.507 443.502,867.504C443.466,867.499 443.429,867.494 443.393,867.49C443.37,867.487 443.346,867.48 443.324,867.473L443.321,867.473C443.316,867.495 443.31,867.516 443.308,867.526C443.306,867.544 443.305,867.555 443.302,867.581C443.123,869.027 440.859,868.869 441.038,867.418C441.196,866.137 442.022,865.193 443.371,865.216C444.44,865.234 445.474,865.784 446.38,866.297C447.094,866.701 447.763,867.172 448.448,867.621C449.646,868.407 450.94,869.047 452.192,869.74C453.269,870.335 454.389,871.258 455.632,871.459C456.88,871.661 458.218,871.41 459.423,871.088C461.879,870.432 464.114,869.156 466.503,868.309C469.14,867.374 471.812,867.059 474.526,867.888C474.891,868 475.196,868.362 475.26,868.736C475.308,869.019 475.355,869.302 475.403,869.585C475.646,871.027 473.42,871.47 473.177,870.03C473.169,869.98 473.16,869.931 473.152,869.881C470.764,869.35 468.425,869.934 466.173,870.859C463.93,871.781 461.745,872.89 459.369,873.44C458.675,873.601 457.94,873.724 457.205,873.773C456.904,877.932 456.487,882.1 456.403,886.269C456.376,887.632 456.281,888.983 455.912,890.233C457.212,891.959 458.948,893.438 460.774,894.616C464.864,897.255 469.786,898.708 474.645,898.819C478.122,898.898 481.699,898.199 484.554,896.276C486.882,894.112 488.913,891.623 490.247,888.733C492.427,884.012 493.516,878.877 495.128,873.954C496.814,868.805 497.972,863.508 499.577,858.336C501.205,853.092 503.531,848.137 506.789,843.701C510.493,838.658 513.873,833.6 516.124,827.718C517.208,824.885 518.057,821.952 518.572,818.961C519.002,816.467 519.369,813.847 519.047,811.32C518.451,806.644 516.6,802.195 515.312,797.686C514.224,793.879 513.145,789.448 514.489,785.568C514.655,783.603 515.991,782.224 517.899,781.65C519.638,781.127 521.564,781.212 523.353,781.362C525.46,781.538 527.572,781.771 529.603,782.383C532.394,783.224 534.998,784.402 537.938,784.646C540.836,784.886 543.725,784.751 546.586,784.28C546.522,783.938 546.368,783.598 546.275,783.279C546.058,782.532 546.07,781.788 546.329,781.053C546.453,780.7 546.793,780.369 547.176,780.319C549.488,780.022 551.826,780.103 554.142,780.31C556.288,780.502 558.421,780.801 560.56,781.055C562.714,781.31 564.876,781.456 567.037,781.639C569.323,781.833 571.677,782.157 573.968,781.916C575.219,781.784 576.48,781.57 577.742,781.48C575.993,780.611 573.979,780.122 572.135,779.621C567.04,778.237 562.533,775.907 558.088,773.1C554.038,770.542 550.007,767.929 545.318,766.71C541.464,765.707 537.412,765.637 533.546,766.543C530.101,767.351 526.675,768.237 523.2,768.918C520.933,769.362 514.883,770.683 511.001,769.722C510.702,769.752 510.364,769.649 510.113,769.449C508.611,768.871 507.601,767.822 507.549,766.056C503.581,763.774 499.353,761.982 494.998,760.577C491.723,759.52 488.383,758.676 485.006,758.014C484.48,758.542 483.422,758.394 483.129,757.663ZM439.152,825.542C439.019,826.452 438.016,826.674 437.392,826.297C437.22,826.393 437.012,826.446 436.763,826.426C436.526,826.407 436.342,826.424 436.121,826.435C436.005,826.671 435.811,826.922 435.651,827.117C435.303,827.543 434.871,827.85 434.354,828.04C433.591,828.321 432.884,828.135 432.104,828.111C431.403,828.089 430.731,828.126 430.033,828.007C429.267,827.877 428.517,827.679 427.784,827.424C426.858,827.102 425.973,826.675 425.041,826.371C422.685,825.603 419.853,825.154 417.902,823.519C416.841,822.63 416.37,821.351 417.08,820.076C417.952,818.508 419.888,817.658 421.573,817.36C423.66,816.99 425.805,817.224 427.896,817.422C429.799,817.602 431.842,817.523 433.649,818.234C434.463,818.554 435.213,819.023 435.93,819.518C436.675,820.033 437.442,820.555 438.108,821.176C437.974,820.128 437.703,819.107 437.226,818.155C435.221,814.144 429.964,813.051 425.84,813.676C422.032,814.254 417.108,816.518 416.778,820.82C416.666,822.278 414.402,822.114 414.514,820.657C414.732,817.822 416.5,815.495 418.805,813.95C423.288,810.947 429.663,810.28 434.563,812.657C436.741,813.714 438.536,815.4 439.493,817.65C440.416,819.819 440.592,822.21 440.428,824.54C440.375,825.299 439.737,825.615 439.152,825.542ZM449.308,822.566C448.986,823.983 448.471,825.343 448.228,826.779C447.971,828.301 447.871,829.843 447.755,831.38C447.641,832.884 447.484,834.356 447.126,835.825C446.783,837.232 446.3,838.6 445.817,839.964C443.781,845.718 442.685,851.625 442.231,857.704C442.122,859.163 439.858,858.998 439.967,857.541C440.211,854.283 440.606,851.041 441.262,847.839C441.929,844.588 442.892,841.469 443.982,838.34C444.448,837.002 444.906,835.643 445.163,834.246C445.424,832.826 445.474,831.371 445.587,829.935C445.701,828.492 445.853,827.057 446.151,825.639C446.45,824.216 446.964,822.851 447.249,821.425C447.663,819.352 448.048,816.716 447.097,814.77C446.238,813.014 444.382,811.694 442.88,810.469C440.691,808.685 438.415,806.999 436.025,805.494C434.028,804.236 432.011,803.131 429.725,802.505C427.503,801.896 425.179,801.631 422.879,801.596C420.792,801.565 418.673,801.744 416.671,802.365C416.082,802.547 415.446,802.028 415.335,801.474C415.207,800.828 415.641,800.32 416.226,800.138C418.678,799.378 421.342,799.247 423.892,799.356C426.565,799.471 429.287,799.895 431.819,800.777C434.33,801.652 436.649,803.14 438.841,804.621C441.191,806.21 443.44,807.951 445.598,809.791C447.215,811.169 448.809,812.614 449.496,814.685C450.32,817.171 449.874,820.077 449.308,822.566ZM461.63,780.197C458.094,778.501 455.126,776.008 452.332,773.29C451.891,772.861 452.014,772.064 452.447,771.689C452.938,771.264 453.609,771.377 454.047,771.804C455.527,773.244 457.058,774.63 458.732,775.842C461.75,778.027 465.178,779.45 468.835,780.155C473.71,781.095 478.68,781.371 483.625,781.684C485.085,781.777 484.919,784.04 483.462,783.948C480.555,783.764 477.647,783.591 474.749,783.29C470.285,782.826 465.715,782.156 461.63,780.197ZM504.275,826.585C504.418,824.445 503.248,822.493 501.631,821.071C498.167,818.023 492.871,816.764 488.446,818.14C486.561,818.726 485.033,819.926 484.048,821.603C483.632,822.312 483.333,823.087 483.112,823.892C483.268,823.781 483.429,823.675 483.598,823.573C485.251,822.576 487.134,821.588 489.09,821.451C490.153,821.376 491.201,821.466 492.261,821.546C493.28,821.623 494.301,821.652 495.321,821.715C497.418,821.845 499.587,822.092 501.465,823.103C502.768,823.804 504.337,825.219 504.281,826.85C504.236,828.148 503.163,828.998 502.056,829.466C499.698,830.463 497.125,830.449 494.669,831.026C493.45,831.312 492.248,831.65 490.995,831.755C490.285,831.814 489.574,831.832 488.866,831.742C488.246,831.663 487.636,831.63 487.016,831.566C485.952,831.455 485.053,830.856 484.571,829.901C484.508,829.777 484.454,829.645 484.402,829.517C484.382,829.466 484.349,829.418 484.33,829.366C484.309,829.36 484.287,829.354 484.247,829.344C484.064,829.297 483.883,829.29 483.693,829.278C483.444,829.262 483.246,829.18 483.09,829.061C482.418,829.345 481.457,828.981 481.456,828.062C480.866,828.05 480.28,827.646 480.336,826.888C480.525,824.307 481.136,821.631 482.705,819.518C485.998,815.082 492.327,814.584 497.249,816.13C501.858,817.577 506.896,821.393 506.538,826.748C506.441,828.207 504.178,828.042 504.275,826.585ZM501.087,803.732C503.316,804.027 505.584,804.522 507.624,805.492C508.18,805.756 508.536,806.313 508.314,806.941C508.125,807.477 507.419,807.895 506.865,807.632C504.716,806.61 502.341,806.124 499.986,805.887C497.459,805.632 494.873,805.647 492.378,806.156C489.906,806.66 487.545,807.78 485.293,808.886C482.821,810.1 480.421,811.465 478.094,812.937C476.615,813.872 475.091,814.908 474.461,816.552C474.038,817.656 473.933,818.854 473.876,820.025C473.806,821.442 473.894,822.85 474.106,824.252C474.551,827.191 474.335,830.063 474.156,833.013C473.983,835.869 474.554,838.574 475.094,841.362C476.211,847.136 476.325,853.059 475.923,858.912C475.823,860.371 473.559,860.206 473.659,858.749C473.892,855.364 473.979,851.96 473.737,848.573C473.617,846.881 473.439,845.188 473.173,843.512C472.914,841.884 472.541,840.278 472.258,838.654C471.998,837.167 471.818,835.657 471.836,834.146C471.854,832.624 472.028,831.103 472.103,829.583C472.174,828.144 472.181,826.707 471.972,825.279C471.748,823.752 471.573,822.231 471.589,820.684C471.612,818.381 471.877,815.82 473.352,813.945C474.774,812.137 476.919,810.975 478.859,809.815C481.382,808.307 483.982,806.915 486.679,805.743C488.932,804.764 491.21,803.943 493.66,803.657C496.121,803.369 498.63,803.406 501.087,803.732ZM493.634,771.321C495.06,770.977 495.494,773.206 494.079,773.547C487.552,775.121 480.824,773.705 474.442,772.136C473.843,771.989 473.562,771.22 473.751,770.687C473.97,770.069 474.606,769.85 475.2,769.996C481.192,771.47 487.51,772.799 493.634,771.321Z" style="fill-rule:nonzero;"/>
            <path d="M495.841,827.349C495.865,827.314 495.874,827.299 495.878,827.29L495.878,827.287C495.873,827.29 495.849,827.325 495.825,827.373C495.831,827.365 495.836,827.357 495.841,827.349Z" style="fill-rule:nonzero;"/>
            <path d="M498.151,826.886C498.179,827.332 498.102,827.785 497.931,828.2C498.398,828.121 498.864,828.037 499.326,827.935C499.635,827.866 499.943,827.792 500.248,827.705C500.376,827.669 500.502,827.631 500.628,827.591C500.643,827.586 500.65,827.584 500.658,827.582C500.66,827.582 500.66,827.582 500.661,827.581C500.711,827.563 500.762,827.545 500.812,827.526C501.06,827.429 501.305,827.326 501.539,827.198C501.579,827.176 501.737,827.068 501.752,827.063C501.801,827.022 501.849,826.98 501.9,826.944C501.921,826.93 501.93,826.922 501.942,826.913C501.964,826.886 501.985,826.86 501.983,826.852C501.982,826.848 501.993,826.83 502.004,826.814C502.006,826.805 502.008,826.797 502.011,826.791C502.011,826.787 502.01,826.783 502.011,826.778C501.999,826.821 501.982,826.828 502.011,826.772C502.012,826.762 502.011,826.754 502.012,826.744C502.01,826.732 502.007,826.717 502.002,826.7C501.994,826.679 501.984,826.653 501.98,826.644C501.927,826.538 501.873,826.434 501.811,826.334C501.79,826.315 501.665,826.149 501.641,826.12C501.535,825.994 501.425,825.868 501.306,825.754C500.734,825.207 500.009,824.862 499.265,824.616C498.469,824.353 497.642,824.204 496.807,824.109C497.544,824.872 498.085,825.818 498.151,826.886Z" style="fill-rule:nonzero;"/>
            <path d="M489.493,825.464C489.512,825.613 489.542,825.761 489.582,825.906C489.588,825.928 489.598,825.952 489.607,825.976C489.622,826.015 489.637,826.054 489.654,826.092C489.71,826.22 489.774,826.344 489.844,826.465C489.854,826.481 489.863,826.497 489.873,826.512C489.911,826.557 489.943,826.612 489.978,826.657C490.069,826.774 490.167,826.887 490.27,826.993C490.307,827.031 490.521,827.218 490.373,827.1C490.22,826.978 490.437,827.152 490.467,827.176C490.582,827.268 490.702,827.355 490.826,827.436C490.904,827.487 490.983,827.535 491.064,827.582C491.076,827.589 491.088,827.596 491.101,827.602C491.169,827.602 491.502,827.779 491.557,827.799C491.737,827.865 491.92,827.915 492.104,827.966C492.121,827.971 492.129,827.973 492.14,827.977C492.146,827.978 492.147,827.978 492.154,827.979C492.248,827.993 492.341,828.01 492.435,828.022C492.858,828.077 493.29,828.093 493.717,828.087C493.78,828.086 493.843,828.084 493.906,828.082C493.947,828.078 494.087,828.069 494.117,828.066C494.289,828.048 494.461,828.023 494.63,827.99C494.79,827.959 494.944,827.912 495.101,827.874C495.162,827.848 495.224,827.824 495.285,827.796C495.384,827.751 495.477,827.688 495.574,827.638C495.613,827.606 495.652,827.575 495.69,827.541C495.701,827.53 495.724,827.508 495.746,827.485C495.749,827.481 495.754,827.476 495.756,827.473C495.777,827.445 495.795,827.415 495.815,827.386C495.834,827.319 495.86,827.246 495.888,827.185C495.891,827.16 495.894,827.136 495.896,827.11C495.898,827.078 495.898,827.043 495.898,827.008C495.885,826.924 495.873,826.84 495.852,826.756C495.847,826.736 495.832,826.686 495.821,826.648C495.777,826.541 495.728,826.436 495.673,826.334C495.642,826.277 495.609,826.221 495.576,826.165C495.51,826.079 495.448,825.989 495.378,825.905C495.278,825.785 495.173,825.67 495.062,825.56C495.024,825.521 494.983,825.484 494.944,825.445C494.942,825.443 494.942,825.443 494.94,825.442C494.695,825.241 494.441,825.055 494.172,824.888C493.822,824.67 493.673,824.281 493.696,823.897C492.779,823.843 491.826,823.725 490.886,823.677C490.804,823.756 490.715,823.825 490.611,823.871C490.515,823.914 490.42,823.958 490.328,824.008C490.29,824.029 490.167,824.109 490.149,824.116C490.121,824.137 490.094,824.157 490.082,824.167C490.018,824.218 489.957,824.271 489.898,824.327C489.885,824.339 489.859,824.37 489.834,824.396C489.805,824.432 489.776,824.467 489.75,824.504C489.71,824.561 489.675,824.621 489.638,824.68C489.592,824.801 489.555,824.923 489.515,825.045C489.515,825.048 489.514,825.052 489.514,825.055C489.505,825.127 489.498,825.199 489.494,825.272C489.491,825.329 489.493,825.386 489.492,825.443C489.491,825.451 489.492,825.458 489.493,825.464Z" style="fill-rule:nonzero;"/>
            <path d="M375.425,778.547L375.426,778.549L375.424,778.543L375.425,778.547Z" style="fill-rule:nonzero;"/>
            <path d="M375.411,778.456C375.409,778.459 375.407,778.469 375.405,778.488C375.404,778.5 375.415,778.523 375.424,778.544C375.422,778.532 375.42,778.522 375.418,778.503C375.417,778.492 375.414,778.475 375.411,778.456Z" style="fill-rule:nonzero;"/>
            <path d="M375.432,778.568C375.432,778.564 375.431,778.559 375.431,778.555C375.429,778.553 375.427,778.551 375.426,778.549C375.429,778.556 375.429,778.561 375.432,778.568Z" style="fill-rule:nonzero;"/>
            <path d="M489.695,734.361C489.553,735.004 489.379,736.028 489.267,736.856C489.172,737.557 489.095,738.261 489.039,738.967C488.967,739.863 488.877,740.752 488.765,741.635C489.076,741.605 489.402,741.705 489.672,742.007C491.989,744.611 493.946,747.544 496.936,749.447C498.561,750.481 500.371,751.213 502.269,751.554C503.901,751.847 505.559,751.943 507.214,752.044C507.108,751.637 506.996,751.23 506.869,750.824C506.269,748.907 505.53,747.036 504.943,745.115C504.656,744.178 504.429,743.228 504.225,742.272C502.809,741.163 501.249,740.249 499.691,739.355C498.247,738.527 496.956,737.647 495.524,737.05C493.612,736.252 490.83,735.338 489.942,733.328C489.854,733.677 489.769,734.023 489.695,734.361Z" style="fill-rule:nonzero;"/>
            <path d="M492.288,732.816C492.561,733.139 493.142,733.505 493.631,733.764C494.69,734.324 495.915,734.722 497.03,735.235C498.528,735.925 499.921,736.876 501.349,737.698C502.105,738.134 502.859,738.578 503.596,739.048C503.33,737.635 503.052,736.225 502.666,734.838C502.067,732.682 501.326,730.37 499.933,728.549C499.261,727.671 498.43,726.903 497.385,726.5C496.88,726.305 496.365,726.191 495.825,726.162C495.378,726.138 495.308,726.136 494.823,726.237C494.367,726.331 494.304,726.353 493.849,726.594C493.755,726.643 493.663,726.696 493.573,726.751C493.547,726.767 493.534,726.774 493.519,726.783C493.505,726.794 493.489,726.806 493.461,726.827C493.317,726.933 493.176,727.045 493.041,727.163C492.64,727.514 492.566,727.6 492.255,728.007C491.994,728.348 491.76,728.709 491.545,729.081C491.267,729.563 491.018,730.107 490.79,730.678C491.385,730.684 491.982,731.088 491.931,731.852C491.924,731.92 491.922,731.989 491.922,732.058C491.925,732.077 491.928,732.104 491.933,732.141C491.937,732.17 492.003,732.392 491.979,732.341C492.071,732.586 492.092,732.585 492.288,732.816Z" style="fill-rule:nonzero;"/>
            <path d="M430.167,822.734C430.186,822.716 430.185,822.717 430.193,822.711C430.21,822.686 430.226,822.662 430.236,822.65C430.322,822.54 430.402,822.426 430.474,822.307C430.488,822.285 430.526,822.214 430.55,822.172C430.558,822.155 430.565,822.14 430.568,822.133C430.616,822.021 430.658,821.905 430.693,821.788C430.697,821.773 430.706,821.737 430.715,821.701C430.72,821.671 430.725,821.641 430.727,821.627C430.741,821.509 430.741,821.394 430.746,821.276C430.736,821.215 430.728,821.154 430.716,821.094C430.706,821.045 430.693,820.998 430.681,820.95C430.626,820.832 430.57,820.718 430.509,820.603C430.471,820.556 430.434,820.506 430.394,820.46C430.339,820.397 430.282,820.339 430.224,820.279C430.094,820.182 429.968,820.086 429.831,820C429.741,819.943 429.668,819.872 429.604,819.796C428.664,819.714 427.721,819.653 426.785,819.587C426.742,819.971 426.512,820.343 426.16,820.497C425.988,820.573 425.818,820.654 425.652,820.744C425.577,820.784 425.502,820.827 425.428,820.871C425.406,820.884 425.351,820.919 425.308,820.946C425.269,820.973 425.224,821.004 425.206,821.018C425.142,821.065 425.08,821.114 425.018,821.163C424.9,821.259 424.786,821.361 424.677,821.468C424.661,821.484 424.612,821.536 424.58,821.57C424.566,821.587 424.552,821.604 424.545,821.612C424.461,821.718 424.382,821.829 424.311,821.944C424.292,821.974 424.275,822.005 424.258,822.037C424.254,822.046 424.25,822.055 424.246,822.064C424.208,822.163 424.177,822.262 424.145,822.362C424.141,822.398 424.135,822.435 424.133,822.472C424.131,822.494 424.131,822.516 424.131,822.538C424.143,822.588 424.162,822.666 424.173,822.717C424.195,822.768 424.218,822.821 424.23,822.845C424.25,822.872 424.27,822.899 424.291,822.923C424.321,822.958 424.353,822.991 424.384,823.025C424.476,823.095 424.565,823.168 424.664,823.231C424.717,823.265 424.772,823.295 424.827,823.327C425.144,823.461 425.462,823.576 425.797,823.659C425.836,823.669 425.875,823.677 425.914,823.686C426.008,823.702 426.101,823.72 426.195,823.734C426.394,823.765 426.593,823.789 426.793,823.807C427.018,823.828 427.245,823.845 427.471,823.846C427.565,823.847 427.66,823.837 427.754,823.841C427.773,823.838 427.796,823.834 427.805,823.833C427.994,823.813 428.183,823.782 428.368,823.742C428.453,823.724 428.536,823.703 428.619,823.68C428.666,823.667 428.927,823.569 428.757,823.643C428.587,823.716 428.877,823.595 428.916,823.579C428.991,823.548 429.065,823.515 429.139,823.48C429.272,823.417 429.402,823.347 429.528,823.272C429.545,823.262 429.564,823.251 429.582,823.238C429.636,823.196 429.692,823.158 429.746,823.116C429.863,823.024 429.974,822.926 430.081,822.823C430.109,822.793 430.138,822.763 430.167,822.734Z" style="fill-rule:nonzero;"/>
            <path d="M427.727,823.844C427.687,823.844 427.645,823.845 427.648,823.847C427.656,823.853 427.691,823.849 427.727,823.844Z" style="fill-rule:nonzero;"/>
            <path d="M430.179,822.731C430.145,822.767 430.1,822.814 430.1,822.814C430.123,822.805 430.152,822.768 430.179,822.731Z" style="fill-rule:nonzero;"/>
            <path d="M419.836,820.42C419.685,820.529 419.543,820.652 419.405,820.776C419.288,820.881 419.247,820.925 419.244,820.928C419.167,821.019 419.101,821.119 419.038,821.221C419.028,821.245 419.011,821.284 418.994,821.324C418.993,821.334 418.99,821.349 418.988,821.364C418.99,821.368 418.991,821.373 418.994,821.377C418.993,821.379 418.998,821.386 418.999,821.389C419.018,821.339 419.039,821.271 419.007,821.409C419.02,821.435 419.038,821.465 419.043,821.473C419.05,821.485 419.052,821.49 419.054,821.496C419.067,821.508 419.082,821.522 419.104,821.543C419.123,821.561 419.201,821.643 419.239,821.684C419.287,821.723 419.376,821.798 419.4,821.816C419.613,821.976 419.841,822.113 420.073,822.244C420.125,822.274 420.179,822.302 420.232,822.33C420.249,822.338 420.262,822.344 420.295,822.36C420.415,822.417 420.536,822.473 420.658,822.526C421.077,822.71 421.503,822.873 421.932,823.028C421.83,822.506 421.863,821.953 422.064,821.409C422.358,820.617 422.906,819.956 423.564,819.423C422.652,819.442 421.747,819.555 420.904,819.867C420.53,820.007 420.159,820.188 419.836,820.42Z" style="fill-rule:nonzero;"/>
            <path d="M418.985,821.386C418.976,821.443 418.984,821.429 418.995,821.401C418.992,821.393 418.99,821.385 418.987,821.378C418.985,821.381 418.985,821.382 418.985,821.386Z" style="fill-rule:nonzero;"/>
            <path d="M487.52,747.709C487.036,749.317 486.354,750.856 485.955,752.489C485.69,753.575 485.546,754.687 485.442,755.802C493.674,757.403 501.727,760.057 508.994,764.273C508.887,763.791 508.778,763.309 508.676,762.826C508.241,760.764 508.136,758.694 507.978,756.599C507.92,755.838 507.821,755.092 507.699,754.35C505.763,754.227 503.814,754.145 501.907,753.782C499.736,753.368 497.708,752.594 495.827,751.429C492.772,749.537 490.71,746.673 488.402,744.007C488.174,745.249 487.89,746.482 487.52,747.709Z" style="fill-rule:nonzero;"/>
            <path d="M373.348,775.101C372.294,774.802 371.284,774.714 370.186,774.699C367.212,774.66 364.233,774.442 361.264,774.25C358.275,774.057 355.306,773.745 352.353,773.244C349.557,772.77 346.764,772.201 344.023,771.468C343.175,771.241 342.314,770.985 341.468,770.684C343.366,772.248 345.393,773.668 347.441,775.017C352.918,778.625 358.757,781.954 364.896,784.304C366.019,784.734 367.16,785.13 368.33,785.411C369.907,785.79 372.056,785.805 373.823,785.914C377.837,786.162 382.382,786.491 385.91,784.942C389.318,783.445 392.703,781.508 396.246,780.158C393.368,781.134 390.341,781.712 387.31,781.887C384.189,782.068 381.048,781.685 377.94,781.432C376.378,781.305 374.126,781.204 373.384,779.525C373.074,778.823 373.079,778.033 373.116,777.281C373.153,776.545 373.215,775.822 373.365,775.105C373.358,775.104 373.353,775.102 373.348,775.101Z" style="fill-rule:nonzero;"/>
            <path d="M431.333,736.679C430.398,736.672 429.489,736.742 428.569,736.532C428.075,736.419 427.601,736.239 427.138,736.035C425.923,735.5 424.736,734.829 423.697,734C423.289,733.675 422.865,733.305 422.501,732.891C422.28,736.33 421.976,739.764 421.761,743.204C424.504,744.538 426.745,746.944 429.775,747.597C432.808,748.252 435.966,748.09 439.067,748.187C438.751,747.273 438.444,746.357 438.146,745.437C437.561,743.632 437.015,741.814 436.514,739.984C436.335,739.329 436.194,738.661 436.055,737.991C434.466,737.563 433.004,736.691 431.333,736.679Z" style="fill-rule:nonzero;"/>
            <path d="M427.996,894.455C425.329,891.051 423.464,887.235 422.125,883.139C421.52,881.288 420.964,879.423 420.433,877.551C420.033,881.646 419.458,885.721 418.549,889.74C417.456,894.572 415.835,899.272 413.535,903.666C411.55,907.459 409.019,910.917 406.307,914.217C401.115,920.533 395.378,926.488 392.122,934.108C392.467,934.891 392.879,935.648 393.355,936.351C396.703,941.304 402.488,944.265 407.845,946.519C414.443,949.295 421.353,951.359 428.138,953.619C431.718,954.812 435.3,956.004 438.877,957.214C436.695,955.47 435.544,952.888 435.497,950.056C435.447,947.006 436.665,944.088 438.234,941.531C440.07,938.538 442.646,936.088 445.485,934.052C446.762,933.136 448.203,932.45 449.413,931.44C449.954,930.988 450.323,930.541 450.43,929.823C450.556,928.981 450.473,928.12 450.513,927.271C449.277,925.763 447.796,924.506 446.133,923.479C444.326,922.363 442.458,921.364 440.706,920.157C437.359,917.853 433.954,914.706 433.72,910.381C433.615,908.436 434.684,907.011 436.025,905.723C436.584,905.186 437.243,904.631 437.691,904.082C437.929,903.789 438.113,903.513 438.231,903.245C434.331,901.011 430.833,898.078 427.996,894.455Z" style="fill-rule:nonzero;"/>
            <path d="M400.585,778.89C399.531,778.935 398.378,779.37 397.408,779.741C398.45,779.388 399.508,779.098 400.585,778.89Z" style="fill-rule:nonzero;"/>
            <path d="M531.696,1015.6C524.07,1004.8 514.08,995.759 503.129,988.428C490.622,980.056 476.839,973.72 462.856,968.25C448.499,962.634 433.809,957.932 419.201,953.025C412.952,950.926 406.625,948.882 400.852,945.642C398.823,944.503 396.864,943.183 395.127,941.644C396.094,943.312 397.128,944.94 398.288,946.482C400.136,948.937 402.247,951.186 404.473,953.3C409.088,957.683 414.208,961.558 419.319,965.339C429.998,973.239 441.631,979.734 453.293,986.047C465.634,992.728 478.034,999.294 490.543,1005.65C496.612,1008.74 502.372,1012.33 508.223,1015.8C513.724,1019.06 519.143,1022.38 524.234,1026.27C526.671,1028.13 529.031,1030.09 531.314,1032.14C533.589,1034.18 535.884,1036.28 537.885,1038.59C539.969,1041 541.685,1043.72 543.168,1046.54C543.327,1046.84 543.535,1047.1 543.762,1047.35C543.071,1035.87 538.28,1024.92 531.696,1015.6Z" style="fill-rule:nonzero;"/>
            <path d="M494.781,976.72C499.608,971.949 504.45,967.004 507.915,961.119C509.492,958.442 510.776,955.504 511.344,952.436C511.937,949.235 511.774,945.992 510.871,942.865C510.65,942.098 510.261,941.351 509.969,940.605C509.646,939.78 509.28,939.048 508.808,938.298C507.789,936.679 506.796,935.045 505.835,933.391C503.979,930.201 502.24,926.943 500.664,923.605C497.619,917.156 495.162,910.378 493.78,903.37C492.847,898.639 492.44,893.806 492.609,888.992C492.309,889.671 491.993,890.344 491.645,891.004C490.804,892.601 489.732,894.088 488.525,895.472C488.481,895.729 488.354,895.979 488.163,896.185C487.51,896.893 486.778,897.51 485.996,898.052C484.945,899.013 483.849,899.915 482.733,900.74C479.407,903.199 475.721,905.097 471.802,906.412C471.642,906.466 471.48,906.512 471.319,906.564C473.437,910.874 476.797,914.576 477.993,919.312C478.427,921.031 478.433,922.853 478.444,924.618C478.456,926.501 478.391,928.397 478.126,930.263C477.898,931.868 477.578,933.697 476.562,935.018C475.146,936.862 473.217,938.301 471.23,939.473C467.189,941.856 462.607,943.186 458.277,944.931C456.084,945.815 453.874,946.695 451.58,947.284C449.486,947.821 447.33,948.069 445.172,948.007C444.562,949.249 443.675,950.425 443.718,951.816C443.761,953.178 444.414,954.509 445.111,955.664C445.522,956.344 446.067,957.032 446.71,957.506C447.911,957.424 449.092,957.071 450.171,956.38C450.69,956.048 451.443,956.395 451.691,956.898C451.983,957.491 451.689,958.088 451.174,958.417C450.556,958.813 449.906,959.112 449.238,959.333C449.182,959.886 448.78,960.409 448.068,960.372C448.06,960.371 448.053,960.37 448.045,960.37C456.003,963.162 463.908,966.102 471.678,969.387C478.789,972.394 485.834,975.685 492.628,979.416C492.598,979.105 492.69,978.777 492.972,978.5C493.576,977.907 494.179,977.315 494.781,976.72Z" style="fill-rule:nonzero;"/>
            <path d="M443.34,867.41L443.338,867.405L443.336,867.413L443.34,867.41Z" style="fill-rule:nonzero;"/>
            <path d="M422.666,729.825C423.178,729.785 423.698,730.047 423.81,730.701C423.817,730.744 423.838,730.817 423.845,730.85C423.875,730.918 423.908,730.986 423.945,731.05C423.963,731.071 424.074,731.237 424.076,731.239C424.144,731.324 424.215,731.406 424.288,731.487C424.625,731.858 425.013,732.168 425.419,732.462C426.305,733.102 427.265,733.654 428.282,734.059C429.565,734.571 430.825,734.319 432.169,734.445C433.349,734.556 434.382,735.081 435.46,735.481C435.39,735.237 435.329,734.99 435.247,734.75C434.766,733.345 433.87,732.246 432.959,731.101C432.193,730.139 431.519,729.145 430.977,728.042C430.183,726.426 429.388,724.557 428.04,723.376C426.784,722.274 424.847,722.257 423.886,723.586C422.878,724.98 422.78,726.925 422.717,728.71C422.703,729.08 422.683,729.452 422.666,729.825Z" style="fill-rule:nonzero;"/>
            <path d="M418.327,761.67C420.305,761.351 422.229,760.402 424.106,759.781C426.539,758.976 429.003,758.265 431.488,757.638C434.735,756.818 438.02,756.153 441.324,755.603C441.321,755.47 441.336,755.339 441.379,755.218C441.423,755.094 441.488,754.989 441.563,754.896C440.985,753.436 440.424,751.97 439.887,750.495C436.361,750.3 432.787,750.531 429.312,749.8C427.58,749.436 426.068,748.596 424.605,747.623C423.621,746.968 422.657,746.259 421.626,745.677C421.609,746.059 421.588,746.441 421.574,746.823C421.513,748.506 421.465,750.189 421.354,751.87C421.247,753.491 421.149,755.182 420.753,756.762C420.424,758.075 419.672,759.253 419.008,760.417C418.786,760.805 418.539,761.229 418.327,761.67Z" style="fill-rule:nonzero;"/>
            <path d="M547.876,786.363C544.476,787.004 540.991,787.2 537.543,786.891C534.737,786.639 532.197,785.614 529.547,784.744C527.596,784.104 525.619,783.851 523.585,783.661C521.892,783.503 520.29,783.385 518.69,783.783C518.374,783.862 518.086,783.964 517.819,784.105C524.232,784.453 529.632,788.485 535.654,790.461C543.094,792.902 550.794,790.864 558.277,789.747C564.888,788.761 572.239,787.884 578.1,784.411C578.351,784.262 578.781,784.009 579.132,783.72C577.087,783.649 575.04,784.157 572.999,784.251C570.728,784.356 568.406,784.032 566.146,783.841C564.015,783.661 561.889,783.502 559.766,783.242C556.037,782.786 552.192,782.137 548.422,782.473C548.468,782.777 548.59,783.075 548.688,783.394C548.92,784.15 548.929,784.865 548.724,785.628C548.624,785.999 548.24,786.294 547.876,786.363Z" style="fill-rule:nonzero;"/>
            <path d="M445.923,945.738C446.232,945.729 446.538,945.709 446.842,945.681C447.016,945.223 447.476,944.964 447.981,944.947C449.885,944.883 451.826,944.215 452.95,942.756C453.464,942.088 453.813,941.358 454.038,940.584C451.962,940.439 450.117,940.763 448.524,942.24C447.738,942.969 447.068,943.86 446.435,944.723C446.192,945.053 446.04,945.389 445.923,945.738Z" style="fill-rule:nonzero;"/>
            <path d="M454.383,938.112C454.416,936.412 453.998,934.58 453.472,932.87C453.23,932.083 452.922,931.312 452.572,930.56C452.37,931.381 451.999,932.075 451.389,932.703C450.231,933.895 448.672,934.627 447.301,935.534C444.641,937.294 442.215,939.585 440.461,942.254C438.989,944.495 437.839,947.039 437.764,949.755C437.689,952.478 438.955,954.744 441.294,956.127C441.936,956.507 442.617,956.816 443.317,957.049C443.206,956.877 443.098,956.705 442.996,956.532C442.092,954.989 441.335,953.086 441.467,951.266C441.551,950.113 442.049,949.127 442.606,948.138C442.829,947.741 443.011,947.346 443.168,946.942C443.163,946.875 443.162,946.808 443.167,946.741C443.186,946.465 443.293,946.197 443.482,946C443.534,945.814 443.585,945.627 443.63,945.433C443.882,944.345 444.512,943.499 445.188,942.634C445.988,941.613 446.818,940.592 447.891,939.846C449.876,938.464 452.004,938.135 454.375,938.329C454.376,938.256 454.382,938.185 454.383,938.112Z" style="fill-rule:nonzero;"/>
            <path d="M465.621,899.448C461.546,898.04 457.652,895.74 454.833,892.455C454.633,892.725 454.41,892.986 454.156,893.235C453.112,894.26 451.76,894.904 450.427,895.465C449.2,895.982 447.934,896.423 446.643,896.749C443.932,897.435 441.071,897.565 438.315,897.082C435.768,896.636 433.358,895.743 431.072,894.58C432.889,896.609 434.949,898.412 437.213,899.942C437.881,900.394 438.568,900.816 439.264,901.219C439.76,901.124 440.389,901.428 440.552,901.931C444.753,904.141 449.364,905.506 454.076,906.031C454.308,905.992 454.551,906.015 454.767,906.101C462.958,906.87 471.397,905.115 478.456,900.876C474.174,901.499 469.658,900.843 465.621,899.448Z" style="fill-rule:nonzero;"/>
            <path d="M469.974,1007.46C473.12,1009.78 476.344,1011.98 479.596,1014.14C485.358,1017.97 491.207,1021.67 496.866,1025.65C499.379,1027.41 501.822,1029.19 504.05,1031.31C505.688,1032.87 507.553,1034.83 509.807,1035.51C509.877,1035.53 509.947,1035.55 510.018,1035.57C510.152,1035.61 510.287,1035.64 510.425,1035.66C510.582,1035.69 510.731,1035.75 510.866,1035.82C513.127,1036.46 515.378,1037.14 517.61,1037.89C526.805,1040.97 535.758,1045.12 543.384,1051.15C543.398,1051.06 543.414,1050.96 543.424,1050.86C543.475,1050.37 543.378,1050.2 543.035,1049.84C542.573,1049.35 542.043,1048.92 541.637,1048.38C541.225,1047.83 540.945,1047.18 540.614,1046.58C539.881,1045.25 539.089,1043.95 538.213,1042.7C536.406,1040.14 534.211,1037.94 531.946,1035.79C527.491,1031.56 522.662,1027.73 517.587,1024.27C512.187,1020.59 506.47,1017.39 500.873,1014.02C494.936,1010.45 488.809,1007.32 482.653,1004.15C470.405,997.843 458.227,991.385 446.164,984.731C440.401,981.552 434.686,978.279 429.122,974.763C423.632,971.293 418.37,967.527 413.226,963.566C408.258,959.741 403.329,955.758 399.135,951.076C395.846,947.405 393.33,943.247 391.075,938.917C391.033,940.914 391.057,942.912 391.191,944.904C391.528,949.903 392.279,954.942 393.409,959.822C394.477,964.433 396.027,968.934 398.35,973.067C398.41,973.113 398.47,973.16 398.53,973.207C398.543,973.351 398.574,973.496 398.615,973.641C398.667,973.802 398.733,973.963 398.824,974.122C398.824,974.126 398.824,974.131 398.825,974.135C398.857,974.191 398.886,974.247 398.924,974.303C399.801,975.586 400.077,976.787 400.819,978.129C400.831,978.09 400.885,978.058 400.915,978.022C400.906,977.981 400.889,977.942 400.882,977.901C400.949,977.953 400.941,977.99 400.915,978.022C401.136,978.974 402.119,979.843 402.714,980.748C402.798,980.921 402.89,981.09 402.972,981.265C403.116,981.574 403.315,981.811 403.543,981.995C408.823,989.843 414.95,997.156 422.043,1003.41C426.893,1007.69 432.151,1011.36 437.73,1014.47C437.772,1014.5 437.802,1014.55 437.849,1014.59C438.674,1015.26 439.639,1015.67 440.619,1016.07C440.935,1016.56 441.168,1016.48 441.936,1016.54C442.092,1016.55 442.549,1017.03 442.709,1017.05C443.451,1017.41 444.193,1017.77 444.945,1018.11C448.173,1020.29 451.861,1020.81 455.374,1022.14C465.029,1025.36 475.001,1027.55 484.938,1029.69C491.111,1031.02 497.304,1032.33 503.441,1033.85C503.068,1033.5 502.7,1033.15 502.336,1032.8C500.085,1030.66 497.55,1028.89 495.005,1027.12C492.123,1025.1 489.195,1023.16 486.257,1021.23C480.345,1017.35 474.391,1013.53 468.692,1009.34C467.516,1008.47 468.794,1006.6 469.974,1007.46Z" style="fill-rule:nonzero;"/>
            <path d="M435.955,1037.24C438.217,1041.5 440.675,1045.66 443.193,1049.78C445.396,1053.38 447.644,1056.95 449.79,1060.58C451.915,1064.18 454.013,1067.8 456.312,1071.29C458.539,1074.67 460.8,1078.08 463.286,1081.28C464.489,1082.82 465.817,1084.24 467.126,1085.69C467.664,1086.29 468.187,1086.92 468.63,1087.6C467.99,1078.85 467.12,1070.11 465.611,1061.48C464.776,1056.7 463.741,1051.92 462.116,1047.34C460.018,1041.43 457.2,1035.79 453.886,1030.47C452.038,1027.5 450.036,1024.63 447.916,1021.86C447.354,1021.63 446.792,1021.41 446.234,1021.18C435.233,1016.59 425.325,1009.95 416.805,1001.62C408.629,993.633 401.85,984.312 396.162,974.419C396.058,974.238 396.008,974.055 395.994,973.878C394.987,971.935 393.769,968.914 393.063,966.814C391.437,961.983 390.376,956.997 389.682,951.955C389.126,947.913 388.817,943.878 388.815,939.822C385.518,948.618 382.881,957.668 380.952,966.861C378.943,976.437 377.713,986.195 377.395,995.976C377.079,1005.69 377.687,1015.43 379.472,1024.99C381.237,1034.43 384.161,1043.66 388.45,1052.27C390.608,1056.6 393.097,1060.76 395.926,1064.69C397.924,1067.46 400.143,1070.06 402.267,1072.73C404.736,1075.84 407.094,1079.03 409.518,1082.17C411.806,1085.14 414.188,1088.03 416.774,1090.75C420.089,1094.23 423.653,1097.38 427.38,1100.41C433.056,1105.02 439.006,1109.28 445.023,1113.43C453.574,1119.32 462.298,1124.97 471.071,1130.52C471.052,1130.26 471.03,1129.99 471.012,1129.72C470.675,1124.74 470.417,1119.75 470.17,1114.76C469.97,1114.76 469.76,1114.71 469.552,1114.57C468.691,1113.98 467.838,1113.39 466.995,1112.78C460.202,1107.91 453.974,1102.26 448.259,1096.16C442.63,1090.15 437.49,1083.7 432.703,1077.01C427.892,1070.29 423.327,1063.34 419.179,1056.19C414.523,1048.16 410.372,1039.78 406.66,1031.28C404.78,1026.97 403.018,1022.56 401.66,1018.06C400.34,1013.69 399.487,1009.19 399.105,1004.63C399.054,1004.02 399.338,1003.43 399.996,1003.3C400.548,1003.19 401.28,1003.58 401.332,1004.19C401.426,1005.32 401.546,1006.44 401.697,1007.56C402.935,1016.7 406.365,1025.4 410.252,1033.71C414.13,1042.01 418.178,1050.22 422.922,1058.07C427.047,1064.89 431.471,1071.55 436.195,1077.97C441.04,1084.56 446.253,1090.89 451.962,1096.75C457.494,1102.43 463.509,1107.63 470.039,1112.14C469.788,1106.99 469.541,1101.85 469.23,1096.71C469.139,1095.2 469.044,1093.68 468.946,1092.17C468.792,1092.11 468.644,1092.01 468.51,1091.86C467.765,1091.01 467.432,1090 466.869,1089.04C466.341,1088.14 465.592,1087.37 464.886,1086.61C463.332,1084.94 461.879,1083.22 460.525,1081.38C455.565,1074.67 451.281,1067.53 447.022,1060.36C442.644,1052.99 437.936,1045.82 433.916,1038.25C433.232,1036.95 435.273,1035.95 435.955,1037.24Z" style="fill-rule:nonzero;"/>
            <path d="M455.875,942.172C455.943,942.128 456.012,942.085 456.079,942.04C457.654,940.991 459.187,939.89 460.488,938.506C461.741,937.173 462.804,935.591 463.547,933.92C465.004,930.644 465.091,926.85 464.142,923.412C463.18,919.926 460.847,916.798 458.317,914.274C457.033,912.994 455.513,911.989 454.216,910.73C453.455,909.99 453.176,909.126 453.125,908.176C448.626,907.594 444.232,906.294 440.198,904.288C439.652,905.436 438.644,906.362 437.663,907.292C437.046,907.878 436.375,908.53 436.103,909.262C435.831,909.997 436.002,911.078 436.278,911.929C436.868,913.757 438.242,915.298 439.676,916.525C441.331,917.941 443.181,919.113 445.051,920.221C447.06,921.411 449.024,922.547 450.736,924.158C452.299,925.627 453.576,927.404 454.507,929.335C456.176,932.795 457.208,937.021 456.308,940.83C456.202,941.287 456.054,941.735 455.875,942.172Z" style="fill-rule:nonzero;"/>
            <path d="M473.755,934.763C474.095,934.428 474.434,934.08 474.722,933.698C474.807,933.585 474.883,933.467 474.957,933.347C475.089,933.131 475.019,933.249 475.086,933.097C475.749,931.601 475.929,929.941 476.056,928.321C476.192,926.589 476.21,924.848 476.157,923.112C476.104,921.373 475.888,919.746 475.217,918.084C473.653,914.209 470.898,910.972 469.123,907.206C464.669,908.361 460.004,908.762 455.399,908.415C455.415,908.49 455.431,908.567 455.428,908.577C455.452,908.634 455.476,908.692 455.505,908.747C455.514,908.764 455.566,908.846 455.578,908.867C455.953,909.388 456.818,909.977 457.407,910.455C459.075,911.809 460.615,913.278 461.964,914.953C464.472,918.066 466.416,921.538 466.867,925.567C467.086,927.524 467.102,929.566 466.704,931.5C466.307,933.428 465.534,935.247 464.512,936.927C463.383,938.782 461.946,940.332 460.334,941.695C464.058,940.293 467.899,939.046 471.223,936.82C472.125,936.213 472.98,935.526 473.755,934.763Z" style="fill-rule:nonzero;"/>
        </g>
    </g>
</svg>
