<?xml version="1.0" encoding="UTF-8" standalone="no"?>
<!DOCTYPE svg PUBLIC "-//W3C//DTD SVG 1.1//EN" "http://www.w3.org/Graphics/SVG/1.1/DTD/svg11.dtd">
<svg width="100%" height="100%" viewBox="0 0 281 416" version="1.1" xmlns="http://www.w3.org/2000/svg" xmlns:xlink="http://www.w3.org/1999/xlink" xml:space="preserve" xmlns:serif="http://www.serif.com/" style="fill-rule:evenodd;clip-rule:evenodd;stroke-linejoin:round;stroke-miterlimit:2;">
    <g transform="matrix(1,0,0,1,-47.64,-717.491)">
        <g>
            <path d="M325.299,910.992C323.685,909.901 322.108,908.751 320.442,907.738C318.776,906.725 317.037,905.878 315.459,904.718C314.5,904.014 313.383,903.441 312.772,902.45C311.688,902.596 310.605,902.743 309.521,902.888C309.678,903.016 309.838,903.143 310.005,903.272C310.561,903.702 311.066,904.185 311.546,904.698C312.49,905.708 313.421,906.728 314.376,907.728C316.304,909.747 318.236,911.755 320.483,913.427C320.681,913.575 320.818,913.744 320.909,913.923C323.368,913.744 325.832,913.484 328.228,912.913C327.32,912.169 326.189,911.593 325.299,910.992Z" style="fill-rule:nonzero;"/>
            <path d="M155.396,1088.89C157.3,1091.76 158.946,1094.85 160.014,1098.13C160.61,1099.96 161.054,1101.88 161.198,1103.82C161.242,1103.75 161.286,1103.68 161.33,1103.6C162.977,1100.87 164.641,1098.14 166.295,1095.4C165.488,1093.45 164.551,1091.54 163.533,1089.68C157,1077.77 146.833,1068.32 136.625,1059.58C126.037,1050.51 114.901,1041.96 105.502,1031.61C100.946,1026.6 96.867,1021.14 93.665,1015.15C92.006,1012.05 90.528,1008.8 89.551,1005.42C88.463,1001.64 87.907,997.759 87.792,993.837C87.547,985.437 89.032,977.107 91.283,969.042C93.246,962.009 95.842,955.159 98.859,948.511C98.151,948.615 97.442,948.715 96.732,948.811C96.707,948.861 96.674,948.91 96.641,948.957C97.008,949.41 97.139,950.058 96.72,950.673C94.116,954.503 91.71,958.464 89.644,962.612C86.172,969.58 83.635,977.054 82.927,984.838C82.326,991.445 83.14,998.133 85.238,1004.42C89.85,1018.26 99.629,1029.79 109.632,1040.09C115.495,1046.13 121.659,1051.87 127.846,1057.57C134.825,1064 141.378,1070.89 147.371,1078.25C150.166,1081.69 152.944,1085.2 155.396,1088.89Z" style="fill-rule:nonzero;"/>
            <path d="M309.306,906.455C308.423,905.51 307.276,904.886 306.479,903.847C306.349,903.678 306.269,903.505 306.223,903.333C303.695,903.673 301.168,904.015 298.64,904.356C298.65,904.363 298.661,904.369 298.671,904.377C299.217,904.778 299.676,905.277 300.143,905.764C301.116,906.78 302.249,907.542 303.324,908.434C304.488,909.401 305.508,910.531 306.564,911.611C307.039,912.097 307.46,912.597 307.851,913.153C308.202,913.652 308.542,914.188 309,914.596C309.151,914.73 309.274,914.888 309.367,915.057C311.888,914.692 314.399,914.413 316.93,914.208C315.297,912.786 313.792,911.22 312.297,909.654C311.289,908.597 310.303,907.523 309.306,906.455Z" style="fill-rule:nonzero;"/>
            <path d="M99.547,930.376C99.621,930.376 99.753,930.369 99.547,930.376Z" style="fill-rule:nonzero;"/>
            <path d="M100.864,931.636C100.796,931.403 100.703,931.182 100.615,930.956C100.592,930.897 100.56,930.84 100.532,930.783C100.531,930.78 100.531,930.78 100.529,930.778C100.498,930.737 100.422,930.648 100.372,930.585C100.337,930.565 100.284,930.529 100.243,930.497C100.173,930.481 100.056,930.44 100.077,930.434C99.972,930.417 99.868,930.401 99.762,930.388C99.688,930.378 99.61,930.378 99.535,930.376C99.527,930.376 99.523,930.376 99.515,930.377C99.325,930.384 99.134,930.398 98.944,930.416C97.925,930.509 96.907,930.679 95.897,930.838C93.119,931.278 90.49,932.239 87.837,933.133C87.838,934.559 88.277,935.986 88.499,937.389C91.817,936.934 95.154,936.547 98.463,936.042C98.88,935.978 99.479,935.873 99.771,935.789C99.778,935.787 100.107,935.675 100.219,935.63C100.293,935.6 100.581,935.46 100.611,935.45C100.623,935.437 100.775,935.324 100.881,935.235C100.841,935.252 101.049,934.987 101.006,935.085C101.187,934.76 101.18,934.668 101.215,934.277C101.254,933.839 101.194,933.389 101.12,932.92C101.059,932.527 100.926,931.854 100.864,931.636Z" style="fill-rule:nonzero;"/>
            <path d="M298.01,894.847C297.817,895.209 297.615,895.565 297.397,895.911C299.824,895.574 302.251,895.242 304.678,894.904C304.679,894.9 304.68,894.897 304.681,894.893C305.183,893.646 306.148,892.705 306.756,891.521C307.406,890.255 308.056,888.993 308.726,887.738C309.744,885.831 310.773,883.921 311.962,882.115C309.467,882.607 306.968,882.969 304.453,883.312C304.41,883.503 304.335,883.69 304.224,883.861C303.873,884.406 303.688,885.052 303.469,885.659C303.238,886.301 302.952,886.889 302.625,887.488C301.918,888.781 301.251,890.107 300.409,891.321C299.592,892.502 298.691,893.571 298.01,894.847Z" style="fill-rule:nonzero;"/>
            <path d="M309.282,892.813C308.986,893.372 308.6,893.889 308.23,894.412C309.265,894.268 310.301,894.126 311.337,893.982C311.776,893.085 312.556,892.333 313.185,891.532C314.365,890.031 315.789,888.785 317.087,887.396C318.451,885.937 319.689,884.367 320.984,882.849C321.656,882.062 322.544,881.24 323.196,880.32C320.736,880.412 318.296,880.819 315.877,881.309C315.838,881.507 315.752,881.708 315.6,881.904C313.884,884.118 312.562,886.57 311.247,889.033C310.578,890.287 309.946,891.559 309.282,892.813Z" style="fill-rule:nonzero;"/>
            <path d="M100.841,939.832C100.916,939.832 101.043,939.825 100.841,939.832Z" style="fill-rule:nonzero;"/>
            <path d="M313.161,898.353C313.08,897.798 313.005,897.242 312.929,896.686C312.827,896.726 312.72,896.758 312.603,896.774C312.449,896.795 312.29,896.781 312.134,896.748C302.612,898.074 293.088,899.392 283.565,900.712C283.691,901.635 283.817,902.558 283.943,903.48C293.751,902.155 303.558,900.817 313.367,899.498C313.292,899.117 313.217,898.737 313.161,898.353Z" style="fill-rule:nonzero;"/>
            <path d="M295.33,893.85C296.073,892.453 296.945,891.22 297.887,889.956C298.779,888.758 299.437,887.411 300.155,886.107C300.564,885.364 300.837,884.569 301.148,883.79C298.986,884.157 296.84,884.707 294.932,885.806C293.785,886.467 292.762,887.354 291.946,888.394C290.927,889.693 290.413,891.288 289.558,892.69C288.761,893.997 288.044,895.313 287.172,896.575C286.977,896.856 286.785,897.134 286.588,897.406C288.97,897.076 291.351,896.748 293.733,896.418C294.037,895.46 294.85,894.752 295.33,893.85Z" style="fill-rule:nonzero;"/>
            <path d="M301.261,910.427C299.984,909.439 298.806,908.45 297.68,907.286C296.857,906.435 295.698,905.977 295.268,904.812C292.764,905.15 290.26,905.487 287.755,905.825C288.376,906.275 288.965,906.784 289.587,907.275C290.95,908.35 292.235,909.665 293.414,910.942C294.493,912.111 295.424,913.285 296.819,914.105C297.958,914.775 299.233,915.205 300.533,915.425C302.363,915.735 304.212,915.681 306.05,915.493C305.516,914.8 305.02,914.078 304.401,913.447C303.384,912.41 302.413,911.319 301.261,910.427Z" style="fill-rule:nonzero;"/>
            <path d="M98.258,920.943C98.332,920.943 98.461,920.936 98.258,920.943Z" style="fill-rule:nonzero;"/>
            <path d="M75.566,932.055C79.091,931.573 82.617,931.091 86.142,930.609C86.257,930.593 86.365,930.59 86.468,930.597C86.492,930.589 86.517,930.58 86.542,930.572C86.26,930.375 86.072,930.074 85.989,929.74C85.294,929.818 84.551,929.46 84.426,928.569C84.394,928.341 84.356,928.113 84.317,927.886C80.976,928.349 77.634,928.812 74.293,929.275C73.955,929.322 73.667,929.262 73.433,929.132C73.189,929.176 72.949,929.204 72.711,929.221C72.933,930.333 73.213,931.432 73.483,932.534C73.76,932.473 74.042,932.423 74.335,932.396C74.495,932.382 74.639,932.397 74.777,932.425C74.967,932.237 75.228,932.102 75.566,932.055Z" style="fill-rule:nonzero;"/>
            <path d="M160.673,1110.19C160.549,1110.4 160.357,1110.54 160.14,1110.63C159.232,1112.72 157.795,1114.54 155.911,1115.9C153.017,1118 149.533,1118.96 146.384,1120.58C143.829,1121.89 141.206,1124.17 142.093,1127.36C142.981,1130.55 146.254,1132.47 149.381,1132.72C153.449,1133.05 157.492,1131.13 160.554,1128.58C166.243,1123.86 169.024,1116.63 169.177,1109.36C169.253,1105.73 168.625,1102.21 167.543,1098.81C165.251,1102.61 162.95,1106.39 160.673,1110.19Z" style="fill-rule:nonzero;"/>
            <path d="M102.773,924.758C102.762,925.12 102.73,925.479 102.649,925.828C102.441,926.724 102.009,927.4 101.434,927.914C101.742,928.052 102.023,928.258 102.287,928.501C102.432,928.422 102.596,928.36 102.79,928.333C118.182,926.183 133.575,924.042 148.97,921.911C176.389,918.115 203.812,914.35 231.238,910.611C247.864,908.345 264.493,906.108 281.121,903.861C280.995,902.941 280.87,902.022 280.744,901.102C276.43,901.7 272.117,902.302 267.803,902.898C240.507,906.67 213.206,910.415 185.903,914.133C158.602,917.85 131.296,921.541 103.987,925.204C103.449,925.276 103.04,925.076 102.773,924.758Z" style="fill-rule:nonzero;"/>
            <path d="M100.807,939.833C100.617,939.84 100.426,939.854 100.236,939.871C99.217,939.964 98.199,940.134 97.189,940.293C94.411,940.732 91.782,941.694 89.129,942.588C89.13,944.014 89.569,945.441 89.791,946.844C93.109,946.39 96.446,946.002 99.755,945.497C99.964,945.465 100.219,945.423 100.458,945.378C100.768,945.118 101.158,945.032 101.535,945.076C101.647,945.027 101.963,944.873 101.899,944.912C101.862,944.934 102.054,944.793 102.175,944.692C102.135,944.709 102.343,944.443 102.3,944.542C102.481,944.217 102.474,944.125 102.509,943.734C102.548,943.296 102.488,942.846 102.414,942.377C102.352,941.982 102.219,941.309 102.156,941.092C102.088,940.859 101.995,940.638 101.907,940.412C101.884,940.353 101.852,940.296 101.824,940.239C101.823,940.236 101.823,940.236 101.821,940.233C101.79,940.192 101.714,940.103 101.664,940.041C101.629,940.021 101.576,939.985 101.535,939.953C101.465,939.937 101.348,939.896 101.369,939.89C101.264,939.873 101.16,939.857 101.054,939.844C100.98,939.835 100.902,939.835 100.828,939.832C100.82,939.833 100.816,939.833 100.807,939.833Z" style="fill-rule:nonzero;"/>
            <path d="M56.295,931.359C58.831,931.042 61.36,930.672 63.893,930.33C65.15,930.161 66.418,930.031 67.666,929.806C68.392,929.675 69.101,929.403 69.817,929.196C69.791,929.057 69.769,928.917 69.746,928.777C68.986,928.497 68.254,928.108 67.55,927.637C66.857,927.174 66.203,926.655 65.518,926.181C64.825,925.701 64.477,925.489 63.671,925.185C63.346,925.062 63.524,925.109 63.178,925.05C62.978,925.016 62.779,924.988 62.577,924.973C62.389,924.959 61.933,924.988 61.567,925.054C60.324,925.278 59.123,925.969 58.023,926.569C55.262,928.075 52.637,929.853 49.932,931.46C49.317,931.825 48.703,932.192 48.088,932.558C48.348,932.506 48.607,932.452 48.866,932.403C51.326,931.94 53.814,931.669 56.295,931.359Z" style="fill-rule:nonzero;"/>
            <path d="M70.439,932.003C70.182,932.087 69.925,932.176 69.663,932.25C69.086,932.413 68.504,932.548 67.913,932.651C66.709,932.86 65.49,932.987 64.279,933.15C61.746,933.491 59.217,933.862 56.681,934.179C54.2,934.489 51.711,934.76 49.253,935.224C48.714,935.326 48.177,935.435 47.64,935.544C49.051,935.92 50.459,936.306 51.87,936.68C54.956,937.498 57.999,938.564 61.131,939.195C62.269,939.424 63.391,939.641 64.534,939.433C65.165,939.318 65.791,938.985 66.336,938.541C66.922,938.063 67.311,937.585 67.862,936.893C68.364,936.263 68.848,935.617 69.397,935.027C69.853,934.537 70.342,934.102 70.864,933.728C70.855,933.694 70.843,933.661 70.835,933.626C70.706,933.085 70.572,932.544 70.439,932.003Z" style="fill-rule:nonzero;"/>
            <path d="M99.574,922.203C99.506,921.97 99.413,921.749 99.325,921.523C99.302,921.464 99.27,921.407 99.242,921.35C99.241,921.347 99.241,921.347 99.239,921.345C99.208,921.304 99.132,921.215 99.082,921.152C99.047,921.132 98.994,921.096 98.953,921.064C98.883,921.048 98.766,921.007 98.787,921.001C98.682,920.984 98.578,920.968 98.471,920.955C98.397,920.945 98.319,920.946 98.245,920.943C98.237,920.943 98.233,920.943 98.224,920.944C98.034,920.951 97.844,920.965 97.654,920.982C96.635,921.075 95.617,921.245 94.607,921.405C91.829,921.844 89.2,922.805 86.547,923.7C86.547,924.32 86.627,924.941 86.741,925.559C86.882,925.825 86.941,926.136 86.917,926.438C87.024,926.947 87.129,927.453 87.209,927.956C90.527,927.501 93.863,927.114 97.173,926.609C97.59,926.545 98.189,926.44 98.481,926.356C98.488,926.354 98.817,926.242 98.929,926.197C99.003,926.167 99.291,926.027 99.321,926.017C99.333,926.004 99.485,925.891 99.591,925.802C99.551,925.819 99.759,925.553 99.716,925.652C99.897,925.327 99.89,925.235 99.925,924.844C99.964,924.406 99.904,923.956 99.83,923.487C99.77,923.093 99.637,922.42 99.574,922.203Z" style="fill-rule:nonzero;"/>
            <path d="M91.224,909.479C91.921,909.329 92.621,909.194 93.327,909.077C91.534,906.931 89.793,904.741 88.115,902.502C83.021,895.702 78.419,888.442 74.915,880.688C71.592,873.334 69.223,865.372 69.251,857.246C69.274,850.415 71.019,843.513 73.357,837.131C75.727,830.662 78.931,824.535 82.457,818.628C89.623,806.625 98.219,795.556 105.551,783.659C111.857,773.427 117.543,762.013 119.02,749.924C116.677,747.741 114.334,745.557 111.991,743.373C112.932,748.403 111.838,753.968 110.35,758.634C109.014,762.824 107.287,766.924 105.537,770.955C103.677,775.239 101.659,779.455 99.492,783.592C95.271,791.65 90.315,799.266 85.654,807.069C81.509,814.01 77.519,821.062 74.085,828.387C68.246,840.843 63.798,854.63 65.802,868.534C68.117,884.594 78.818,897.593 90.854,907.769C91.434,908.262 91.472,908.938 91.224,909.479Z" style="fill-rule:nonzero;"/>
            <path d="M92.838,730.717C96.263,731.459 99.82,731.457 103.162,732.592C103.724,732.783 104.262,733.017 104.783,733.277L104.807,733.28C104.807,733.28 104.821,733.293 104.824,733.297C106.774,734.279 108.43,735.726 109.662,737.534C109.843,737.577 110.013,737.661 110.155,737.793C111.555,739.098 112.955,740.402 114.355,741.706C116.017,743.255 117.68,744.804 119.342,746.353C119.343,746.332 119.346,746.311 119.347,746.29C119.692,739.25 117.773,731.892 113.416,726.282C108.933,720.51 100.766,715.806 93.295,718.071C90.106,719.038 87.204,721.788 87.136,725.309C87.074,728.546 90.07,730.118 92.838,730.717Z" style="fill-rule:nonzero;"/>
            <path d="M98.281,912.747C98.213,912.514 98.12,912.293 98.032,912.067C98.009,912.008 97.977,911.95 97.949,911.894C97.948,911.891 97.948,911.891 97.946,911.889C97.915,911.848 97.839,911.759 97.789,911.696C97.754,911.676 97.701,911.64 97.66,911.608C97.601,911.594 97.511,911.564 97.493,911.55C96.982,912.022 96.152,912.183 95.526,911.627C94.787,911.72 94.048,911.832 93.315,911.948C90.537,912.388 87.908,913.349 85.255,914.243C85.256,915.669 85.695,917.096 85.917,918.499C89.235,918.044 92.572,917.657 95.881,917.152C96.298,917.088 96.897,916.983 97.189,916.899C97.196,916.897 97.525,916.785 97.637,916.74C97.711,916.71 97.999,916.57 98.029,916.56C98.041,916.547 98.193,916.434 98.299,916.345C98.259,916.362 98.467,916.096 98.424,916.195C98.605,915.87 98.598,915.778 98.633,915.387C98.672,914.949 98.612,914.499 98.538,914.03C98.477,913.637 98.344,912.964 98.281,912.747Z" style="fill-rule:nonzero;"/>
            <g transform="matrix(0.6886,-0.7251,0.7251,0.6886,-535.068,402.673)">
                <rect x="200.937" y="712.562" width="0.752" height="223.547"/>
            </g>
            <g transform="matrix(0.5095,-0.8605,0.8605,0.5095,-750.064,684.517)">
                <rect x="113.576" y="999.755" width="223.547" height="0.752"/>
            </g>
        </g>
    </g>
</svg>
