<?xml version="1.0" encoding="UTF-8" standalone="no"?>
<!DOCTYPE svg PUBLIC "-//W3C//DTD SVG 1.1//EN" "http://www.w3.org/Graphics/SVG/1.1/DTD/svg11.dtd">
<svg width="100%" height="100%" viewBox="0 0 262 284" version="1.1" xmlns="http://www.w3.org/2000/svg" xmlns:xlink="http://www.w3.org/1999/xlink" xml:space="preserve" xmlns:serif="http://www.serif.com/" style="fill-rule:evenodd;clip-rule:evenodd;stroke-linejoin:round;stroke-miterlimit:2;">
    <g transform="matrix(1,0,0,1,-438.214,-54.026)">
        <g>
            <path d="M508.129,186.518C507.645,186.088 506.555,185.894 505.799,185.815C504.818,185.712 503.823,185.707 502.838,185.757C500.456,185.877 498.225,186.732 496.023,187.584C494.912,188.014 493.796,188.411 492.66,188.771C491.555,189.121 490.556,189.703 489.583,190.324C488.614,190.943 487.674,191.609 486.674,192.178C485.581,192.8 484.419,193.255 483.225,193.644C482.124,194.002 481.037,194.344 480.061,194.986C479.097,195.621 478.148,196.198 477.08,196.643C476.104,197.05 475.137,197.388 474.212,197.91C473.276,198.439 472.386,199.043 471.47,199.604C469.461,200.834 467.324,201.694 464.936,201.679C463.588,201.671 462.295,201.547 460.956,201.779C459.647,202.006 458.34,202.286 457.005,202.301C455.435,202.319 453.864,202.279 452.293,202.23C452.364,202.284 452.433,202.34 452.506,202.39C454.878,204.032 458.029,204.277 460.825,204.344C464.187,204.424 467.54,204.113 470.896,203.963C474.874,203.786 478.816,203.877 482.717,202.931C486.214,202.083 489.365,200.465 492.357,198.495C494.112,197.339 495.81,196.099 497.501,194.852C499.547,193.343 501.573,192.191 503.951,191.29C504.937,190.916 505.937,190.567 506.84,190.009C507.705,189.474 508.37,188.83 509.455,188.803C509.537,188.801 509.617,188.807 509.698,188.811C509.602,188.633 509.499,188.452 509.409,188.298C509.174,187.899 508.922,187.509 508.651,187.133C508.48,186.895 508.41,186.768 508.129,186.518Z" style="fill-rule:nonzero;"/>
            <path d="M572.858,295.005C572.808,295.045 572.645,295.154 572.615,295.173C572.437,295.286 572.281,295.401 572.125,295.542C571.838,295.803 571.59,296.093 571.386,296.366C570.779,297.184 570.215,297.967 569.381,298.573C568.378,299.302 567.148,299.675 565.966,300.006C563.417,300.721 560.76,301.111 558.122,301.304C555.376,301.504 552.696,301.386 550.038,300.615C547.507,299.881 545.119,298.752 542.694,297.733C543.953,302.225 545.815,306.827 549.844,309.29C551.172,310.102 552.629,310.611 554.154,310.909C556.738,311.414 559.392,311.672 562.011,311.922C567.726,312.467 573.467,312.596 579.198,312.877C584.355,313.13 589.479,312.802 594.397,311.085C597.521,309.995 600.402,308.116 602.339,305.397C604.119,302.899 605.167,300.026 605.873,297.031C605.394,297.507 604.723,297.803 604.117,298.058C603.203,298.442 602.261,298.746 601.307,299.015C599.448,299.54 597.547,299.972 595.629,300.219C594.749,300.332 593.86,300.313 592.974,300.328C591.453,300.353 589.939,300.327 588.43,300.109C585.581,299.697 582.642,299.679 579.835,299.016C578.592,298.723 577.293,298.298 576.313,297.45C575.539,296.781 574.951,295.811 574.331,295.002C574.304,294.967 574.284,294.941 574.267,294.92C574.146,294.923 574.003,294.908 573.915,294.912C573.714,294.922 573.513,294.937 573.312,294.954C573.223,294.962 572.783,295.024 572.89,294.997C573.02,294.966 572.923,294.986 572.858,295.005Z" style="fill-rule:nonzero;"/>
            <path d="M630.627,328.232C633.015,325.32 634.394,321.5 635.27,317.789C636.123,314.175 636.344,310.324 635.645,306.767C634.348,300.175 630.323,294.719 626.74,289.101C624.807,286.072 623.014,282.964 621.621,279.646C620.23,276.333 619.327,272.871 618.9,269.315C618.842,269.356 618.782,269.397 618.724,269.438C617.187,270.533 615.654,271.654 614.333,273.011C613.123,274.254 612.457,275.549 611.976,277.198C609.937,284.187 609.866,291.549 608.061,298.583C607.25,301.741 606.015,304.814 604.003,307.404C601.774,310.273 598.703,312.239 595.308,313.464C590.401,315.234 585.08,315.713 579.905,315.464C574.054,315.182 568.19,315.049 562.355,314.507C559.528,314.244 556.69,313.928 553.891,313.446C552.308,313.174 550.767,312.674 549.338,311.934C546.634,310.534 544.542,308.209 543.075,305.572C539.871,299.813 539.049,293.033 537.34,286.758C536.498,283.669 535.48,280.585 533.783,277.849C531.382,273.977 527.57,271.178 523.727,268.86C523.236,268.564 522.744,268.266 522.256,267.965C522.447,269.241 522.456,270.548 522.313,271.85C521.157,282.399 513.895,290.588 509.718,299.961C507.882,304.081 506.741,308.56 507.539,313.065C508.332,317.543 510.239,321.852 512.831,325.574C514.015,327.274 515.398,328.876 517.016,330.178C518.711,331.542 520.696,332.625 522.661,333.545C526.841,335.503 531.44,336.591 536.007,337.152C545.831,338.358 555.763,337.47 565.604,336.981C569.885,336.768 574.165,336.653 578.451,336.793C582.186,336.915 585.917,337.147 589.65,337.334C597.35,337.718 605.24,338.05 612.861,336.87C619.555,335.835 626.249,333.568 630.627,328.232Z" style="fill-rule:nonzero;"/>
            <path d="M671.511,200.97C670.479,200.504 669.402,200.16 668.359,199.722C666.138,198.79 664.109,197.494 661.962,196.413C660.048,195.449 658.053,194.632 656.234,193.488C654.364,192.311 652.962,190.703 651.398,189.176C649.825,187.64 647.843,186.465 646.029,185.23C644.191,183.979 642.257,182.871 640.049,182.452C638.975,182.248 637.872,182.221 636.781,182.214C635.919,182.209 634.997,182.145 634.17,182.439C634.029,182.489 634.077,182.466 633.877,182.588C633.717,182.686 633.706,182.704 633.695,182.713C633.486,182.891 633.299,183.093 633.112,183.293C632.844,183.579 632.575,183.858 632.296,184.127C632.595,184.339 632.86,184.598 633.166,184.796C633.571,185.058 634.075,185.13 634.512,185.336C634.974,185.553 635.386,185.863 635.777,186.188C636.638,186.904 637.322,187.803 638.021,188.67C638.811,189.65 639.601,190.611 640.316,191.649C641.815,193.825 643.603,195.7 645.506,197.529C649.346,201.22 653.636,204.515 658.483,206.774C658.675,206.864 658.871,206.946 659.062,207.037C659.072,207.042 659.076,207.044 659.083,207.047C659.16,207.078 659.237,207.109 659.315,207.138C659.532,207.22 659.752,207.294 659.973,207.365C660.53,207.544 661.095,207.697 661.662,207.839C663.101,208.199 664.558,208.483 666.019,208.733C669.555,209.338 673.134,209.732 676.718,209.889C678.43,209.964 680.147,209.983 681.858,209.887C683.289,209.807 684.328,209.721 685.713,209.329C685.977,209.255 686.235,209.168 686.491,209.07C686.525,209.055 686.559,209.041 686.591,209.024C686.695,208.968 686.801,208.919 686.904,208.859C687.089,208.751 687.261,208.619 687.424,208.478C682.817,207.463 678.872,204.619 674.704,202.53C673.645,202.001 672.591,201.458 671.511,200.97Z" style="fill-rule:nonzero;"/>
            <path d="M688.385,203.38C687.402,199.573 685.092,196.217 683.207,192.817C681.522,189.777 679.929,186.715 677.723,184.02C673.568,178.943 668.095,175.668 661.842,173.747C657.946,172.55 653.918,171.806 649.884,171.257C647.569,170.942 645.246,170.73 642.923,170.491C640.877,170.281 638.84,169.782 637.061,168.714C635.292,167.651 633.87,166.061 633.036,164.172C632.502,162.962 632.233,161.757 632.06,160.449C631.88,159.086 631.45,157.875 630.895,156.623C629.96,154.516 629.212,152.338 628.19,150.27C627.328,148.525 626.338,146.841 625.198,145.262C623.011,142.232 620.272,139.835 617.176,138.008C617.089,138.544 617.001,139.08 616.933,139.62C616.69,141.562 616.67,143.482 616.185,145.394C615.778,147.001 615.147,148.574 614.298,149.999C612.688,152.7 610.287,154.837 607.547,156.349C604.364,158.106 600.823,159.081 597.273,159.761C592.315,160.711 587.267,161.102 582.225,161.204C577.193,161.306 572.162,161.137 567.131,161.036C562.119,160.936 557.107,161.018 552.095,160.967C545.022,160.895 537.612,159.606 531.594,155.682C528.602,153.731 526.054,151.174 524.145,148.152C523.111,146.516 522.181,144.704 521.6,142.854C520.984,140.891 521.084,138.798 520.636,136.808C519.412,137.678 518.302,138.772 517.346,139.81C515.968,141.306 514.843,143.004 513.93,144.819C512.107,148.446 511.224,152.462 510.263,156.38C509.767,158.4 509.256,160.418 508.623,162.401C508.105,164.023 507.655,166.127 506.338,167.309C503.916,169.483 499.855,169.173 496.85,168.949C493.116,168.67 489.45,168.196 485.714,168.865C480.589,169.783 476.576,172.798 472.379,175.688C471.271,176.451 470.214,177.297 469.087,178.03C468.176,178.622 467.288,179.143 466.504,179.902C465.656,180.722 464.744,181.475 463.835,182.225C461.158,184.432 458.439,186.592 455.899,188.959C453.792,190.923 451.17,193.328 450.192,196.041C449.963,196.678 449.898,196.952 449.924,197.553C449.952,198.201 450.112,198.853 450.312,199.467C450.329,199.518 450.35,199.566 450.368,199.616C451.478,199.645 452.589,199.674 453.699,199.7C455.225,199.736 456.802,199.862 458.32,199.661C459.889,199.453 461.412,199.032 463.007,199.059C464.521,199.085 465.946,199.227 467.413,198.763C469.495,198.105 471.218,196.646 473.109,195.606C474.133,195.043 475.225,194.695 476.29,194.229C477.331,193.774 478.207,193.093 479.183,192.53C480.303,191.884 481.552,191.513 482.772,191.111C483.949,190.723 485.026,190.215 486.079,189.562C487.119,188.917 488.115,188.201 489.172,187.583C490.285,186.933 491.448,186.492 492.67,186.098C495.026,185.338 497.269,184.241 499.683,183.662C501.787,183.157 504.028,183.04 506.176,183.309C507.206,183.438 508.251,183.636 509.166,184.153C509.888,184.56 510.375,185.186 510.852,185.846C511.199,186.328 511.588,186.885 511.922,187.48C514.569,185.175 517.725,183.696 521.243,183.424C524.461,183.175 527.7,183.959 530.719,185.008C533.999,186.148 537.148,187.628 540.361,188.938C541.979,189.598 543.615,190.22 545.285,190.734C546.615,191.143 548.037,191.317 549.341,191.786C553.524,193.291 555.504,198.109 556.707,202.022C558.515,207.904 559.141,214.181 559.378,220.307C559.632,226.866 559.336,233.456 558.418,239.956C558.321,240.642 557.446,241.011 556.849,240.847C556.125,240.648 555.862,239.959 555.958,239.278C556.936,232.358 557.131,225.286 556.731,218.313C556.408,212.667 555.723,206.896 553.864,201.527C553.479,200.417 553.149,199.594 552.622,198.564C552.371,198.075 552.1,197.595 551.803,197.133C551.684,196.949 551.561,196.767 551.434,196.588C551.394,196.532 551.353,196.477 551.312,196.421C551.285,196.386 551.191,196.264 551.18,196.25C550.88,195.889 550.565,195.542 550.216,195.226C550.158,195.174 549.855,194.93 549.86,194.927C549.747,194.845 549.634,194.764 549.516,194.689C549.325,194.567 549.126,194.464 548.927,194.357C548.902,194.344 548.824,194.309 548.779,194.29C548.726,194.269 548.673,194.248 548.62,194.229C548.188,194.078 547.739,194.004 547.293,193.906C540.77,192.475 534.973,188.952 528.622,187.001C525.839,186.146 522.842,185.577 519.943,186.153C517.09,186.719 514.719,188.273 512.7,190.269C512.691,190.38 512.693,190.491 512.671,190.6C512.65,190.706 512.619,190.8 512.582,190.886C512.783,191.401 512.854,191.975 512.746,192.566C512.513,193.843 511.831,195.031 511.523,196.297C511.256,197.391 511.336,198.624 511.274,199.744C511.106,202.765 510.898,205.784 510.743,208.806C510.597,211.65 510.424,214.527 510.539,217.374C510.646,220.029 511.186,222.64 511.766,225.226C512.374,227.94 513.043,230.64 513.462,233.393C513.893,236.222 514.177,239.073 514.315,241.931C514.455,244.831 514.22,247.774 514.503,250.661C514.757,253.264 515.448,255.917 516.374,258.361C517.917,262.434 521.468,264.515 525.016,266.656C528.985,269.051 532.826,271.924 535.48,275.783C539.196,281.186 540.268,288.006 541.796,294.246C541.864,294.525 541.934,294.808 542.004,295.092C542.264,294.971 542.554,294.932 542.823,295.043C545.702,296.226 548.522,297.628 551.557,298.382C554.359,299.078 557.274,298.901 560.117,298.561C561.375,298.41 562.628,298.19 563.864,297.908C564.997,297.649 566.212,297.384 567.263,296.877C568.053,296.496 568.587,295.905 569.052,295.262C569.663,294.418 570.293,293.675 571.16,293.082C571.966,292.53 572.745,292.438 573.697,292.376C574.733,292.308 575.441,292.501 576.203,293.265C576.917,293.981 577.315,295.026 578.121,295.648C578.999,296.326 580.328,296.545 581.388,296.74C582.695,296.981 584.024,297.057 585.346,297.17C586.843,297.298 588.319,297.599 589.813,297.717C591.216,297.828 592.626,297.785 594.031,297.757C594.439,297.749 594.844,297.75 595.251,297.715C595.297,297.711 595.432,297.693 595.489,297.686C595.612,297.668 595.735,297.65 595.858,297.63C597.548,297.355 599.226,296.964 600.87,296.488C601.638,296.266 602.407,296.027 603.147,295.721C603.168,295.71 603.468,295.576 603.541,295.539C603.668,295.476 603.791,295.406 603.915,295.337C603.951,295.317 604.025,295.265 604.079,295.229C604.128,295.184 604.177,295.14 604.22,295.089C604.667,294.561 605.568,294.633 606.024,295.089C606.113,295.178 606.178,295.275 606.233,295.376C606.822,292.363 607.142,289.275 607.561,286.355C608.067,282.825 608.655,279.29 609.712,275.878C610.859,272.176 613.853,269.818 616.887,267.632C618.17,266.708 619.534,265.851 620.701,264.78C621.361,264.174 621.577,263.773 622.082,262.938C622.756,261.825 623.371,260.678 623.949,259.513C625.014,257.369 625.985,255.175 626.999,253.006C627.578,251.768 628.103,250.537 628.353,249.185C628.706,247.273 628.711,245.274 628.782,243.338C628.883,240.583 628.899,237.826 628.944,235.07C628.991,232.181 629.064,229.29 629.292,226.408C629.511,223.633 630.005,220.912 630.363,218.155C631.105,212.438 631.138,206.651 630.706,200.908C630.535,198.633 630.271,196.36 629.853,194.116C629.687,194.014 629.535,193.867 629.417,193.653C626.048,187.555 617.646,187.556 611.611,188.182C605.923,188.771 600.032,190.435 595.689,194.325C593.379,196.394 591.633,198.96 590.406,201.801C588.957,205.156 587.709,208.638 586.828,212.187C586.199,214.72 585.799,217.232 585.732,219.838C585.704,220.928 585.732,222.018 585.808,223.105C585.876,224.085 586.024,225.408 586.128,226.152C586.814,231.07 587.7,235.917 587.776,240.901C587.801,242.546 585.249,242.541 585.225,240.901C585.179,237.877 584.888,234.832 584.455,231.945C584.068,229.366 583.6,226.796 583.349,224.199C582.812,218.643 583.705,213.17 585.411,207.878C586.019,205.993 586.712,204.136 587.458,202.302C588.177,200.535 588.933,198.799 589.96,197.186C591.686,194.474 593.96,192.172 596.64,190.4C601.926,186.907 608.513,185.63 614.756,185.406C619.419,185.239 624.725,185.888 628.474,188.737C628.271,187.786 628.18,186.818 628.352,185.801C628.451,185.218 628.834,184.938 629.27,184.89C629.249,184.722 629.257,184.553 629.293,184.393C629.153,183.943 629.217,183.408 629.593,183.116C630.944,182.067 631.874,180.505 633.568,179.959C634.67,179.604 635.896,179.653 637.038,179.667C638.315,179.682 639.596,179.766 640.85,180.016C643.168,180.478 645.285,181.648 647.223,182.961C648.194,183.619 649.139,184.316 650.109,184.976C651.068,185.628 652.018,186.258 652.87,187.052C654.479,188.551 655.825,190.248 657.723,191.41C659.616,192.568 661.684,193.393 663.649,194.415C665.792,195.53 667.839,196.865 670.121,197.69C672.42,198.521 674.6,199.609 676.773,200.722C680.66,202.714 684.296,205.311 688.657,206.129C688.76,205.241 688.62,204.29 688.385,203.38ZM560.911,247.587C566.848,247.069 572.778,246.408 578.745,246.398C580.389,246.395 580.387,248.946 578.745,248.949C572.778,248.959 566.848,249.62 560.911,250.138C560.221,250.198 559.635,249.506 559.635,248.862C559.635,248.13 560.224,247.647 560.911,247.587ZM541.54,218.918C539.32,220.201 535.934,219.611 533.842,218.271C533.459,218.025 533.098,217.737 532.771,217.418C530.814,216.537 529.176,215.218 527.951,213.404C527.333,212.489 526.964,211.147 526.01,210.524C525.039,209.891 523.912,209.517 523.729,208.191C523.645,207.579 523.878,206.734 524.62,206.622C529.053,205.954 533.045,207.817 537.28,208.75C538.329,208.981 539.397,209.08 540.45,209.287C541.543,209.502 542.619,209.79 543.685,210.111C545.828,210.756 547.935,211.518 550.098,212.095C551.686,212.518 551.008,214.978 549.42,214.555C548.759,214.379 548.105,214.183 547.452,213.981C547.48,214.412 547.391,214.88 547.15,215.386C546.216,217.354 543.628,218.593 541.54,218.918ZM592.934,212.82C595.098,212.243 597.203,211.48 599.347,210.836C600.413,210.516 601.49,210.227 602.583,210.012C603.636,209.805 604.704,209.705 605.753,209.475C609.99,208.546 613.979,206.679 618.413,207.347C619.163,207.46 619.389,208.3 619.304,208.916C619.203,209.654 618.723,210.234 618.122,210.64C617.724,210.909 617.247,211.059 616.864,211.35C616.296,211.782 616.023,212.519 615.692,213.123C615.338,213.77 614.928,214.376 614.472,214.955C613.349,216.382 611.912,217.376 610.32,218.095C609.713,218.702 608.967,219.182 608.192,219.523C606.188,220.405 603.43,220.736 601.515,219.658C600.936,219.569 600.369,219.432 599.825,219.21C598.034,218.479 595.439,216.957 595.596,214.699C594.938,214.903 594.278,215.101 593.612,215.278C592.021,215.704 591.349,213.242 592.934,212.82ZM583.729,266.628C584.025,266.418 584.328,266.218 584.624,266.009C584.697,265.957 584.77,265.905 584.842,265.852C584.84,265.854 584.95,265.769 584.989,265.739C585.036,265.7 585.101,265.647 585.112,265.638C585.203,265.562 585.291,265.483 585.379,265.404C585.894,264.94 586.608,264.921 587.135,265.367C588.681,264.718 590,263.464 590.573,262.053C590.835,261.409 591.068,260.751 591.439,260.16C591.684,259.769 592.018,259.396 592.191,258.967C592.446,258.332 592.406,257.571 592.406,256.9C592.406,256.47 592.398,256.041 592.39,255.611C592.376,255.591 592.359,255.573 592.346,255.552C592.065,255.071 592.154,254.523 592.471,254.12C592.668,253.59 593.188,253.328 593.704,253.337C594.228,253.151 594.788,253.118 595.306,253.422C595.921,253.781 596.151,254.447 596.366,255.082C596.408,255.206 596.45,255.33 596.498,255.452C596.515,255.48 596.578,255.608 596.599,255.645C596.752,255.912 596.934,256.169 597.127,256.409C597.574,256.965 598.105,257.453 598.653,257.906C599.82,258.87 601.122,259.703 601.623,261.216C602.119,262.714 601.458,264.33 600.514,265.5C599.645,266.578 598.34,266.878 597.014,266.884C595.369,266.892 595.373,264.341 597.014,264.333C597.207,264.332 597.398,264.321 597.591,264.314C597.648,264.308 597.681,264.305 597.701,264.303C597.738,264.296 597.776,264.29 597.813,264.282C597.912,264.257 598.009,264.229 598.106,264.2C598.146,264.183 598.243,264.143 598.277,264.123C598.311,264.103 598.343,264.08 598.375,264.058C598.387,264.047 598.406,264.029 598.443,263.997C598.505,263.922 598.576,263.855 598.64,263.781C598.637,263.771 598.817,263.502 598.836,263.469C598.909,263.343 598.983,263.212 599.045,263.079C599.167,262.818 599.238,262.538 599.244,262.39C599.247,262.317 599.243,262.243 599.239,262.17C599.234,262.149 599.228,262.119 599.22,262.078C599.218,262.069 599.15,261.889 599.143,261.855C598.881,261.326 598.422,260.948 597.897,260.535C596.815,259.684 595.806,258.819 594.974,257.739C594.941,258.453 594.843,259.153 594.591,259.802C594.334,260.464 593.91,260.991 593.552,261.595C593.203,262.184 592.999,262.848 592.724,263.472C591.872,265.407 590.119,266.86 588.143,267.672C588.612,267.864 588.889,268.353 588.92,268.848C588.956,269.421 589.022,270.003 589.265,270.531C589.523,271.092 589.954,271.505 590.359,271.958C591.369,273.088 592.124,274.454 592.54,275.912C592.938,277.31 592.874,278.721 592.733,280.15C592.614,281.357 592.439,282.574 592.051,283.727C591.408,285.64 590.237,287.255 588.714,288.568C586.683,290.319 584.476,291.726 581.757,291.998C580.203,292.154 578.603,292.033 577.044,292.018C575.372,292.002 573.699,291.979 572.028,291.92C569.56,291.833 567.119,291.582 564.769,290.782C560.725,289.406 556.922,286.621 555.633,282.38C554.972,280.205 555.091,277.844 555.732,275.68C556.12,274.372 556.759,273.17 557.234,271.896C557.691,270.67 557.958,269.431 558.013,268.124C558.027,267.789 558.149,267.526 558.327,267.327C554.437,265.682 551.589,262.107 550.51,258.053C550.217,258.451 549.887,258.827 549.553,259.176C548.511,260.265 547.181,261.276 546.314,262.436C545.956,262.915 545.653,263.608 545.506,264.251C545.488,264.327 545.473,264.405 545.46,264.482C545.457,264.515 545.451,264.579 545.451,264.593C545.446,264.726 545.447,264.857 545.456,264.989C545.469,265.05 545.483,265.112 545.5,265.172C545.513,265.214 545.515,265.23 545.514,265.237C545.523,265.253 545.534,265.27 545.55,265.298C545.582,265.353 545.615,265.406 545.648,265.46C545.716,265.532 545.786,265.6 545.858,265.667C545.89,265.693 545.939,265.731 545.976,265.754C546.102,265.831 546.229,265.9 546.36,265.969C546.382,265.981 546.399,265.989 546.414,265.996C546.472,266.019 546.531,266.042 546.59,266.063C546.705,266.102 546.819,266.14 546.935,266.174C547.219,266.257 547.507,266.322 547.798,266.376C548.35,266.478 548.815,266.517 549.521,266.556C550.147,266.59 550.774,266.602 551.401,266.611C553.044,266.636 553.044,269.187 551.401,269.162C549.807,269.138 548.177,269.105 546.619,268.729C545.331,268.418 544.023,267.783 543.348,266.585C542.494,265.07 542.99,263.206 543.737,261.758C544.49,260.298 545.875,259.203 547.037,258.083C547.596,257.545 548.192,256.974 548.589,256.379C548.834,256.012 548.867,255.933 548.98,255.607C549.03,255.462 549.008,255.247 548.982,255.148C548.715,254.135 549.614,253.498 550.411,253.574C551.122,252.937 552.58,253.239 552.58,254.481C552.58,257.987 554.292,261.558 557.089,263.699C557.408,263.617 557.761,263.655 558.073,263.813C558.536,264.047 558.988,264.302 559.444,264.55C560.092,264.406 560.857,264.769 561.03,265.442C562.698,266.429 564.33,267.525 565.735,268.856C567.15,270.196 568.567,272.106 567.987,274.169C567.961,274.263 567.922,274.35 567.876,274.432C568.159,274.634 568.354,274.961 568.34,275.422C568.301,276.744 568.047,278.058 568.13,279.384C568.148,279.666 568.178,279.866 568.262,280.153C568.316,280.337 568.436,280.568 568.471,280.611C568.583,280.751 568.733,280.874 568.877,280.988C568.87,280.978 569.051,281.11 569.089,281.135C569.163,281.184 569.238,281.231 569.314,281.276C569.5,281.387 569.692,281.482 569.886,281.577C569.906,281.587 569.916,281.592 569.93,281.599C569.932,281.6 569.932,281.6 569.934,281.6C570.02,281.634 570.106,281.667 570.193,281.698C570.549,281.826 570.914,281.926 571.283,282.005C571.434,282.037 571.587,282.064 571.74,282.09C571.753,282.092 571.779,282.096 571.804,282.1C571.982,282.122 572.161,282.14 572.339,282.152C572.74,282.18 573.142,282.187 573.543,282.174C573.786,282.166 574.029,282.151 574.271,282.129C574.379,282.119 574.486,282.107 574.593,282.095C574.637,282.089 574.694,282.082 574.718,282.078C575.137,282.01 575.553,281.929 575.964,281.822C576.873,281.587 577.358,281.407 578.052,281.04C578.405,280.853 578.744,280.642 579.068,280.41C579.076,280.405 579.075,280.405 579.082,280.4C579.155,280.341 579.227,280.282 579.297,280.22C579.423,280.109 579.544,279.994 579.66,279.872C579.718,279.811 579.956,279.51 579.943,279.542C580.017,279.435 580.091,279.328 580.156,279.215C580.186,279.162 580.285,278.947 580.307,278.913C580.347,278.805 580.386,278.697 580.415,278.586C580.44,278.49 580.458,278.393 580.475,278.296L580.475,278.288C580.48,278.129 580.48,277.972 580.478,277.813C580.477,277.781 580.465,277.699 580.458,277.651C580.452,277.621 580.448,277.591 580.441,277.562C580.39,277.373 580.34,277.188 580.278,277.003C580.262,276.956 580.254,276.929 580.249,276.91C580.243,276.903 580.233,276.885 580.209,276.838C580.174,276.767 580.139,276.696 580.102,276.626C579.994,276.422 579.872,276.224 579.743,276.032C579.517,275.698 579.233,275.372 578.874,275.003C578.136,274.242 578.625,273.226 579.372,272.913C579.69,271.201 580.838,269.645 581.886,268.301C582.404,267.635 583.044,267.113 583.729,266.628Z" style="fill-rule:nonzero;"/>
            <path d="M565.585,273.079C565.584,273.129 565.582,273.176 565.588,273.164C565.597,273.148 565.593,273.116 565.585,273.079Z" style="fill-rule:nonzero;"/>
            <path d="M598.125,214.863C598.122,214.873 598.122,214.878 598.115,214.9C598.093,214.993 598.096,214.981 598.125,214.863C598.125,214.864 598.125,214.863 598.125,214.863Z" style="fill-rule:nonzero;"/>
            <path d="M582.034,272.823C582.001,272.914 581.971,273.007 581.943,273.1C581.888,273.285 581.848,273.472 581.815,273.663C581.779,273.875 581.673,274.048 581.533,274.189C582.717,275.745 583.467,277.671 582.764,279.613C581.406,283.359 576.542,284.794 572.937,284.729C570.915,284.693 568.85,284.194 567.242,282.923C564.885,281.062 565.713,278.006 565.789,275.42C565.796,275.182 565.86,274.983 565.957,274.814C565.581,274.501 565.389,273.979 565.527,273.489C565.54,273.444 565.559,273.307 565.571,273.252C565.572,273.208 565.572,273.166 565.573,273.151C565.574,273.11 565.554,273.045 565.566,273.006C565.567,273.003 565.567,273.003 565.568,273C565.553,272.947 565.535,272.896 565.529,272.872C565.503,272.773 565.465,272.679 565.436,272.581C565.427,272.559 565.417,272.537 565.406,272.516C565.297,272.315 565.19,272.117 565.062,271.927C564.995,271.827 564.922,271.732 564.853,271.633C564.883,271.676 564.9,271.7 564.909,271.713C564.893,271.691 564.858,271.644 564.82,271.598C564.675,271.423 564.522,271.253 564.365,271.089C564.029,270.738 563.671,270.409 563.301,270.095C563.124,269.945 562.942,269.799 562.76,269.655C562.714,269.62 562.604,269.535 562.575,269.513C562.471,269.436 562.367,269.359 562.263,269.283C561.846,268.981 561.419,268.691 560.987,268.41C560.848,268.32 560.702,268.241 560.563,268.153C560.498,269.633 560.242,271.082 559.731,272.474C559.251,273.784 558.589,275.018 558.192,276.358C557.604,278.342 557.542,280.479 558.33,282.388C559.784,285.912 563.517,287.921 567.045,288.788C569.496,289.39 572.024,289.388 574.534,289.434C576.067,289.462 577.601,289.472 579.134,289.487C580.436,289.5 581.73,289.567 582.992,289.191C584.921,288.615 586.822,287.061 588.142,285.56C589.206,284.351 589.75,282.896 590.036,281.251C590.419,279.05 590.499,276.868 589.347,274.879C588.771,273.884 587.875,273.158 587.268,272.187C586.819,271.469 586.594,270.676 586.473,269.858C585.807,269.582 585.656,268.885 585.866,268.305C585.824,268.311 585.783,268.316 585.742,268.322C585.57,268.443 585.4,268.566 585.227,268.685C585.101,268.772 584.975,268.86 584.851,268.951C584.816,268.976 584.556,269.192 584.781,269.001C584.728,269.046 584.673,269.088 584.62,269.133C584.338,269.371 584.079,269.633 583.841,269.916C583.822,269.939 583.811,269.951 583.798,269.966C583.794,269.974 583.79,269.981 583.78,269.997C583.729,270.077 583.669,270.153 583.614,270.231C583.503,270.388 583.392,270.544 583.281,270.701C583.053,271.026 582.829,271.354 582.62,271.693C582.421,272.016 582.235,272.351 582.082,272.699C582.07,272.729 582.048,272.784 582.034,272.823Z" style="fill-rule:nonzero;"/>
            <path d="M465.139,67.323C465.859,65.444 467.566,63.957 469.436,63.224C470.62,62.76 471.888,62.428 473.175,62.261C470.69,60.995 468.046,60.046 465.316,59.464C465.224,59.486 465.129,59.499 465.034,59.496C464.895,59.491 464.756,59.494 464.617,59.503C464.551,59.507 464.485,59.513 464.418,59.52C464.409,59.521 464.407,59.521 464.399,59.522C464.071,59.581 463.747,59.646 463.427,59.737C463.275,59.781 463.123,59.828 462.973,59.881C462.884,59.912 462.796,59.946 462.709,59.98C462.707,59.981 462.706,59.981 462.704,59.983C462.563,60.053 462.421,60.12 462.285,60.2C462.224,60.236 462.165,60.274 462.106,60.313C462.014,60.413 461.986,60.427 462.004,60.401L462.003,60.401C461.988,60.416 461.958,60.443 461.928,60.47C461.812,60.589 461.742,60.771 461.66,60.911C461.654,60.92 461.653,60.922 461.648,60.929C461.644,60.942 461.642,60.949 461.635,60.967C461.601,61.062 461.572,61.158 461.546,61.255C461.524,61.338 461.505,61.422 461.488,61.507C461.476,61.563 461.467,61.62 461.458,61.677C461.465,61.621 461.472,61.565 461.479,61.51C461.408,61.568 461.436,62.019 461.433,62.122C461.426,62.316 461.425,62.509 461.426,62.703C461.429,63.113 461.439,63.523 461.432,63.933C461.429,64.091 461.396,64.238 461.343,64.375C462.805,65.131 464.073,66.135 465.139,67.323Z" style="fill-rule:nonzero;"/>
            <path d="M474.683,83.712C478.703,83.488 482.735,84.645 486.418,86.175C488.223,86.925 490.003,87.777 491.568,88.963C491.75,89.101 491.93,89.245 492.108,89.394C491.62,85.591 490.403,81.837 488.753,78.445C488.615,78.162 488.463,77.887 488.318,77.607C487.527,77.406 486.912,76.847 486.201,76.469C485.422,76.054 484.583,75.639 483.76,75.321C482.827,74.961 481.829,74.796 480.855,74.594C479.986,74.414 479.119,74.073 478.24,73.962C476.544,73.747 474.691,74.469 473.101,74.98C471.664,75.442 470.394,76.131 469.289,77.151C469.629,79.734 469.592,82.38 469.34,84.96C471.016,84.216 472.837,83.815 474.683,83.712Z" style="fill-rule:nonzero;"/>
            <path d="M468.427,73.17C468.547,73.548 468.645,73.931 468.744,74.315C469.742,73.612 470.831,73.067 472.015,72.656C473.811,72.033 475.851,71.341 477.77,71.382C478.862,71.405 479.865,71.764 480.918,72.003C481.936,72.233 482.975,72.387 483.973,72.702C484.623,72.907 485.239,73.191 485.85,73.487C483.936,70.723 481.655,68.221 479.043,66.078C478.606,65.719 478.154,65.378 477.699,65.043C477.563,65.05 477.419,65.042 477.265,64.998C475.025,64.369 472.669,64.781 470.513,65.538C468.744,66.159 467.203,67.708 467.341,69.611C467.357,69.836 467.291,70.048 467.179,70.234C467.682,71.164 468.101,72.149 468.427,73.17Z" style="fill-rule:nonzero;"/>
            <path d="M468.245,97.715C470.194,97.025 472.219,96.533 474.258,96.194C475.914,95.918 477.573,95.718 479.252,95.84C483.618,96.159 488.106,97.267 491.353,100.24C491.799,98.227 492.211,96.217 492.311,94.175C492.239,94.058 492.179,93.924 492.147,93.762C492.008,93.083 491.722,92.592 491.246,92.072C490.678,91.451 490.018,90.942 489.314,90.488C486.634,88.761 483.495,87.619 480.41,86.853C476.553,85.896 472.354,85.914 468.946,88.064C468.392,91.595 467.51,95.07 466.356,98.452C466.985,98.178 467.624,97.935 468.245,97.715Z" style="fill-rule:nonzero;"/>
            <path d="M460.038,58.79C456.483,58.645 452.873,59.118 449.593,60.401C449.613,60.661 449.564,60.929 449.439,61.16C449.402,61.228 449.367,61.334 449.319,61.402C449.312,61.422 449.304,61.441 449.298,61.461C449.255,61.588 449.229,61.719 449.204,61.85C449.197,61.967 449.197,62.085 449.205,62.202C449.237,62.352 449.277,62.498 449.327,62.644C449.344,62.679 449.361,62.714 449.379,62.748C449.429,62.844 449.483,62.937 449.539,63.029C449.604,63.133 449.672,63.234 449.744,63.333C449.748,63.338 449.755,63.348 449.761,63.355C449.777,63.374 449.791,63.393 449.799,63.403C449.97,63.61 450.151,63.806 450.338,63.998C450.354,64.014 450.364,64.033 450.379,64.049C451.392,63.747 452.428,63.531 453.436,63.383C455.286,63.112 457.115,63.053 458.885,63.461C458.885,62.637 458.864,61.82 458.999,60.999C459.129,60.211 459.489,59.398 460.038,58.79Z" style="fill-rule:nonzero;"/>
            <path d="M462.084,60.327C462.04,60.357 462.016,60.383 462.004,60.401C462.031,60.374 462.061,60.349 462.09,60.323C462.088,60.324 462.086,60.325 462.084,60.327Z" style="fill-rule:nonzero;"/>
            <path d="M462.137,60.28C462.123,60.295 462.106,60.308 462.09,60.322C462.095,60.318 462.101,60.315 462.106,60.312C462.118,60.3 462.123,60.296 462.137,60.28Z" style="fill-rule:nonzero;"/>
            <path d="M598.817,215.727C598.828,215.736 598.84,215.743 598.851,215.752C598.868,215.337 598.927,214.922 598.99,214.517C599.008,214.4 599.037,214.284 599.059,214.167C598.916,214.237 598.77,214.299 598.634,214.383C598.409,214.522 598.191,214.782 598.129,214.853C598.215,215.011 598.113,214.902 598.207,215.063C598.319,215.257 598.569,215.519 598.817,215.727Z" style="fill-rule:nonzero;"/>
            <path d="M693.763,56.381C693.758,56.377 693.752,56.374 693.746,56.37C693.753,56.392 693.755,56.412 693.764,56.435C693.785,56.46 693.792,56.44 693.763,56.381Z" style="fill-rule:nonzero;"/>
            <path d="M694.111,58.662C694.1,58.685 694.098,58.698 694.091,58.718C694.091,58.727 694.09,58.735 694.09,58.744C694.095,58.715 694.099,58.685 694.111,58.662Z" style="fill-rule:nonzero;"/>
            <path d="M694.089,58.776C694.089,58.765 694.09,58.754 694.09,58.743C694.082,58.784 694.073,58.824 694.066,58.865C694.075,58.863 694.087,58.841 694.089,58.776Z" style="fill-rule:nonzero;"/>
            <path d="M649.486,160.947C651.988,160.443 654.403,159.627 656.594,158.427C658.145,157.577 659.401,156.695 660.59,155.659C661.686,154.704 662.696,153.651 663.617,152.527C663.731,152.388 663.842,152.247 663.954,152.107C663.984,152.07 664.004,152.045 664.017,152.029C664.029,152.012 664.047,151.989 664.073,151.954C664.238,151.734 664.403,151.515 664.563,151.292C664.841,150.907 665.107,150.514 665.371,150.12C665.047,149.924 664.816,149.579 664.822,149.082C664.859,146.265 664.069,143.463 662.931,140.904C660.98,136.519 658.113,132.346 653.888,129.912C649.71,127.505 644.801,126.483 640.046,126.032C639.932,126.021 639.822,125.995 639.716,125.963C637.863,128.419 635.666,130.629 633.206,132.432C636.359,133.238 639.383,134.775 642.004,136.641C644.351,138.312 646.858,140.45 648.115,143.109C649.037,145.061 649.5,147.253 649.862,149.368C650.293,151.893 650.58,154.501 650.381,157.063C650.279,158.361 650.071,159.765 649.486,160.947Z" style="fill-rule:nonzero;"/>
            <path d="M693.012,60.069C693.086,60.03 693.159,59.988 693.23,59.944C693.283,59.911 693.489,59.814 693.508,59.755C693.372,59.861 693.341,59.885 693.414,59.824C693.446,59.797 693.478,59.77 693.509,59.742C693.591,59.667 693.67,59.589 693.745,59.506C693.773,59.475 693.8,59.444 693.826,59.412C693.875,59.338 693.936,59.237 693.982,59.152C693.981,59.152 693.988,59.13 694.008,59.076C694.026,59.022 694.042,58.969 694.057,58.914C694.061,58.899 694.062,58.882 694.065,58.865C694.052,58.867 694.052,58.817 694.09,58.718C694.091,58.694 694.091,58.671 694.092,58.647C694.096,58.376 694.079,58.104 694.055,57.834C694.049,57.766 694.042,57.698 694.035,57.63C694.032,57.603 694.025,57.561 694.018,57.52C693.984,57.342 694.001,57.423 694.018,57.52C694.023,57.548 694.029,57.578 694.037,57.62C694.006,57.457 693.987,57.292 693.955,57.128C693.924,56.971 693.889,56.816 693.847,56.662C693.828,56.592 693.794,56.513 693.763,56.434C693.752,56.421 693.742,56.397 693.732,56.361C693.542,56.222 693.401,56.033 693.313,55.818C691.515,54.981 689.531,54.543 687.572,54.29C687.149,54.235 686.723,54.205 686.299,54.167C686.789,54.938 687.216,55.749 687.562,56.596C687.897,57.417 688.024,58.254 687.877,59.131C687.835,59.384 687.769,59.631 687.699,59.877C688.915,59.982 690.087,60.263 691.14,60.796C691.384,60.538 691.735,60.373 692.097,60.346C692.123,60.344 692.149,60.342 692.175,60.339C692.259,60.321 692.344,60.306 692.428,60.284C692.478,60.271 692.939,60.158 692.938,60.117C692.762,60.193 692.737,60.202 692.863,60.145C692.913,60.121 692.963,60.096 693.012,60.069Z" style="fill-rule:nonzero;"/>
            <path d="M602.089,216.719C602.099,216.747 602.103,216.761 602.109,216.777C602.119,216.78 602.122,216.78 602.134,216.784C602.157,216.791 602.167,216.796 602.182,216.801L602.202,216.801C602.222,216.796 602.242,216.793 602.261,216.787C602.753,216.653 603.23,216.832 603.542,217.183C603.641,217.178 603.738,217.179 603.837,217.171C605.468,217.047 607.223,216.646 608.782,216.008C608.849,215.908 608.915,215.808 608.975,215.703C608.994,215.669 609.007,215.648 609.017,215.632C609.019,215.621 609.022,215.608 609.029,215.585C609.046,215.525 609.062,215.464 609.077,215.404C609.082,215.369 609.107,215.237 609.106,215.177C609.105,215.118 609.101,215.059 609.097,214.999C609.096,214.995 609.096,214.997 609.095,214.992C609.066,214.886 609.037,214.781 609.002,214.678C608.982,214.65 608.886,214.446 608.861,214.407C608.774,214.272 608.679,214.157 608.563,214.042C607.978,213.465 607.144,213.134 606.346,212.987C605.418,212.816 604.393,213.013 603.463,213.108C602.981,213.157 602.5,213.221 602.022,213.301C602.014,213.311 602.006,213.32 602.002,213.322C601.975,213.362 601.947,213.402 601.926,213.443C601.903,213.486 601.883,213.53 601.862,213.574C601.812,213.706 601.766,213.84 601.725,213.975C601.635,214.269 601.564,214.569 601.507,214.87C601.479,215.02 601.459,215.171 601.433,215.322C601.514,214.845 601.432,215.362 601.423,215.478C601.411,215.626 601.414,215.775 601.412,215.923C601.717,216.085 601.964,216.368 602.089,216.719Z" style="fill-rule:nonzero;"/>
            <path d="M693.736,56.331C693.733,56.326 693.729,56.32 693.725,56.314C693.728,56.33 693.729,56.347 693.733,56.36C693.737,56.363 693.742,56.366 693.747,56.369C693.742,56.357 693.739,56.344 693.736,56.331Z" style="fill-rule:nonzero;"/>
            <path d="M463.878,104.629C462.998,106.491 461.972,108.264 461.244,110.197C460.855,111.232 460.528,112.285 460.246,113.348C460.588,112.965 460.952,112.603 461.369,112.292C462.008,111.815 462.724,111.47 463.439,111.123C466.42,109.672 469.643,108.479 472.948,108.049C476.538,107.581 480.168,108.118 483.642,109.05C485.479,109.543 487.282,110.157 489.031,110.903C489.433,111.075 489.878,111.263 490.323,111.479C490.092,109.833 490.032,108.161 490.2,106.472C490.308,105.389 490.489,104.318 490.701,103.253C489.126,101.393 487.092,100.114 484.761,99.38C481.203,98.261 477.552,98.14 474.026,98.817C472.125,99.182 470.237,99.673 468.424,100.357C467.15,100.837 465.865,101.426 464.911,102.286C464.585,103.075 464.242,103.857 463.878,104.629Z" style="fill-rule:nonzero;"/>
            <path d="M611.548,214.335C612.267,213.686 612.876,212.922 613.375,212.044C613.828,211.246 614.219,210.441 614.838,209.784C612.868,210.011 610.922,210.657 608.993,211.24C609.121,211.309 609.248,211.382 609.374,211.462C610.419,212.127 611.261,213.165 611.548,214.335Z" style="fill-rule:nonzero;"/>
            <path d="M601.997,213.304C601.992,213.32 601.993,213.326 602.001,213.322C602.006,213.315 602.009,213.308 602.014,213.302C602.008,213.303 602.002,213.303 601.997,213.304Z" style="fill-rule:nonzero;"/>
            <path d="M544.31,213.601C544.204,213.539 544.089,213.492 543.979,213.437C544.034,213.73 544.08,214.024 544.117,214.32C544.15,214.577 544.172,214.837 544.181,215.097C544.477,214.848 544.716,214.572 544.859,214.276C544.851,214.292 544.884,214.194 544.905,214.133C544.905,214.132 544.904,214.13 544.904,214.13C544.772,213.938 544.59,213.766 544.31,213.601Z" style="fill-rule:nonzero;"/>
            <path d="M647.282,159.669C647.29,159.652 647.293,159.646 647.299,159.634C647.305,159.615 647.312,159.595 647.324,159.559C647.403,159.332 647.476,159.104 647.537,158.872C647.827,157.763 647.882,156.788 647.886,155.547C647.894,153.205 647.609,150.928 647.137,148.651C646.929,147.648 646.685,146.649 646.376,145.672C646.253,145.283 646.118,144.899 645.968,144.52C645.965,144.513 645.965,144.512 645.963,144.506C645.958,144.496 645.956,144.492 645.949,144.477C645.924,144.425 645.902,144.371 645.876,144.319C645.79,144.149 645.702,143.984 645.604,143.82C644.117,141.323 641.688,139.383 639.251,137.869C636.67,136.265 633.822,135.017 630.809,134.522C630.623,134.492 630.463,134.404 630.328,134.284C627.37,135.929 624.119,136.978 620.689,137.208C621.669,137.91 622.611,138.667 623.5,139.497C626.325,142.133 628.582,145.358 630.306,148.805C631.328,150.848 632.062,153.001 632.987,155.084C633.58,156.42 634.207,157.75 634.442,159.204C634.529,159.746 634.602,160.284 634.692,160.817C634.782,160.818 634.873,160.825 634.963,160.841C637.866,161.35 640.81,161.629 643.76,161.572C644.53,161.557 645.3,161.506 646.068,161.439C646.144,161.099 646.355,160.787 646.662,160.574C646.682,160.56 646.694,160.553 646.702,160.549C646.716,160.533 646.732,160.514 646.757,160.486C646.802,160.435 646.849,160.385 646.896,160.335C646.836,160.391 647.093,160.041 647.139,159.956C647.19,159.862 647.237,159.766 647.282,159.669Z" style="fill-rule:nonzero;"/>
            <path d="M528.209,209.059C529.007,209.89 529.419,210.989 530.04,211.945C530.448,212.572 530.928,213.124 531.467,213.605C531.773,212.248 532.829,211.196 534.063,210.522C532.13,209.94 530.183,209.289 528.209,209.059Z" style="fill-rule:nonzero;"/>
            <path d="M541.603,214.596C541.577,214.446 541.557,214.294 541.529,214.144C541.472,213.842 541.401,213.542 541.311,213.249C541.27,213.114 541.225,212.98 541.174,212.848C541.148,212.797 541.124,212.744 541.097,212.692C541.076,212.652 541.053,212.614 541.03,212.575C539.952,212.391 538.853,212.295 537.762,212.222C536.959,212.168 536.181,212.3 535.451,212.654C535.067,212.84 534.701,213.065 534.408,213.379C534.29,213.505 534.219,213.609 534.128,213.753C534.095,213.805 534.068,213.864 534.041,213.919C534.038,213.926 534.037,213.927 534.034,213.933C534.033,213.937 534.033,213.938 534.031,213.942C534.013,213.993 533.966,214.172 533.943,214.246C533.941,214.311 533.928,214.469 533.927,214.501C533.926,214.529 533.929,214.557 533.932,214.583C533.959,214.692 533.987,214.798 534.021,214.905C534.022,214.907 534.022,214.907 534.022,214.908C534.027,214.916 534.028,214.919 534.034,214.929C534.059,214.974 534.081,215.022 534.109,215.066C534.154,215.137 534.201,215.207 534.247,215.277C534.39,215.332 534.531,215.39 534.677,215.44C536.205,215.957 537.835,216.375 539.466,216.46C539.784,216.105 540.31,215.933 540.773,216.06C540.793,216.066 540.813,216.069 540.832,216.074L540.834,216.074C540.864,216.066 540.895,216.058 540.925,216.049C540.929,216.037 540.934,216.019 540.944,215.992C541.079,215.614 541.331,215.37 541.625,215.239C541.623,215.076 541.626,214.913 541.612,214.752C541.603,214.631 541.523,214.128 541.603,214.596Z" style="fill-rule:nonzero;"/>
            <path d="M533.933,214.591C533.943,214.675 533.961,214.712 533.933,214.591Z" style="fill-rule:nonzero;"/>
            <path d="M445.294,66.881C445.52,66.641 445.76,66.41 446.025,66.2C446.591,65.751 447.212,65.371 447.865,65.039C447.41,64.473 447.024,63.855 446.808,63.156C446.671,62.71 446.628,62.257 446.657,61.809C444.794,62.873 443.093,64.201 441.655,65.808C441.287,66.219 440.949,66.653 440.626,67.098C440.735,67.108 440.843,67.119 440.95,67.119C441.194,67.118 441.438,67.106 441.681,67.086C441.819,67.075 441.957,67.061 442.095,67.045C442.15,67.039 442.205,67.032 442.26,67.025C442.281,67.022 442.299,67.019 442.316,67.017C442.536,66.979 442.759,66.952 442.979,66.918C443.523,66.834 444.068,66.749 444.616,66.692C444.869,66.668 445.1,66.745 445.294,66.881Z" style="fill-rule:nonzero;"/>
            <path d="M673.052,56.368C673.018,56.346 672.993,56.33 672.993,56.329C672.992,56.342 673.012,56.354 673.037,56.364C673.041,56.365 673.044,56.366 673.048,56.366C673.05,56.368 673.05,56.368 673.052,56.368Z" style="fill-rule:nonzero;"/>
            <path d="M693.812,59.434C693.796,59.454 693.778,59.477 693.754,59.507C693.76,59.508 693.782,59.479 693.812,59.434Z" style="fill-rule:nonzero;"/>
            <path d="M693.714,56.252C693.715,56.263 693.718,56.268 693.719,56.278C693.72,56.28 693.722,56.281 693.723,56.283C693.721,56.273 693.715,56.261 693.714,56.252Z" style="fill-rule:nonzero;"/>
            <path d="M694.469,65.507C694.55,65.986 694.68,66.443 694.831,66.688C694.875,66.76 694.921,66.832 694.967,66.903C694.997,66.935 695.079,67.036 695.096,67.054C695.121,67.081 695.15,67.105 695.177,67.13C695.214,67.16 695.285,67.217 695.314,67.232C695.372,67.263 695.428,67.296 695.486,67.327C695.491,67.33 695.492,67.33 695.496,67.333C695.51,67.336 695.519,67.337 695.541,67.342C695.602,67.357 695.667,67.374 695.728,67.392C695.746,67.397 695.751,67.4 695.763,67.403L695.775,67.403C695.855,67.407 696.212,67.384 696.227,67.396C696.368,67.37 696.509,67.34 696.646,67.298C696.733,67.271 696.818,67.239 696.903,67.206C696.919,67.198 696.924,67.195 696.949,67.182C697.118,67.094 697.279,66.999 697.441,66.899C697.675,66.756 697.576,66.827 697.834,66.591C697.985,66.453 698.124,66.306 698.26,66.154C698.444,65.947 698.694,65.563 698.893,65.135C699.177,64.525 699.32,63.545 699.218,62.797C698.982,61.079 697.928,59.415 696.629,58.117C696.666,58.722 696.638,59.341 696.411,59.91C695.869,61.273 694.731,62.213 693.386,62.644C693.681,63.054 693.922,63.501 694.106,63.978C694.299,64.481 694.379,64.979 694.469,65.507Z" style="fill-rule:nonzero;"/>
            <path d="M670.715,67.181C672.08,65.684 673.633,64.354 675.332,63.26C675.367,62.101 675.423,60.901 675.184,59.868C675.104,59.522 674.996,59.183 674.864,58.853C674.842,58.804 674.778,58.657 674.771,58.642C674.716,58.523 674.659,58.404 674.599,58.287C674.459,58.01 674.305,57.738 674.135,57.478C674.07,57.379 674.003,57.281 673.933,57.186C673.914,57.167 673.771,56.993 673.774,56.996C673.63,56.834 673.35,56.567 673.248,56.488C673.243,56.489 673.134,56.42 673.059,56.373C673.051,56.37 673.043,56.368 673.036,56.365C672.963,56.35 672.887,56.336 672.815,56.318C673.17,56.405 672.847,56.324 672.748,56.315C672.526,56.297 672.303,56.291 672.08,56.289C671.266,56.282 670.452,56.372 669.638,56.352C669.469,56.348 669.307,56.311 669.157,56.248C667.029,56.92 664.948,57.733 662.952,58.691C661.255,59.505 659.598,60.429 658.033,61.482C658.906,61.44 659.781,61.413 660.655,61.361C662.498,61.25 664.441,61.966 666.025,62.866C667.693,63.814 669.69,65.329 670.715,67.181Z" style="fill-rule:nonzero;"/>
            <path d="M677.608,59.039C677.842,59.961 677.901,60.9 677.904,61.843C678.572,61.534 679.254,61.257 679.952,61.023C681.475,60.513 683.247,60.074 685.041,59.903C685.151,59.463 685.292,59.032 685.393,58.588C685.402,58.548 685.401,58.452 685.402,58.463C685.401,58.399 685.404,58.336 685.401,58.272C685.4,58.246 685.397,58.226 685.396,58.206C685.329,57.904 685.237,57.613 685.122,57.326C685.103,57.284 685.075,57.218 685.066,57.199C685.032,57.125 684.997,57.051 684.961,56.977C684.888,56.826 684.812,56.677 684.733,56.528C684.56,56.203 684.376,55.885 684.18,55.574C683.985,55.264 683.78,54.961 683.565,54.665C683.558,54.656 683.514,54.595 683.485,54.556C683.456,54.521 683.347,54.381 683.351,54.385C683.253,54.264 683.152,54.146 683.049,54.029C683.048,54.028 683.048,54.027 683.047,54.026C681.802,54.031 680.558,54.087 679.322,54.198C677.93,54.323 676.538,54.513 675.154,54.762C675.304,54.9 675.448,55.042 675.579,55.19C676.531,56.262 677.255,57.652 677.608,59.039Z" style="fill-rule:nonzero;"/>
            <path d="M694.046,59.005C694.015,59.081 693.997,59.122 693.988,59.142C694.027,59.07 694.054,59.012 694.046,59.005Z" style="fill-rule:nonzero;"/>
            <path d="M442.214,67.034C442.235,67.03 442.257,67.028 442.279,67.024C442.273,67.025 442.266,67.026 442.26,67.026C442.243,67.029 442.227,67.031 442.214,67.034Z" style="fill-rule:nonzero;"/>
            <path d="M442.315,67.019C442.303,67.021 442.29,67.022 442.278,67.025C442.379,67.012 442.36,67.013 442.315,67.019Z" style="fill-rule:nonzero;"/>
            <path d="M490.635,114.741C490.62,114.675 490.606,114.608 490.599,114.539C490.609,114.642 490.612,114.685 490.611,114.703C490.614,114.701 490.621,114.707 490.635,114.741Z" style="fill-rule:nonzero;"/>
            <path d="M439.195,69.448C438.629,70.577 438.117,71.841 438.23,73.124C438.272,73.602 438.397,74.027 438.664,74.382C438.795,74.555 438.994,74.712 439.279,74.784C439.519,74.845 439.952,74.816 440.385,74.635C441.016,74.371 441.563,73.902 442.035,73.418C443.044,72.383 443.255,71.167 443.634,69.832C443.681,69.668 443.75,69.516 443.807,69.357C443.653,69.381 443.499,69.405 443.346,69.428C442.733,69.521 442.117,69.611 441.499,69.651C440.731,69.701 439.938,69.656 439.195,69.448Z" style="fill-rule:nonzero;"/>
            <path d="M523.138,135.482C523.076,135.503 523.017,135.533 522.955,135.556C523.093,136.01 523.197,136.474 523.272,136.942C523.631,139.174 523.642,141.344 524.551,143.455C525.264,145.111 526.161,146.694 527.223,148.152C529.139,150.782 531.691,152.906 534.534,154.468C540.789,157.905 547.906,158.423 554.896,158.418C559.842,158.414 564.785,158.429 569.73,158.541C574.615,158.651 579.504,158.773 584.389,158.591C589.234,158.411 594.074,157.925 598.806,156.837C601.874,156.131 604.899,155.104 607.549,153.372C609.934,151.813 611.856,149.632 612.975,146.999C613.576,145.585 613.958,144.045 614.147,142.522C614.273,141.513 614.273,140.495 614.4,139.487C614.515,138.574 614.689,137.668 614.817,136.757C612.505,135.661 610.039,134.842 607.481,134.291C602.844,133.291 598.103,133.156 593.377,133.075C587.327,132.971 581.277,133.094 575.229,133.274C563.021,133.639 550.804,134.231 538.592,133.7C535.792,133.832 533.028,134.296 530.244,134.588C527.883,134.834 525.414,134.717 523.138,135.482Z" style="fill-rule:nonzero;"/>
            <path d="M500.754,160.702C502.641,160.894 504.536,160.953 506.434,160.831C506.471,160.707 506.512,160.585 506.548,160.461C507.155,158.397 507.653,156.303 508.166,154.214C509.139,150.247 510.201,146.248 512.191,142.649C513.247,140.74 514.571,138.963 516.106,137.413C516.673,136.841 517.278,136.275 517.913,135.739C516.535,135.338 515.157,134.938 513.777,134.543C513.768,134.544 513.759,134.547 513.75,134.547C513.72,134.549 513.54,134.564 513.462,134.569C513.39,134.581 513.242,134.603 513.253,134.6C513.04,134.641 512.828,134.689 512.619,134.746C512.161,134.869 511.709,135.025 511.272,135.208C510.358,135.589 509.281,136.198 508.372,136.776C504.889,138.984 501.469,141.973 499.201,145.43C497.872,147.456 497.301,149.736 497.554,152.34C497.829,155.177 499.146,157.826 500.585,160.238C500.678,160.396 500.729,160.551 500.754,160.702Z" style="fill-rule:nonzero;"/>
            <path d="M673.052,56.368C673.055,56.37 673.058,56.372 673.06,56.373C673.146,56.402 673.257,56.411 673.052,56.368Z" style="fill-rule:nonzero;"/>
            <path d="M465.113,141.998C467.074,145.038 469.462,147.802 472.208,150.159C473.808,151.532 475.54,152.745 477.36,153.804C477.647,151.608 478.29,149.448 479.074,147.393C480.945,142.49 483.623,137.935 487.808,134.667C491.277,131.958 495.37,130.082 499.683,129.26C498.483,128.397 497.455,127.369 496.558,126.226C496.306,126.335 496.029,126.365 495.771,126.26C492.622,124.969 489.22,124.509 485.833,124.541C480.49,124.591 474.731,125.657 470.454,129.064C466.548,132.175 464.273,136.94 465.109,141.961C465.112,141.972 465.112,141.985 465.113,141.998Z" style="fill-rule:nonzero;"/>
            <path d="M459.216,124.618C459.541,129.063 460.723,133.415 462.603,137.444C462.831,135.95 463.268,134.487 463.946,133.081C466.404,127.981 471.514,124.546 476.887,123.155C482.49,121.705 488.891,121.382 494.521,123.117C494.383,122.868 494.243,122.62 494.111,122.367C492.987,120.219 491.99,117.972 491.271,115.653C490.957,115.473 490.738,115.159 490.644,114.79C490.6,114.728 490.51,114.64 490.617,114.735C490.712,114.819 490.388,114.522 490.318,114.463C490.366,114.504 490.182,114.364 490.028,114.264C489.833,114.138 489.632,114.02 489.428,113.908C488.544,113.422 487.659,113.058 486.721,112.709C482.129,110.999 476.969,109.756 472.085,110.762C469.281,111.34 466.582,112.373 464.039,113.665C462.832,114.278 462.036,115.092 461.217,116.166C460.474,117.139 459.521,118.196 459.227,119.417C459.095,121.143 459.089,122.882 459.216,124.618Z" style="fill-rule:nonzero;"/>
            <path d="M497.671,160.283C496.164,157.529 495.012,154.54 494.945,151.37C494.887,148.652 495.701,146.002 497.245,143.776C498.591,141.836 500.225,140.094 501.97,138.51C503.816,136.835 505.818,135.282 507.978,134.031C508.427,133.771 508.889,133.519 509.362,133.285C507.387,132.725 505.386,132.124 503.489,131.326C503.393,131.353 503.292,131.372 503.181,131.378C500.389,131.53 497.615,132.207 495.046,133.309C490.587,135.221 486.744,138.341 484.236,142.511C482.982,144.596 481.951,146.82 481.152,149.118C480.482,151.044 479.93,153.054 479.787,155.096C481.584,155.96 483.451,156.678 485.371,157.224C489.384,158.364 493.502,159.574 497.671,160.283Z" style="fill-rule:nonzero;"/>
            <path d="M672.512,117.481C672.34,115.944 672.099,114.413 671.8,112.894C671.697,112.808 671.599,112.711 671.517,112.599C670.097,110.683 668.524,108.853 666.696,107.313C664.109,105.135 661.031,103.932 657.591,103.989C653.548,104.056 649.766,106.169 646.103,107.701C646.083,108.675 646.044,109.647 645.949,110.611C645.834,111.781 645.639,112.937 645.377,114.077C647.728,113.063 650.315,112.69 652.887,112.918C658.133,113.382 663.222,115.731 667.583,118.6C669.526,119.878 671.488,121.472 672.912,123.378C672.863,121.403 672.73,119.433 672.512,117.481Z" style="fill-rule:nonzero;"/>
            <path d="M670.003,142.389C671.002,139.879 671.676,137.245 672.138,134.586C672.361,133.302 672.529,132.008 672.657,130.707C672.523,130.508 672.445,130.276 672.465,130.03C672.651,127.753 671.722,125.744 670.217,124.074C668.816,122.52 667.117,121.284 665.339,120.196C663.446,119.038 661.454,117.981 659.391,117.159C654.707,115.292 649.339,114.431 644.833,117.222C644.686,117.313 644.541,117.364 644.4,117.392C644.259,117.781 644.112,118.169 643.954,118.553C643.238,120.292 642.354,121.994 641.327,123.624C643.866,123.916 646.393,124.357 648.847,125.075C651.369,125.813 653.858,126.827 656.073,128.255C658.296,129.689 660.081,131.523 661.649,133.64C664.526,137.526 666.876,142.372 667.301,147.287C668.372,145.749 669.302,144.151 670.003,142.389Z" style="fill-rule:nonzero;"/>
            <path d="M656.767,73.025C653.37,72.575 650.037,74.038 647.487,76.202C647.472,76.214 647.456,76.223 647.44,76.235C646.735,78.775 646.324,81.407 646.095,84.031C646.715,83.32 647.418,82.681 648.222,82.161C653.56,78.706 660.219,81.908 664.84,85.541C664.671,83.355 664.706,81.179 665.021,79.044C663.163,76.056 660.364,73.501 656.767,73.025Z" style="fill-rule:nonzero;"/>
            <path d="M668.875,69.459C668.875,69.42 668.875,69.381 668.874,69.355C668.858,69.308 668.799,69.082 668.802,69.091C668.737,68.883 668.628,68.675 668.495,68.452C668.177,67.923 667.765,67.467 667.325,67.036C666.492,66.218 665.548,65.496 664.517,64.946C663.826,64.578 663.091,64.295 662.335,64.093C661.534,63.88 660.818,63.909 659.995,63.952C658.145,64.048 656.298,64.02 654.483,64.441C654.412,64.457 654.346,64.462 654.279,64.467C652.946,65.728 651.746,67.127 650.737,68.693C650.013,69.818 649.396,70.994 648.865,72.206C649.423,71.901 649.992,71.615 650.59,71.373C653.401,70.235 656.641,70.049 659.513,71.087C662.036,71.998 664.108,73.661 665.766,75.702C666.263,74.076 666.957,72.485 667.893,70.944C668.199,70.438 668.529,69.944 668.875,69.459Z" style="fill-rule:nonzero;"/>
            <path d="M667.384,97.832C666.082,96.608 664.521,95.678 662.835,95.086C657.267,93.129 649.196,94.087 646.239,99.739C646.17,99.872 646.085,99.974 645.995,100.064C646.017,100.834 646.038,101.604 646.055,102.375C646.074,103.23 646.093,104.09 646.107,104.951C648.254,104.037 650.378,103.049 652.597,102.329C656.678,101.004 661.035,101.217 664.915,103.103C666.986,104.11 668.771,105.594 670.367,107.268C669.849,105.572 669.286,103.888 668.747,102.202C668.289,100.777 667.827,99.316 667.384,97.832Z" style="fill-rule:nonzero;"/>
            <path d="M664.686,88.729C663.43,87.6 662.083,86.586 660.637,85.713C658.22,84.255 655.458,83.109 652.666,83.299C651.468,83.381 650.174,83.833 649.122,84.632C647.85,85.598 646.962,87.007 646.277,88.443C646.183,88.64 646.027,88.785 645.844,88.889C645.791,91.236 645.822,93.585 645.881,95.933C646.545,95.251 647.291,94.645 648.094,94.127C653.36,90.728 660.826,90.78 666.299,93.909C665.892,92.296 665.539,90.667 665.271,89.034C665.07,88.988 664.872,88.896 664.686,88.729Z" style="fill-rule:nonzero;"/>
        </g>
    </g>
</svg>
