<?xml version="1.0" encoding="UTF-8" standalone="no"?>
<!DOCTYPE svg PUBLIC "-//W3C//DTD SVG 1.1//EN" "http://www.w3.org/Graphics/SVG/1.1/DTD/svg11.dtd">
<svg width="100%" height="100%" viewBox="0 0 328 278" version="1.1" xmlns="http://www.w3.org/2000/svg" xmlns:xlink="http://www.w3.org/1999/xlink" xml:space="preserve" xmlns:serif="http://www.serif.com/" style="fill-rule:evenodd;clip-rule:evenodd;stroke-linejoin:round;stroke-miterlimit:2;">
    <g transform="matrix(1,0,0,1,-308.036,-381.006)">
        <g>
            <path d="M519.676,465.275C520.212,462.878 520.995,460.521 521.425,458.102C521.837,455.781 522.183,453.496 522.748,451.202C523.322,448.875 523.915,446.523 524.066,444.123C524.348,439.648 524.003,434.851 522.474,430.614C520.973,426.454 518.144,422.726 515.208,419.471C512.159,416.091 508.74,412.998 505.183,410.162C503.357,408.707 501.426,407.312 499.354,406.226C497.287,405.142 495.056,404.38 492.947,403.38C488.498,401.27 484.111,399.052 479.892,396.509C476.676,394.57 473.204,392.814 470.628,390.016C470.623,390.074 470.621,390.133 470.615,390.191C470.516,391.215 470.261,392.18 470.063,393.183C469.791,394.563 469.769,396.161 470.036,397.543C470.323,399.025 471.444,400.027 472.432,401.085C473.448,402.173 474.248,403.437 475.095,404.657C475.766,405.622 476.376,406.659 476.55,407.795C476.683,407.844 476.813,407.925 476.935,408.047C478.096,409.211 478.799,410.702 479.367,412.224C479.953,413.795 480.352,415.425 480.876,417.016C481.479,418.847 482.281,420.615 483.151,422.333C485.003,425.989 487.226,429.757 490.102,432.707C491.516,434.158 493.015,435.525 494.434,436.972C495.692,438.254 497.073,439.407 498.486,440.514C501.365,442.767 504.411,444.852 506.895,447.559C509.555,450.457 511.542,454.051 512.221,457.95C512.868,461.664 512.377,465.408 511.519,469.045C510.864,471.82 509.886,474.568 509.217,477.361C509.211,477.509 509.179,477.642 509.122,477.758C508.909,478.692 508.733,479.63 508.619,480.577C508.188,484.2 508.797,487.836 510.678,490.988C514.618,497.592 522.531,500.654 526.353,507.377C528.215,510.652 528.729,514.596 526.916,518.001C525.327,520.984 522.492,522.981 520.494,525.647C518.978,527.67 518.131,530.114 518.567,532.647C518.977,535.034 520.227,537.181 521.542,539.175C524.34,543.417 528.17,547.488 529.194,552.625C529.793,555.626 529.199,558.588 527.733,561.26C527.022,562.555 526.144,563.75 525.22,564.902C525.864,564.543 526.505,564.187 527.13,563.824C529.84,562.252 533.772,559.899 533.729,556.302C533.709,554.61 533.086,552.894 532.427,551.357C531.795,549.883 531.03,548.438 530.108,547.123C528.721,545.145 526.945,543.474 525.428,541.599C524.257,540.152 523.085,538.599 522.14,536.992C521.29,535.546 520.588,533.786 521.212,532.123C521.82,530.501 523.101,529.205 524.449,528.169C525.931,527.03 527.581,526.156 529.195,525.224C530.798,524.299 532.355,523.273 533.871,522.213C535.501,521.073 537.064,519.831 538.433,518.382C539.64,517.105 541.029,515.459 541.397,513.694C541.766,511.926 541.406,509.968 541.019,508.233C540.616,506.429 540.08,504.709 538.948,503.216C536.284,499.703 532.448,497.065 529.113,494.24C525.722,491.367 522.485,488.134 520.464,484.119C518.546,480.306 518.375,476.038 518.685,471.849C518.85,469.635 519.191,467.442 519.676,465.275Z" style="fill-rule:nonzero;"/>
            <path d="M405.551,538.26C405.507,540.092 405.02,541.929 404.075,543.735C402.909,545.963 401.887,548.126 401.096,550.521C400.323,552.863 399.6,555.196 399.134,557.622C398.279,562.071 397.87,566.881 398.488,571.391C399.023,575.3 400.612,579.141 403.915,581.492C407.666,584.162 412.261,585.197 416.356,587.192C416.671,587.346 416.987,587.506 417.301,587.67C417.421,587.506 417.595,587.377 417.831,587.312C418.222,587.205 418.742,587.379 418.98,587.733C419.851,587.523 420.559,586.911 421.341,586.412C422.612,585.6 424.111,585.3 425.585,585.098C427.256,584.87 428.937,584.861 430.621,584.862C432.052,584.863 433.431,585.147 434.842,585.35C435.077,585.384 435.328,585.419 435.584,585.447C435.624,585.397 435.665,585.349 435.708,585.302C435.172,584.814 434.645,584.317 434.135,583.802C431.288,580.923 428.816,577.536 427.607,573.631C426.65,570.539 426.624,567.262 427.332,564.117C428.729,557.912 432.59,552.614 435.79,547.241C436.543,545.976 437.272,544.695 437.925,543.375C438.573,542.064 439.001,541.083 439.432,539.636C439.617,539.016 439.769,538.385 439.878,537.747C439.896,537.643 439.912,537.538 439.928,537.433C439.93,537.421 439.931,537.417 439.932,537.411C439.933,537.406 439.933,537.404 439.933,537.399C439.951,537.25 439.967,537.101 439.981,536.951C440.007,536.653 440.023,536.355 440.028,536.056C440.033,535.713 440.023,535.37 439.998,535.027C439.987,534.878 439.97,534.729 439.955,534.58C439.954,534.566 439.951,534.543 439.947,534.52C439.935,534.439 439.922,534.359 439.909,534.279C439.858,533.984 439.792,533.691 439.717,533.401C438.583,531.283 437.57,529.104 436.644,526.887C434.758,523.897 432.441,521.138 430.213,518.474C427.351,515.053 424.589,511.551 422.402,507.649C420.269,503.843 418.53,499.55 418.528,495.123C418.526,490.474 420.756,486.388 424.37,483.531C424.597,483.351 424.864,483.242 425.129,483.234C424.532,480.898 423.856,478.582 423.062,476.299C421.561,477.506 420.21,478.884 419.143,480.502C418.019,482.206 417.26,484.088 416.85,486.087C416.287,488.833 416.51,491.641 416.734,494.411C416.918,496.697 417.07,498.943 416.754,501.221C416.5,503.059 415.995,504.849 415.207,506.531C414.426,508.2 413.299,509.717 411.801,510.807C410.304,511.896 408.459,512.372 406.621,512.282C406.415,512.66 406.202,513.036 405.975,513.409C405.309,514.504 404.669,515.555 404.282,516.785C403.878,518.069 403.661,519.401 403.565,520.741C403.47,522.067 403.439,523.404 403.693,524.714C403.982,526.198 404.496,527.625 404.993,529.049C405.456,530.379 405.801,531.695 405.962,533.097C406.124,534.511 406.104,535.938 406.103,537.359C406.104,537.813 405.866,538.111 405.551,538.26Z" style="fill-rule:nonzero;"/>
            <path d="M423.292,460.283C420.045,465.15 415.393,468.922 411.398,473.139C409.422,475.225 407.578,477.501 406.786,480.315C406.02,483.035 406.261,485.89 406.848,488.619C407.455,491.445 408.669,494.207 408.777,497.115C408.831,498.577 408.705,500.038 408.716,501.5C408.728,503.015 408.808,504.535 408.665,506.047C408.527,507.505 408.154,508.866 407.625,510.173C408.076,510.137 408.52,510.059 408.971,509.918C412.146,508.921 413.761,505.348 414.447,502.248C415.49,497.529 414.021,492.634 414.486,487.823C414.894,483.608 416.597,479.755 419.531,476.689C422.288,473.808 425.806,471.761 429.345,469.992C433.239,468.046 437.559,466.594 440.73,463.495C442.304,461.956 443.437,460.126 443.934,457.973C444.367,456.095 444.417,454.152 444.432,452.232C444.46,448.331 444.213,444.229 445.854,440.584C446.701,438.704 448.122,437.154 449.844,436.035C452.072,434.587 454.716,433.994 457.016,432.686C459.332,431.368 461.469,429.702 463.331,427.797C464.247,426.859 465.093,425.851 465.975,424.881C466.812,423.961 467.649,423.041 468.426,422.069C470.078,420.003 471.108,417.676 471.98,415.195C472.751,413.001 473.369,410.739 473.674,408.432C473.148,407.946 472.597,407.49 471.982,407.123C470.931,406.495 469.794,406.406 468.597,406.351C467.367,406.295 466.11,406.302 464.888,406.47C462.455,406.804 460.758,408.178 459.059,409.843C457.008,411.852 454.828,413.719 452.726,415.675C450.609,417.646 448.755,419.853 446.691,421.874C442.749,425.734 438.149,429.134 433.206,431.603C432.63,431.891 432.021,432.118 431.464,432.442C430.973,432.727 430.603,433.11 430.229,433.531C429.319,434.557 428.487,435.658 427.77,436.827C426.403,439.054 425.65,441.658 425.621,444.272C425.606,445.632 425.893,446.926 426.08,448.265C426.27,449.626 426.386,450.997 426.271,452.37C426.029,455.243 424.88,457.902 423.292,460.283Z" style="fill-rule:nonzero;"/>
            <path d="M447.863,482.802C448.035,482.744 447.919,482.777 447.863,482.802Z" style="fill-rule:nonzero;"/>
            <path d="M423.261,487.528C417.577,494.51 422.226,503.987 426.546,510.336C428.788,513.63 431.424,516.61 433.926,519.701C433.906,519.646 433.886,519.59 433.867,519.535C432.85,516.599 431.856,513.65 431.041,510.651C429.996,506.802 429.19,502.894 428.432,498.981C427.629,494.837 426.856,490.676 425.921,486.557L425.562,485.26C424.728,485.944 423.943,486.69 423.261,487.528Z" style="fill-rule:nonzero;"/>
            <path d="M442.033,537.348C441.556,541.827 439.008,546.028 436.703,549.794C433.523,554.988 429.936,560.143 429.074,566.224C429.072,566.253 429.03,566.584 429.023,566.653C429.005,566.83 428.989,567.007 428.976,567.184C428.948,567.557 428.932,567.932 428.929,568.306C428.922,569.056 428.963,569.81 429.063,570.554C429.071,570.607 429.09,570.733 429.092,570.743C429.107,570.835 429.122,570.926 429.138,571.018C429.17,571.202 429.206,571.386 429.245,571.57C429.328,571.963 429.425,572.352 429.536,572.738C429.757,573.507 430.05,574.312 430.351,574.974C432.135,578.899 435.148,582.104 438.392,584.877C439.276,584.297 440.111,583.602 440.9,582.912C442.626,581.403 444.178,579.694 445.446,577.782C447.742,574.319 449.085,570.309 449.541,566.188C450.397,558.45 448.654,550.691 446.416,543.302C444.826,541.414 443.363,539.424 442.033,537.348Z" style="fill-rule:nonzero;"/>
            <path d="M542.679,465.079C543.609,470.098 545.024,475.062 547.11,479.729C548.158,482.074 549.368,484.349 550.749,486.516C552.247,488.867 553.895,491.1 555.285,493.524C556.699,495.989 557.923,498.547 559.237,501.064C559.791,502.126 560.361,503.185 560.903,504.258C560.502,502.664 559.998,501.107 559.503,499.517C557.967,494.584 557.252,489.455 556.208,484.408C555.141,479.251 553.487,474.243 552.386,469.09C551.257,463.804 550.483,458.452 549.652,453.113C548.811,447.708 548.204,442.207 547.073,436.854C546.008,431.808 544.335,427.002 541.857,422.483C540.686,420.348 539.611,418.165 538.458,416.021C537.282,413.833 535.904,411.928 534.302,410.037C530.937,406.065 527.907,401.805 524.428,397.933C522.817,396.14 520.802,394.801 518.881,393.369C516.998,391.964 514.947,390.88 512.796,389.944C510.546,388.966 508.244,388.112 506.04,387.031C503.668,385.868 501.27,384.808 498.798,383.872C496.485,382.996 494.122,381.972 491.697,381.458C489.258,380.941 486.736,380.979 484.257,381.041C481.75,381.104 479.254,381.033 476.749,381.054C474.72,381.071 472.888,381.762 470.961,382.19C470.862,382.273 470.743,382.344 470.598,382.392C469.927,382.613 469.559,383.888 469.637,384.509C469.696,384.978 469.924,385.47 470.199,385.938C470.473,386.081 470.677,386.345 470.707,386.728C470.8,386.864 470.891,386.997 470.975,387.12C473.197,390.401 476.872,392.278 480.192,394.24C484.332,396.687 488.534,398.947 492.872,401.025C495.046,402.066 497.287,402.935 499.472,403.949C501.577,404.926 503.515,406.257 505.359,407.657C508.9,410.347 512.271,413.34 515.354,416.546C518.399,419.714 521.244,423.243 523.252,427.17C525.293,431.163 526.029,435.576 526.174,440.021C526.249,442.316 526.213,444.582 525.843,446.853C525.461,449.203 524.815,451.496 524.274,453.811C523.725,456.163 523.541,458.568 522.933,460.91C522.325,463.251 521.696,465.591 521.268,467.974C520.883,470.118 520.697,472.3 520.673,474.477C520.651,476.542 520.729,478.679 521.321,480.67C522.549,484.806 525.609,488.294 528.745,491.136C532.23,494.295 536.103,497.021 539.334,500.458C540.623,501.828 541.697,503.337 542.338,505.117C542.931,506.763 543.28,508.533 543.49,510.266C543.695,511.951 543.752,513.784 543.053,515.37C542.28,517.125 541.042,518.71 539.713,520.079C537.012,522.863 533.602,525.106 530.254,527.037C528.721,527.921 527.125,528.738 525.718,529.82C524.589,530.689 522.883,532.183 523.078,533.777C523.288,535.49 524.667,537.051 525.642,538.396C526.937,540.184 528.386,541.797 529.837,543.457C532.3,546.275 534.229,549.499 535.287,553.111C535.726,554.612 536.03,556.265 535.667,557.814C535.265,559.534 534.187,561.055 532.931,562.262C530.359,564.735 527.023,566.193 524.017,568.042C522.96,568.692 521.899,569.397 520.96,570.229C519.64,572.51 518.988,575.247 518.577,577.809C518.182,580.276 517.829,583.408 518.867,585.776C518.877,585.8 518.881,585.823 518.89,585.846C520.385,584.775 522.02,583.899 523.674,583.098C526.216,581.867 528.737,580.656 531.179,579.23C533.617,577.806 536.033,576.34 538.453,574.886C540.716,573.526 542.961,572.104 544.93,570.334C548.404,567.212 551.574,562.675 551.54,557.833C549.808,555.344 547.763,553.01 547.101,550.019C546.697,548.192 546.62,546.232 546.968,544.391C547.347,542.384 548.578,540.934 550.045,539.584C550.901,538.796 551.793,538.048 552.56,537.169C553.37,536.241 554.052,535.212 554.766,534.211C556.166,532.248 557.617,530.376 558.758,528.24C559.886,526.129 560.771,523.893 561.339,521.566C561.352,521.514 561.361,521.461 561.374,521.409C561.466,519.421 561.599,517.434 561.592,515.443C561.587,514.037 561.526,512.618 561.275,511.233C561.012,509.778 560.521,508.391 559.916,507.045C558.768,504.491 557.377,502.041 556.118,499.541C554.821,496.968 553.456,494.426 551.909,491.994C550.471,489.733 548.867,487.601 547.548,485.263C546.272,483 545.172,480.641 544.216,478.226C540.424,468.653 539.083,458.195 539.21,447.947C539.227,446.594 541.327,446.595 541.311,447.947C541.24,453.682 541.634,459.435 542.679,465.079Z" style="fill-rule:nonzero;"/>
            <path d="M465.79,382.339C461.586,382.995 457.424,384.046 453.424,385.496C449.357,386.97 445.472,389.07 441.823,391.383C437.773,393.95 434.534,397.661 431.234,401.096C428.069,404.391 425.211,407.928 422.932,411.898C417.972,420.541 414.971,429.825 413.047,439.572C412.065,444.545 411.314,449.559 410.596,454.576C410.239,457.073 409.942,459.583 409.399,462.048C408.857,464.509 408.137,466.926 407.384,469.33C405.888,474.108 404.342,478.801 402.406,483.422C400.567,487.813 398.976,492.296 397.1,496.67C395.254,500.974 393.285,505.35 392.609,510.024C392.297,512.183 392.279,514.488 392.499,516.659C392.708,518.721 393.626,520.436 394.992,521.972C397.819,525.149 401.238,527.69 403.51,531.338C402.929,529.108 401.916,526.986 401.567,524.689C401.159,522.006 401.419,519.032 402.193,516.432C402.949,513.893 404.702,511.911 405.69,509.486C406.232,508.156 406.541,506.75 406.616,505.318C406.698,503.768 406.592,502.217 406.617,500.667C406.641,499.174 406.778,497.668 406.612,496.178C406.451,494.73 405.885,493.313 405.501,491.913C404.725,489.089 404.074,486.149 404.217,483.203C404.363,480.182 405.382,477.346 407.166,474.906C408.932,472.49 411.111,470.44 413.216,468.329C417.211,464.323 422.19,460.141 423.775,454.478C424.146,453.153 424.26,451.8 424.195,450.427C424.127,448.991 423.808,447.603 423.629,446.183C423.283,443.459 423.742,440.603 424.79,438.073C425.323,436.786 426.01,435.598 426.82,434.466C427.621,433.345 428.49,432.114 429.554,431.225C430.546,430.397 431.804,429.982 432.93,429.374C434.151,428.715 435.348,428.012 436.518,427.267C438.912,425.742 441.187,424.038 443.311,422.154C445.467,420.24 447.316,418.063 449.341,416.021C451.479,413.865 453.804,411.907 456.026,409.841C457.87,408.126 459.556,406.131 461.921,405.121C464.276,404.115 467.07,404.09 469.584,404.317C470.804,404.427 471.908,404.668 472.964,405.271C472.788,405.025 472.611,404.78 472.438,404.532C472.043,403.964 471.692,403.393 471.227,402.876C470.725,402.318 470.186,401.793 469.696,401.225C468.607,399.964 468.025,398.661 467.857,397.005C467.702,395.478 467.742,393.848 468.096,392.35C468.298,391.494 468.483,390.663 468.548,389.783C468.606,388.998 468.612,388.211 468.612,387.425C468.07,386.544 467.654,385.599 467.552,384.665C467.458,383.805 467.679,382.841 468.139,382.032C467.355,382.118 466.571,382.217 465.79,382.339Z" style="fill-rule:nonzero;"/>
            <path d="M496.03,524.123C496.006,524.115 495.981,524.109 495.958,524.101C495.971,524.108 495.999,524.117 496.039,524.128C496.035,524.126 496.034,524.125 496.03,524.123Z" style="fill-rule:nonzero;"/>
            <path d="M467.665,526.525C468.656,526.469 469.591,526.57 470.533,526.884C471.402,527.174 472.222,527.282 473.138,527.297C474.065,527.312 475.064,527.338 475.975,527.15C476.963,526.947 477.864,526.462 478.813,526.139C479.825,525.795 480.856,525.737 481.916,525.792C483.067,525.852 484.21,525.866 485.362,525.866L489.306,525.866C488.647,525.544 487.965,525.274 487.254,525.069C485.177,524.471 483.007,524.385 480.861,524.515C479.758,524.582 478.659,524.703 477.566,524.862C476.434,525.027 475.309,525.29 474.159,525.205C472.997,525.118 471.869,524.828 470.729,524.609C469.758,524.422 468.655,524.264 467.699,524.606C466.598,524.999 465.586,525.471 464.429,525.708C463.997,525.797 463.561,525.863 463.122,525.915C463.529,526.133 463.935,526.354 464.38,526.497C465.416,526.832 466.603,526.586 467.665,526.525Z" style="fill-rule:nonzero;"/>
            <path d="M446.897,482.821C446.961,482.845 447.032,482.863 446.897,482.821Z" style="fill-rule:nonzero;"/>
            <path d="M447.211,482.907C447.109,482.885 447.156,482.902 447.211,482.907Z" style="fill-rule:nonzero;"/>
            <path d="M496.001,524.088C495.982,524.07 495.966,524.056 495.963,524.058C495.961,524.06 495.978,524.072 496.001,524.088C496,524.088 496.001,524.088 496.001,524.088Z" style="fill-rule:nonzero;"/>
            <path d="M439.943,534.488C439.936,534.443 439.932,534.416 439.943,534.488Z" style="fill-rule:nonzero;"/>
            <path d="M480.957,506.947C480.874,506.949 480.829,506.967 480.8,506.984C480.803,506.984 480.807,506.984 480.81,506.983C480.857,506.967 480.917,506.948 480.957,506.947Z" style="fill-rule:nonzero;"/>
            <path d="M467.507,509.804C467.5,509.799 467.497,509.797 467.488,509.79L467.487,509.79C467.483,509.787 467.48,509.786 467.475,509.783C467.487,509.788 467.497,509.797 467.507,509.804Z" style="fill-rule:nonzero;"/>
            <path d="M373.064,567.466C372.314,570.01 371.993,572.649 371.663,575.273C371.346,577.798 370.951,580.287 371.001,582.841C371.194,592.535 376.557,601.459 384.798,606.484C386.782,607.694 388.9,608.673 391.133,609.322C393.642,610.051 396.255,610.26 398.851,610.436C404.54,610.82 410.253,610.71 415.95,610.71L418.209,610.71C418.373,610.693 418.551,610.693 418.743,610.71C419.237,610.71 419.732,610.711 420.226,610.71C421.412,610.708 422.595,610.575 423.781,610.587C425.887,610.608 427.776,611.278 429.216,612.854C429.536,613.205 429.828,613.586 430.09,613.989C429.998,610.935 429.543,607.481 427.078,605.468C425.007,603.777 422.086,603.263 419.507,602.85C418.131,602.63 416.747,602.458 415.374,602.221C413.58,601.911 411.807,601.559 409.997,601.338C407.904,601.082 405.8,600.857 403.739,600.401C401.674,599.944 399.727,599.189 397.849,598.22C394.151,596.311 390.785,593.761 387.723,590.957C384.793,588.274 382.044,585.36 380.227,581.791C379.292,579.954 378.523,578.004 378.172,575.968C377.986,574.887 377.864,573.797 377.645,572.722C377.437,571.705 377.166,570.701 376.97,569.681C376.165,565.491 377.165,561.256 378.357,557.233C376.167,560.42 374.148,563.786 373.064,567.466Z" style="fill-rule:nonzero;"/>
            <path d="M549.259,600.707C549.245,600.71 549.238,600.713 549.226,600.716C549.224,600.717 549.222,600.718 549.219,600.719C549.233,600.715 549.246,600.71 549.259,600.707Z" style="fill-rule:nonzero;"/>
            <path d="M549.699,600.431C549.718,600.417 549.737,600.402 549.758,600.389C549.745,600.397 549.737,600.402 549.726,600.409C549.721,600.413 549.717,600.417 549.712,600.421C549.708,600.424 549.704,600.427 549.699,600.431Z" style="fill-rule:nonzero;"/>
            <path d="M549.21,600.724C549.213,600.722 549.216,600.721 549.22,600.719C549.179,600.73 549.138,600.743 549.098,600.756C549.1,600.76 549.164,600.746 549.21,600.724Z" style="fill-rule:nonzero;"/>
            <path d="M551.299,598.598C551.17,598.21 550.997,597.833 550.755,597.461C550.229,596.651 549.526,595.971 548.887,595.252C547.461,593.648 546.372,591.707 544.457,590.611C542.316,589.386 539.879,589.952 537.54,589.968C537.535,589.968 537.532,589.967 537.527,589.967C537.296,590.99 537.264,592.05 537.4,593.091C538.05,592.945 538.643,592.627 539.297,592.503C540.153,592.341 540.95,592.51 541.732,592.862C542.429,593.175 543.048,593.63 543.659,594.083C544.237,594.511 544.828,594.923 545.385,595.38C546.286,596.12 547.112,597.017 547.618,598.078C548.047,598.978 548.266,599.934 548.345,600.912C548.377,600.91 548.41,600.912 548.443,600.91C548.491,600.907 548.54,600.901 548.588,600.897C548.597,600.895 548.601,600.894 548.614,600.892C548.782,600.861 548.939,600.807 549.098,600.757C549.096,600.754 549.129,600.742 549.227,600.717C549.27,600.696 549.313,600.674 549.355,600.651C549.449,600.6 549.54,600.543 549.628,600.483C549.643,600.473 549.659,600.462 549.673,600.451C549.611,600.493 549.554,600.516 549.726,600.41C549.803,600.345 549.879,600.277 549.952,600.206C550.455,599.72 550.872,599.153 551.299,598.598Z" style="fill-rule:nonzero;"/>
            <path d="M544.003,596.951C543.073,596.17 542.033,595.382 540.959,594.814C540.527,594.586 540.062,594.461 539.588,594.589C539.014,594.743 538.488,595.009 537.904,595.13C538.043,595.501 538.197,595.866 538.383,596.215C539.139,597.634 540.609,598.679 541.959,599.485C543.225,600.241 544.721,600.973 546.234,600.942C546.175,600.288 546.049,599.651 545.803,599.137C545.37,598.23 544.792,597.613 544.003,596.951Z" style="fill-rule:nonzero;"/>
            <path d="M577.8,603.727C573.382,598.799 568.284,594.524 562.933,590.649C557.473,586.696 551.749,583.128 546.02,579.583C545.977,579.557 545.943,579.526 545.907,579.496C544.444,580.571 543.07,581.754 541.815,583.079C540.495,584.472 539.173,586.079 538.304,587.843C539.333,587.799 540.359,587.703 541.39,587.719C543.961,587.761 546.162,588.864 547.9,590.735C548.68,591.575 549.314,592.527 550.053,593.398C550.765,594.237 551.545,595.011 552.21,595.891C552.698,596.536 553.092,597.253 553.344,598.02C553.575,598.268 553.636,598.595 553.567,598.905C553.787,600.227 553.8,601.61 553.789,602.947C553.777,604.274 553.673,605.587 553.498,606.902C553.327,608.185 553.206,609.486 552.865,610.738C552.187,613.225 550.382,615.291 548.496,616.978C546.635,618.642 544.546,620.164 542.319,621.3C540.022,622.471 537.538,623.116 535.021,623.254C534.934,623.391 534.807,623.515 534.619,623.607C531.421,625.18 528.299,626.909 525.293,628.825C520.12,632.124 515.307,635.979 511.077,640.429C507.462,644.231 504.333,648.455 501.73,653C502.093,652.943 502.454,652.876 502.815,652.812C504.779,650.331 507.378,648.313 509.874,646.41C512.574,644.352 515.428,642.499 518.394,640.847C524.357,637.526 530.762,635.002 537.333,633.174C539.509,632.569 541.702,631.964 543.947,631.68C545.391,631.497 546.847,631.411 548.3,631.341C552.17,631.156 556.047,631.108 559.918,630.939C564.112,630.757 568.392,630.471 572.415,629.802C574.313,629.486 576.202,629.084 578.043,628.52C578.847,628.274 579.831,627.926 580.487,627.647C580.698,627.557 581.21,627.322 581.532,627.16C581.887,626.982 582.237,626.792 582.578,626.588C582.919,626.385 583.251,626.169 583.573,625.938C583.654,625.879 583.735,625.82 583.815,625.759C583.824,625.753 583.821,625.754 583.819,625.756C583.83,625.747 583.841,625.738 583.871,625.714C584.012,625.599 584.152,625.483 584.288,625.363C584.554,625.127 584.808,624.879 585.046,624.616C585.172,624.477 585.293,624.334 585.411,624.188C585.418,624.18 585.42,624.177 585.425,624.171C585.43,624.164 585.433,624.159 585.441,624.148C585.488,624.084 585.535,624.02 585.58,623.955C585.776,623.674 585.955,623.381 586.113,623.077C586.188,622.934 586.256,622.787 586.321,622.64C586.328,622.612 586.44,622.334 586.462,622.27C586.577,621.936 586.669,621.594 586.738,621.248C586.757,621.152 586.773,621.056 586.79,620.96C586.794,620.935 586.798,620.907 586.802,620.882C586.823,620.703 586.84,620.524 586.85,620.345C587.037,617.138 585.457,614.197 583.787,611.574C582.016,608.795 580,606.181 577.8,603.727Z" style="fill-rule:nonzero;"/>
            <path d="M558.234,633.109C554.447,633.249 550.653,633.285 546.871,633.521C546.14,633.567 545.409,633.622 544.681,633.697C544.507,633.715 544.334,633.734 544.16,633.755C544.101,633.762 543.942,633.783 543.871,633.793C543.603,633.832 543.335,633.872 543.068,633.921C540.121,634.464 537.194,635.348 534.344,636.262C527.805,638.359 521.502,641.201 515.706,644.896C512.829,646.73 510.088,648.77 507.526,651.025C507.121,651.381 506.729,651.746 506.339,652.113C506.744,652.023 507.148,651.926 507.552,651.832C511.797,650.263 516.099,648.816 520.605,648.264C523.208,647.945 525.834,647.913 528.453,647.91C531.208,647.907 533.962,647.891 536.717,647.901C538.005,647.906 539.303,647.967 540.591,647.902C541.83,647.839 543.048,647.63 544.255,647.346C546.658,646.78 548.991,645.951 551.365,645.28C556.187,643.917 560.9,642.136 565.347,639.817C567.428,638.732 569.585,637.581 571.38,636.052C571.833,635.666 572.3,635.267 572.624,634.762C572.882,634.36 573.085,633.928 573.302,633.504C573.575,632.969 573.888,632.493 574.273,632.032C574.419,631.857 574.562,631.69 574.696,631.518C573.542,631.745 572.382,631.935 571.226,632.096C566.919,632.693 562.577,632.948 558.234,633.109Z" style="fill-rule:nonzero;"/>
            <path d="M491.285,648.248C489.696,647.554 488.087,646.906 486.437,646.373C484.938,645.889 483.412,645.49 481.871,645.17C480.315,644.847 478.869,644.625 477.432,644.467C470.998,643.757 464.503,644.151 458.063,644.563C450.715,645.032 443.366,645.504 436,645.207C427.094,644.848 418.253,643.395 409.726,640.79C401.099,638.155 392.851,634.424 384.989,630.014C388.416,633.859 391.752,637.792 395.412,641.418C398.8,644.775 401.363,647.971 404.429,650.569C409.751,654.226 416.059,656.136 422.515,656.727C430.38,657.447 438.307,656.551 446.091,655.432C451.853,654.604 457.6,653.566 463.401,653.05C467.928,652.647 472.473,652.402 477.017,652.314C482.33,652.212 487.726,652.259 492.979,653.142C493.622,653.25 494.36,653.384 495.123,653.56C496.052,653.56 496.974,653.525 497.889,653.456C497.661,652.865 497.345,652.316 496.913,651.826C495.428,650.142 493.308,649.132 491.285,648.248Z" style="fill-rule:nonzero;"/>
            <path d="M517.391,631.866C521.671,628.503 526.272,625.587 531.084,623.056C530.051,622.895 529.026,622.654 528.019,622.323C523.349,620.787 519.168,617.723 516.081,613.919C514.51,611.983 513.203,609.889 512.373,607.528C511.521,605.108 511.129,602.48 511.215,599.916C511.297,597.47 511.831,595.044 512.879,592.828C513.869,590.734 515.38,588.904 517.063,587.329C517.13,587.267 517.2,587.21 517.268,587.149C517.186,587.067 517.112,586.967 517.055,586.836C516.541,585.662 516.308,584.437 516.209,583.161C516.179,582.775 516.161,582.388 516.154,581.999C515.843,581.817 515.652,581.471 515.606,581.085C515.192,577.614 514.868,574.133 514.653,570.644C514.031,560.563 514.399,550.482 515.368,540.44C514.244,542.008 513.063,543.537 511.836,545.024C506.733,551.205 500.595,556.969 493.32,560.486C489.643,562.264 485.67,563.44 481.569,563.574C477.203,563.717 472.924,562.591 469.075,560.561C468.814,560.423 468.652,560.235 468.565,560.027C468.321,560.081 468.05,560.057 467.771,559.906C466.903,559.438 466.04,558.96 465.185,558.468C459.523,555.21 454.142,551.36 449.531,546.714C450.256,549.46 450.864,552.236 451.268,555.049C451.905,559.486 452.064,563.986 451.295,568.418C450.528,572.837 448.736,577.01 445.979,580.553C444.445,582.525 442.637,584.244 440.656,585.761C440.343,586 440.036,586.232 439.725,586.447C441.845,587.959 443.872,589.599 445.95,591.168C447.06,592.006 448.188,592.822 449.356,593.578C450.479,594.304 451.642,594.959 452.754,595.704C453.833,596.427 454.927,597.166 456.179,597.55C457.645,597.999 459.14,598.477 460.643,598.783C461.989,599.057 463.272,599.146 464.475,599.883C465.59,600.566 466.581,601.453 467.567,602.305C469.576,604.039 470.594,606.361 471.88,608.619C472.551,609.796 470.735,610.854 470.066,609.679C469.358,608.437 468.758,607.132 467.981,605.93C467.238,604.781 466.255,603.922 465.216,603.049C464.263,602.247 463.277,601.425 462.038,601.142C461.393,600.995 460.732,600.939 460.084,600.809C459.352,600.661 458.631,600.442 457.913,600.239C456.561,599.856 455.182,599.521 453.922,598.883C452.794,598.312 451.779,597.554 450.718,596.874C449.57,596.138 448.384,595.474 447.258,594.701C446.108,593.911 444.993,593.071 443.887,592.219C441.779,590.595 439.699,588.932 437.49,587.445C437.413,587.459 437.338,587.477 437.259,587.487C437.141,587.502 437.022,587.51 436.904,587.519C436.6,588.788 436.767,590.229 436.847,591.548C436.965,593.494 437.523,595.215 438.528,596.892C440.445,600.088 443.328,602.292 446.33,604.391C451.691,608.138 457.369,611.408 462.979,614.76C468.908,618.302 474.821,621.91 480.339,626.076C485.627,630.069 490.582,634.571 494.423,640.005C496.957,643.59 498.859,647.537 500.039,651.713C501.308,649.514 502.694,647.385 504.21,645.347C507.978,640.28 512.428,635.766 517.391,631.866Z" style="fill-rule:nonzero;"/>
            <path d="M313.401,602.027C318.388,606.261 325.389,608.011 331.755,608.659C334.94,608.983 338.171,609.015 341.354,608.687C345.732,607.496 350.075,606.17 354.326,604.58C354.017,603.713 353.884,602.785 353.958,601.854C350.376,600.636 346.863,599.223 343.364,597.785C336.214,594.847 329.008,591.825 321.362,590.447C319.942,590.191 318.566,590.176 317.125,590.176C315.869,590.176 314.591,590.192 313.349,590.366C311.086,590.684 308.951,591.543 308.036,593.715C308.963,596.992 310.794,599.814 313.401,602.027Z" style="fill-rule:nonzero;"/>
            <path d="M545.7,577.067C547.505,575.839 549.232,574.695 550.661,573.017C552.097,571.331 553.861,569.265 554.404,567.063C554.884,565.115 554.182,562.879 553.423,561.091C553.389,561.011 553.349,560.934 553.314,560.855C552.251,565.672 548.838,569.981 545.038,572.977C543.001,574.584 540.795,575.942 538.567,577.265C536.206,578.667 533.87,580.114 531.488,581.479C529.174,582.805 526.771,583.91 524.381,585.085C522.19,586.161 520.045,587.364 518.279,589.072C516.727,590.573 515.377,592.273 514.519,594.269C513.63,596.336 513.273,598.621 513.307,600.861C513.343,603.245 513.811,605.652 514.736,607.854C515.592,609.894 516.918,611.753 518.386,613.395C521.453,616.827 525.461,619.572 529.96,620.698C534.429,621.816 538.924,621.006 542.821,618.605C544.851,617.354 546.8,615.865 548.421,614.11C549.221,613.243 550.047,612.259 550.512,611.163C550.956,610.117 551.129,608.953 551.277,607.835C551.559,605.708 551.712,603.598 551.652,601.464C551.543,601.578 551.438,601.696 551.321,601.802C550.385,602.646 549.242,603.041 547.984,603.022C547.85,603.02 547.725,602.992 547.61,602.946C547.405,602.997 547.187,602.994 546.986,602.936C546.892,602.976 546.792,603.008 546.679,603.022C545.094,603.219 543.482,602.615 542.079,601.937C538.59,600.25 536.015,597.609 535.367,593.688C534.576,588.903 537.282,584.772 540.462,581.458C542.04,579.811 543.814,578.349 545.7,577.067Z" style="fill-rule:nonzero;"/>
            <path d="M329.95,576.435C331.125,580.307 333.175,583.913 336.023,586.798C341.352,592.195 348.672,595.031 355.553,597.913C355.783,597.6 356.028,597.297 356.284,597.006C357.025,596.166 357.833,595.41 358.887,594.991C359.282,594.834 359.717,594.729 360.174,594.667C360.069,594.091 359.957,593.516 359.835,592.942C358.841,588.247 357.471,583.597 356.052,579.014C354.789,574.938 353.232,571.014 351.236,567.241C349.572,564.098 347.664,561.028 345.176,558.465C343.094,556.321 339.934,553.897 336.924,553.899C335.919,553.9 334.887,554.303 334.095,554.919C333.029,555.746 332.287,556.769 331.621,557.914C330.253,560.268 329.416,562.953 328.987,565.645C328.912,566.114 328.86,566.595 328.823,567.26C328.766,568.283 328.769,569.31 328.831,570.333C328.958,572.406 329.348,574.451 329.95,576.435Z" style="fill-rule:nonzero;"/>
            <path d="M333.311,642.648C335.044,642.047 336.7,640.825 338.188,639.771C339.696,638.703 341.117,637.517 342.462,636.25C345.176,633.694 347.562,630.814 349.672,627.745C353.696,621.892 356.783,615.465 359.64,608.977C358.741,608.815 357.874,608.53 357.072,608.027C356.642,607.757 356.253,607.44 355.902,607.088C351.554,609.466 346.819,610.801 341.968,611.334C341.016,611.592 340.063,611.848 339.108,612.096C335.301,613.086 331.372,614.052 327.827,615.81C324.46,617.479 322.101,620.052 320.324,623.331C318.642,626.435 317.548,629.953 317.659,633.509C317.767,636.967 319.22,640.857 322.374,642.605C325.758,644.481 329.817,643.859 333.311,642.648Z" style="fill-rule:nonzero;"/>
            <path d="M367.991,630.44C367.683,628.226 367.397,625.969 366.985,623.744C366.725,623.144 366.47,622.541 366.231,621.932C365.355,619.701 364.669,617.384 363.727,615.181C363.321,614.233 362.904,613.301 362.54,612.355C361.981,616.009 360.007,619.398 358.446,622.687C356.482,626.822 354.671,631.065 353.407,635.471C351.686,641.471 350.418,649.083 353.674,654.836C355.073,657.307 357.44,658.864 360.346,658.679C363.419,658.483 365.803,656.106 366.858,653.348C369.626,646.11 369.037,637.964 367.991,630.44Z" style="fill-rule:nonzero;"/>
            <path d="M360.228,575.908C360.388,578.693 360.706,581.466 361.009,584.239C361.046,584.578 360.898,584.89 360.667,585.131C361.566,588.323 362.386,591.539 362.933,594.806C365.145,595.29 367.224,596.626 367.729,598.594C369.078,597.799 370.645,597.328 372.14,597.026C372.426,596.969 372.673,597.022 372.876,597.137C369.76,591.632 368.36,585.201 369.092,578.81C369.392,576.195 369.728,573.563 370.148,570.965C370.581,568.288 371.3,565.739 372.437,563.273C372.764,562.563 373.122,561.87 373.492,561.183C372.704,560.637 371.994,559.996 371.234,559.408C370.527,558.861 369.788,558.458 368.875,558.488C367.879,558.521 366.732,558.867 365.843,559.311C364.834,559.815 364.233,560.524 363.619,561.45C362.266,563.488 361.121,565.664 360.535,568.052C359.91,570.602 360.079,573.308 360.228,575.908Z" style="fill-rule:nonzero;"/>
            <path d="M384.434,632.702C383.298,631.414 382.071,630.205 380.871,628.977C379.772,627.853 378.676,626.724 377.592,625.584C377.576,625.569 377.563,625.553 377.548,625.538C375.139,623.003 372.793,620.407 370.638,617.652C369.058,615.631 367.548,613.537 366.334,611.272C365.948,610.552 365.587,609.811 365.277,609.05C365.199,609.084 365.116,609.111 365.027,609.129C365.372,610.004 365.57,610.969 365.907,611.831C366.813,614.145 367.877,616.376 368.601,618.761C369.013,620.116 369.293,621.499 369.536,622.891C370.3,624.687 371.152,626.444 371.856,628.265C372.565,630.095 373.157,631.967 373.824,633.813C374.474,635.61 375.206,637.375 376.195,639.015C377.17,640.632 378.432,642.039 379.753,643.379C380.974,644.618 382.332,645.835 383.948,646.534C384.723,646.869 385.569,647.069 386.416,647.031C386.853,647.011 387.372,646.837 387.635,646.644C388.542,645.974 388.928,644.793 389.184,643.649C389.459,642.419 389.519,641.149 389.489,639.84C389.481,639.478 389.595,639.196 389.774,638.984C388.004,636.882 386.253,634.763 384.434,632.702Z" style="fill-rule:nonzero;"/>
            <path d="M428.27,623.8C428.676,623.697 429.008,623.52 429.252,623.278C428.895,623.279 428.556,623.057 428.357,622.74C428.346,622.743 428.333,622.747 428.321,622.75C427.798,622.89 427.281,623.059 426.746,623.152C425.747,623.326 424.661,623.288 423.655,623.176C421.874,622.979 420.036,622.18 418.844,620.804C417.803,619.602 417.265,618.036 416.776,616.546C416.475,615.629 416.197,614.083 416.388,612.81C413.567,612.81 410.745,612.822 407.924,612.81C406.868,612.805 405.812,612.792 404.756,612.773C404.78,612.863 404.797,612.959 404.797,613.066C404.792,615.598 404.506,618.327 405.586,620.702C406.581,622.889 408.521,624.835 410.685,625.869C411.819,626.411 413.115,626.517 414.339,626.721C415.467,626.91 416.506,627.329 417.615,627.576C419.504,627.995 421.862,628.186 423.691,627.427C424.75,626.987 425.721,626.342 426.733,625.808C427.044,625.644 427.356,625.473 427.646,625.277C427.383,624.736 427.52,623.99 428.27,623.8Z" style="fill-rule:nonzero;"/>
            <path d="M609.239,466.398C607.242,467.269 605.243,468.216 603.585,469.651C601.763,471.228 600.236,473.103 598.627,474.888C596.873,476.833 594.98,478.651 593.207,480.579C592.89,480.923 592.586,481.279 592.273,481.627C591.075,484.216 589.72,486.735 588.286,489.196C586.091,492.961 583.59,496.535 581.406,500.306C580.59,501.716 579.796,503.139 578.967,504.542C578.142,505.937 577.206,507.261 576.379,508.653C575.587,509.986 574.973,511.456 574.029,512.692C573.834,512.948 573.455,513.292 573.114,513.665C572.862,514.338 572.63,515.021 572.426,515.724C572.347,515.996 572.175,516.213 571.958,516.375C572.009,516.425 572.062,516.472 572.111,516.525C572.129,516.518 572.145,516.507 572.163,516.501C573.356,516.053 574.545,515.593 575.729,515.121C576.463,514.828 577.193,514.523 577.924,514.223C579.151,513.395 580.415,512.637 581.929,512.289C583.733,511.874 585.389,510.486 587.116,509.574C589.336,508.401 591.636,507.385 593.948,506.411C596.031,505.533 598.133,504.706 600.241,503.894C601.864,502.987 603.454,502.019 604.99,500.943C609.434,497.829 613.47,494.162 617.302,490.331C620.683,486.952 623.98,483.13 624.97,478.308C625.826,474.138 623.697,469.793 620.52,467.113C619.074,465.894 617.216,465.156 615.336,464.996C613.208,464.812 611.166,465.557 609.239,466.398Z" style="fill-rule:nonzero;"/>
            <path d="M564.887,521.188C564.865,521.261 564.882,521.313 564.89,521.277C564.892,521.243 564.891,521.211 564.889,521.18C564.888,521.182 564.888,521.185 564.887,521.188Z" style="fill-rule:nonzero;"/>
            <path d="M593.385,462.999C592.612,459.625 589.903,455.77 586.459,454.918C585.163,454.597 583.619,454.83 582.357,455.429C580.736,456.198 579.418,457.247 578.152,458.489C575.421,461.168 573.255,464.397 571.368,467.708C568.965,471.927 567.319,476.399 566.343,481.16C565.177,486.85 564.862,492.675 564.719,498.469C564.568,504.561 563.748,510.761 564.77,516.815C564.79,516.932 564.794,517.048 564.792,517.163C565.144,516.9 565.5,516.663 565.841,516.461C567.045,515.746 568.442,515.17 569.771,515.304C569.707,514.249 570.014,513.385 570.635,512.534C570.842,511.976 571.053,511.419 571.286,510.869C571.85,509.539 572.511,508.268 573.161,506.98C573.802,505.707 574.32,504.381 574.835,503.054C575.902,500.309 577.102,497.714 578.629,495.192C581.644,490.214 585.2,485.565 589.026,481.185C589.343,480.823 589.673,480.472 589.993,480.114C590.794,478.362 591.518,476.577 592.123,474.748C593.353,471.027 594.26,466.817 593.385,462.999Z" style="fill-rule:nonzero;"/>
            <path d="M562.104,587.496C562.149,587.187 562.334,586.9 562.608,586.705C566.678,583.797 570.706,580.32 572.56,575.532C574.238,571.197 574.208,566.804 573.39,562.455C573.274,562.035 573.159,561.614 573.034,561.196C572.283,558.69 571.467,556.203 570.766,553.682C570.614,553.136 570.473,552.587 570.337,552.037C569.712,550.281 569.077,548.547 568.5,546.842C566.097,539.743 564.119,532.533 562.921,525.165C562.758,525.261 562.569,525.311 562.377,525.317C561.757,526.983 560.991,528.596 560.112,530.132C558.942,532.177 557.48,534.002 556.122,535.92C554.752,537.855 553.271,539.469 551.53,541.069C550.721,541.812 549.833,542.612 549.372,543.632C548.983,544.493 548.879,545.488 548.858,546.421C548.81,548.481 549.211,550.382 550.242,552.174C550.998,553.487 551.914,554.692 552.797,555.919C553.26,556.032 553.557,556.454 553.6,556.938C553.605,556.99 553.604,557.042 553.608,557.094C553.722,557.264 553.843,557.43 553.953,557.602C555.027,559.288 555.852,561.204 556.303,563.153C556.755,565.107 556.791,567.052 555.949,568.9C555.011,570.959 553.606,572.787 552.146,574.501C550.881,575.986 549.377,577.122 547.776,578.201C548.957,578.933 550.139,579.664 551.316,580.402C554.963,582.689 558.581,585.025 562.104,587.496Z" style="fill-rule:nonzero;"/>
            <path d="M628.38,499.2C627.119,498.405 625.796,498.228 624.219,498.302C620.675,498.467 616.951,500.042 613.61,501.465C609.827,503.077 606.011,504.562 602.171,506.033C602.046,506.081 601.921,506.129 601.796,506.177C597.607,508.571 593.118,510.496 588.738,512.478C585.535,513.927 582.31,515.331 579.059,516.671C578.306,517.222 577.097,518.127 575.835,518.792C576.871,518.629 577.914,518.51 578.96,518.448C581.924,518.274 584.888,518.567 587.738,519.408C589.308,519.871 590.856,520.406 592.412,520.916C595.8,521.467 599.207,521.927 602.597,522.473C603.059,522.411 603.521,522.334 603.981,522.222C606.273,521.667 608.556,521.021 610.837,520.419C613.024,519.842 615.295,519.276 617.332,518.269C619.703,517.097 622.233,516.094 624.389,514.542C625.436,513.789 626.242,512.824 627.072,511.851C627.834,510.957 628.636,510.093 629.356,509.164C630.734,507.385 631.68,505.406 631.015,503.141C630.542,501.52 629.633,499.991 628.38,499.2Z" style="fill-rule:nonzero;"/>
            <path d="M439.758,643.198C446.973,643.267 454.158,642.67 461.355,642.26C467.812,641.892 474.32,641.735 480.72,642.822C483.881,643.359 486.986,644.216 489.956,645.428C492.188,646.339 494.841,647.376 496.907,648.952C495.41,645.193 493.278,641.695 490.682,638.548C486.41,633.369 481.149,629.091 475.658,625.271C469.901,621.267 463.842,617.726 457.825,614.134C452.292,610.831 446.72,607.508 441.637,603.528C438.262,600.885 435.213,596.858 434.799,592.476C434.668,591.089 434.568,589.639 434.684,588.25C434.706,587.983 434.74,587.703 434.789,587.422C434.327,587.36 433.867,587.282 433.412,587.207C433.047,587.147 432.689,587.101 432.331,587.062C429.348,587.124 426.373,587.319 423.412,587.673C423.263,587.727 423.116,587.785 422.977,587.854C422.499,588.091 422.066,588.414 421.627,588.714C421.213,588.998 420.787,589.251 420.344,589.451C425.406,592.77 429.641,597.573 429.597,603.929C429.595,604.271 429.459,604.525 429.257,604.695C430.009,605.49 430.633,606.447 431.076,607.623C432.451,611.27 432.176,615.21 432.229,619.033C432.256,620.998 432.065,623.317 430.743,624.721C430.177,626.011 429.188,626.892 427.931,627.552C426.645,628.227 425.412,629.041 424.039,629.534C421.824,630.33 419.002,630.096 416.76,629.532C416.146,629.378 415.564,629.13 414.949,628.98C414.305,628.822 413.648,628.726 412.993,628.623C411.523,628.392 410.156,628.041 408.866,627.274C406.492,625.862 404.458,623.588 403.45,621.009C402.464,618.489 402.69,615.714 402.695,613.066C402.695,612.938 402.719,612.826 402.753,612.722C401.639,612.687 400.526,612.642 399.414,612.573C396.766,612.41 394.057,612.232 391.475,611.591C386.864,610.447 382.601,607.976 379.065,604.835C376.855,602.872 374.973,600.6 373.446,598.121C373.457,598.54 373.235,598.943 372.694,599.052C371.537,599.285 370.297,599.634 369.372,600.092C368.923,600.314 368.488,600.571 368.088,600.873C368.05,600.905 367.95,600.986 367.918,601.014C367.832,601.089 367.747,601.167 367.665,601.247C367.525,601.383 367.397,601.527 367.269,601.673C367.235,601.711 367.217,601.731 367.204,601.745C367.201,601.752 367.191,601.77 367.163,601.812C367.112,601.889 367.059,601.964 367.009,602.042C366.905,602.208 366.816,602.38 366.728,602.554C366.707,602.596 366.697,602.612 366.692,602.618C366.687,602.635 366.679,602.658 366.667,602.694C366.633,602.791 366.597,602.887 366.567,602.986C366.513,603.159 366.468,603.334 366.432,603.512C366.425,603.548 366.4,603.698 366.388,603.762C366.382,603.82 366.371,603.913 366.37,603.935C366.356,604.137 366.346,604.339 366.348,604.542C366.349,604.779 366.363,605.016 366.386,605.253C366.389,605.28 366.403,605.401 366.41,605.459C366.42,605.516 366.437,605.629 366.444,605.663C366.613,606.625 366.919,607.563 367.295,608.463C367.309,608.492 367.408,608.72 367.426,608.761C367.477,608.873 367.528,608.985 367.581,609.097C367.697,609.341 367.816,609.583 367.94,609.823C368.206,610.34 368.49,610.848 368.787,611.348C369.421,612.418 370.115,613.452 370.842,614.461C372.357,616.565 374.034,618.566 375.778,620.525C376.005,620.781 376.239,621.03 376.469,621.283C377.678,622.391 378.87,623.494 379.985,624.625C381.005,625.258 382.028,625.885 383.061,626.495C392.83,632.263 403.242,637 414.235,639.888C422.578,642.078 431.141,643.116 439.758,643.198Z" style="fill-rule:nonzero;"/>
            <path d="M518.232,570.023C518.585,569.601 518.97,569.213 519.37,568.84C519.853,568.083 520.404,567.38 520.999,566.674C523.359,563.874 526.097,561.055 527.045,557.409C527.671,555.002 527.242,552.528 526.234,550.287C524.104,545.551 520.263,541.847 517.954,537.214C517.893,537.092 517.838,536.967 517.78,536.844C517.675,537.011 517.568,537.177 517.461,537.343C517.628,537.527 517.733,537.76 517.707,538.012C517.39,540.995 517.116,543.982 516.905,546.975C516.314,555.371 516.3,563.779 516.874,572.161C517.218,571.379 517.684,570.679 518.232,570.023Z" style="fill-rule:nonzero;"/>
            <path d="M380.89,555.982C380.414,557.908 379.769,559.783 379.348,561.725C378.894,563.823 378.592,566.026 378.842,568.172C378.959,569.173 379.218,570.156 379.444,571.137C379.696,572.229 379.879,573.325 380.044,574.433C380.628,578.37 382.346,582.037 384.906,585.088C387.523,588.207 390.692,591.018 394,593.382C395.675,594.578 397.43,595.668 399.271,596.591C401.132,597.524 403.07,598.151 405.114,598.545C407.14,598.935 409.195,599.126 411.238,599.395C412.992,599.627 414.712,600.002 416.456,600.283C420.091,600.869 424.364,601.27 427.485,603.25C427.408,601.547 426.991,599.898 426.197,598.37C424.38,594.873 421.159,592.315 417.815,590.358C414.044,588.151 409.842,586.999 405.932,585.097C402.096,583.231 399.177,580.482 397.61,576.471C396.106,572.625 396.008,568.363 396.233,564.292C396.509,559.279 397.558,554.52 399.137,549.767C399.923,547.402 400.9,545.215 402.078,543.022C403.223,540.89 403.885,538.665 403.356,536.244C402.668,533.096 400.616,530.53 398.359,528.239C398.388,528.794 398.411,529.349 398.391,529.904C398.308,532.298 397.132,534.337 395.829,536.28C394.466,538.313 393.018,540.258 391.33,542.035C388.131,545.402 384.755,548.681 381.884,552.348C381.431,553.516 381.189,554.775 380.89,555.982Z" style="fill-rule:nonzero;"/>
            <path d="M365.091,599.856C365.103,599.809 365.132,599.597 365.139,599.602C365.14,599.545 365.14,599.489 365.142,599.432C365.143,599.404 365.145,599.388 365.147,599.372C365.14,599.358 365.132,599.341 365.122,599.312C365.107,599.27 365.094,599.227 365.082,599.184C365.071,599.173 364.999,599.01 364.983,598.981C364.952,598.93 364.918,598.88 364.884,598.831C364.902,598.871 364.656,598.589 364.612,598.547C364.551,598.49 364.487,598.436 364.423,598.383C364.395,598.363 364.349,598.329 364.334,598.32C364.15,598.199 363.963,598.084 363.768,597.98C363.689,597.938 363.328,597.777 363.332,597.773C363.161,597.707 362.987,597.645 362.811,597.591C362.612,597.53 362.41,597.476 362.206,597.432C362.197,597.43 362.177,597.426 362.154,597.422C362.15,597.423 362.148,597.425 362.144,597.426C361.862,597.504 361.531,597.465 361.236,597.344C361.131,597.344 361.026,597.339 360.921,597.342C360.766,597.347 360.61,597.354 360.456,597.37C360.44,597.372 360.434,597.372 360.423,597.373C360.414,597.375 360.41,597.376 360.397,597.378C360.226,597.409 360.062,597.452 359.896,597.501C359.88,597.506 359.821,597.528 359.776,597.544C359.734,597.565 359.676,597.592 359.661,597.601C359.515,597.688 359.37,597.773 359.233,597.873C359.242,597.876 358.95,598.133 358.911,598.171C358.765,598.313 358.624,598.46 358.486,598.61C358.161,598.963 357.845,599.32 357.579,599.72C357.383,600.014 357.204,600.323 357.056,600.644C357.202,601.17 357.036,601.774 356.648,602.128C356.641,602.207 356.633,602.287 356.632,602.367C356.616,603.315 356.988,604.224 357.603,604.941C358.156,605.586 358.765,605.943 359.523,606.165C360.388,606.418 361.04,606.45 361.969,606.464C362.805,606.477 363.641,606.449 364.476,606.448C364.389,606.025 364.319,605.599 364.281,605.167C364.149,603.663 364.476,602.181 365.261,600.925C365.066,600.645 364.982,600.281 365.091,599.856Z" style="fill-rule:nonzero;"/>
            <path d="M428.287,615.056C427.32,613.59 425.913,612.767 424.168,612.697C422.98,612.649 421.795,612.787 420.609,612.808C419.913,612.821 419.218,612.821 418.522,612.818C418.518,612.829 418.516,612.836 418.51,612.85C418.506,612.861 418.504,612.865 418.502,612.87C418.5,612.878 418.498,612.883 418.495,612.893C418.481,612.939 418.468,612.986 418.457,613.032C418.448,613.07 418.426,613.22 418.419,613.251C418.408,613.383 418.402,613.515 418.402,613.647C418.402,613.887 418.429,614.27 418.448,614.421C418.556,615.296 418.915,616.325 419.247,617.224C419.662,618.348 420.181,619.419 421.209,620.102C422.559,620.998 423.912,621.135 425.49,621.148C426.728,621.158 427.863,620.627 429.066,620.513C429.199,620.215 429.297,619.901 429.364,619.568C429.665,618.059 429.149,616.362 428.287,615.056Z" style="fill-rule:nonzero;"/>
            <path d="M564.889,521.15C564.89,521.159 564.889,521.17 564.889,521.179C564.889,521.179 564.889,521.178 564.89,521.177C564.889,521.166 564.89,521.164 564.889,521.15Z" style="fill-rule:nonzero;"/>
            <path d="M577.024,630.997C577.047,631.072 577.06,631.149 577.067,631.228C577.1,631.195 577.129,631.161 577.162,631.128C577.247,631.044 577.336,630.965 577.426,630.885C577.292,630.921 577.159,630.962 577.024,630.997Z" style="fill-rule:nonzero;"/>
            <path d="M563.595,588.558C563.89,588.77 564.182,588.989 564.475,589.203C564.197,588.979 563.918,588.757 563.64,588.534C563.625,588.542 563.61,588.55 563.595,588.558Z" style="fill-rule:nonzero;"/>
            <path d="M571.877,521.729C571.781,520.973 571.313,520.067 570.827,519.319C570.692,519.111 570.552,518.908 570.41,518.706C570.389,518.675 570.324,518.595 570.303,518.568C570.275,518.535 570.248,518.501 570.22,518.469C570.115,518.349 570.003,518.24 569.888,518.13C569.881,518.124 569.868,518.113 569.856,518.103C569.811,518.076 569.746,518.034 569.738,518.03C569.719,518.019 569.696,518.01 569.673,518.002C569.497,517.962 569.581,517.969 569.673,518.002C569.691,518.006 569.705,518.01 569.729,518.015C569.669,518.002 569.613,517.967 569.552,517.963C569.54,517.962 569.536,517.962 569.526,517.961C569.478,517.959 569.43,517.955 569.382,517.956C569.313,517.957 569.244,517.963 569.176,517.969C569.162,517.973 569.151,517.977 569.132,517.983C568.965,518.035 568.793,518.069 568.626,518.125C568.501,518.167 568.377,518.214 568.254,518.263C568.218,518.279 568.168,518.301 568.147,518.311C567.995,518.385 567.842,518.457 567.693,518.536C567.361,518.712 567.037,518.904 566.724,519.113C566.614,519.186 566.508,519.264 566.399,519.338C566.388,519.346 566.348,519.375 566.319,519.396C566.175,519.509 566.035,519.628 565.899,519.751C565.755,519.883 565.615,520.019 565.482,520.163C565.441,520.207 565.297,520.39 565.264,520.425C565.151,520.588 565.047,520.754 564.958,520.932C564.956,520.936 564.955,520.936 564.954,520.94C564.951,520.953 564.95,520.959 564.947,520.976C564.932,521.042 564.912,521.114 564.892,521.179C564.895,521.232 564.895,521.263 564.892,521.278C564.891,521.309 564.889,521.341 564.889,521.369C564.889,521.376 564.888,521.378 564.888,521.384C564.891,521.387 564.893,521.386 564.896,521.39C564.939,521.44 564.96,521.6 564.984,521.664C565.146,522.1 564.988,522.578 564.683,522.917C564.787,523.66 564.898,524.401 565.019,525.141C565.503,525.25 565.95,525.592 566.038,526.089C566.051,526.161 566.067,526.233 566.08,526.305C566.144,526.35 566.204,526.394 566.187,526.383C566.303,526.456 566.422,526.522 566.546,526.581C566.492,526.555 566.334,526.516 566.587,526.595C566.71,526.634 566.836,526.663 566.958,526.701C566.974,526.706 567.012,526.714 567.044,526.72C567.231,526.737 567.417,526.73 567.604,526.732C567.641,526.732 567.665,526.733 567.683,526.735C567.698,526.73 567.718,526.725 567.749,526.719C567.854,526.696 567.959,526.676 568.063,526.648C568.168,526.621 568.272,526.59 568.375,526.556C568.355,526.563 568.577,526.479 568.617,526.467C568.883,526.351 569.389,526.05 569.718,525.816C569.757,525.788 569.783,525.77 569.803,525.757C569.82,525.741 569.844,525.719 569.881,525.686C569.951,525.624 570.022,525.565 570.091,525.503C570.246,525.363 570.395,525.217 570.539,525.065C570.682,524.914 570.818,524.758 570.95,524.598C571.125,524.386 571.023,524.501 570.988,524.549C571.054,524.458 571.118,524.367 571.181,524.273C571.722,523.457 571.996,522.67 571.877,521.729Z" style="fill-rule:nonzero;"/>
            <path d="M593.631,576.835C596.486,574.821 598.532,571.505 599.089,568.062C599.413,566.055 599.102,563.926 598.74,561.946C598.326,559.68 597.822,557.364 597.073,555.183C595.653,551.044 592.891,547.504 590.482,543.907C589.157,541.928 587.931,539.885 586.607,537.904C585.55,536.324 584.465,534.763 583.376,533.206C581.76,531.59 580.297,529.851 579.041,527.924C577.75,525.942 576.534,523.803 574.602,522.376C574.598,522.457 574.599,522.537 574.592,522.618C574.239,526.309 570.325,529.816 566.73,529.37C567.755,533.588 569.154,537.705 570.431,541.851C571.757,546.157 572.648,550.566 573.935,554.88C574.642,557.251 575.412,559.603 576.09,561.982C576.655,563.964 577.064,565.987 577.648,567.963C578.157,569.685 578.76,571.398 579.645,572.966C580.521,574.518 581.861,575.722 583.3,576.755C584.919,577.917 586.825,578.92 588.878,578.758C590.589,578.622 592.249,577.81 593.631,576.835Z" style="fill-rule:nonzero;"/>
            <path d="M447.553,482.891C447.546,482.892 447.54,482.894 447.533,482.896C447.574,482.888 447.597,482.881 447.553,482.891Z" style="fill-rule:nonzero;"/>
            <path d="M627.442,550.772C629.45,550.237 631.431,549.417 633.084,548.134C634.467,547.061 635.096,545.892 635.171,544.174C635.253,542.295 634.805,540.433 634.165,538.677C633.641,537.239 632.759,535.473 631.923,534.487C628.936,530.963 624.275,529.89 619.95,529.047C617.528,528.574 615.119,528.1 612.748,527.412C609.916,526.589 607.028,525.977 604.126,525.466C603.602,525.374 603.077,525.29 602.553,525.201C602.005,525.273 601.453,525.324 600.893,525.334C598.106,525.383 595.371,524.701 592.733,523.866C592.308,523.731 591.883,523.59 591.457,523.447C590.199,523.253 588.942,523.058 587.687,522.855C584.572,522.352 581.364,521.847 578.174,521.701C578.215,521.74 578.259,521.777 578.3,521.816C579.897,523.357 581.156,525.219 582.396,527.047C583.406,528.537 584.441,530.01 585.474,531.485C586.435,532.418 587.441,533.308 588.447,534.187C590.559,536.031 592.549,538.008 594.645,539.869C596.639,541.638 598.778,543.22 600.975,544.728C605.086,547.549 609.469,549.856 614.368,550.934C618.628,551.869 623.215,551.899 627.442,550.772Z" style="fill-rule:nonzero;"/>
            <path d="M452.521,546.367C457.406,550.983 463.049,554.704 468.951,557.885C469.209,558.024 469.371,558.213 469.456,558.422C469.702,558.366 469.976,558.388 470.257,558.536C474.289,560.662 478.723,561.585 483.25,561.112C490.842,560.32 497.77,555.74 503.32,550.636C508.395,545.968 512.724,540.667 516.294,534.809C516.423,534.598 516.588,534.463 516.765,534.374C516.759,534.266 516.753,534.158 516.748,534.045C516.43,532.837 516.273,531.593 516.394,530.332C516.686,527.272 518.342,524.756 520.384,522.546C522.588,520.161 525.539,517.797 525.932,514.347C526.387,510.356 523.832,506.868 521.154,504.21C518.494,501.57 515.42,499.395 512.73,496.789C510.08,494.222 507.927,491.175 506.974,487.571C506.144,484.433 506.334,481.366 506.925,478.327C506.263,478.222 505.599,478.011 505,477.823C503.776,477.439 502.79,476.682 501.864,475.809C501.783,475.732 501.704,475.654 501.625,475.577C501.528,475.62 501.429,475.66 501.328,475.696C501.275,475.848 501.194,475.99 501.083,476.101C500.926,476.258 500.769,476.415 500.612,476.572C501.652,477.014 502.682,477.48 503.793,477.735C504.119,477.81 504.468,478.129 504.526,478.469C504.556,478.644 504.587,478.82 504.617,478.995C504.712,479.546 504.482,480.101 503.914,480.275C504.081,480.777 503.921,481.377 503.294,481.57C502.859,482.652 501.732,483.328 500.655,483.774C500.606,483.794 500.556,483.81 500.508,483.829C500.918,484.239 501.327,484.648 501.736,485.058C501.937,485.259 502.031,485.522 502.044,485.801C502.056,486.081 501.92,486.343 501.736,486.544C501.559,486.737 501.251,486.852 500.993,486.852C500.724,486.852 500.441,486.735 500.25,486.544L498.515,484.809C498.425,484.719 498.36,484.616 498.311,484.506C496.892,484.821 495.43,484.922 493.985,484.781C493.983,484.819 493.98,484.857 493.97,484.895C493.963,485.035 493.922,485.165 493.845,485.286C493.79,485.357 493.735,485.428 493.681,485.498C493.538,485.629 493.395,485.761 493.251,485.892C493.038,486.087 492.794,486.187 492.508,486.2C492.487,486.201 492.466,486.196 492.445,486.195C492.313,486.278 492.182,486.36 492.057,486.454C492.02,486.485 491.982,486.514 491.945,486.546C491.814,486.676 491.66,486.766 491.482,486.816C491.389,486.829 491.296,486.841 491.203,486.854C490.923,486.867 490.661,486.73 490.461,486.546C490.268,486.369 490.153,486.061 490.153,485.803C490.153,485.553 490.266,485.229 490.461,485.06C490.763,484.797 491.088,484.555 491.43,484.344C490.345,484.114 489.266,483.855 488.184,483.613C486.786,483.301 485.409,482.949 484.025,482.937C483.725,482.934 483.495,482.826 483.328,482.663C483.205,482.793 483.083,482.925 482.974,483.069C482.63,483.522 482.076,483.761 481.537,483.446C481.089,483.184 480.817,482.461 481.16,482.009C481.706,481.29 482.311,480.703 482.996,480.119C483.652,479.561 484.183,478.925 484.75,478.282C485.842,477.043 487.368,476.34 488.958,475.965C490.438,475.616 491.939,475.647 493.445,475.612C493.112,474.909 492.852,474.182 492.764,473.402C492.698,472.817 493.298,472.375 493.814,472.352C494.076,472.34 494.375,472.478 494.557,472.66C494.733,472.836 494.804,473.035 494.843,473.26C494.844,473.263 494.847,473.272 494.851,473.296C494.858,473.334 494.864,473.371 494.872,473.409C494.888,473.488 494.907,473.566 494.928,473.644C494.973,473.813 495.027,473.979 495.087,474.143C495.116,474.221 495.146,474.297 495.176,474.374C495.186,474.396 495.196,474.419 495.206,474.441C495.286,474.619 495.372,474.795 495.462,474.969C495.564,475.165 495.684,475.35 495.798,475.539C496.393,475.533 496.986,475.555 497.574,475.631C497.626,475.623 497.678,475.615 497.732,475.615C497.9,475.615 498.06,475.662 498.205,475.738C498.28,475.754 498.355,475.769 498.431,475.787C498.821,475.397 499.211,475.007 499.601,474.617C499.717,474.501 499.855,474.424 500.003,474.375C500.026,474.304 500.055,474.237 500.089,474.177C500.099,474.16 500.116,474.151 500.127,474.134C499.775,473.835 499.397,473.563 498.964,473.34C497.759,472.717 496.459,472.302 495.244,471.698C494.032,471.096 495.097,469.285 496.304,469.884C497.489,470.473 498.753,470.883 499.934,471.48C500.556,471.795 501.095,472.19 501.602,472.629C501.654,472.582 501.71,472.537 501.77,472.494C501.974,472.35 502.177,472.206 502.381,472.062C502.501,471.985 502.631,471.944 502.771,471.937C502.911,471.906 503.05,471.912 503.19,471.956C503.363,472.012 503.519,472.103 503.653,472.226C503.822,472.381 503.912,472.609 503.942,472.829C503.973,472.968 503.967,473.108 503.923,473.248C503.888,473.332 503.852,473.415 503.817,473.499C503.721,473.711 503.599,473.907 503.459,474.093C503.409,474.159 503.356,474.222 503.305,474.286C503.943,474.913 504.652,475.512 505.495,475.779C506.09,475.968 506.739,476.19 507.384,476.264C508.293,472.555 509.595,468.872 510.159,465.134C510.317,464.089 510.4,463.037 510.416,461.988C510.238,462.035 510.044,462.046 509.851,462.015C507.758,461.681 505.968,460.382 503.877,460.072C501.977,459.791 500.252,460.493 498.494,461.105C496.557,461.78 494.513,462.062 492.553,462.657C490.521,463.275 488.579,464.276 486.621,465.092C484.602,465.933 482.59,466.791 480.639,467.782C479.435,468.393 478.373,466.58 479.578,465.968C481.924,464.777 484.358,463.777 486.784,462.765C488.798,461.925 490.76,460.937 492.878,460.383C494.935,459.845 496.973,459.409 498.982,458.701C500.913,458.02 502.878,457.673 504.907,458.136C506.784,458.565 508.431,459.651 510.342,459.974C510.169,457.925 509.684,455.911 508.777,454.017C507.105,450.527 504.45,447.831 501.463,445.439C498.634,443.174 495.605,441.139 493.045,438.556C491.622,437.12 490.141,435.741 488.722,434.301C487.306,432.865 486.109,431.219 484.976,429.555C482.628,426.107 480.625,422.384 479.166,418.472C478.123,415.675 477.758,412.125 475.708,409.817C475.665,409.827 475.621,409.836 475.576,409.84C475.501,410.279 475.419,410.716 475.325,411.151C474.715,413.966 473.762,416.752 472.575,419.376C471.507,421.736 469.826,423.743 468.105,425.653C466.335,427.617 464.629,429.636 462.589,431.331C460.433,433.123 458.113,434.627 455.52,435.7C453.266,436.633 450.911,437.443 449.206,439.273C448.38,440.159 447.81,441.21 447.412,442.332C447.172,443.139 446.976,443.977 446.811,444.841C446.246,448.459 446.726,452.184 446.376,455.822C446.164,458.024 445.684,460.176 444.529,462.089C443.251,464.207 441.388,465.911 439.348,467.281C437.504,468.519 435.469,469.395 433.465,470.333C431.605,471.204 429.752,472.094 427.955,473.089C426.963,473.639 425.98,474.232 425.027,474.87C425.057,474.927 425.085,474.985 425.107,475.047C425.437,475.969 425.751,476.898 426.046,477.832C428.421,485.366 429.635,493.19 431.193,500.917C431.974,504.791 432.844,508.652 433.987,512.438C434.796,515.121 435.711,517.78 436.652,520.419C437.593,523.058 438.596,525.626 439.734,528.142C439.842,528.345 439.961,528.542 440.065,528.747C440.449,529.504 440.82,530.278 441.14,531.072C441.626,532.026 442.133,532.973 442.675,533.913C443.964,536.147 445.402,538.27 446.978,540.283C447.357,540.314 447.718,540.534 447.864,540.998C447.928,541.201 447.989,541.405 448.052,541.608C449.445,543.275 450.93,544.864 452.521,546.367ZM481.053,475.732C481.731,473.984 483.255,472.716 484.798,471.734C486.339,470.754 488.076,469.975 489.897,469.739C490.463,469.665 490.947,470.278 490.947,470.789C490.947,471.409 490.459,471.766 489.897,471.839C490.189,471.801 489.879,471.846 489.818,471.857C489.748,471.87 489.679,471.884 489.61,471.899C489.434,471.938 489.26,471.983 489.087,472.033C488.724,472.138 488.368,472.266 488.018,472.407C487.97,472.426 487.922,472.446 487.874,472.466C487.948,472.435 487.951,472.434 487.884,472.464C487.803,472.5 487.722,472.536 487.641,472.573C487.444,472.664 487.25,472.759 487.057,472.859C486.68,473.053 486.312,473.263 485.953,473.488C485.194,473.962 484.723,474.308 484.094,474.928C483.965,475.055 483.841,475.186 483.721,475.321C483.668,475.38 483.618,475.442 483.566,475.502C483.549,475.521 483.539,475.533 483.53,475.543C483.524,475.553 483.517,475.564 483.504,475.582C483.405,475.727 483.305,475.871 483.218,476.024C483.176,476.097 483.141,476.173 483.101,476.246C483.094,476.258 483.092,476.262 483.087,476.27C483.084,476.278 483.083,476.281 483.079,476.291C482.873,476.822 482.381,477.188 481.787,477.025C481.279,476.884 480.847,476.261 481.053,475.732ZM476.736,508.151C477.294,507.301 478.263,506.861 479.214,506.604C479.991,506.394 480.805,506.287 481.609,506.241C481.837,506.228 482.07,506.331 482.245,506.466C482.405,506.59 482.592,506.797 482.621,507.012C482.678,507.432 482.687,507.814 482.482,508.201C482.343,508.462 482.126,508.679 481.867,508.824C481.24,509.175 480.508,509.096 479.828,509.004C479.663,508.982 479.514,508.877 479.39,508.752C479.334,508.771 479.276,508.785 479.221,508.806C479.2,508.814 479.179,508.822 479.158,508.83C479.087,508.864 479.016,508.896 478.946,508.934C478.866,508.977 478.787,509.023 478.711,509.073C478.701,509.08 478.69,509.087 478.68,509.094C478.632,509.137 478.585,509.18 478.54,509.228C478.541,509.251 478.546,509.274 478.546,509.297C478.542,509.435 478.537,509.573 478.533,509.712C478.517,510.239 478.145,510.673 477.623,510.744C477.129,510.81 476.588,510.501 476.471,509.992C476.328,509.369 476.378,508.695 476.736,508.151ZM470.366,507.388C471.572,508.122 472.484,509.296 472.925,510.631C473.334,511.871 473.328,513.226 473.327,514.516C473.326,515.87 471.225,515.868 471.227,514.516C471.228,513.303 471.258,512.19 470.861,511.075C470.575,510.27 469.762,509.28 468.834,508.993C468.187,508.793 467.508,508.728 466.847,508.591C466.555,508.531 466.275,508.446 466,508.349C466.049,508.404 466.098,508.459 466.145,508.513C466.476,508.884 466.831,509.233 467.209,509.557C467.301,509.636 467.394,509.713 467.489,509.789C467.542,509.82 467.566,509.841 467.556,509.837C467.589,509.863 467.622,509.89 467.652,509.913C467.848,510.056 468.049,510.192 468.254,510.322C468.75,510.637 468.905,511.24 468.631,511.759C468.373,512.248 467.658,512.431 467.194,512.136C465.324,510.946 463.774,509.252 462.807,507.253C462.673,506.977 462.646,506.688 462.719,506.428C462.363,506.133 462.031,505.816 461.745,505.469C461.383,505.03 461.312,504.417 461.745,503.984C462.119,503.61 462.87,503.546 463.231,503.984C464.04,504.965 465.27,505.772 466.427,506.285C467.684,506.843 469.158,506.652 470.366,507.388ZM459.781,470.937C460.681,472.547 461.757,474.043 462.766,475.584C463.653,476.939 464.453,478.336 465.058,479.84C465.744,481.544 465.87,483.246 465.821,485.065C465.772,486.906 465.77,488.74 465.637,490.578C465.5,492.477 465.302,494.37 465.144,496.267C465.097,496.835 464.701,497.317 464.094,497.317C463.56,497.317 462.997,496.833 463.044,496.267C463.241,493.89 463.504,491.517 463.626,489.135C463.683,488.023 463.68,486.912 463.701,485.799C463.722,484.713 463.811,483.606 463.662,482.525C463.394,480.582 462.296,478.745 461.259,477.119C460.167,475.407 458.958,473.771 457.966,471.997C457.306,470.815 459.121,469.757 459.781,470.937ZM457.639,521.336C458.166,521.165 458.802,521.535 458.931,522.07C458.946,522.134 458.971,522.194 458.992,522.255C459.057,522.384 459.132,522.507 459.216,522.625C459.554,523.034 459.955,523.387 460.371,523.716C460.491,523.808 460.614,523.897 460.736,523.986C460.863,523.932 461.011,523.904 461.181,523.909C462.385,523.946 463.569,523.794 464.731,523.477C465.962,523.142 467.054,522.492 468.335,522.356C470.519,522.125 472.57,523.134 474.732,523.127C475.847,523.124 476.981,522.833 478.085,522.689C479.202,522.543 480.325,522.43 481.451,522.385C483.644,522.297 485.886,522.463 487.995,523.098C489.063,523.42 490.107,523.863 491.075,524.417C491.499,524.66 491.899,525.036 492.329,525.249C492.463,525.316 492.621,525.325 492.767,525.33C492.836,525.333 492.907,525.327 492.976,525.322C492.988,525.318 493.01,525.311 493.059,525.298C493.381,525.209 493.655,525.265 493.869,525.405C494.046,525.287 494.239,525.245 494.466,525.215C494.023,525.273 494.391,525.221 494.497,525.198C494.595,525.177 494.691,525.153 494.786,525.126C494.991,525.069 495.19,524.998 495.388,524.922C495.432,524.902 495.476,524.881 495.52,524.859C495.599,524.82 495.676,524.776 495.752,524.731C495.541,524.342 495.326,523.955 495.089,523.583C494.678,522.938 495.207,521.948 495.996,522.002C496.772,522.055 497.44,522.407 497.865,523.069C498.185,523.568 498.256,524.181 498.16,524.756C498.3,525.002 498.437,525.25 498.592,525.487C498.684,525.628 498.785,525.763 498.883,525.9C498.907,525.928 498.93,525.957 498.954,525.985C499.009,526.049 499.066,526.111 499.123,526.173C499.527,526.6 499.517,527.229 499.123,527.658C498.747,528.068 498.016,528.058 497.638,527.658C497.316,527.317 497.042,526.944 496.791,526.556C496.478,526.738 496.137,526.879 495.8,527.003C495.364,527.163 494.925,527.252 494.466,527.313C494.287,527.336 494.103,527.266 493.943,527.167C493.85,527.231 493.745,527.286 493.618,527.321C493.558,527.338 493.495,527.346 493.434,527.359C493.294,527.7 492.988,527.966 492.509,527.966L484.211,527.966C483.139,527.966 482.068,527.854 480.997,527.868C479.965,527.882 479.048,528.278 478.105,528.657C476.211,529.418 474.131,529.515 472.108,529.35C471.163,529.273 470.343,528.988 469.439,528.741C468.476,528.477 467.451,528.646 466.471,528.711C465.469,528.778 464.436,528.778 463.49,528.398C463.009,528.205 462.56,527.936 462.098,527.705C462.089,527.912 462.08,528.12 462.078,528.328C462.07,529.315 462.111,530.379 462.71,531.207C463.288,532.005 464.086,532.696 464.77,533.406C465.133,533.783 465.502,534.155 465.896,534.499C466.051,534.634 466.2,534.759 466.371,534.87C466.436,534.912 466.501,534.952 466.569,534.99C466.597,535.006 466.614,535.016 466.629,535.025C466.642,535.028 466.657,535.032 466.681,535.04C466.961,535.13 467.149,535.298 467.266,535.499C467.31,535.507 467.354,535.513 467.398,535.53C473.677,537.886 480.821,537.657 486.89,534.764C487.404,534.519 488.021,534.617 488.327,535.141C488.596,535.601 488.462,536.334 487.95,536.578C481.39,539.706 473.659,540.116 466.839,537.556C466.587,537.462 466.376,537.298 466.238,537.091C466.2,537.083 466.163,537.079 466.123,537.066C465.055,536.725 464.203,535.833 463.439,535.05C462.611,534.201 461.71,533.365 461.003,532.413C459.663,530.608 459.956,528.264 460.086,526.101C459.557,525.715 459.024,525.333 458.525,524.907C457.823,524.307 457.127,523.549 456.905,522.627C456.767,522.055 457.083,521.515 457.639,521.336ZM444.208,463.934C447.172,464.131 450.053,465.067 452.534,466.71C453.008,467.024 453.211,467.633 452.911,468.147C452.636,468.617 451.947,468.837 451.474,468.524C449.302,467.086 446.784,466.206 444.208,466.035C443.64,465.997 443.158,465.584 443.158,464.985C443.158,464.444 443.641,463.896 444.208,463.934ZM441.894,469.858C442.056,469.267 442.626,469.038 443.186,469.124C446.157,469.585 449.17,470.616 451.801,472.066C453.075,472.768 454.331,473.633 455.202,474.816C456.311,476.32 456.134,478.172 456.357,479.927C456.429,480.494 455.819,480.977 455.307,480.977C454.688,480.977 454.328,480.489 454.257,479.927C454.083,478.564 454.298,476.974 453.357,475.847C452.555,474.887 451.416,474.222 450.32,473.655C447.942,472.423 445.274,471.561 442.628,471.15C442.064,471.063 441.757,470.356 441.894,469.858ZM447.809,486.903C447.69,486.908 447.572,486.91 447.454,486.913C448.124,487.441 447.914,488.808 446.823,488.808C445.727,488.808 445.52,487.433 446.198,486.908C445.207,486.867 444.233,486.718 443.293,486.356C443.297,486.388 443.303,486.42 443.305,486.452C443.317,486.714 443.18,487.013 442.998,487.195C442.825,487.368 442.508,487.528 442.255,487.503C441.931,487.471 441.605,487.467 441.28,487.484C441.125,487.871 440.718,488.14 440.297,488.156C439.974,488.168 439.65,488.18 439.326,488.192C438.909,488.208 438.523,487.917 438.366,487.546C438.213,487.182 438.27,486.675 438.583,486.399C439.102,485.942 439.72,485.615 440.402,485.481C440.681,485.426 440.961,485.395 441.242,485.38C440.538,485.054 439.813,484.812 438.991,484.893C438.423,484.948 437.941,484.368 437.941,483.843C437.941,483.236 438.427,482.848 438.991,482.793C440.933,482.604 442.363,483.754 444.067,484.431C444.811,484.727 445.634,484.84 446.467,484.863C446.172,484.784 445.882,484.677 445.611,484.52C444.969,484.148 444.416,483.614 443.902,483.085C443.413,482.582 442.957,482.037 442.719,481.368C442.445,480.6 442.598,479.797 442.932,479.056C442.403,479.118 441.881,479.217 441.367,479.377C440.192,479.743 439.112,480.335 437.959,480.74C438.229,481.208 438.033,481.88 437.564,482.14C436.932,482.489 436.195,482.604 435.461,482.651C435.424,482.982 435.246,483.301 434.953,483.445C434.261,483.785 433.524,483.483 432.849,483.246C432.532,483.134 432.216,483.018 431.894,482.92C431.802,482.892 431.708,482.87 431.614,482.847C431.156,482.893 430.717,482.648 430.534,482.214C430.344,481.765 430.495,481.133 430.964,480.902C431.049,480.86 431.134,480.829 431.219,480.806C431.218,480.803 431.216,480.8 431.215,480.797C432.048,480.588 432.935,480.6 433.797,480.596C433.648,480.506 433.503,480.409 433.362,480.291C433.175,480.134 433.044,479.787 433.055,479.548C433.063,479.362 433.111,479.183 433.198,479.018C433.303,478.819 433.498,478.673 433.7,478.588C433.825,478.522 433.96,478.492 434.105,478.498C434.198,478.51 434.291,478.523 434.384,478.536C434.708,478.663 435.031,478.79 435.354,478.917C435.86,478.946 436.366,478.896 436.873,478.885C438.109,478.53 439.241,477.901 440.452,477.474C440.408,477.454 440.363,477.438 440.32,477.417C439.581,477.068 438.812,476.488 438.632,475.642C438.509,475.066 438.798,474.534 439.366,474.35C439.884,474.182 440.543,474.545 440.658,475.084C440.661,475.099 440.668,475.112 440.671,475.127C440.673,475.131 440.676,475.135 440.679,475.14C440.727,475.192 440.777,475.241 440.83,475.287C441.053,475.438 441.292,475.564 441.539,475.673C442.17,475.926 442.825,476.119 443.438,476.415C443.646,476.515 443.785,476.688 443.864,476.887C443.88,476.886 443.897,476.885 443.913,476.884C444.127,476.877 444.348,476.87 444.57,476.866C444.741,476.73 444.926,476.61 445.12,476.512L445.12,475.364C445.12,475.079 445.239,474.827 445.428,474.621C445.617,474.415 445.899,474.325 446.171,474.313C446.433,474.301 446.732,474.439 446.914,474.621C447.104,474.811 447.222,475.094 447.222,475.364L447.222,476.464C447.596,476.636 447.934,476.898 448.219,477.231C448.287,477.31 448.339,477.395 448.384,477.482C448.41,477.483 448.432,477.49 448.458,477.49C449.297,477.5 450.054,477.566 450.782,478.022C452.139,478.873 453.147,480.176 454.533,480.983C455.04,481.278 455.127,481.787 454.969,482.212C455.177,482.144 455.399,482.13 455.588,482.182C456.186,482.347 456.398,482.913 456.322,483.474C456.161,484.652 454.878,485.319 453.902,485.722C451.987,486.51 449.867,486.82 447.809,486.903Z" style="fill-rule:nonzero;"/>
            <path d="M490.392,480.869C490.091,480.353 489.893,479.8 489.718,479.231C489.674,479.086 489.63,478.941 489.581,478.798C489.557,478.727 489.532,478.656 489.505,478.587C489.501,478.576 489.476,478.523 489.465,478.5C489.347,478.263 489.297,478.195 489.157,478.062C488.204,478.301 487.298,478.695 486.619,479.356C486.118,479.843 485.702,480.406 485.222,480.912C486.381,481.043 487.537,481.318 488.662,481.569C489.6,481.778 490.54,482.028 491.481,482.247C491.039,481.86 490.68,481.362 490.392,480.869Z" style="fill-rule:nonzero;"/>
            <path d="M444.73,480.76C444.743,480.789 444.756,480.822 444.756,480.839C444.757,480.823 444.753,480.816 444.752,480.803C444.75,480.799 444.748,480.796 444.746,480.793C444.737,480.778 444.735,480.771 444.73,480.76Z" style="fill-rule:nonzero;"/>
            <path d="M448.87,481.383C448.904,481.285 448.936,481.185 448.964,481.085C449.002,480.951 449.028,480.815 449.058,480.679C449.061,480.664 449.063,480.657 449.066,480.646C449.069,480.606 449.072,480.561 449.072,480.566C449.078,480.476 449.081,480.386 449.079,480.296C449.078,480.255 449.073,480.213 449.071,480.172C449.039,479.981 449.048,479.797 449.097,479.63C448.793,479.584 448.479,479.596 448.112,479.579C447.421,479.546 446.898,479.299 446.255,479.1C445.996,479.02 445.715,478.987 445.429,478.968C445.419,478.981 445.411,478.991 445.401,479.005C445.326,479.111 445.251,479.217 445.182,479.327C445.098,479.461 445.018,479.598 444.944,479.737C444.915,479.792 444.885,479.848 444.857,479.905C444.857,479.905 444.827,479.972 444.805,480.02C444.789,480.062 444.768,480.115 444.767,480.119C444.751,480.166 444.736,480.214 444.722,480.263C444.709,480.309 444.701,480.357 444.687,480.402C444.686,480.404 444.686,480.405 444.685,480.407C444.683,480.443 444.679,480.479 444.679,480.516C444.679,480.564 444.715,480.723 444.673,480.568C444.689,480.625 444.709,480.7 444.716,480.722C444.716,480.723 444.718,480.726 444.718,480.727C444.713,480.694 444.747,480.717 444.754,480.803C444.807,480.888 444.853,480.975 444.91,481.057C444.945,481.108 445.093,481.281 444.927,481.086C444.962,481.127 444.995,481.169 445.03,481.21C445.115,481.309 445.203,481.405 445.293,481.499C445.475,481.691 445.664,481.878 445.856,482.06C445.975,482.173 446.096,482.284 446.222,482.39C446.266,482.427 446.311,482.464 446.356,482.5C446.367,482.508 446.37,482.509 446.387,482.521C446.493,482.592 446.598,482.663 446.709,482.726C446.757,482.753 446.806,482.779 446.856,482.804C446.864,482.808 446.875,482.812 446.885,482.817C446.998,482.852 447.111,482.881 447.225,482.909C447.228,482.909 447.231,482.91 447.233,482.91C447.304,482.908 447.375,482.913 447.447,482.91C447.469,482.909 447.502,482.903 447.53,482.897C447.539,482.895 447.546,482.893 447.552,482.892C447.588,482.884 447.624,482.876 447.661,482.866C447.725,482.849 447.787,482.827 447.849,482.806C447.852,482.805 447.853,482.805 447.856,482.804C447.904,482.776 447.953,482.753 448,482.723C448.028,482.705 448.2,482.618 448.046,482.695C447.902,482.767 448.054,482.682 448.089,482.65C448.122,482.619 448.154,482.587 448.186,482.555C448.222,482.518 448.29,482.461 448.334,482.406C448.34,482.389 448.349,482.37 448.363,482.349C448.397,482.296 448.434,482.245 448.468,482.192C448.597,481.989 448.702,481.776 448.805,481.56C448.825,481.5 448.849,481.442 448.87,481.383Z" style="fill-rule:nonzero;"/>
            <path d="M454.214,483.133C454.224,483.122 454.228,483.117 454.236,483.109C454.252,483.084 454.268,483.059 454.282,483.034C454.286,482.985 454.292,482.932 454.295,482.912C454.296,482.904 454.3,482.898 454.301,482.89C454.054,482.977 453.767,482.964 453.472,482.792C452.6,482.284 451.88,481.588 451.133,480.928C451.003,482.023 450.488,483.098 449.789,483.91C449.434,484.322 448.991,484.605 448.513,484.782C448.67,484.769 448.827,484.755 448.98,484.741C449.096,484.73 449.211,484.717 449.326,484.704C449.382,484.697 449.393,484.697 449.391,484.698C449.406,484.695 449.437,484.691 449.499,484.681C449.787,484.637 450.075,484.59 450.361,484.536C451.002,484.415 451.639,484.267 452.263,484.078C452.854,483.899 453.301,483.746 453.81,483.442C454.109,483.261 453.99,483.351 454.214,483.133Z" style="fill-rule:nonzero;"/>
            <path d="M502.157,479.693C502.305,479.657 502.452,479.62 502.599,479.584C501.267,479.167 500.013,478.471 498.692,478.031C498.608,478.701 498.448,479.357 498.135,479.966C497.698,480.814 496.941,481.456 496.139,481.946C495.631,482.256 495.083,482.551 494.511,482.74C495.091,482.779 495.673,482.782 496.255,482.72C496.488,482.695 496.606,482.677 496.943,482.62C497.234,482.571 497.523,482.514 497.811,482.451C498.446,482.311 499.077,482.138 499.687,481.911C500.119,481.75 500.627,481.523 501.044,481.195C500.928,481.287 501.164,481.075 501.205,481.034C501.231,481.008 501.256,480.978 501.282,480.948C501.29,480.936 501.298,480.923 501.319,480.892C501.342,480.858 501.365,480.817 501.381,480.78C501.386,480.768 501.387,480.763 501.389,480.757C501.388,480.753 501.389,480.748 501.388,480.744L501.387,480.745C501.381,480.768 501.374,480.791 501.368,480.798C501.305,480.874 501.367,480.764 501.387,480.745C501.387,480.744 501.388,480.743 501.388,480.742C501.387,480.73 501.385,480.718 501.386,480.707C501.402,480.252 501.699,479.806 502.157,479.693Z" style="fill-rule:nonzero;"/>
            <path d="M447.478,482.909C447.497,482.905 447.515,482.9 447.533,482.896L447.53,482.896C447.517,482.9 447.501,482.903 447.478,482.909Z" style="fill-rule:nonzero;"/>
            <path d="M493.467,480.85C493.498,480.844 493.529,480.839 493.56,480.831C493.66,480.805 493.759,480.78 493.858,480.747C494.021,480.693 493.96,480.72 494.091,480.659C494.518,480.462 494.937,480.233 495.328,479.972C495.38,479.937 495.431,479.899 495.483,479.865C495.487,479.863 495.501,479.852 495.516,479.842C495.547,479.816 495.633,479.747 495.654,479.729C495.788,479.613 495.913,479.488 496.032,479.356C496.051,479.335 496.069,479.312 496.087,479.29C496.127,479.227 496.171,479.167 496.209,479.104C496.255,479.028 496.296,478.95 496.338,478.871C496.349,478.851 496.357,478.831 496.365,478.813C496.464,478.534 496.535,478.251 496.587,477.961C496.563,477.993 496.541,478.027 496.513,478.058C496.141,478.463 495.399,478.465 495.028,478.058C494.913,477.932 494.804,477.798 494.697,477.664C494.638,477.667 494.578,477.669 494.519,477.672C493.534,477.715 492.548,477.696 491.563,477.736C491.515,477.738 491.464,477.743 491.416,477.745C491.485,477.906 491.549,478.071 491.606,478.238C491.697,478.506 491.774,478.78 491.861,479.049C491.898,479.162 491.936,479.276 491.98,479.387C491.983,479.383 492.072,479.571 492.091,479.606C492.214,479.832 492.35,480.051 492.494,480.264C492.516,480.297 492.539,480.329 492.563,480.361C492.565,480.363 492.564,480.362 492.567,480.365C492.626,480.434 492.686,480.503 492.75,480.568C492.794,480.613 492.841,480.655 492.887,480.697C492.945,480.733 493.005,480.767 493.063,480.805C493.065,480.806 493.064,480.806 493.065,480.807C493.077,480.811 493.089,480.816 493.101,480.819C493.194,480.844 493.407,480.84 493.174,480.849C493.271,480.846 493.37,480.853 493.467,480.85Z" style="fill-rule:nonzero;"/>
        </g>
    </g>
</svg>
