<?xml version="1.0" encoding="UTF-8" standalone="no"?>
<!DOCTYPE svg PUBLIC "-//W3C//DTD SVG 1.1//EN" "http://www.w3.org/Graphics/SVG/1.1/DTD/svg11.dtd">
<svg width="100%" height="100%" viewBox="0 0 243 293" version="1.1" xmlns="http://www.w3.org/2000/svg" xmlns:xlink="http://www.w3.org/1999/xlink" xml:space="preserve" xmlns:serif="http://www.serif.com/" style="fill-rule:evenodd;clip-rule:evenodd;stroke-linejoin:round;stroke-miterlimit:2;">
    <g transform="matrix(1,0,0,1,-594.602,-850.117)">
        <g>
            <path d="M708.751,1112.83C708.713,1112.72 708.676,1112.62 708.636,1112.52C708.487,1112.15 708.307,1111.79 708.093,1111.46C708.064,1111.42 708,1111.33 707.968,1111.29C707.907,1111.21 707.843,1111.13 707.777,1111.06C707.732,1111.01 707.683,1110.96 707.636,1110.92C707.614,1110.9 707.565,1110.85 707.516,1110.81C707.431,1110.75 707.342,1110.69 707.253,1110.64C707.239,1110.63 707.232,1110.62 707.223,1110.62C707.216,1110.62 707.212,1110.62 707.201,1110.61C707.127,1110.59 707.054,1110.56 706.981,1110.53C706.961,1110.53 706.941,1110.52 706.921,1110.52C706.831,1110.51 706.688,1110.52 706.603,1110.49C706.602,1110.49 706.602,1110.49 706.601,1110.49C706.577,1110.49 706.553,1110.49 706.529,1110.5C706.425,1110.52 706.322,1110.54 706.219,1110.56C706.189,1110.56 706.169,1110.57 706.153,1110.57C706.145,1110.58 706.13,1110.58 706.096,1110.59C705.804,1110.7 705.491,1110.72 705.216,1110.64C703.156,1111.34 701.581,1113.12 701.74,1115.41C701.78,1115.99 701.923,1116.52 702.19,1117.03C702.403,1117.45 702.703,1117.82 703.081,1118.18C703.084,1118.18 703.265,1118.34 703.304,1118.36C703.4,1118.44 703.498,1118.5 703.599,1118.57C703.678,1118.62 703.759,1118.66 703.841,1118.71C703.866,1118.72 703.993,1118.78 704.037,1118.8C704.242,1118.88 704.455,1118.95 704.67,1119C704.706,1119 704.758,1119.01 704.795,1119.02C704.903,1119.03 705.011,1119.05 705.119,1119.05C705.243,1119.06 705.366,1119.06 705.49,1119.06L705.497,1119.06C705.531,1119.06 705.564,1119.06 705.597,1119.05C705.812,1119.03 706.025,1118.99 706.234,1118.94C706.299,1118.92 706.473,1118.86 706.475,1118.87C706.546,1118.84 706.618,1118.81 706.689,1118.78C706.875,1118.7 707.056,1118.61 707.231,1118.51C707.247,1118.5 707.331,1118.45 707.369,1118.42C707.372,1118.42 707.377,1118.42 707.378,1118.42C707.466,1118.35 707.555,1118.29 707.641,1118.22C707.814,1118.07 707.972,1117.92 708.129,1117.76C708.131,1117.76 708.131,1117.76 708.132,1117.76C708.171,1117.71 708.21,1117.66 708.248,1117.62C708.318,1117.53 708.385,1117.43 708.448,1117.34C708.503,1117.26 708.556,1117.17 708.606,1117.09C708.636,1117.04 708.664,1116.99 708.692,1116.94C708.797,1116.72 708.889,1116.49 708.963,1116.25C708.997,1116.14 709.027,1116.03 709.053,1115.92C709.065,1115.86 709.076,1115.79 709.086,1115.73C709.112,1115.54 709.126,1115.36 709.131,1115.18C709.134,1115.08 709.133,1114.99 709.133,1114.9C709.133,1114.87 709.132,1114.85 709.132,1114.82C709.099,1114.41 709.046,1114.01 708.958,1113.6C708.909,1113.38 708.851,1113.15 708.784,1112.93C708.773,1112.9 708.762,1112.86 708.751,1112.83Z" style="fill-rule:nonzero;"/>
            <path d="M708.684,1116.96C708.685,1116.96 708.685,1116.96 708.686,1116.96C708.666,1117 708.643,1117.05 708.684,1116.96Z" style="fill-rule:nonzero;"/>
            <path d="M709.058,1115.9C709.082,1115.8 709.066,1115.87 709.056,1115.91C709.056,1115.91 709.057,1115.91 709.058,1115.9Z" style="fill-rule:nonzero;"/>
            <path d="M776.995,1103.61C777.735,1104.78 778.697,1105.83 779.729,1106.75C784.611,1111.1 791.672,1113.57 798.183,1113.48C801.059,1113.43 804.134,1112.77 806.426,1110.94C809.001,1108.89 810.1,1105.71 810.187,1102.49C810.218,1101.36 809.997,1100.18 809.534,1099.12C809.083,1100.28 808.331,1101.36 807.627,1102.13C806.685,1103.15 805.485,1103.97 804.125,1104.31C802.393,1104.75 800.463,1104.79 798.686,1104.78C791.274,1104.7 783.983,1101.71 778.599,1096.63C773.116,1091.46 770.146,1084.07 769.57,1076.63C768.988,1069.12 770.664,1061.28 775.039,1055.05C779.966,1048.04 787.242,1043.1 794.309,1038.47C800.791,1034.23 807.275,1030.02 812.698,1024.42C817.569,1019.39 821.413,1013.37 823.272,1006.58C825.191,999.578 824.928,991.969 822.858,985.028C820.842,978.273 816.803,972.01 810.887,968.059C803.935,963.416 794.999,962.354 787.041,964.725C786.519,966.555 786.041,968.398 785.619,970.254C785.263,971.821 784.958,973.399 784.694,974.983C784.845,974.93 785.018,974.908 785.218,974.936C787.555,975.259 789.816,975.963 791.948,976.969C796.524,979.129 800.629,982.431 803.705,986.452C806.842,990.553 808.571,995.322 808.914,1000.47C809.634,1011.28 804.804,1022.44 796.39,1029.28C792.317,1032.59 787.341,1034.89 782.059,1035.23C780.942,1035.3 779.829,1035.3 778.721,1035.25C778.521,1035.51 778.202,1035.68 777.768,1035.63C774.357,1035.28 770.939,1034.99 767.515,1034.8C756.31,1034.18 744.947,1034.47 733.932,1036.77C726.077,1038.41 718.404,1041.15 711.63,1045.51C706.368,1048.89 701.759,1053.34 698.177,1058.45C694.892,1063.14 692.601,1068 690.728,1073.44C689.877,1075.91 689.149,1078.42 688.503,1080.96C688.195,1082.17 687.905,1083.38 687.628,1084.6C687.498,1085.17 687.37,1085.75 687.245,1086.32C687.079,1087.09 687.064,1087.16 686.909,1087.89C686.07,1091.87 685.378,1095.91 684.159,1099.8C681.274,1109 673.953,1116.38 665.133,1120.05C655.216,1124.18 643.675,1123.89 634.096,1118.97C631.517,1117.64 629.2,1115.58 627.316,1113.39C625.393,1111.16 623.813,1108.59 622.789,1105.82C620.701,1100.19 620.859,1093.73 624.049,1088.52C627.386,1083.06 635.077,1080.07 640.909,1083.35C642.242,1084.1 643.456,1085.17 644.334,1086.43C645.412,1087.96 645.382,1089.58 645.103,1091.36C644.852,1092.96 643.721,1094.24 642.124,1094.63C640.846,1094.93 639.673,1094.3 639.011,1093.25C638.743,1093.11 638.532,1092.86 638.47,1092.47C638.329,1091.57 637.383,1091.72 636.709,1092.01C635.964,1092.33 635.421,1093 635.05,1093.7C633.336,1096.94 634.65,1100.51 636.795,1103.21C636.86,1103.17 636.927,1103.15 637.002,1103.12C638.536,1102.69 640.016,1101.99 641.302,1101.04C646.338,1097.33 648.755,1090.48 647.377,1084.4C646.726,1081.54 645.119,1078.92 642.682,1077.24C639.481,1075.03 635.29,1074.6 631.511,1075.04C627.184,1075.54 622.946,1077.2 619.541,1079.93C616.18,1082.64 614.157,1086.2 612.831,1090.25C610.541,1097.25 610.681,1104.82 612.601,1111.88C616.284,1125.43 626.736,1137.75 640.381,1141.86C640.573,1141.72 640.821,1141.65 641.13,1141.69C644.178,1142.1 647.362,1142.52 650.382,1141.71C652.951,1141.02 655.175,1139.16 657.081,1137.38C660.538,1134.14 663.342,1130.27 666.922,1127.16C668.76,1125.57 670.944,1124.36 673.148,1123.35C675.616,1122.21 678.444,1121.12 681.21,1121.28C682.424,1121.36 683.627,1121.76 684.492,1122.64C685.476,1123.64 685.755,1125.04 685.788,1126.39C685.793,1126.59 685.726,1126.76 685.623,1126.91C685.694,1126.98 685.769,1127.05 685.838,1127.12C688.508,1129.93 690.377,1133.56 694.011,1135.32C697.915,1137.22 702.786,1135.9 706.368,1133.85C713.853,1129.55 716.27,1119.98 719.183,1112.5C719.554,1111.54 720.805,1111.52 721.297,1112.37C723.89,1116.87 727.876,1120.44 732.249,1123.16C740.256,1128.14 750.564,1130.84 759.879,1128.49C764.303,1127.38 768.365,1124.93 771.237,1121.36C775.076,1116.59 776.388,1110.25 774.835,1104.33C774.478,1102.97 776.359,1102.6 776.995,1103.61ZM710.293,1118.71C708.851,1120.76 706.294,1121.78 703.858,1121.16C700.904,1120.42 699.125,1117.22 699.49,1114.3C699.92,1110.87 702.93,1108.31 706.327,1108.07C706.64,1108.05 706.947,1108.11 707.19,1108.26C707.796,1108.34 708.381,1108.57 708.903,1108.99C709.951,1109.83 710.566,1111.02 710.971,1112.28C711.662,1114.42 711.625,1116.82 710.293,1118.71ZM765.286,1109.74C764.695,1111.98 763.064,1113.87 761.212,1115.19C757.761,1117.65 753.453,1118.7 749.247,1118.26C745.02,1117.82 741.041,1115.94 737.991,1112.98C734.439,1109.55 732.641,1104.61 728.89,1101.37C727.317,1100.01 725.264,1098.83 723.116,1098.92C720.697,1099.04 719.223,1101.15 717.218,1102.2C715.476,1103.11 713.277,1103.1 711.802,1101.7C710.224,1100.19 710.332,1097.82 711.07,1095.93C711.172,1095.67 711.332,1095.49 711.52,1095.37C711.522,1095.37 711.523,1095.37 711.526,1095.36C712.351,1094.37 713.25,1093.45 714.303,1092.69C717.943,1090.09 722.466,1089.75 726.653,1091.12C731.176,1092.61 734.907,1095.85 738.709,1098.59C742.466,1101.29 747.058,1104.19 751.911,1103.65C754.218,1103.4 756.211,1102.17 758.442,1101.63C760.586,1101.12 762.913,1101.6 764.257,1103.47C765.554,1105.26 765.845,1107.62 765.286,1109.74Z" style="fill-rule:nonzero;"/>
            <path d="M759.786,1103.73C757.714,1103.92 755.85,1105.11 753.857,1105.63C751.655,1106.2 749.342,1106.05 747.153,1105.51C742.566,1104.37 738.716,1101.46 734.988,1098.7C731.718,1096.28 728.235,1093.59 724.134,1092.83C722.28,1092.49 720.383,1092.51 718.57,1093.06C716.534,1093.68 714.777,1095.03 713.429,1096.65C713.35,1096.75 713.259,1096.83 713.163,1096.9C712.886,1097.65 712.7,1098.48 712.933,1099.26C713.08,1099.76 713.45,1100.19 713.884,1100.38C714.456,1100.62 715.1,1100.59 715.73,1100.35C716.717,1099.98 717.515,1099.22 718.342,1098.59C719.283,1097.87 720.257,1097.25 721.396,1096.91C725.757,1095.6 730.065,1098.81 732.637,1102.02C735.468,1105.55 737.433,1109.86 741.11,1112.65C744.101,1114.92 747.786,1116.13 751.541,1116.06C755.17,1116 759.212,1114.56 761.625,1111.75C762.866,1110.31 763.537,1108.47 763.155,1106.57C762.813,1104.88 761.615,1103.55 759.786,1103.73Z" style="fill-rule:nonzero;"/>
            <path d="M623.636,1045.46C622.077,1049.63 625.237,1055.54 630.138,1054.83C637.022,1053.82 636.735,1042.01 629.492,1042.04C626.446,1042.05 624.41,1043.39 623.636,1045.46Z" style="fill-rule:nonzero;"/>
            <path d="M753.156,985.78C755.347,985.119 757.58,984.728 759.806,984.746C757.613,979.092 755.259,973.503 753.086,967.841C749.215,957.753 745.691,947.152 745.759,936.224C745.791,931.025 746.74,925.815 748.726,921.001C751.031,915.412 754.619,910.498 758.881,906.241C758.883,906.239 758.886,906.238 758.888,906.235C757.424,903.915 755.962,901.594 754.476,899.288C752.09,895.584 749.628,891.928 747.001,888.39C745.686,886.619 744.348,884.852 742.925,883.165C741.405,881.363 739.736,879.667 738.134,877.937C737.359,877.099 736.564,876.278 735.761,875.465C735.615,876.13 735.455,876.791 735.276,877.448C733.872,882.611 731.397,887.456 728.256,891.775C724.697,896.669 720.309,900.94 716.066,905.231C713.865,907.458 711.665,909.687 709.548,911.995C707.671,914.041 705.859,916.137 704.352,918.476C701.664,922.645 699.889,927.399 699.256,932.324C698.035,941.834 701.036,951.818 707.553,958.893C713.27,965.1 721.089,968.761 728.508,972.492C736.126,976.323 743.807,980.468 749.331,987.133C750.585,986.634 751.855,986.173 753.156,985.78Z" style="fill-rule:nonzero;"/>
            <path d="M600.766,953.703C600.883,954.077 600.934,954.495 601.073,954.858C601.234,955.281 601.514,955.681 601.725,956.079C602.216,957.006 602.685,957.945 603.08,958.917C603.444,959.813 603.667,960.767 604.079,961.64C605.834,965.362 607.998,968.9 610.148,972.403C610.638,973.201 611.081,974.291 611.799,974.889C612.088,975.13 612.417,975.308 612.661,975.604C612.678,975.625 612.692,975.65 612.708,975.671C612.822,975.598 612.953,975.539 613.11,975.506C613.909,975.339 614.736,975.206 615.51,974.939C617.025,974.416 617.925,973.202 618.615,971.806C619.484,970.049 620.041,968.094 620.188,966.139C620.267,965.095 620.183,964.046 620.179,963.001C620.175,961.838 620.205,960.675 620.244,959.513C620.321,957.226 620.434,954.938 620.399,952.649C620.325,947.892 619.259,943.26 618.198,938.645C617.155,934.109 616.267,929.603 616.116,924.938C615.862,917.098 617.06,909.223 619.568,901.793C622.105,894.276 626.006,887.413 630.748,881.08C633.298,877.674 635.926,874.31 638.011,870.589C638.98,868.86 639.874,867.124 639.934,865.105C639.979,863.563 639.631,862.027 639.324,860.512C637.632,861.433 635.96,862.39 634.311,863.386C621.444,871.158 610.212,881.445 602.159,894.198C602.097,894.297 602.026,894.374 601.952,894.443C601.969,894.698 601.91,894.965 601.783,895.21C597.957,902.601 595.307,910.878 594.709,919.203C594.698,919.36 594.657,919.495 594.602,919.615C594.623,919.711 594.636,919.812 594.633,919.922C594.568,922.041 594.61,924.162 594.767,926.276C595.089,930.602 595.812,934.887 596.695,939.131C597.15,941.318 597.649,943.496 598.16,945.67C598.394,946.664 598.532,947.769 599,948.68C599.206,949.082 599.469,949.463 599.631,949.887C599.798,950.323 599.745,950.734 599.825,951.179C599.975,952.028 600.504,952.863 600.766,953.703Z" style="fill-rule:nonzero;"/>
            <path d="M765.15,985.664C767.873,986.63 770.471,988.083 772.72,989.927C772.702,989.653 772.684,989.378 772.67,989.104C772,975.904 774.374,962.687 779.142,950.385C781.559,944.15 784.502,937.998 788.033,932.312C788.203,932.038 788.378,931.766 788.556,931.496C787.56,931.611 786.56,931.689 785.552,931.72C784.473,931.753 783.421,931.785 782.361,931.563C781.545,931.392 780.742,931.175 779.96,930.883C778.387,930.296 776.897,929.46 775.556,928.452C772.805,926.384 770.565,923.678 768.571,920.896C765.614,916.77 762.864,912.508 760.148,908.223C755.765,912.659 752.174,917.878 750.124,923.798C746.747,933.549 747.991,944.002 750.714,953.746C753.649,964.252 758.208,974.211 762.121,984.368C762.192,984.552 762.221,984.744 762.215,984.93C763.199,985.081 764.179,985.32 765.15,985.664Z" style="fill-rule:nonzero;"/>
            <path d="M788.759,959.386C788.732,959.404 788.706,959.412 788.678,959.428C788.381,960.325 788.094,961.225 787.815,962.128C789.362,961.734 790.937,961.462 792.529,961.321C800.569,960.612 808.857,962.969 814.985,968.305C820.394,973.016 823.896,979.493 825.61,986.409C827.35,993.429 827.303,1000.97 825.279,1007.92C823.314,1014.67 819.429,1020.66 814.617,1025.73C809.387,1031.24 803.12,1035.45 796.79,1039.58C789.89,1044.08 782.772,1048.73 777.686,1055.33C773.262,1061.08 771.361,1068.5 771.792,1075.69C772.225,1082.91 774.957,1090.02 780.259,1095.05C785.396,1099.93 792.512,1102.59 799.574,1102.48C801.021,1102.46 802.944,1102.43 804.165,1101.88C805.211,1101.41 806.073,1100.57 806.717,1099.59C807.048,1099.09 807.265,1098.66 807.449,1098.09C807.557,1097.75 807.563,1097.74 807.595,1097.44C807.609,1097.31 807.617,1097.18 807.617,1097.05C807.617,1097.03 807.618,1097.02 807.618,1097.01C807.615,1096.99 807.61,1096.98 807.604,1096.94C807.591,1096.88 807.532,1096.69 807.537,1096.68C807.522,1096.65 807.507,1096.62 807.491,1096.59C807.481,1096.59 807.398,1096.49 807.406,1096.48C807.359,1096.44 807.286,1096.39 807.263,1096.38C807.258,1096.37 807.257,1096.37 807.253,1096.37C807.249,1096.37 807.248,1096.37 807.243,1096.37C807.173,1096.34 807.103,1096.31 807.031,1096.29C806.988,1096.28 806.993,1096.27 806.836,1096.25C806.559,1096.21 806.283,1096.22 806.006,1096.24C805.436,1096.3 805.025,1096 804.818,1095.59C803.079,1095.49 801.234,1096.09 799.541,1096.41C795.585,1097.18 791.321,1097.3 787.476,1095.94C781.277,1093.75 777.821,1087.88 777.334,1081.53C776.761,1074.04 779.544,1067.02 783.893,1061.05C790.648,1051.78 799.541,1044.39 808.247,1037.05C816.53,1030.05 824.897,1022.89 830.691,1013.6C833.472,1009.13 835.585,1004.19 836.457,998.987C837.435,993.151 836.85,987.156 835.059,981.533C833.442,976.456 830.819,971.354 827.123,967.472C823.908,964.095 819.865,961.465 815.626,959.56C807.338,955.835 796.792,954.163 788.759,959.386Z" style="fill-rule:nonzero;"/>
            <path d="M669.679,1009.99C673.156,1010.22 676.648,1010.23 680.108,1010.05C697.283,1009.17 713.707,1003.3 729.277,996.361C733.285,994.574 737.257,992.708 741.216,990.814C743.177,989.876 745.126,988.929 747.108,988.06C746.66,987.541 746.203,987.03 745.726,986.537C739.747,980.37 731.788,976.712 724.232,972.895C716.579,969.03 708.798,964.749 703.596,957.712C697.536,949.513 695.36,938.801 697.545,928.872C698.647,923.862 700.885,919.101 703.972,915.008C705.771,912.623 707.845,910.433 709.901,908.271C712.09,905.971 714.338,903.728 716.564,901.466C720.666,897.297 724.79,893.075 727.965,888.134C730.82,883.691 732.865,878.746 733.809,873.542C730.374,870.243 726.709,867.177 722.848,864.402C722.231,865.82 721.521,867.203 720.686,868.505C717.722,873.122 713.277,876.401 708.249,878.479C703.14,880.59 697.682,881.649 692.32,882.896C689.641,883.519 686.964,884.18 684.352,885.047C681.643,885.946 679.037,887.123 676.533,888.488C671.299,891.342 666.563,895.06 662.431,899.349C654.145,907.95 648.211,919.062 645.997,930.82C644.755,937.413 644.689,944.157 646.059,950.736C647.541,957.855 650.581,964.66 654.852,970.544C657.021,973.532 659.491,976.256 661.529,979.345C663.45,982.255 665.113,985.339 666.437,988.566C667.763,991.8 668.777,995.183 669.304,998.642C669.876,1002.39 669.749,1006.21 669.679,1009.99Z" style="fill-rule:nonzero;"/>
            <path d="M781.217,1000.94C781.367,1000.88 781.528,1000.86 781.692,1000.89C781.993,1000.94 782.289,1000.95 782.583,1000.95C782.185,1000.17 781.913,999.318 781.77,998.424C781.599,997.363 781.58,996.287 781.551,995.213C781.535,995.115 781.532,995.017 781.541,994.919C781.532,994.603 781.522,994.287 781.505,993.972C781.324,990.682 781.237,987.405 781.394,984.111C781.906,973.317 784.839,962.87 788.578,952.786C790.483,947.648 792.471,942.49 795.194,937.72C797.241,934.133 799.634,930.2 803.318,928.129C802.972,927.924 802.597,927.754 802.184,927.631C802.176,927.628 802.169,927.624 802.161,927.622C802.065,927.617 801.966,927.605 801.863,927.574C798.808,926.681 795.818,927.15 793.399,929.267C791.221,931.173 789.771,933.79 788.369,936.281C782.078,947.46 777.471,959.676 775.704,972.419C774.901,978.211 774.565,984.226 775.012,990.042C775.19,992.361 775.544,994.748 776.564,996.857C777.534,998.865 779.105,1000.27 781.217,1000.94Z" style="fill-rule:nonzero;"/>
            <path d="M677.012,1128.86C678.165,1127.52 679.494,1126.11 681.247,1125.6C682.006,1125.38 682.737,1125.4 683.424,1125.6C683.36,1125.25 683.258,1124.91 683.122,1124.62C683.098,1124.57 683.067,1124.52 683.038,1124.48C683.036,1124.47 683.034,1124.47 683.033,1124.47C682.945,1124.36 682.855,1124.26 682.76,1124.15C682.758,1124.15 682.758,1124.15 682.756,1124.15C682.717,1124.12 682.679,1124.09 682.637,1124.06C682.597,1124.03 682.435,1123.93 682.379,1123.89C682.316,1123.87 682.176,1123.8 682.135,1123.79C682.001,1123.74 681.863,1123.7 681.725,1123.66C681.717,1123.66 681.715,1123.66 681.709,1123.65C681.651,1123.64 681.594,1123.63 681.535,1123.63C681.397,1123.61 681.259,1123.59 681.119,1123.58C680.958,1123.57 680.798,1123.56 680.636,1123.56C680.579,1123.56 680.337,1123.57 680.283,1123.57C679.984,1123.6 679.686,1123.63 679.39,1123.68C676.798,1124.1 674.464,1125.16 672.081,1126.45C671.566,1126.73 671.058,1127.02 670.559,1127.33C670.345,1127.46 670.133,1127.6 669.922,1127.73C669.89,1127.75 669.858,1127.77 669.827,1127.8C669.736,1127.86 669.644,1127.92 669.554,1127.99C668.101,1129.03 666.819,1130.35 665.589,1131.64C662.455,1134.93 659.649,1138.6 655.959,1141.31C655.033,1141.99 654.079,1142.59 653.081,1143.07C658.207,1142.58 663.236,1140.94 667.585,1138.27C669.705,1136.96 671.726,1135.35 673.362,1133.47C674.646,1131.99 675.733,1130.35 677.012,1128.86Z" style="fill-rule:nonzero;"/>
            <path d="M622.681,988.137C627.295,992.861 632.514,996.987 638.196,1000.35C643.925,1003.75 650.133,1006.33 656.588,1007.96C660.124,1008.86 663.742,1009.46 667.387,1009.8C667.423,1007.83 667.437,1005.85 667.432,1003.87C667.415,996.908 665.056,990.068 661.7,984.034C660.046,981.061 658.115,978.25 655.942,975.633C653.482,972.67 651.244,969.559 649.38,966.184C645.858,959.805 643.597,952.675 642.945,945.411C642.366,938.946 643.055,932.438 644.711,926.172C647.823,914.39 654.446,903.516 663.356,895.22C667.774,891.107 672.811,887.609 678.27,885.022C683.371,882.605 688.868,881.318 694.345,880.075C699.569,878.889 704.898,877.733 709.704,875.282C714.679,872.745 718.468,868.735 720.694,863.606C720.781,863.405 720.906,863.256 721.049,863.144C709.867,855.516 696.948,850.617 683.328,850.167C674.414,849.872 665.54,850.882 656.985,853.439C654.739,854.111 652.526,854.889 650.349,855.759C649.254,856.197 648.167,856.657 647.091,857.14C646.626,857.349 646.173,857.585 645.664,857.667C645.332,857.721 644.985,857.665 644.658,857.754C643.719,858.011 642.736,858.711 641.87,859.159C641.727,859.233 641.587,859.31 641.444,859.385C641.615,860.302 641.806,861.215 641.961,862.135C642.281,864.035 642.357,865.939 641.82,867.808C641.22,869.894 639.967,871.88 638.83,873.713C636.538,877.407 633.782,880.777 631.231,884.29C626.566,890.716 622.989,897.898 620.807,905.539C618.615,913.213 617.715,921.554 618.752,929.494C619.382,934.32 620.739,939.008 621.677,943.775C622.149,946.171 622.499,948.586 622.628,951.026C622.751,953.355 622.68,955.685 622.596,958.014C622.51,960.373 622.449,962.723 622.51,965.083C622.562,967.103 622.118,969.165 621.426,971.055C620.773,972.836 619.84,974.783 618.324,975.99C617.084,976.977 615.57,977.34 614.055,977.658C614.737,978.642 615.433,979.616 616.158,980.569C618.174,983.222 620.353,985.753 622.681,988.137Z" style="fill-rule:nonzero;"/>
            <path d="M624.257,1135.17C624.348,1135.25 624.442,1135.33 624.534,1135.42C624.44,1135.34 624.349,1135.25 624.257,1135.17Z" style="fill-rule:nonzero;"/>
            <path d="M622.273,1033.63C622.278,1033.63 622.231,1033.63 622.182,1033.64C622.224,1033.64 622.265,1033.64 622.273,1033.63Z" style="fill-rule:nonzero;"/>
            <path d="M683.048,1124.49C683.116,1124.6 683.081,1124.54 683.048,1124.49Z" style="fill-rule:nonzero;"/>
            <path d="M635.599,1089.99C637.405,1089.11 639.763,1089.43 640.524,1091.31C640.633,1091.41 640.727,1091.54 640.799,1091.71C640.957,1092.09 641.146,1092.44 641.587,1092.39C642.151,1092.33 642.635,1091.8 642.785,1091.29C643.223,1089.8 643.067,1088.41 642.052,1087.23C637.865,1082.36 630.105,1084.1 626.585,1088.86C623.196,1093.45 622.941,1099.82 624.93,1105.02C626.863,1110.07 630.776,1114.81 635.686,1117.21C640.292,1119.47 645.36,1120.61 650.483,1120.65C660.461,1120.73 670.576,1116.42 676.86,1108.55C679.201,1105.63 681.009,1102.29 682.096,1098.69C682.613,1096.99 683.018,1095.25 683.4,1093.5C683.457,1093.25 683.512,1092.99 683.568,1092.73C683.574,1092.7 683.575,1092.7 683.574,1092.7C683.579,1092.68 683.585,1092.64 683.598,1092.59C683.623,1092.47 683.648,1092.35 683.674,1092.23C683.783,1091.71 683.89,1091.2 683.997,1090.69C684.216,1089.63 684.433,1088.58 684.655,1087.53C685.154,1085.17 685.673,1082.82 686.264,1080.48C687.53,1075.46 689.123,1070.51 691.319,1065.82C693.782,1060.56 696.957,1055.68 700.938,1051.43C705.49,1046.58 711.04,1042.72 717.046,1039.89C724.881,1036.2 733.433,1034.16 742.006,1033.13C749.518,1032.23 757.099,1032.06 764.661,1032.36C760,1030.94 755.364,1029.36 750.545,1028.58C744.493,1027.6 738.112,1027.81 732.054,1028.62C721.002,1030.11 710.367,1034.32 701.436,1041.02C693.996,1046.6 687.704,1053.83 683.579,1062.2C681.496,1066.42 679.919,1070.92 679.014,1075.55C678.115,1080.14 678.254,1084.84 677.327,1089.41C675.655,1097.67 671.258,1105.75 663.545,1109.75C655.305,1114.02 644.145,1113.02 637.117,1106.85C633.692,1103.83 631.156,1099.35 632.261,1094.69C632.712,1092.8 633.791,1090.88 635.599,1089.99Z" style="fill-rule:nonzero;"/>
            <path d="M785.033,977.227C784.765,977.19 784.553,977.082 784.393,976.932C783.977,979.864 783.716,982.818 783.628,985.782C783.567,987.826 783.614,989.859 783.695,991.895C786.664,987.935 789.275,983.707 791.441,979.254C789.415,978.258 787.265,977.535 785.033,977.227Z" style="fill-rule:nonzero;"/>
            <path d="M784.945,1000.46C785.374,1000.29 785.795,1000.08 786.204,999.846C788.76,998.37 790.719,996.053 792.174,993.525C794.121,990.143 795.66,986.55 797.083,982.922C795.939,981.989 794.722,981.119 793.444,980.349C790.804,985.722 787.598,990.787 783.841,995.45C783.893,997.204 783.987,998.975 784.945,1000.46Z" style="fill-rule:nonzero;"/>
            <path d="M799.185,953.803C799.808,948.003 799.657,942.16 798.659,936.423C797.695,937.924 796.8,939.474 795.989,941.051C793.612,945.673 791.794,950.602 790.039,955.486C789.959,955.71 789.881,955.934 789.802,956.158C791.112,955.512 792.486,955.005 793.906,954.629C795.634,954.169 797.402,953.904 799.185,953.803Z" style="fill-rule:nonzero;"/>
            <path d="M806.866,934.765C806.589,933.077 806.072,931.233 805.08,929.81C803.212,930.706 801.739,932.112 800.483,933.774C801.882,940.331 802.191,947.099 801.497,953.765C802.711,953.791 803.927,953.889 805.14,954.052C805.511,951.578 805.925,949.11 806.286,946.634C806.857,942.722 807.501,938.638 806.866,934.765Z" style="fill-rule:nonzero;"/>
        </g>
    </g>
</svg>
