<?xml version="1.0" encoding="UTF-8" standalone="no"?>
<!DOCTYPE svg PUBLIC "-//W3C//DTD SVG 1.1//EN" "http://www.w3.org/Graphics/SVG/1.1/DTD/svg11.dtd">
<svg width="100%" height="100%" viewBox="0 0 322 269" version="1.1" xmlns="http://www.w3.org/2000/svg" xmlns:xlink="http://www.w3.org/1999/xlink" xml:space="preserve" xmlns:serif="http://www.serif.com/" style="fill-rule:evenodd;clip-rule:evenodd;stroke-linejoin:round;stroke-miterlimit:2;">
    <g transform="matrix(1,0,0,1,-49.434,-62.413)">
        <g>
            <path d="M248.44,206.831C248.34,206.975 248.261,207.128 248.172,207.279C248.168,207.287 248.167,207.289 248.164,207.296C248.158,207.312 248.152,207.329 248.146,207.345C248.122,207.42 248.106,207.496 248.084,207.572C248.085,207.636 248.085,207.7 248.085,207.765C248.098,207.807 248.107,207.851 248.12,207.893C248.193,207.981 248.199,208.025 248.176,208.007C248.184,208.026 248.193,208.047 248.201,208.061C248.224,208.1 248.25,208.138 248.275,208.177C248.378,208.285 248.482,208.388 248.59,208.491C248.651,208.531 248.71,208.573 248.773,208.611C248.883,208.679 248.999,208.735 249.114,208.795C249.162,208.811 249.209,208.829 249.257,208.844C249.403,208.891 249.565,208.91 249.713,208.95C249.776,208.952 249.838,208.957 249.901,208.957C249.908,208.957 249.917,208.955 249.925,208.955C249.94,208.942 249.995,208.933 250.082,208.943C250.123,208.934 250.164,208.926 250.204,208.914C250.211,208.912 250.213,208.91 250.219,208.908C250.261,208.881 250.29,208.862 250.305,208.857C250.763,208.547 251.276,208.301 251.729,207.982C251.746,207.97 251.753,207.966 251.765,207.957L251.766,207.956C251.803,207.922 251.842,207.89 251.879,207.856C251.933,207.806 251.982,207.75 252.035,207.699C252.053,207.672 252.071,207.645 252.087,207.618C252.088,207.615 252.088,207.615 252.09,207.612C252.104,207.509 252.13,207.48 252.128,207.514C252.137,207.49 252.148,207.465 252.153,207.445C252.157,207.43 252.163,207.386 252.169,207.347C252.172,207.282 252.175,207.21 252.175,207.193C252.175,207.091 252.166,206.991 252.16,206.889L252.16,206.883C252.156,206.862 252.152,206.842 252.146,206.818C252.095,206.807 252.046,206.794 251.995,206.783C251.725,206.727 251.449,206.68 251.186,206.594C250.734,206.446 250.327,206.212 249.907,205.995C249.843,205.962 249.778,205.932 249.713,205.899C249.705,205.897 249.703,205.897 249.694,205.895C249.644,205.878 249.593,205.865 249.542,205.853C249.474,205.858 249.429,205.866 249.533,205.85C249.526,205.848 249.519,205.846 249.512,205.844C249.524,205.845 249.535,205.847 249.547,205.848C249.575,205.844 249.61,205.839 249.658,205.831C249.56,205.846 249.463,205.853 249.369,205.854C249.246,205.968 249.119,206.077 249.001,206.196C248.87,206.328 248.742,206.463 248.62,206.603C248.575,206.654 248.464,206.745 248.444,206.814C248.561,206.661 248.576,206.642 248.49,206.757C248.474,206.782 248.457,206.806 248.44,206.831Z" style="fill-rule:nonzero;"/>
            <path d="M180.181,207.528C180.193,207.525 180.203,207.519 180.206,207.505C180.206,207.504 180.164,207.505 180.121,207.506L180.122,207.506C180.14,207.514 180.161,207.52 180.181,207.528Z" style="fill-rule:nonzero;"/>
            <path d="M176.761,209.599C176.763,209.602 176.765,209.605 176.767,209.608C176.767,209.603 176.768,209.595 176.768,209.59C176.767,209.588 176.765,209.587 176.764,209.586C176.763,209.59 176.762,209.594 176.761,209.599Z" style="fill-rule:nonzero;"/>
            <path d="M180.245,207.554C180.263,207.559 180.277,207.564 180.299,207.57C180.261,207.559 180.221,207.543 180.181,207.528L180.179,207.528C180.201,207.536 180.225,207.544 180.245,207.554Z" style="fill-rule:nonzero;"/>
            <path d="M176.78,209.522C176.779,209.526 176.778,209.53 176.777,209.534C176.779,209.532 176.78,209.529 176.782,209.527C176.836,209.439 176.842,209.318 176.78,209.522Z" style="fill-rule:nonzero;"/>
            <path d="M176.76,209.508C176.76,209.518 176.758,209.537 176.757,209.561C176.762,209.556 176.765,209.549 176.77,209.545C176.768,209.528 176.763,209.518 176.76,209.508Z" style="fill-rule:nonzero;"/>
            <path d="M181.301,209.393C181.299,209.403 181.297,209.413 181.296,209.423C181.295,209.438 181.295,209.448 181.294,209.465C181.295,209.441 181.298,209.417 181.301,209.393Z" style="fill-rule:nonzero;"/>
            <path d="M252.094,206.616C252.094,206.615 252.093,206.613 252.093,206.612C252.08,206.576 252.066,206.539 252.059,206.503C252.08,206.626 252.105,206.682 252.121,206.706L252.12,206.704C252.113,206.675 252.104,206.645 252.094,206.616Z" style="fill-rule:nonzero;"/>
            <path d="M171.243,210.713C171.251,210.72 171.259,210.728 171.267,210.735C171.288,210.736 171.264,210.722 171.243,210.713Z" style="fill-rule:nonzero;"/>
            <path d="M252.155,206.819C252.156,206.837 252.158,206.856 252.159,206.875C252.158,206.852 252.157,206.834 252.155,206.819C252.156,206.819 252.156,206.819 252.155,206.819Z" style="fill-rule:nonzero;"/>
            <path d="M249.659,205.859C249.667,205.86 249.676,205.861 249.684,205.862C249.674,205.85 249.625,205.849 249.577,205.851C249.604,205.854 249.631,205.857 249.659,205.859Z" style="fill-rule:nonzero;"/>
            <path d="M183.701,210.941C184.963,210.565 186.201,210.053 187.268,209.325C186.217,208.673 185.099,208.115 183.936,207.723C184.142,208.632 184.006,209.661 183.811,210.526C183.78,210.664 183.741,210.803 183.701,210.941Z" style="fill-rule:nonzero;"/>
            <path d="M252.16,206.883C252.163,206.919 252.167,206.949 252.17,206.948C252.173,206.947 252.167,206.918 252.16,206.883Z" style="fill-rule:nonzero;"/>
            <path d="M253.7,209.796C254.136,209.733 254.57,209.662 254.999,209.575C255.81,209.41 256.946,209.117 257.492,208.864C257.684,208.775 257.866,208.671 258.051,208.567C258.363,208.391 258.069,208.519 258.228,208.427C258.2,208.376 258.172,208.325 258.141,208.276C258.05,208.137 257.976,208.04 257.849,207.902C257.535,207.561 257.188,207.28 256.796,207.037C256.154,206.638 255.461,206.352 254.746,206.126C254.918,206.823 254.912,207.603 254.723,208.236C254.533,208.87 254.16,209.369 253.7,209.796Z" style="fill-rule:nonzero;"/>
            <path d="M176.75,209.569L176.757,209.561L176.75,209.569Z" style="fill-rule:nonzero;"/>
            <path d="M181.372,208.315C181.37,208.32 181.364,208.319 181.348,208.296C181.345,208.292 181.341,208.285 181.337,208.28C181.331,208.274 181.324,208.268 181.318,208.261C181.318,208.263 181.319,208.266 181.319,208.268C181.389,208.401 181.449,208.389 181.372,208.315Z" style="fill-rule:nonzero;"/>
            <path d="M181.307,208.25C181.314,208.287 181.322,208.321 181.33,208.357C181.329,208.342 181.328,208.328 181.327,208.313C181.326,208.294 181.322,208.283 181.319,208.268C181.317,208.265 181.315,208.26 181.314,208.257C181.312,208.255 181.309,208.253 181.307,208.25Z" style="fill-rule:nonzero;"/>
            <path d="M176.766,209.619C176.764,209.616 176.761,209.613 176.759,209.61L176.759,209.611C176.762,209.624 176.764,209.634 176.765,209.64C176.764,209.633 176.765,209.626 176.766,209.619Z" style="fill-rule:nonzero;"/>
            <path d="M180.108,207.507L180.122,207.507C180.004,207.457 180.028,207.484 180.079,207.508L180.095,207.508C180.085,207.503 180.092,207.503 180.108,207.507Z" style="fill-rule:nonzero;"/>
            <path d="M181.304,208.236C181.3,208.226 181.296,208.22 181.291,208.209C181.29,208.215 181.291,208.225 181.292,208.237C181.297,208.242 181.302,208.246 181.306,208.251C181.306,208.245 181.304,208.24 181.304,208.236Z" style="fill-rule:nonzero;"/>
            <path d="M174.424,208.25C174.373,208.271 174.32,208.289 174.269,208.31C173.3,208.724 172.294,209.299 171.639,210.147C171.541,210.274 171.397,210.512 171.304,210.693C171.292,210.716 171.284,210.731 171.275,210.749C171.29,210.758 171.306,210.767 171.329,210.78C171.412,210.826 171.494,210.877 171.576,210.925C171.639,210.962 171.709,210.993 171.776,211.024C171.798,211.034 171.818,211.043 171.828,211.047C172.227,211.201 172.642,211.316 173.058,211.413C173.834,211.594 174.457,211.685 175.165,211.754C175.08,211.683 174.985,211.624 174.906,211.546C174.178,210.826 173.881,209.758 174.202,208.775C174.26,208.592 174.34,208.42 174.424,208.25Z" style="fill-rule:nonzero;"/>
            <path d="M176.739,209.545C176.742,209.555 176.742,209.558 176.745,209.566C176.746,209.567 176.747,209.568 176.748,209.569C176.753,209.525 176.757,209.506 176.758,209.502C176.741,209.457 176.715,209.469 176.739,209.545Z" style="fill-rule:nonzero;"/>
            <path d="M176.758,209.704C176.763,209.683 176.76,209.673 176.763,209.655C176.762,209.655 176.759,209.651 176.758,209.649C176.758,209.668 176.757,209.686 176.758,209.704Z" style="fill-rule:nonzero;"/>
            <path d="M181.219,208.164C181.181,208.129 181.124,208.091 181.081,208.051C181.069,208.042 181.057,208.034 181.044,208.025C180.926,207.943 180.805,207.865 180.681,207.791C180.539,207.706 180.394,207.626 180.246,207.554C180.212,207.544 180.183,207.535 180.161,207.529C180.135,207.528 180.104,207.519 180.078,207.507C180.046,207.508 180.019,207.508 180.025,207.508C179.833,207.519 179.644,207.557 179.453,207.571C178.984,207.605 178.549,207.494 178.156,207.278C178.109,207.284 178.061,207.291 178.014,207.298C178.053,207.699 177.925,208.121 177.639,208.407C177.486,208.56 177.336,208.716 177.194,208.879C177.159,208.919 176.971,209.205 177.075,209.017C177.181,208.826 177.049,209.058 177.029,209.087C176.946,209.207 176.876,209.409 176.781,209.528C176.779,209.531 176.777,209.534 176.775,209.537C176.773,209.543 176.772,209.549 176.77,209.556C176.771,209.565 176.767,209.58 176.767,209.59C176.807,209.634 176.848,209.685 176.867,209.705C176.874,209.712 176.875,209.714 176.88,209.72C176.887,209.724 176.889,209.724 176.897,209.729C177.024,209.803 177.145,209.883 177.276,209.952C177.277,209.953 177.324,209.977 177.372,210.001C177.395,210.005 177.608,210.095 177.638,210.105C177.733,210.136 177.829,210.163 177.925,210.187C178.021,210.211 178.118,210.227 178.214,210.248C178.221,210.25 178.227,210.252 178.234,210.255C178.398,210.289 178.6,210.28 178.755,210.284C178.935,210.289 179.115,210.285 179.295,210.285C179.881,210.285 180.463,210.394 181.049,210.394C181.119,210.179 181.188,209.966 181.236,209.744C181.259,209.638 181.278,209.53 181.296,209.423C181.31,209.135 181.316,209.228 181.308,209.33C181.31,209.316 181.311,209.301 181.313,209.287C181.338,209.026 181.349,208.764 181.339,208.502C181.338,208.464 181.335,208.425 181.332,208.387C181.309,208.316 181.296,208.266 181.292,208.238C181.268,208.212 181.244,208.188 181.219,208.164Z" style="fill-rule:nonzero;"/>
            <path d="M176.77,209.545C176.766,209.551 176.762,209.556 176.757,209.561C176.757,209.565 176.757,209.566 176.756,209.571L176.756,209.578C176.759,209.581 176.761,209.583 176.764,209.586C176.766,209.576 176.769,209.566 176.771,209.556C176.771,209.551 176.77,209.55 176.77,209.545Z" style="fill-rule:nonzero;"/>
            <path d="M181.314,208.257C181.315,208.258 181.317,208.26 181.318,208.261C181.317,208.257 181.317,208.252 181.316,208.248C181.31,208.239 181.307,208.232 181.301,208.223C181.302,208.227 181.303,208.231 181.304,208.235C181.307,208.243 181.311,208.25 181.314,208.257Z" style="fill-rule:nonzero;"/>
            <path d="M176.776,209.537L176.777,209.535L176.769,209.544L176.77,209.545L176.776,209.537Z" style="fill-rule:nonzero;"/>
            <path d="M181.296,208.2C181.293,208.198 181.292,208.2 181.291,208.205C181.294,208.211 181.297,208.217 181.301,208.224C181.3,208.216 181.298,208.208 181.296,208.2Z" style="fill-rule:nonzero;"/>
            <path d="M181.278,208.182C181.282,208.194 181.287,208.198 181.291,208.209L181.291,208.205C181.287,208.197 181.281,208.188 181.278,208.182Z" style="fill-rule:nonzero;"/>
            <path d="M181.348,208.44C181.339,208.415 181.336,208.386 181.33,208.358C181.331,208.367 181.331,208.377 181.332,208.386C181.339,208.406 181.339,208.415 181.348,208.44Z" style="fill-rule:nonzero;"/>
            <path d="M318.837,173.762C318.831,173.767 318.83,173.768 318.824,173.772C318.827,173.771 318.832,173.769 318.834,173.768C318.835,173.766 318.836,173.765 318.837,173.762Z" style="fill-rule:nonzero;"/>
            <path d="M318.839,173.767C318.858,173.757 318.863,173.751 318.852,173.75C318.848,173.753 318.848,173.753 318.844,173.756C318.842,173.76 318.841,173.763 318.839,173.767Z" style="fill-rule:nonzero;"/>
            <path d="M318.884,173.691C318.878,173.696 318.871,173.706 318.864,173.718C318.905,173.68 318.937,173.649 318.884,173.691Z" style="fill-rule:nonzero;"/>
            <path d="M313.186,173.173C313.268,173.213 313.349,173.254 313.43,173.294C314.246,173.693 315.092,173.962 315.967,173.99C316.534,174.008 317.106,174.028 317.673,173.998C317.903,173.986 318.12,173.962 318.344,173.91C318.484,173.877 318.62,173.832 318.759,173.794C318.77,173.791 318.77,173.79 318.779,173.787C318.79,173.771 318.805,173.761 318.823,173.756C318.831,173.748 318.839,173.741 318.848,173.733C318.897,173.598 318.945,173.46 319.01,173.332C319.076,173.203 319.156,173.083 319.246,172.974C319.229,172.81 319.213,172.645 319.194,172.482C319.188,172.435 319.164,172.246 319.16,172.209C319.148,172.126 319.137,172.043 319.125,171.961C319.053,171.474 318.97,170.988 318.873,170.505C318.746,169.878 318.612,169.208 318.346,168.64C317.658,167.174 316.525,165.99 315.188,165.067C315.222,165.198 315.252,165.329 315.275,165.462C315.463,166.547 315.314,167.621 315.048,168.681C314.649,170.268 313.917,171.72 313.186,173.173Z" style="fill-rule:nonzero;"/>
            <path d="M295.087,167.77C295.079,167.777 295.071,167.783 295.064,167.79C294.938,167.987 294.768,168.123 294.573,168.204C293.807,168.879 293.091,169.607 292.453,170.41C291.407,171.725 290.608,173.244 290.169,174.867C289.683,176.662 289.718,178.472 289.949,180.304C289.978,180.536 290.013,180.767 290.047,180.999C290.274,180.854 290.505,180.716 290.743,180.589C291.59,180.139 292.488,179.801 293.279,179.252C294.104,178.68 294.871,178.19 295.833,177.868C296.742,177.564 297.684,177.357 298.6,177.075C300.59,176.461 302.662,176.187 304.74,176.105C305.769,176.065 306.815,176.019 307.844,176.04C307.912,176.041 307.981,176.052 308.049,176.055C307.985,175.512 308.042,174.965 308.047,174.421C308.048,174.28 308.077,174.149 308.118,174.022C308.111,173.995 308.099,173.971 308.094,173.943C308.086,173.888 308.078,173.833 308.07,173.779C307.875,173.763 307.671,173.7 307.464,173.563C305.148,172.037 303.135,170.054 300.66,168.769C299.668,168.254 298.61,167.923 297.498,167.811C296.71,167.732 295.86,167.663 295.087,167.77Z" style="fill-rule:nonzero;"/>
            <path d="M312.132,175.631C312.584,176.531 313.064,177.419 313.605,178.268C313.983,178.862 314.292,179.305 314.71,179.77C314.867,179.944 315.034,180.111 315.207,180.27C315.727,180.28 316.204,180.501 316.439,180.985C316.719,181.085 317.003,181.168 317.18,181.194C317.218,181.192 317.436,181.205 317.495,181.206C317.516,181.206 317.572,181.203 317.623,181.199C317.663,181.169 318.023,181.059 317.926,181.125C317.992,181.089 318.057,181.053 318.124,181.019C318.352,180.905 318.165,180.993 318.158,181C318.181,180.977 318.219,180.934 318.261,180.888C318.127,180.289 318.344,179.609 319.04,179.328C319.128,178.997 319.205,178.664 319.265,178.324C319.276,178.26 319.282,178.23 319.286,178.212C319.287,178.2 319.289,178.182 319.293,178.144C319.31,178.001 319.325,177.858 319.338,177.715C319.363,177.443 319.381,177.17 319.393,176.896C319.4,176.732 319.392,176.569 319.395,176.405C318.359,176.735 317.23,176.706 316.156,176.679C314.935,176.649 313.839,176.388 312.721,175.907C312.52,175.823 312.326,175.727 312.132,175.631Z" style="fill-rule:nonzero;"/>
            <path d="M311.933,163.423C311.558,163.288 311.182,163.169 310.809,163.064C309.217,162.619 307.574,162.423 305.923,162.557C304.378,162.682 302.855,163.312 301.421,163.958C300.52,164.364 299.626,164.809 298.753,165.295C299.414,165.419 300.064,165.594 300.694,165.848C303.766,167.086 306.093,169.445 308.82,171.242C309.07,171.407 309.231,171.614 309.327,171.837C309.724,171.831 310.121,172 310.419,172.308C310.487,172.307 310.556,172.303 310.623,172.306C311.344,170.868 312.067,169.518 312.457,167.966C312.661,167.151 312.783,166.43 312.553,165.597C312.348,164.855 312.086,164.157 311.933,163.423Z" style="fill-rule:nonzero;"/>
            <path d="M248.128,207.917C248.126,207.911 248.124,207.909 248.121,207.902C248.12,207.898 248.119,207.895 248.118,207.891C248.108,207.879 248.106,207.872 248.093,207.859C248.107,207.873 248.118,207.896 248.128,207.917Z" style="fill-rule:nonzero;"/>
            <path d="M318.772,173.795C318.778,173.791 318.785,173.788 318.791,173.784C318.787,173.785 318.785,173.786 318.78,173.788C318.778,173.791 318.773,173.792 318.772,173.795Z" style="fill-rule:nonzero;"/>
            <path d="M303.095,200.15C304.101,200.571 305.44,201.005 306.616,201.299C307.825,201.602 309.22,201.848 310.242,201.966C313.846,202.38 317.401,202.25 320.914,201.78C320.777,201.549 320.641,201.318 320.51,201.084C320.024,200.222 319.651,199.306 319.277,198.392C318.496,196.484 318.044,194.62 317.997,192.553C317.949,190.396 318.13,188.193 318.665,186.099C318.91,185.14 319.296,184.198 319.615,183.242C319.226,183.509 318.783,183.709 318.272,183.807C317.032,184.046 315.895,183.785 314.88,183.24C314.789,183.312 314.699,183.386 314.606,183.458C314.251,183.732 313.894,183.929 313.491,184.124C312.622,184.545 311.762,184.984 310.959,185.524C309.282,186.653 307.748,188.035 306.35,189.492C304.967,190.933 303.862,192.579 302.703,194.199C301.564,195.791 301.958,197.683 301.974,199.526C301.974,199.562 301.967,199.593 301.965,199.627C302.339,199.815 302.716,199.992 303.095,200.15Z" style="fill-rule:nonzero;"/>
            <path d="M321.818,197.556C322.356,198.883 323.11,200.077 323.78,201.323C324.668,201.159 325.555,200.983 326.438,200.785C329.154,200.173 331.834,199.404 334.471,198.509C335.407,198.191 336.326,197.857 337.236,197.515C336.656,196.99 336.137,196.378 335.655,195.805C334.924,194.937 334.135,194.125 333.455,193.214C332.792,192.325 332.206,191.367 331.594,190.442C330.321,188.518 329.3,186.509 328.202,184.488C327.653,183.477 327.048,182.485 326.613,181.418C326.295,180.638 326.096,179.822 325.872,179.012C324.906,179.646 323.895,180.214 322.838,180.708C322.838,180.723 322.841,180.735 322.84,180.75C322.751,182.679 321.971,184.41 321.42,186.231C320.857,188.09 320.671,190.044 320.677,191.98C320.68,192.958 320.699,193.936 320.924,194.891C321.139,195.804 321.466,196.688 321.818,197.556Z" style="fill-rule:nonzero;"/>
            <path d="M302.078,190.477C302.719,189.505 303.47,188.631 304.269,187.785C305.871,186.089 307.666,184.511 309.604,183.207C310.479,182.618 311.421,182.166 312.363,181.697C312.481,181.638 312.595,181.571 312.707,181.5C312.241,180.992 311.822,180.442 311.458,179.89C311.288,179.633 311.128,179.37 310.969,179.107C310.865,179.137 310.758,179.161 310.646,179.171C309.694,179.258 308.904,178.756 307.978,178.73C307.035,178.703 306.078,178.749 305.135,178.777C303.247,178.833 301.392,179.043 299.576,179.584C298.687,179.849 297.788,180.079 296.9,180.346C296.029,180.608 295.373,181.056 294.634,181.571C293.328,182.481 291.804,182.913 290.594,183.955C291.657,188.599 293.674,193.007 297.091,196.26C297.749,196.886 298.476,197.475 299.246,198.016C299.195,196.327 299.211,194.641 300.171,193.154C300.765,192.236 301.474,191.392 302.078,190.477Z" style="fill-rule:nonzero;"/>
            <path d="M318.839,173.756C318.839,173.755 318.839,173.754 318.84,173.753C318.835,173.754 318.829,173.755 318.823,173.757C318.813,173.766 318.807,173.772 318.801,173.778C318.814,173.77 318.827,173.763 318.839,173.756Z" style="fill-rule:nonzero;"/>
            <path d="M318.797,173.782L318.802,173.778L318.791,173.784L318.797,173.782Z" style="fill-rule:nonzero;"/>
            <path d="M339.858,196.098C340.067,196.113 340.249,196.166 340.407,196.247C340.907,196.034 341.404,195.82 341.891,195.599C343.027,195.083 344.141,194.522 345.253,193.956C346.271,193.438 347.314,192.957 348.187,192.206C348.957,191.543 349.641,190.787 350.376,190.086C351.264,189.239 352.203,188.447 353.088,187.594C354.925,185.823 356.66,183.95 358.421,182.104C357.897,182.1 357.375,182.097 356.853,182.026C356.267,181.946 355.694,181.781 355.108,181.707C353.979,181.564 352.832,181.691 351.699,181.558C350.471,181.414 349.247,181.228 348.03,181.01C345.588,180.572 343.172,180.002 340.77,179.384C337.253,178.478 333.655,177.12 330.83,174.77C329.995,175.682 329.102,176.535 328.152,177.322C328.174,177.371 328.2,177.417 328.217,177.471C328.536,178.457 328.716,179.498 329.106,180.459C329.464,181.344 330.001,182.174 330.457,183.011C331.448,184.83 332.34,186.668 333.471,188.41C334.581,190.118 335.678,191.779 337.031,193.303C337.563,193.903 338.044,194.549 338.608,195.119C338.83,195.343 339.06,195.573 339.314,195.762C339.457,195.869 339.627,195.984 339.789,196.06C339.781,196.057 340.05,196.112 339.858,196.098Z" style="fill-rule:nonzero;"/>
            <path d="M250.305,208.855C250.281,208.871 250.255,208.884 250.231,208.901C250.309,208.872 250.34,208.842 250.305,208.855Z" style="fill-rule:nonzero;"/>
            <path d="M252.085,207.656C252.088,207.629 252.097,207.598 252.109,207.566C252.103,207.581 252.1,207.592 252.09,207.611C252.088,207.627 252.084,207.637 252.083,207.657C252.084,207.656 252.084,207.656 252.085,207.656Z" style="fill-rule:nonzero;"/>
            <path d="M245.774,206.076C244.48,206.553 243.263,207.253 242.135,208.079C243.281,208.751 244.611,209.197 245.957,209.489C245.455,208.706 245.243,207.766 245.52,206.749C245.585,206.512 245.673,206.29 245.774,206.076Z" style="fill-rule:nonzero;"/>
            <path d="M250.126,208.944C250.107,208.94 250.097,208.942 250.081,208.941C250.076,208.942 250.07,208.944 250.065,208.945C250.086,208.944 250.109,208.941 250.126,208.944Z" style="fill-rule:nonzero;"/>
            <path d="M249.99,208.962C250.015,208.956 250.04,208.95 250.065,208.944C250.017,208.946 249.969,208.95 249.924,208.952C249.909,208.965 249.927,208.977 249.99,208.962Z" style="fill-rule:nonzero;"/>
            <path d="M218.935,261.716C219.192,261.815 219.008,261.646 218.935,261.716Z" style="fill-rule:nonzero;"/>
            <path d="M250.155,208.948C250.179,208.93 250.207,208.918 250.231,208.901C250.226,208.903 250.224,208.904 250.219,208.906C250.197,208.92 250.184,208.927 250.155,208.948Z" style="fill-rule:nonzero;"/>
            <path d="M371.205,155.47L371.205,137.456C370.655,138.186 370.078,138.884 369.508,139.541C367.597,141.745 365.351,143.568 363.029,145.316C360.568,147.169 358.172,149.108 355.667,150.903C350.828,154.371 345.274,156.858 339.38,157.832C339.098,157.879 338.816,157.859 338.564,157.774C338.411,159.032 338.189,160.278 337.886,161.498C337.529,162.934 337.057,164.343 336.499,165.719C339.022,165.94 341.533,166.337 344.068,166.353C346.765,166.371 349.196,165.655 351.734,164.815C354.331,163.956 356.9,163.006 359.42,161.942C360.61,161.44 361.865,161.065 363.027,160.503C364.19,159.94 365.389,159.681 366.595,159.247C368.158,158.684 369.805,157.876 371.206,156.869L371.206,155.47L371.205,155.47Z" style="fill-rule:nonzero;"/>
            <path d="M267.139,156.52C267.148,154.379 267.128,152.265 267.958,150.241C268.772,148.256 269.998,146.542 271.289,144.845C273.45,142.005 275.447,139.005 277.903,136.404C279.11,135.126 280.445,133.975 281.932,133.033C283.625,131.959 285.237,130.77 286.903,129.657C288.487,128.598 290.194,127.792 291.932,127.023C293.772,126.209 295.522,125.377 297.488,124.91C298.401,124.694 299.123,124.363 299.941,123.918C300.45,123.642 300.978,123.387 301.529,123.205C297.349,123.196 293.159,123.072 289.003,123.594C284.72,124.132 280.595,125.414 276.651,127.141C272.995,128.742 269.347,130.682 266.221,133.185C264.713,134.392 263.206,135.794 261.311,136.353C259.309,136.944 257.159,136.588 255.112,136.574C254.76,136.572 254.484,136.456 254.275,136.277C253.737,136.706 253.011,136.615 252.493,136.181C250.214,134.274 247.375,133.261 244.625,132.248C243.146,131.703 241.721,131.103 240.329,130.363C238.926,129.618 237.568,128.904 236,128.572C234.683,128.293 233.305,128.237 232.011,127.857C230.786,127.498 229.674,126.819 228.41,126.583C227.097,126.338 225.713,126.503 224.389,126.556C222.915,126.615 221.436,126.58 219.962,126.58C216.838,126.582 213.714,126.586 210.59,126.589C207.582,126.591 204.568,126.426 201.562,126.588C200.541,126.643 199.533,126.77 198.53,126.935C198.3,127.234 197.96,127.432 197.517,127.432C197.297,127.432 197.071,127.36 196.865,127.244C195.57,127.509 194.281,127.817 192.991,128.113C190.261,128.739 187.56,129.48 185.029,130.698C179.909,133.162 174.79,135.65 170.053,138.806C169.976,139.325 169.618,139.823 169.089,139.923C168.291,140.075 167.512,140.066 166.723,139.855C165.05,139.408 163.606,138.252 162.373,137.084C161.09,135.869 159.956,134.504 158.839,133.138C156.404,130.158 153.691,127.402 151.02,124.633C149.439,122.995 147.804,121.384 145.999,119.989C144.147,118.558 142.117,117.533 140.012,116.532C135.267,114.275 130.39,112.018 125.161,111.183C122.604,110.775 119.998,110.687 117.413,110.693C116.352,110.695 115.137,110.611 114.087,110.746C114.149,110.777 114.21,110.808 114.273,110.839C115.354,111.37 116.595,111.292 117.759,111.472C118.918,111.652 119.953,112.18 120.974,112.732C121.963,113.267 122.985,113.721 123.989,114.226C126.029,115.252 127.89,116.519 129.628,117.997C131.327,119.442 133.026,120.887 134.721,122.336C138.182,125.295 141.06,128.76 143.786,132.392C145.184,134.255 146.513,136.175 147.697,138.182C148.785,140.027 149.904,141.969 150.233,144.114C150.391,145.143 150.408,146.186 150.557,147.215C150.722,148.351 151.001,149.468 151.165,150.605C151.514,153.012 151.317,155.418 151.309,157.837C151.308,158.019 151.273,158.177 151.219,158.32C151.266,158.521 151.275,158.732 151.239,158.936C151.745,159.079 152.159,159.488 152.145,160.172C152.086,163.145 152.142,166.119 152.307,169.087C152.751,177.115 153.957,185.065 155.548,192.94C155.86,192.635 156.194,192.351 156.534,192.085C157.742,191.139 159.04,190.258 160.582,189.993C162.254,189.705 163.997,189.846 165.685,189.847C167.506,189.847 169.357,189.734 171.168,189.961C172.878,190.176 174.484,190.687 176.119,191.208C177.693,191.71 179.31,192.094 180.793,192.845C182.282,193.6 183.55,194.853 184.754,195.99C185.929,197.1 186.922,198.343 187.986,199.553C188.957,200.658 189.847,201.812 190.196,203.272C190.583,204.891 190.403,206.551 190.355,208.196C190.539,208.331 190.726,208.462 190.906,208.599C196.073,212.566 198.979,218.215 201.688,223.987C203.286,227.393 204.016,231.07 205.336,234.575C206.019,236.389 206.608,238.156 206.939,240.073C207.272,241.999 207.46,243.947 207.696,245.886C207.784,246.611 207.011,247.229 206.353,247.229C205.565,247.229 205.097,246.606 205.01,245.886C204.776,243.96 204.598,242.025 204.227,240.119C203.855,238.208 203.157,236.47 202.512,234.644C201.879,232.849 201.396,231.007 200.828,229.191C200.301,227.506 199.639,225.91 198.885,224.315C196.534,219.342 193.954,214.421 189.569,210.942C187.228,212.856 184.037,213.813 181.121,214.273C178.612,214.669 176.146,214.617 173.639,214.239C171.859,213.97 169.169,213.436 168.622,211.397C168.298,210.189 169.086,208.978 169.847,208.114C170.693,207.153 171.839,206.455 173.001,205.945C174.18,205.428 175.446,205.041 176.74,204.786C176.754,204.752 176.765,204.717 176.782,204.685C177.128,204.03 178.002,203.868 178.62,204.203C178.762,204.28 178.894,204.374 179.018,204.479C179.732,204.429 180.444,204.42 181.146,204.457C183.494,204.581 185.718,205.384 187.763,206.521C187.811,205.509 187.8,204.495 187.484,203.552C187.084,202.357 186.076,201.483 185.296,200.536C184.326,199.358 183.297,198.273 182.163,197.25C181.147,196.333 180.158,195.434 178.878,194.905C177.516,194.342 176.053,194.004 174.652,193.549C173.358,193.129 172.033,192.718 170.673,192.588C169.023,192.43 167.34,192.53 165.684,192.53C164.246,192.53 162.723,192.375 161.296,192.58C160.192,192.739 159.268,193.351 158.397,194.013C157.771,194.488 156.591,195.344 156.542,196.182C156.528,196.423 156.459,196.627 156.358,196.8C156.973,199.628 157.629,202.447 158.311,205.255C159.204,208.933 160.145,212.599 161.093,216.262C161.245,216.464 161.339,216.725 161.341,217.047C161.341,217.109 161.344,217.171 161.344,217.234C161.781,218.919 162.218,220.604 162.654,222.29C164.011,227.537 165.392,232.781 166.997,237.958C168.609,243.157 170.439,248.301 172.709,253.252C174.94,258.116 177.614,262.703 180.683,267.084C183.165,270.627 185.721,274.243 188.588,277.557C188.868,277.576 189.151,277.701 189.399,277.984C191.142,279.972 193.821,280.465 196.344,280.621C198.643,280.763 200.961,280.753 203.237,280.369C205.515,279.985 207.906,279.394 209.858,278.108C211.998,276.698 213.643,274.358 214.929,272.185C215.617,271.023 216.12,269.852 216.257,268.494C216.405,267.032 216.311,265.555 216.306,264.089C216.305,263.961 216.324,263.845 216.351,263.735C216.014,263.576 215.689,263.399 215.388,263.211C214.279,262.518 213.31,261.62 212.357,260.733C211.575,260.005 210.758,259.113 209.763,258.675C208.693,258.203 207.421,258.228 206.278,258.258C205.058,258.29 203.841,258.41 202.62,258.419C200.888,258.431 200.892,255.745 202.62,255.733C205.44,255.713 208.491,255.075 211.138,256.366C213.308,257.424 214.711,259.624 216.743,260.892C217.254,261.211 217.774,261.459 218.359,261.608C218.5,261.644 218.669,261.656 218.812,261.686C218.84,261.643 218.868,261.601 218.897,261.56C219.021,261.378 219.149,261.199 219.282,261.023C219.657,260.529 220.078,260.079 220.52,259.644C222.52,257.68 224.863,256.034 227.689,255.642C230.458,255.258 233.228,255.699 236.004,255.712C237.735,255.72 237.733,258.407 236.004,258.398C233.022,258.384 229.815,257.683 226.896,258.537C225.704,258.886 224.616,259.63 223.668,260.416C222.781,261.151 221.867,261.96 221.215,262.916C220.792,263.536 220.338,264.049 219.69,264.273C219.774,264.442 219.825,264.64 219.826,264.87C219.843,268.141 220.586,271.39 222.41,274.14C225.549,278.871 231.334,280.553 236.817,279.788C241.682,279.109 246.191,276.634 249.247,272.896C252.699,267.086 255.08,260.586 257.157,254.223C260.339,244.474 262.958,234.581 264.815,224.492C266.78,213.815 267.972,202.993 268.334,192.142C268.059,191.747 267.782,191.341 267.416,191.071C266.995,190.76 266.423,190.553 265.947,190.34C264.586,189.731 262.979,189.324 261.487,189.291C260,189.259 258.516,189.406 257.028,189.383C255.622,189.361 254.199,189.295 252.838,189.713C250.666,190.381 248.404,191.42 246.661,192.896C244.675,194.577 243.577,196.908 242.339,199.148C241.644,200.406 241.173,201.648 240.81,203.037C240.521,204.142 240.197,205.25 239.972,206.374C240.387,206.052 240.809,205.737 241.245,205.44C243.536,203.882 246.045,202.966 248.746,202.765C248.752,202.759 248.759,202.753 248.765,202.747C249.294,202.223 250.112,202.254 250.651,202.737C253.216,202.841 255.951,203.348 258.147,204.713C259.917,205.812 262.163,208.293 260.192,210.268C258.745,211.718 256.28,212.112 254.342,212.4C251.98,212.751 249.689,212.765 247.318,212.423C244.768,212.055 242.141,211.328 239.992,209.862C239.723,210.117 239.462,210.377 239.208,210.64C235.304,214.676 233.26,220.154 231.541,225.4C230.45,228.732 230.172,232.259 229.214,235.625C228.259,238.98 228.288,242.367 228.225,245.826C228.194,247.556 225.507,247.555 225.538,245.826C225.578,243.627 225.548,241.419 225.781,239.229C226.014,237.031 226.672,234.984 227.142,232.837C227.616,230.673 227.928,228.475 228.477,226.328C228.948,224.487 229.638,222.7 230.301,220.921C231.382,218.022 232.589,215.137 234.29,212.54C235.252,211.07 236.361,209.71 237.595,208.473C237.276,208.223 237.053,207.856 237.105,207.453C237.585,203.739 238.662,200.145 240.527,196.898C241.281,195.585 241.937,194.207 242.864,193.004C243.702,191.915 244.685,191.002 245.793,190.192C246.872,189.403 248.056,188.768 249.278,188.23C250.613,187.643 251.993,187.05 253.444,186.838C255.078,186.599 256.712,186.738 258.355,186.698C259.995,186.659 261.619,186.5 263.249,186.769C264.817,187.027 266.352,187.566 267.78,188.251C267.999,188.356 268.212,188.463 268.42,188.575C268.586,178.388 268.002,168.168 266.348,158.111C266.242,157.447 266.494,156.78 267.139,156.52ZM198.747,163.683C196.524,164.05 194.453,163.064 192.496,162.125C188.368,160.145 184.248,158.324 180.602,155.499C178.763,154.074 177.062,152.487 175.508,150.756C174.244,149.348 173.263,147.68 171.971,146.3C171.744,146.133 171.545,145.925 171.362,145.694C171.361,145.693 171.36,145.692 171.359,145.691C171.288,145.602 171.214,145.518 171.148,145.42C170.266,144.093 172.182,142.808 173.258,143.792C173.391,143.914 173.512,144.048 173.639,144.176C173.66,144.181 173.677,144.184 173.708,144.192C174.345,144.354 174.635,144.827 174.661,145.329C175.078,145.856 175.471,146.403 175.866,146.947C176.665,148.047 177.557,149.059 178.505,150.034C180.425,152.011 182.545,153.761 184.879,155.229C187.247,156.719 189.764,157.956 192.315,159.097C193.271,159.524 194.203,160.007 195.166,160.416C195.999,160.77 197.101,161.247 198.033,161.094C198.751,160.976 199.476,161.272 199.685,162.032C199.863,162.677 199.463,163.564 198.747,163.683ZM209.701,157.737C209.498,158.476 208.761,158.811 208.049,158.675C204.693,158.036 201.262,157.601 198.2,155.98C195.496,154.548 193.292,152.368 191.181,150.192C189.976,148.95 191.874,147.049 193.081,148.292C195.041,150.312 197.044,152.33 199.556,153.66C202.382,155.156 205.666,155.494 208.764,156.084C209.479,156.221 209.881,157.081 209.701,157.737ZM222.855,156.036C222.188,156.328 221.418,156.24 221.017,155.554C220.681,154.98 220.834,154.007 221.499,153.716C223.881,152.674 226.336,151.726 228.47,150.211C229.606,149.404 230.596,148.391 231.634,147.467C232.745,146.478 233.867,145.503 234.998,144.537C235.551,144.064 236.351,143.99 236.898,144.537C237.383,145.022 237.45,145.965 236.898,146.437C235.701,147.459 234.513,148.493 233.338,149.542C232.248,150.515 231.195,151.531 230.014,152.396C227.838,153.987 225.307,154.963 222.855,156.036ZM249.001,147.416C246.611,150.841 242.978,152.925 239.571,155.193C235.824,157.687 231.843,159.811 227.542,161.178C225.888,161.704 225.186,159.11 226.828,158.588C230.822,157.318 234.506,155.33 237.992,153.023C241.045,151.002 244.541,149.129 246.682,146.06C247.098,145.464 247.85,145.187 248.52,145.578C249.11,145.924 249.416,146.821 249.001,147.416Z" style="fill-rule:nonzero;"/>
            <path d="M360.011,179.415C360.363,179.375 360.704,179.268 361.046,179.172C361.708,178.381 362.351,177.574 362.96,176.738C365.72,172.948 367.962,168.808 369.759,164.482C370.276,163.239 370.758,161.981 371.205,160.711L371.205,160.059C369.84,160.86 368.379,161.521 366.948,161.967C366.346,162.155 365.722,162.278 365.128,162.493C364.503,162.719 363.917,163.056 363.3,163.308C362.05,163.817 360.782,164.277 359.533,164.793C356.897,165.882 354.212,166.852 351.497,167.725C348.827,168.584 346.223,169.127 343.403,169.036C340.696,168.948 338.017,168.488 335.314,168.326C334.517,169.871 333.594,171.348 332.548,172.728C336.126,175.751 341.15,176.801 345.592,177.785C348.445,178.417 351.268,178.912 354.191,178.971C355.509,178.998 356.766,179.405 358.077,179.415C358.712,179.419 359.378,179.487 360.011,179.415Z" style="fill-rule:nonzero;"/>
            <path d="M223.121,319.886C226.712,316.711 230.78,314.108 234.984,311.83C240.564,308.807 246.43,306.315 252.366,304.088C255.167,303.037 258.023,302.149 260.684,300.764C262.914,299.603 265.036,298.207 266.964,296.592C270.906,293.29 274.119,289.219 276.608,284.725C281.818,275.315 283.895,264.274 283.262,253.583C282.521,241.076 277.252,229.116 268.356,220.279C268.325,220.248 268.304,220.215 268.277,220.183C267.563,224.606 266.723,229.008 265.749,233.378C264.621,238.438 263.314,243.46 261.806,248.42C260.347,253.216 258.831,258.008 257.017,262.683C256.359,264.377 255.661,266.058 254.911,267.716C254.931,267.892 254.912,268.087 254.839,268.297C254.054,270.554 252.881,272.624 251.412,274.463C251.023,275.115 250.624,275.761 250.206,276.396C247.338,280.761 243.769,284.538 239.664,287.762C236.503,290.244 233.022,292.336 229.061,293.221C225.362,294.048 221.542,293.908 217.783,293.734C212.957,293.511 208.194,293.306 203.59,291.687C199.311,290.182 195.454,287.789 192.033,284.828C188.653,281.903 185.76,278.474 183.056,274.928C180.091,271.039 177.184,267.028 174.681,262.825C168.98,253.249 165.392,242.596 162.428,231.905C161.918,230.065 161.426,228.22 160.939,226.373C160.426,228.868 159.623,231.318 159.011,233.776C158.215,236.974 157.189,240.108 156.08,243.21C154.062,248.854 151.72,254.437 150.531,260.335C149.266,266.61 149.784,272.923 151.993,278.93C154.112,284.691 157.528,289.918 161.906,294.214C168.628,300.811 177.426,305.331 186.463,307.81C193.034,309.612 199.64,311.85 205.147,315.987C208.468,318.482 211.332,321.568 213.274,325.262C214.172,326.971 214.857,328.763 215.359,330.605C216.884,326.465 219.787,322.835 223.121,319.886Z" style="fill-rule:nonzero;"/>
            <path d="M218.076,330.889C218.153,330.705 218.101,330.828 218.076,330.889Z" style="fill-rule:nonzero;"/>
            <path d="M216.691,274.452C215.118,276.887 213.148,279.394 210.571,280.823C208.114,282.185 205.282,282.822 202.518,283.175C200.029,283.493 197.452,283.486 194.96,283.193C194.669,283.159 194.377,283.115 194.087,283.069C195.378,284.164 196.736,285.181 198.179,286.094C201.904,288.451 206.077,289.989 210.449,290.584C212.773,290.9 215.141,290.924 217.482,291.034C219.441,291.126 221.403,291.212 223.365,291.169C226.703,291.096 229.908,290.526 232.93,288.989C236.894,286.973 240.462,283.911 243.486,280.663C238.048,283.138 231.413,283.494 226.076,280.843C222.169,278.903 219.594,275.484 218.253,271.553C217.846,272.57 217.289,273.526 216.691,274.452Z" style="fill-rule:nonzero;"/>
            <path d="M218.679,261.864C218.7,261.858 218.702,261.86 218.711,261.86C218.711,261.857 218.72,261.844 218.722,261.839C218.699,261.853 218.682,261.863 218.679,261.864Z" style="fill-rule:nonzero;"/>
            <path d="M318.846,173.751L318.847,173.751L318.846,173.751Z" style="fill-rule:nonzero;"/>
            <path d="M341.137,143.422C342.452,142.462 343.621,141.346 344.774,140.2C345.794,139.186 346.789,138.129 347.601,136.938C348.413,135.748 349.11,134.509 349.976,133.351C351.804,130.907 353.195,128.19 354.626,125.5C356.103,122.723 357.309,119.899 358.009,116.823C358.633,114.082 358.883,111.286 358.948,108.481C355.774,105.43 352.228,102.729 348.559,100.27C347.792,99.756 347.018,99.251 346.241,98.749C346.234,98.961 346.227,99.172 346.222,99.383C346.18,101.169 346.231,102.954 346.075,104.736C345.933,106.356 345.657,107.958 345.171,109.512C344.718,110.961 344.13,112.362 343.595,113.78C343.069,115.175 342.687,116.61 342.259,118.036C341.83,119.467 341.233,120.827 340.749,122.238C340.278,123.609 339.727,124.88 339.063,126.166C338.71,126.85 338.388,127.537 337.923,128.156C337.524,128.687 337.05,129.129 336.579,129.594C335.551,130.609 334.78,131.956 334.062,133.201C333.668,133.884 333.159,134.45 332.721,135.098C332.38,135.604 332.212,136.199 331.876,136.709C334.64,139.329 336.529,142.574 337.619,146.104C338.731,145.137 339.944,144.293 341.137,143.422Z" style="fill-rule:nonzero;"/>
            <path d="M311.508,128.283C311.551,128.556 311.584,128.833 311.621,129.11C313.565,129.06 315.515,128.951 317.445,129.226C318.091,129.318 318.723,129.464 319.345,129.644C319.764,129.092 319.894,128.289 320.164,127.664C320.518,126.845 320.925,126.05 321.311,125.246C322.006,123.801 322.104,122.306 322.488,120.778C322.844,119.364 323.525,118.039 323.971,116.651C324.459,115.132 324.883,113.592 325.238,112.036C325.942,108.944 326.362,105.796 326.424,102.623C326.485,99.491 326.416,96.286 325.838,93.2C325.621,92.039 325.381,90.867 325.093,89.721C324.926,89.06 324.734,88.302 324.396,87.679C320.52,86.449 316.523,85.646 312.406,85.412C308.8,85.207 305.177,85.379 301.611,85.956C301.101,86.039 300.595,86.138 300.087,86.231C300.93,87.919 301.572,89.711 302.054,91.531C303.335,96.363 303.688,101.461 303.935,106.436C304.063,109.017 303.993,111.562 303.943,114.14C303.932,114.697 303.927,115.268 304.03,115.818C304.127,116.337 304.298,116.836 304.379,117.359C304.47,117.95 304.485,118.516 304.446,119.11C304.434,119.288 304.42,119.469 304.419,119.649C304.668,119.868 304.853,120.171 304.9,120.494C305.019,120.493 305.137,120.492 305.255,120.491C306.013,120.485 306.821,120.513 307.548,120.751C308.987,121.222 309.681,122.373 310.22,123.704C310.821,125.188 311.26,126.698 311.508,128.283Z" style="fill-rule:nonzero;"/>
            <path d="M249.913,89.035C246.662,92.196 244.036,95.924 241.795,99.852C240.712,101.75 239.738,103.695 238.822,105.668C242.93,106.44 247.158,106.721 251.127,108.112C253.153,108.822 255.263,109.565 257.172,110.551C257.902,110.929 258.756,111.25 259.449,111.734C259.863,111.024 260.276,110.314 260.711,109.617C262.652,106.512 265.011,103.584 267.522,100.923C269.301,99.038 271.245,97.324 273.241,95.676C273.062,95.575 272.88,95.48 272.701,95.387C271.958,95.002 271.321,94.555 270.63,94.083C268.731,92.783 266.64,91.872 264.538,90.959C262.408,90.034 260.299,89.044 258.058,88.411C255.983,87.825 253.824,87.496 251.668,87.398C251.08,87.941 250.486,88.478 249.913,89.035Z" style="fill-rule:nonzero;"/>
            <path d="M277.484,156.385C279.844,156.382 282.268,156.579 284.605,156.187C289.05,155.441 293.275,153.486 297.176,151.288C300.097,149.642 302.668,147.509 304.703,144.832C305.816,143.368 306.784,141.792 307.68,140.189C308.404,138.893 308.777,137.449 308.986,135.984C309.436,132.832 309.253,129.41 308.331,126.357C308.262,126.13 308.179,125.879 308.091,125.628C307.967,125.664 307.834,125.689 307.684,125.688C305.929,125.673 303.945,125.195 302.245,125.787C301.414,126.076 300.684,126.617 299.878,126.968C298.968,127.364 298.007,127.521 297.055,127.779C295.352,128.24 293.7,129.141 292.099,129.876C290.425,130.644 288.871,131.544 287.357,132.591C285.82,133.654 284.254,134.671 282.713,135.727C281.377,136.642 280.219,137.812 279.149,139.02C276.926,141.528 275.005,144.321 273.002,147.005C271.982,148.372 270.948,149.819 270.361,151.435C269.775,153.049 269.821,154.727 269.824,156.413C272.378,156.407 274.931,156.389 277.484,156.385Z" style="fill-rule:nonzero;"/>
            <path d="M329.787,134.968C330.068,134.445 330.279,133.889 330.649,133.409C331.163,132.744 331.592,132.081 332.025,131.36C332.86,129.97 333.766,128.576 334.936,127.446C336.903,125.545 337.625,122.792 338.591,120.316C339.652,117.595 340.341,114.762 341.398,112.039C341.946,110.626 342.504,109.211 342.882,107.74C343.254,106.295 343.414,104.818 343.477,103.331C343.543,101.79 343.514,100.247 343.553,98.706C343.567,98.16 343.591,97.603 343.549,97.055C340.036,94.893 336.428,92.87 332.745,91.05C331.068,90.222 329.362,89.473 327.631,88.805C327.649,88.872 327.667,88.939 327.684,89.006C328.039,90.414 328.342,91.863 328.569,93.296C329.635,100.036 329.236,107.097 327.6,113.709C327.189,115.372 326.726,117.045 326.123,118.65C325.842,119.397 325.507,120.123 325.257,120.881C325.027,121.581 324.932,122.291 324.807,123.014C324.532,124.603 323.92,126.002 323.218,127.443C322.726,128.452 322.405,129.582 321.878,130.58C322.298,130.767 322.714,130.963 323.125,131.169C325.411,132.31 327.717,133.469 329.787,134.968Z" style="fill-rule:nonzero;"/>
            <path d="M361.605,107.361C364.421,110.178 366.933,113.273 368.984,116.703C367.31,110.477 365.312,104.327 362.649,98.451C361.579,96.089 360.387,93.754 359.08,91.492C360.139,96.178 360.849,100.944 361.525,105.705C361.583,106.112 361.518,106.514 361.316,106.829C361.451,106.969 361.553,107.146 361.605,107.361Z" style="fill-rule:nonzero;"/>
            <path d="M354.269,131.774C353.54,133.109 352.587,134.284 351.698,135.514C350.782,136.782 350.066,138.167 349.102,139.403C348.169,140.598 347.112,141.684 346.023,142.737C344.903,143.82 343.753,144.824 342.494,145.743C341.247,146.652 339.98,147.514 338.866,148.588C338.687,148.76 338.496,148.863 338.302,148.92C338.692,150.989 338.84,153.112 338.763,155.232C341.859,154.711 344.889,153.777 347.742,152.468C353.026,150.044 357.405,146.201 362.022,142.745C364.181,141.129 366.216,139.332 367.945,137.256C369.241,135.701 370.559,133.955 371.207,132.003L371.207,128.96C370.248,125.425 368.926,122.005 367.114,118.801C365.54,116.017 363.639,113.474 361.513,111.125C361.341,113.593 360.998,116.05 360.381,118.446C359.56,121.633 358.175,124.586 356.616,127.472C355.838,128.909 355.052,130.341 354.269,131.774Z" style="fill-rule:nonzero;"/>
            <path d="M301.263,106.727C301.138,104.083 300.945,101.436 300.649,98.805C300.183,94.675 299.337,90.449 297.333,86.775C295.167,87.236 293.011,87.748 290.857,88.254C287.419,89.062 283.927,90.277 281.018,92.342C279.764,93.232 278.84,94.519 277.677,95.517C277.467,95.698 277.242,95.86 277.021,96.027C277.124,96.164 277.225,96.304 277.321,96.452C277.975,97.459 278.699,98.42 279.369,99.418C280.872,101.66 282.17,103.99 283.266,106.457C284.369,108.938 285.277,111.498 286.46,113.943C287.01,115.08 287.488,116.246 288.027,117.387C288.557,118.511 289.108,119.646 289.348,120.873C290.919,120.692 292.499,120.58 294.079,120.535C296.54,120.464 299.005,120.521 301.466,120.522C301.594,120.522 301.723,120.519 301.851,120.519C301.722,119.819 301.808,119.083 301.789,118.289C301.776,117.721 301.581,117.196 301.462,116.645C301.321,115.989 301.262,115.309 301.254,114.639C301.239,113.405 301.376,112.174 301.373,110.94C301.37,109.535 301.329,108.13 301.263,106.727Z" style="fill-rule:nonzero;"/>
            <path d="M276.994,68.61C275.465,69.325 273.964,70.109 272.491,70.961C268.496,73.271 264.551,75.687 261.186,78.876C258.982,80.965 256.672,82.941 254.391,84.946C255.966,85.148 257.531,85.455 259.036,85.899C261.578,86.649 263.97,87.822 266.401,88.86C267.595,89.37 268.778,89.893 269.92,90.513C270.983,91.089 271.942,91.781 272.938,92.457C273.708,92.979 274.66,93.367 275.389,93.936C275.457,93.882 275.524,93.826 275.592,93.772C276.825,92.792 277.771,91.501 279.004,90.519C280.464,89.357 282.201,88.494 283.896,87.731C287.26,86.216 290.843,85.47 294.424,84.663C294.246,84.296 294.018,83.951 293.744,83.598C293.03,82.681 292.307,81.776 291.619,80.839C290.254,78.978 288.756,77.309 287.192,75.616C285.692,73.992 284.169,72.243 282.325,70.998C281.471,70.421 280.528,70.049 279.586,69.647C278.749,69.288 277.909,68.759 276.994,68.61Z" style="fill-rule:nonzero;"/>
            <path d="M283.481,68.544C285.549,69.868 287.262,71.733 288.917,73.523C290.636,75.383 292.284,77.221 293.784,79.266C294.83,80.693 296.206,82.077 296.946,83.72C297.43,83.41 298.097,83.362 298.589,83.779C300.99,83.316 303.409,82.946 305.85,82.77C309.616,82.498 313.394,82.673 317.13,83.207C318.661,83.426 320.168,83.728 321.655,84.093C320.718,82.431 319.781,80.768 318.675,79.211C317.983,78.237 317.176,77.369 316.412,76.454C315.657,75.549 314.94,74.614 314.206,73.692C312.676,71.773 311.032,70.095 309.128,68.545C307.25,67.016 305.331,65.537 303.475,63.98C297.475,63.76 291.463,63.969 285.618,65.48C283.865,65.933 282.155,66.485 280.48,67.124C281.494,67.579 282.542,67.943 283.481,68.544Z" style="fill-rule:nonzero;"/>
            <path d="M332.17,69.835C331.748,69.307 331.273,68.517 330.668,68.057C329.419,67.653 328.146,67.286 326.843,66.949C321.058,65.454 315.296,64.711 309.362,64.305C308.906,64.274 308.449,64.244 307.992,64.215C309.079,65.082 310.171,65.944 311.247,66.825C313.138,68.372 314.747,70.08 316.264,71.992C317.769,73.888 319.423,75.687 320.844,77.645C322.321,79.681 323.492,81.915 324.743,84.091C324.878,84.325 324.928,84.554 324.925,84.77C325.268,84.771 325.609,84.891 325.856,85.151C325.927,85.226 325.989,85.306 326.055,85.384C330.07,86.749 333.936,88.557 337.687,90.598C339.477,91.572 341.25,92.588 343.01,93.624C342.895,92.771 342.699,91.934 342.526,91.082C342.266,89.797 341.966,88.564 341.501,87.335C340.587,84.917 339.573,82.52 338.409,80.212C337.195,77.804 335.896,75.411 334.509,73.098C333.818,71.948 333.005,70.881 332.17,69.835Z" style="fill-rule:nonzero;"/>
            <path d="M239.316,126.847C240.607,127.423 241.818,128.157 243.093,128.765C244.359,129.369 245.714,129.787 247.024,130.284C248.339,130.783 249.625,131.321 250.855,131.96C250.88,130.456 251.014,128.954 251.326,127.481C251.64,125.997 252.147,124.564 252.697,123.153C253.337,121.509 253.961,119.884 254.974,118.427C255.929,117.053 256.995,115.769 257.887,114.35C257.952,114.247 258.01,114.141 258.074,114.037C258.072,114.032 258.07,114.027 258.067,114.022C258.064,114.019 258.061,114.011 258.055,113.998C258.04,113.98 258.017,113.961 257.978,113.949C257.942,113.938 257.742,113.817 257.68,113.783C257.416,113.637 257.139,113.514 256.865,113.389C256.138,113.06 255.446,112.663 254.711,112.351C252.972,111.614 251.161,110.901 249.352,110.358C245.553,109.217 241.57,108.948 237.692,108.183C237.138,109.447 236.596,110.718 236.06,111.994C235.141,114.181 234.092,116.322 233.487,118.626C233.229,119.609 233.025,120.588 232.72,121.559C232.488,122.296 232.067,123.296 232.197,124.043C232.257,124.383 232.215,124.723 232.078,125.011C234.453,125.785 236.995,125.811 239.316,126.847Z" style="fill-rule:nonzero;"/>
            <path d="M344.091,86.62C344.587,87.933 344.882,89.257 345.17,90.626C345.414,91.789 345.665,92.942 345.752,94.124C345.77,94.203 345.785,94.283 345.792,94.366C345.823,94.716 345.891,95.06 345.963,95.403C348.279,96.841 350.558,98.339 352.767,99.929C354.809,101.398 356.79,102.959 358.677,104.618C357.705,97.89 356.597,91.169 354.421,84.707C354.39,84.617 354.373,84.531 354.361,84.446C353.987,83.968 353.61,83.492 353.221,83.03C349.77,78.936 345.883,75.566 341.359,72.858C339.474,71.73 337.562,70.765 335.605,69.917C335.822,70.214 336.034,70.514 336.24,70.819C337.888,73.265 339.266,75.978 340.603,78.604C341.922,81.199 343.063,83.899 344.091,86.62Z" style="fill-rule:nonzero;"/>
            <path d="M266.552,123.739C266.048,123.174 265.623,122.568 265.214,121.933C264.286,120.494 263.279,119.109 262.314,117.696C261.852,117.019 261.365,116.379 260.85,115.741C260.724,115.585 260.596,115.429 260.47,115.272C259.627,116.636 258.67,117.897 257.72,119.188C256.718,120.549 256.039,121.96 255.421,123.526C254.285,126.403 253.547,129.205 253.532,132.314C253.53,132.758 253.35,133.086 253.086,133.302C253.488,133.579 253.883,133.87 254.266,134.185C254.476,134.004 254.755,133.888 255.112,133.89C256.138,133.897 257.161,133.98 258.187,133.994C259.145,134.007 260.155,133.996 261.048,133.602C261.905,133.224 262.677,132.614 263.402,132.031C265.074,130.688 266.781,129.424 268.609,128.297C268.752,128.209 268.899,128.125 269.044,128.038C268.799,127.687 268.615,127.297 268.516,126.863C268.378,126.257 268.279,125.787 267.908,125.268C267.512,124.715 267.003,124.245 266.552,123.739Z" style="fill-rule:nonzero;"/>
            <path d="M270.967,125.471C271.107,125.998 271.083,126.335 271.414,126.684C274.399,125.081 277.552,123.738 280.753,122.698C282.693,122.067 284.677,121.599 286.682,121.255C286.44,120.294 286.017,119.411 285.594,118.505C285.097,117.441 284.652,116.356 284.14,115.298C283.075,113.098 282.242,110.811 281.276,108.568C280.309,106.319 279.216,104.137 277.898,102.072C277.24,101.041 276.553,100.029 275.844,99.032C275.556,98.626 275.271,98.224 275,97.807C274.985,97.785 274.956,97.747 274.924,97.706C274.552,98.035 274.183,98.367 273.815,98.7C271.151,101.105 268.63,103.526 266.378,106.335C265.271,107.716 264.2,109.139 263.246,110.632C262.8,111.329 262.38,112.042 261.962,112.756C262.042,112.855 262.125,112.945 262.2,113.059C262.655,113.751 263.191,114.372 263.696,115.028C264.787,116.448 265.779,117.965 266.784,119.448C267.262,120.153 267.68,120.927 268.225,121.581C268.713,122.166 269.268,122.69 269.747,123.282C270.281,123.941 270.746,124.642 270.967,125.471Z" style="fill-rule:nonzero;"/>
            <path d="M97.06,187.029C97.067,186.991 97.072,186.97 97.076,186.95C97.078,186.931 97.079,186.918 97.082,186.889C97.109,186.647 97.125,186.403 97.135,186.159C97.226,183.997 96.769,181.869 96.76,179.715C96.613,179.867 96.471,180.025 96.334,180.189C96.323,180.202 96.317,180.209 96.312,180.214C96.305,180.224 96.299,180.233 96.288,180.248C96.23,180.329 96.172,180.409 96.116,180.492C96.004,180.655 95.898,180.821 95.796,180.99C94.847,182.561 94.496,184.375 93.718,186.077C94.031,186.502 94.366,186.916 94.766,187.326C94.921,187.486 95.084,187.636 95.248,187.786C95.262,187.798 95.395,187.904 95.431,187.935C95.498,187.983 95.564,188.031 95.634,188.074C95.734,188.136 95.838,188.191 95.943,188.243C95.975,188.255 96.007,188.265 96.027,188.267C96.049,188.269 96.139,188.282 96.181,188.29C96.256,188.293 96.331,188.296 96.406,188.295C96.422,188.292 96.44,188.288 96.475,188.283C96.491,188.281 96.498,188.282 96.512,188.28C96.527,188.276 96.564,188.254 96.6,188.23L96.667,188.163C96.77,187.975 96.571,188.393 96.74,188.055C96.773,187.989 96.808,187.924 96.842,187.858C96.804,187.912 96.963,187.473 96.987,187.378C97.016,187.263 97.037,187.146 97.06,187.029Z" style="fill-rule:nonzero;"/>
            <path d="M99.032,178.737C99.029,178.73 99.027,178.728 99.024,178.721C99.018,178.722 99.014,178.722 99.009,178.723C99.033,178.787 99.094,178.903 99.032,178.737Z" style="fill-rule:nonzero;"/>
            <path d="M98.94,178.715C98.955,178.724 98.978,178.726 99.008,178.723C99.003,178.71 99,178.701 99,178.695C98.98,178.701 98.961,178.71 98.94,178.715Z" style="fill-rule:nonzero;"/>
            <path d="M99.016,178.704C99.015,178.704 99.015,178.703 99.014,178.703C99.017,178.709 99.021,178.715 99.024,178.722L99.028,178.722C99.024,178.717 99.018,178.707 99.016,178.704Z" style="fill-rule:nonzero;"/>
            <path d="M99.005,178.694C99.004,178.694 99.003,178.695 99.001,178.695C99.005,178.698 99.009,178.7 99.013,178.702C99.013,178.701 99.012,178.701 99.012,178.7C99.009,178.695 99.007,178.695 99.005,178.694Z" style="fill-rule:nonzero;"/>
            <path d="M258.022,113.92C258.035,113.962 258.045,113.981 258.054,113.999C258.057,114.003 258.058,114.005 258.061,114.008C258.048,113.977 258.032,113.952 258.022,113.92Z" style="fill-rule:nonzero;"/>
            <path d="M88.168,204.318C89.28,204.408 90.393,204.48 91.497,204.576C93.764,204.773 96.037,204.941 98.313,204.956C100.087,204.968 101.83,204.805 103.51,204.209C104.716,203.782 105.792,203.112 106.824,202.374C105.222,200.324 103.484,198.376 102.036,196.212C101.307,195.123 100.481,194.115 99.737,193.039C99.437,192.606 99.147,192.174 98.77,191.803C98.391,191.429 97.977,191.096 97.585,190.737C95.398,191.714 93.28,189.848 91.985,188.212C91.238,187.268 90.576,186.255 89.962,185.212C90.09,187.16 90.046,189.137 90.062,191.075C90.073,192.379 90.058,193.687 89.954,194.987C89.858,196.185 89.55,197.363 89.546,198.568C89.544,200.454 89.317,202.721 88.168,204.318Z" style="fill-rule:nonzero;"/>
            <path d="M90.093,171.115C89.81,172.568 89.675,174.07 89.608,175.527C89.584,176.058 89.548,176.598 89.564,177.13C89.567,177.219 89.574,177.306 89.58,177.395L89.58,177.405C89.582,177.417 89.584,177.42 89.587,177.436C89.685,177.928 89.811,178.409 89.966,178.886C90.362,180.102 90.849,181.182 91.436,182.328C91.594,182.636 91.772,182.935 91.939,183.239C92.068,182.845 92.197,182.45 92.34,182.06C92.702,181.072 93.146,180.111 93.731,179.234C94.443,178.167 95.349,177.209 96.454,176.632C95.291,176.02 94.177,175.326 93.129,174.493C92.233,173.781 91.417,173.006 90.731,172.087C90.497,171.775 90.299,171.443 90.093,171.115Z" style="fill-rule:nonzero;"/>
            <path d="M108.65,163.383C108.234,163.219 107.81,163.077 107.386,162.935C107.137,163.496 106.56,163.742 105.962,163.696C105.958,163.701 105.953,163.701 105.95,163.71C105.936,163.715 105.922,163.719 105.908,163.724C105.905,163.728 105.895,163.734 105.86,163.752C105.662,163.861 105.603,163.914 105.482,164.023C105.102,164.363 104.767,164.758 104.465,165.168C103.874,165.971 103.342,166.836 102.862,167.71C102.175,168.962 101.517,170.374 101.255,171.787C100.965,173.348 101.237,175 101.248,176.576C101.249,176.755 101.216,176.911 101.165,177.053C102.163,176.363 103.239,175.757 104.227,175.091C105.772,174.05 107.299,173.191 109.09,172.645C110.874,172.101 112.695,171.666 114.488,171.149C115.441,170.874 116.274,170.696 117.266,170.699C117.62,170.7 117.941,170.586 118.263,170.469C115.857,167.303 112.276,164.814 108.65,163.383Z" style="fill-rule:nonzero;"/>
            <path d="M99.452,179.766C99.452,179.78 99.453,179.795 99.453,179.81C99.453,179.794 99.454,179.786 99.454,179.774C99.454,179.77 99.453,179.769 99.452,179.766Z" style="fill-rule:nonzero;"/>
            <path d="M99.46,179.98C99.463,179.979 99.466,179.978 99.469,179.977C99.47,179.934 99.466,179.92 99.46,179.98Z" style="fill-rule:nonzero;"/>
            <path d="M98.891,161.971C98.372,162.061 97.857,162.169 97.35,162.315C97.1,162.387 96.853,162.466 96.608,162.553C96.486,162.596 96.366,162.642 96.245,162.689C96.203,162.705 96.179,162.714 96.157,162.722C96.138,162.731 96.122,162.738 96.091,162.752C95.164,163.166 94.25,163.745 93.659,164.261C93.227,164.639 92.83,165.053 92.464,165.494C92.319,165.668 91.95,166.196 91.721,166.577C91.518,166.915 91.337,167.266 91.171,167.627C91.373,167.794 91.528,168.02 91.602,168.29C91.637,168.418 91.645,168.548 91.64,168.677C91.795,168.877 91.956,169.077 92.131,169.324C92.428,169.742 92.661,170.2 92.963,170.616C93.109,170.817 93.47,171.211 93.767,171.498C94.129,171.849 94.512,172.178 94.904,172.495C95.919,173.317 97.224,174.081 98.5,174.69C98.446,173.36 98.419,172.029 98.741,170.726C99.159,169.035 99.95,167.339 100.835,165.845C101.543,164.651 102.465,163.026 103.679,162.007C103.174,161.931 102.672,161.882 102.072,161.849C101.031,161.79 99.629,161.843 98.891,161.971Z" style="fill-rule:nonzero;"/>
            <path d="M100.742,189.976C101.197,190.44 101.574,190.984 101.943,191.517C102.682,192.587 103.508,193.587 104.232,194.67C105.66,196.805 107.355,198.749 108.946,200.767C111.942,198.407 114.611,195.801 116.759,192.607C117.406,191.645 117.993,190.639 118.507,189.598C118.257,189.563 118.01,189.512 117.773,189.431C116.959,189.156 116.168,188.763 115.379,188.422C113.713,187.703 112.039,187.091 110.305,186.554C106.867,185.488 103.328,185.308 99.816,184.672C99.877,185.951 99.875,187.495 99.392,188.751C99.835,189.169 100.316,189.542 100.742,189.976Z" style="fill-rule:nonzero;"/>
            <path d="M99.613,179.929C99.739,179.887 99.675,179.867 99.613,179.929Z" style="fill-rule:nonzero;"/>
            <path d="M171.217,210.862C171.216,210.86 171.216,210.859 171.215,210.858C171.209,210.868 171.21,210.866 171.214,210.856C171.174,210.768 171.208,210.928 171.217,210.862Z" style="fill-rule:nonzero;"/>
            <path d="M119.575,186.978C120.161,185.197 120.552,183.329 120.859,181.489C121.208,179.396 121.281,177.232 120.704,175.173C120.466,174.322 120.184,173.626 119.804,172.898C119.711,172.915 119.616,172.922 119.519,172.912C119.144,172.872 118.903,173.076 118.543,173.204C118.175,173.336 117.779,173.387 117.389,173.39C116.987,173.393 116.649,173.35 116.255,173.444C115.813,173.548 115.375,173.69 114.939,173.817C113.315,174.289 111.671,174.688 110.049,175.164C108.384,175.653 107.016,176.447 105.584,177.412C104.911,177.865 104.249,178.333 103.556,178.754C103.068,179.051 102.569,179.333 102.115,179.676C102.183,180.675 101.908,181.64 101.115,182.18C102.692,182.431 104.282,182.59 105.864,182.811C107.802,183.082 109.677,183.533 111.539,184.128C113.428,184.732 115.222,185.466 117.047,186.234C117.672,186.497 118.366,186.936 119.058,186.956C119.239,186.96 119.409,186.967 119.575,186.978Z" style="fill-rule:nonzero;"/>
            <path d="M82.471,143.238C82.46,143.236 82.45,143.237 82.438,143.235C80.965,142.943 79.743,142.151 78.405,141.526C77.726,141.209 77.008,140.944 76.368,140.55C75.763,140.178 75.279,139.672 74.769,139.186C73.868,138.327 72.732,137.768 71.708,137.073C70.56,136.294 69.505,135.383 68.45,134.486C67.418,133.608 66.301,132.826 65.288,131.93C64.299,131.055 63.377,130.128 62.343,129.303C60.171,127.571 58.281,125.661 56.467,123.558C55.35,122.263 54.046,120.956 53.088,119.479C51.262,124.216 50.168,129.216 50.094,134.335C50.088,134.758 49.921,135.077 49.675,135.293C50.483,136.021 51.038,136.957 51.75,137.773C52.562,138.704 53.563,139.493 54.54,140.242C56.375,141.648 58.174,143.003 60.237,144.061C61.262,144.586 62.302,145.08 63.304,145.648C64.226,146.171 65.128,146.73 66.086,147.186C67.099,147.668 68.194,147.889 69.275,148.16C70.433,148.451 71.493,148.885 72.563,149.411C73.517,149.881 74.572,150.218 75.599,150.496C76.501,150.74 77.524,151.036 78.485,151.045C78.531,151.041 78.573,151.031 78.621,151.031C78.716,151.031 78.811,151.03 78.905,151.03C79.12,151.029 79.306,151.067 79.467,151.133C79.934,149.474 80.505,147.845 81.143,146.245C81.556,145.214 81.985,144.21 82.471,143.238Z" style="fill-rule:nonzero;"/>
            <path d="M124.169,64.223C123.25,65.343 122.321,66.453 121.34,67.52C120.351,68.594 119.252,69.39 118.086,70.25C117.537,70.655 117.137,71.174 116.704,71.694C116.294,72.188 115.833,72.629 115.39,73.093C114.485,74.038 113.73,75.104 112.84,76.063C112.181,76.774 111.681,77.363 111.289,78.242C111.048,78.784 110.772,79.392 110.43,79.939C113.201,80.346 115.943,80.982 118.651,81.783C121.589,82.651 124.484,83.665 127.378,84.671C127.331,84.469 127.329,84.245 127.404,83.995C127.764,82.797 128.879,82.32 129.724,81.512C130.657,80.62 131.429,79.614 132.222,78.6C133.859,76.504 135.686,74.641 137.554,72.754C138.436,71.864 139.334,70.988 140.314,70.204C141.297,69.417 142.334,68.811 143.414,68.174C144.583,67.484 145.6,66.623 146.723,65.978C144.146,64.824 141.481,63.87 138.717,63.199C137.406,62.881 136.077,62.63 134.738,62.418L125.925,62.418C125.792,62.514 125.654,62.605 125.526,62.709C125.005,63.132 124.593,63.706 124.169,64.223Z" style="fill-rule:nonzero;"/>
            <path d="M83.782,140.963C83.992,140.648 84.21,140.336 84.444,140.031C85.821,138.24 87.472,136.692 89.007,135.041C89.573,134.432 90.149,133.821 90.75,133.236C89.502,133.072 88.761,132.016 87.788,131.283C86.41,130.245 85.015,129.222 83.657,128.159C82.576,127.313 81.663,126.312 80.785,125.261C79.852,124.145 78.837,123.116 77.804,122.094C75.629,119.942 73.717,117.594 71.945,115.1C70.164,112.594 68.692,109.913 67.119,107.277C66.436,106.133 65.776,104.843 64.865,103.863C64.405,103.368 63.958,102.885 63.626,102.345C62.419,103.722 61.269,105.148 60.191,106.622C58.036,109.569 56.128,112.728 54.563,116.042C54.824,116.369 54.941,116.81 54.873,117.216C55.311,118.139 56.018,118.915 56.682,119.688C57.633,120.795 58.57,121.913 59.545,123C60.396,123.948 61.27,124.884 62.216,125.738C63.209,126.633 64.302,127.406 65.312,128.281C66.202,129.052 66.996,129.921 67.938,130.633C68.985,131.425 69.98,132.275 70.981,133.122C71.958,133.948 72.957,134.701 74.042,135.38C75.07,136.023 76.055,136.682 76.922,137.535C77.812,138.41 78.899,138.783 80.005,139.321C81.057,139.832 81.987,140.413 83.153,140.644C83.425,140.698 83.629,140.814 83.782,140.963Z" style="fill-rule:nonzero;"/>
            <path d="M167.806,137.349C167.803,137.345 167.858,137.346 167.927,137.349C168.011,137.082 168.182,136.831 168.47,136.637C171.062,134.894 173.775,133.35 176.544,131.909C175.935,131.126 175.402,130.29 174.958,129.395C174.29,128.047 173.761,126.634 173.062,125.301C172.613,124.444 172.108,123.619 171.592,122.8C171.443,123.036 171.302,123.277 171.163,123.506C170.376,124.808 170.023,126.282 169.521,127.704C168.951,129.322 168.151,130.848 167.383,132.378C166.852,133.435 165.819,134.43 165.931,135.68C165.954,135.944 165.871,136.192 165.725,136.403C166.102,136.67 166.498,136.911 166.917,137.095C167.059,137.157 167.502,137.301 167.806,137.349Z" style="fill-rule:nonzero;"/>
            <path d="M148.084,118.239C149.935,119.71 151.621,121.378 153.253,123.085C153.33,123.166 153.408,123.247 153.485,123.328C153.558,123.138 153.637,122.95 153.72,122.766C153.981,122.187 154.205,121.615 154.434,121.022C155.014,119.52 155.688,118.06 156.237,116.546C156.812,114.96 157.355,113.362 157.97,111.791C158.41,110.668 158.872,109.603 159.019,108.428C155.717,105.598 152.313,102.879 149.04,100.027C148.33,99.408 147.602,98.799 146.866,98.198C146.777,98.219 146.687,98.228 146.597,98.225C146.445,98.58 146.291,99.048 146.172,99.453C145.713,101.01 145.518,102.576 145.486,104.198C145.465,105.255 145.506,106.313 145.474,107.37C145.446,108.303 145.349,109.234 145.34,110.168C145.331,111.149 145.528,112.024 145.727,112.978C145.939,113.992 146.272,115.03 146.316,116.068C146.329,116.381 146.25,116.635 146.115,116.834C146.785,117.271 147.443,117.73 148.084,118.239Z" style="fill-rule:nonzero;"/>
            <path d="M163.387,134.297C163.655,133.34 164.232,132.49 164.752,131.603C165.557,130.233 166.301,128.715 166.847,127.223C167.416,125.669 167.804,124.038 168.597,122.573C168.971,121.883 169.409,121.21 169.894,120.593C169.954,120.517 170.017,120.448 170.078,120.376C169.399,119.255 168.735,118.132 167.911,117.1C166.913,115.851 165.812,114.685 164.671,113.565C163.58,112.494 162.456,111.458 161.316,110.44C161.149,110.993 160.945,111.542 160.72,112.102C160.111,113.623 159.576,115.173 159.023,116.716C158.462,118.282 157.798,119.799 157.179,121.342C156.9,122.036 156.677,122.751 156.366,123.432C156.161,123.881 155.86,124.324 155.915,124.83C155.947,125.122 155.84,125.393 155.662,125.617C157.544,127.606 159.395,129.618 161.14,131.734C161.862,132.607 162.602,133.474 163.387,134.297Z" style="fill-rule:nonzero;"/>
            <path d="M62.858,99.21C62.771,99.047 62.684,98.883 62.61,98.715C62.381,98.199 62.256,97.682 62.134,97.132C61.852,95.869 61.565,94.615 61.43,93.326C61.383,92.876 61.356,92.426 61.337,91.975C61.216,92.246 61.097,92.518 60.972,92.787C60.083,94.704 58.991,96.514 58.053,98.405C57.079,100.367 56.483,102.462 55.821,104.543C54.993,107.148 54.169,109.767 53.401,112.403C55.343,108.767 57.674,105.329 60.288,102.15C61.114,101.146 61.972,100.166 62.858,99.21Z" style="fill-rule:nonzero;"/>
            <path d="M53.027,170.922C54.008,174.031 55.42,176.975 57.037,179.8C57.842,179.76 58.63,179.666 59.44,179.524C60.537,179.332 61.457,178.837 62.461,178.379C64.687,177.363 66.949,176.415 69.098,175.238C71.271,174.048 73.313,172.635 75.471,171.42C76.438,170.876 77.3,170.205 78.24,169.621C78.859,169.236 79.629,168.876 80.129,168.31C79.469,166.602 78.987,164.858 78.692,163.092C77.48,163.688 75.986,163.772 74.712,163.955C72.152,164.322 69.628,164.135 67.051,164.156C64.19,164.179 61.326,164.261 58.466,164.173C55.896,164.094 53.451,163.36 50.957,162.817C51.105,163.425 51.255,164.032 51.408,164.638C51.935,166.733 52.377,168.86 53.027,170.922Z" style="fill-rule:nonzero;"/>
            <path d="M86.685,200.766C86.929,199.762 86.807,198.789 86.9,197.77C87.007,196.596 87.252,195.448 87.318,194.268C87.388,193.01 87.389,191.75 87.371,190.491C87.337,188.079 87.457,185.589 87.062,183.204C86.745,181.294 86.288,179.408 86.116,177.482C85.234,176.782 84.493,175.815 83.865,174.915C83.707,175.351 83.615,175.819 83.516,176.271C83.287,177.327 83.003,178.308 82.576,179.305C81.539,181.728 80.3,184.073 79.011,186.369C77.778,188.566 76.754,190.863 74.996,192.713C74.233,193.516 73.333,194.179 72.596,195.003C71.822,195.869 71.092,196.55 69.896,196.692C71.156,197.775 72.51,198.713 73.926,199.594C77.327,201.709 80.978,203.379 84.968,203.972C85.204,204.007 85.443,204.031 85.681,204.061C85.569,203.709 85.586,203.322 85.808,203.023C86.297,202.366 86.495,201.549 86.685,200.766Z" style="fill-rule:nonzero;"/>
            <path d="M110.942,124.438C111.708,128.538 112.662,132.696 114.379,136.516C115.217,138.38 116.225,140.214 117.509,141.812C118.933,143.585 120.719,144.905 122.414,146.396C124.213,147.977 125.953,149.641 127.967,150.953C130.092,152.336 132.443,153.311 134.819,154.172C137.286,155.066 139.762,156.032 142.292,156.734C144.387,157.316 146.491,157.349 148.628,157.34C148.659,154.923 148.823,152.527 148.372,150.132C148.154,148.973 147.913,147.821 147.802,146.644C147.702,145.587 147.661,144.548 147.355,143.524C146.775,141.582 145.533,139.734 144.451,138.036C143.234,136.128 141.906,134.29 140.512,132.508C137.911,129.181 135.133,126.094 131.843,123.428C130.168,122.071 128.605,120.579 126.921,119.234C125.289,117.93 123.444,116.908 121.554,116.031C119.923,115.274 118.45,114.197 116.62,114.029C115.396,113.916 114.241,113.791 113.115,113.261C112.59,113.014 112.125,112.68 111.59,112.532C110.839,113.683 110.421,115.129 110.319,116.408C110.252,117.255 110.244,118.101 110.274,118.946C110.284,118.961 110.295,118.975 110.305,118.99C110.618,119.457 110.577,119.917 110.352,120.277C110.471,121.671 110.685,123.06 110.942,124.438Z" style="fill-rule:nonzero;"/>
            <path d="M101.237,128.474C103.527,128.18 105.869,128.152 108.215,128.15C108.52,128.15 108.767,128.236 108.965,128.373C108.44,126.067 108.046,123.73 107.775,121.415C107.744,121.147 107.715,120.874 107.69,120.598C107.349,120.456 107.074,120.187 106.957,119.761C106.888,119.511 106.91,119.219 107.002,118.95C106.417,118.149 105.821,117.357 105.266,116.534C104.443,115.313 103.761,114.005 102.935,112.784C102.245,111.764 101.532,110.752 100.999,109.638C100.441,108.473 99.998,107.276 99.38,106.136C98.103,103.777 96.927,101.398 95.807,98.96C94.659,96.463 93.565,93.933 92.789,91.292C92.419,90.032 92.145,88.741 91.746,87.491C91.405,86.419 90.974,85.38 90.761,84.275C88.471,84.993 86.23,85.868 84.064,86.888C81.961,87.878 79.916,88.999 77.934,90.225C78.275,93.255 80.303,95.762 81.532,98.513C82.167,99.934 82.742,101.374 83.459,102.758C84.174,104.138 84.919,105.502 85.689,106.851C87.268,109.621 88.952,112.331 90.722,114.984C91.575,116.262 92.49,117.5 93.334,118.783C94.144,120.015 94.755,121.236 95.86,122.243C96.926,123.215 97.727,124.319 98.664,125.404C99.049,125.851 99.467,126.266 99.853,126.714C100.01,126.896 100.168,127.078 100.333,127.254C100.37,127.294 100.457,127.359 100.508,127.413L100.509,127.413C100.516,127.416 100.515,127.416 100.525,127.42C100.523,127.419 100.521,127.419 100.519,127.418C100.915,127.623 101.198,127.99 101.237,128.474Z" style="fill-rule:nonzero;"/>
            <path d="M50.02,158.482C50.111,158.995 50.211,159.507 50.318,160.017C50.872,159.705 51.68,159.81 52.117,160.325C54.22,160.808 56.297,161.418 58.467,161.485C61.13,161.567 63.797,161.501 66.46,161.473C67.716,161.46 68.968,161.459 70.223,161.504C71.372,161.545 72.535,161.594 73.674,161.416C75.02,161.207 77.158,161.346 78.089,160.185C78.169,160.085 78.269,160.013 78.375,159.952C78.285,157.882 78.433,155.796 78.842,153.715C77.524,153.816 76.014,153.403 74.754,153.046C73.456,152.678 72.187,152.212 70.978,151.614C69.906,151.083 68.795,150.809 67.638,150.523C66.464,150.233 65.353,149.831 64.276,149.277C63.258,148.753 62.292,148.135 61.282,147.597C60.253,147.048 59.195,146.557 58.167,146.005C56.015,144.851 54.083,143.293 52.175,141.778C51.272,141.061 50.356,140.307 49.629,139.406C49.562,139.323 49.499,139.238 49.434,139.154C49.451,141.113 49.488,143.072 49.489,145.025C49.494,149.518 49.229,154.038 50.02,158.482Z" style="fill-rule:nonzero;"/>
            <path d="M80.142,171.618C79.177,172.202 78.295,172.91 77.317,173.47C75.007,174.792 72.79,176.279 70.455,177.558C68.144,178.824 65.703,179.824 63.315,180.93C62.189,181.451 61.153,181.956 59.914,182.154C59.459,182.227 59.011,182.289 58.563,182.345C58.571,182.358 58.579,182.371 58.587,182.384C60.647,185.675 62.851,188.915 65.323,191.912C66.331,193.135 67.393,194.318 68.524,195.429C68.522,195.404 68.516,195.379 68.516,195.355C68.516,194.573 69.138,194.09 69.859,194.012C69.942,194.003 70.321,193.527 70.434,193.402C70.745,193.057 71.045,192.721 71.394,192.414C72.277,191.637 73.18,190.841 73.892,189.899C75.275,188.067 76.215,185.863 77.345,183.872C77.97,182.77 78.495,181.619 79.058,180.486C79.571,179.454 80.128,178.415 80.495,177.321C81.057,175.646 81.113,173.811 82.204,172.401C81.886,171.887 81.585,171.362 81.299,170.83C80.926,171.115 80.535,171.38 80.142,171.618Z" style="fill-rule:nonzero;"/>
            <path d="M67.827,82.052C66.507,83.499 65.197,85.004 64.092,86.629C64.032,88.946 63.842,91.288 64.145,93.586C64.296,94.735 64.523,96.011 64.878,97.13C68.024,94.018 71.482,91.213 75.189,88.793C75.177,87.214 75.14,85.633 75.263,84.058C75.399,82.321 75.793,80.631 76.15,78.93C76.508,77.228 76.892,75.526 77.469,73.883C77.618,73.457 77.793,73.037 77.971,72.619C74.312,75.412 70.964,78.614 67.827,82.052Z" style="fill-rule:nonzero;"/>
            <path d="M150.091,67.618C149.938,67.69 149.764,67.739 149.565,67.75C147.628,67.856 146.114,69.76 144.499,70.644C142.493,71.743 140.881,73.204 139.282,74.825C137.539,76.592 135.824,78.331 134.287,80.286C133.544,81.231 132.836,82.192 131.989,83.05C131.596,83.448 131.188,83.831 130.749,84.178C130.612,84.286 130.028,84.592 129.994,84.707C129.897,85.03 129.719,85.259 129.501,85.413C132.356,86.416 135.197,87.492 137.878,88.899C141.035,90.556 143.936,92.577 146.727,94.749C146.751,94.747 146.776,94.749 146.8,94.748C147.002,94.392 147.191,94.029 147.4,93.676C148.032,92.613 148.769,91.592 149.621,90.694C151.259,88.967 153.215,87.585 154.92,85.927C156.633,84.261 158.152,82.404 159.908,80.78C160.871,79.89 161.806,78.985 162.728,78.052C163.074,77.702 163.473,77.372 163.856,77.027C162.676,75.994 161.466,74.994 160.194,74.059C156.983,71.7 153.622,69.486 150.091,67.618Z" style="fill-rule:nonzero;"/>
            <path d="M179.545,92.135C179.324,92.305 179.059,92.404 178.776,92.371C178.181,92.3 177.734,92.85 177.29,93.322C176.709,93.94 176.157,94.517 175.481,95.035C173.705,96.396 171.729,97.467 169.956,98.837C168.256,100.15 166.733,101.663 165.422,103.365C164.768,104.214 164.145,105.103 163.61,106.032C163.238,106.678 162.903,107.327 162.466,107.91C162.505,107.944 162.546,107.977 162.585,108.012C165.011,110.139 167.425,112.315 169.489,114.805C170.471,115.989 171.32,117.234 172.11,118.547C172.309,118.477 172.532,118.462 172.77,118.509C172.788,118.491 172.8,118.472 172.819,118.455C173.482,117.86 174.019,117.131 174.668,116.514C175.378,115.839 176.081,115.15 176.846,114.538C178.292,113.381 179.943,112.468 181.321,111.231C182.001,110.621 182.652,109.989 183.409,109.472C184.258,108.892 185.188,108.449 186.059,107.905C186.793,107.447 187.412,106.839 188.183,106.435C188.31,106.368 188.449,106.305 188.584,106.238C187.887,104.807 187.192,103.372 186.422,101.982C184.497,98.504 182.037,95.247 179.545,92.135Z" style="fill-rule:nonzero;"/>
            <path d="M126.525,87.21C125.604,86.895 124.684,86.582 123.765,86.266C120.525,85.149 117.261,84.084 113.921,83.304C112.553,82.985 111.177,82.733 109.795,82.542C110.313,84.361 110.807,86.187 111.276,88.019C111.606,89.306 111.967,90.591 112.252,91.889C112.519,93.104 112.706,94.336 113.016,95.541C113.324,96.736 113.804,97.849 114.304,98.973C114.827,100.148 115.266,101.359 115.833,102.513C116.335,103.535 116.811,104.582 117.356,105.581C117.739,106.282 118.146,107.003 118.301,107.788C118.321,107.859 118.333,107.937 118.342,108.016C121,108.04 123.657,108.212 126.279,108.662C127.062,108.797 127.836,108.97 128.606,109.163C128.543,108.909 128.492,108.652 128.447,108.393C128.272,107.381 128.119,106.362 127.973,105.346C127.665,103.206 127.46,101.048 127.094,98.917C126.734,96.823 126.12,94.774 126.069,92.635C126.044,91.591 126.045,90.521 126.102,89.478C126.142,88.715 126.484,87.965 126.525,87.21Z" style="fill-rule:nonzero;"/>
            <path d="M174.542,86.594C172.987,85.121 171.287,83.816 169.702,82.378C168.398,81.195 167.121,79.99 165.829,78.804C165.494,79.117 165.153,79.426 164.828,79.752C163.898,80.683 162.98,81.615 162.006,82.501C160.104,84.23 158.486,86.238 156.63,88.012C154.799,89.763 152.647,91.207 151.015,93.161C150.312,94.002 149.758,94.953 149.231,95.91C149.123,96.106 149.011,96.294 148.895,96.477C150.664,97.92 152.406,99.402 154.152,100.874C156.246,102.638 158.348,104.393 160.431,106.169C160.926,105.504 161.258,104.704 161.703,104.008C162.35,102.997 163.065,102.03 163.818,101.096C165.276,99.287 166.96,97.757 168.811,96.36C169.734,95.663 170.687,95.013 171.662,94.391C172.592,93.798 173.579,93.23 174.394,92.479C175.379,91.572 176.307,90.228 177.613,89.803C176.636,88.687 175.616,87.612 174.542,86.594Z" style="fill-rule:nonzero;"/>
            <path d="M142.906,102.249C143.067,100.616 143.41,98.976 144.026,97.45C144.174,97.083 144.343,96.715 144.541,96.373C140.967,93.671 137.123,91.277 133.017,89.591C131.718,89.057 130.4,88.571 129.076,88.1C128.967,88.555 128.83,89.005 128.787,89.478C128.698,90.463 128.735,91.507 128.751,92.497C128.786,94.535 129.408,96.481 129.729,98.48C130.072,100.618 130.288,102.775 130.604,104.917C130.752,105.925 130.893,106.943 131.084,107.945C131.23,108.708 131.608,109.389 131.813,110.12C135.225,111.289 138.523,112.858 141.749,114.397C142.343,114.681 142.924,114.973 143.494,115.276C143.415,114.969 143.321,114.664 143.261,114.36C143.148,113.785 143.025,113.214 142.904,112.641C142.666,111.52 142.627,110.408 142.685,109.267C142.804,106.933 142.677,104.574 142.906,102.249Z" style="fill-rule:nonzero;"/>
            <path d="M97.46,63.222C97.29,66.458 96.069,69.453 95.117,72.524C94.882,73.282 94.671,74.018 94.618,74.812C94.562,75.67 94.504,76.51 94.348,77.358C94.277,77.746 94.162,78.143 94.132,78.537C94.104,78.9 94.192,79.256 94.179,79.618C94.166,79.967 94.06,80.305 93.953,80.64C96.369,80.089 98.825,79.711 101.301,79.538C103.114,79.411 104.916,79.43 106.709,79.546C106.941,79.118 107.374,78.805 107.945,78.846C107.999,78.785 108.014,78.772 107.962,78.844C108.186,78.571 108.348,78.223 108.503,77.907C108.823,77.255 109.055,76.542 109.441,75.924C110.073,74.913 111.04,74.129 111.788,73.208C112.561,72.257 113.334,71.35 114.192,70.472C114.649,70.003 115.026,69.47 115.47,68.99C115.904,68.521 116.42,68.14 116.945,67.779C118.022,67.038 118.918,66.205 119.79,65.231C120.614,64.31 121.403,63.365 122.19,62.413L101.498,62.413C100.457,62.59 99.417,62.779 98.386,63.003C98.076,63.074 97.769,63.149 97.46,63.222Z" style="fill-rule:nonzero;"/>
            <path d="M92.429,131.77C92.978,131.345 93.551,130.953 94.166,130.621C95.497,129.902 96.872,129.394 98.277,129.032C97.818,128.569 97.416,128.015 97.019,127.588C96.448,126.975 95.978,126.281 95.448,125.634C94.886,124.947 94.207,124.396 93.573,123.781C92.452,122.693 91.805,121.311 90.945,120.033C90.006,118.636 89.018,117.272 88.089,115.868C86.225,113.051 84.458,110.168 82.812,107.219C81.995,105.754 81.171,104.28 80.468,102.757C79.799,101.307 79.244,99.807 78.501,98.391C77.715,96.895 76.825,95.45 76.149,93.898C75.852,93.217 75.631,92.528 75.473,91.826C71.965,94.231 68.699,96.997 65.741,100.053C65.736,100.085 65.736,100.115 65.731,100.148C65.727,100.175 65.714,100.199 65.707,100.226C65.746,100.348 65.775,100.478 65.779,100.626C65.789,101.034 66.221,101.391 66.488,101.673C66.961,102.172 67.38,102.689 67.764,103.26C68.658,104.585 69.472,105.962 70.274,107.344C71.702,109.804 73.145,112.231 74.83,114.527C76.479,116.774 78.295,118.792 80.269,120.754C82.107,122.581 83.606,124.823 85.708,126.364C86.833,127.188 87.914,128.065 89.039,128.887C89.535,129.249 89.995,129.624 90.436,130.049C90.635,130.241 90.956,130.586 91.143,130.582C91.955,130.561 92.38,131.143 92.429,131.77Z" style="fill-rule:nonzero;"/>
            <path d="M111.275,109.004C112.061,108.437 112.985,108.139 113.947,108.076C114.498,108.04 115.053,108.024 115.609,108.015C115.432,107.442 114.953,106.816 114.707,106.3C114.181,105.202 113.606,104.123 113.108,103.011C112.599,101.872 112.146,100.706 111.643,99.563C111.13,98.397 110.659,97.227 110.358,95.987C110.065,94.778 109.881,93.546 109.601,92.334C109.301,91.034 108.945,89.745 108.614,88.453C108.08,86.374 107.519,84.303 106.913,82.244C104.1,82.046 101.271,82.12 98.449,82.521C96.729,82.765 95.023,83.114 93.338,83.545C93.582,84.825 94.134,86.015 94.483,87.269C94.876,88.679 95.216,90.102 95.66,91.498C96.472,94.046 97.597,96.479 98.726,98.898C99.296,100.12 99.84,101.358 100.473,102.549C101.081,103.693 101.748,104.805 102.315,105.97C102.853,107.074 103.237,108.233 103.86,109.296C104.493,110.375 105.25,111.374 105.914,112.433C106.538,113.428 107.104,114.452 107.764,115.423C108.143,112.904 109.137,110.546 111.275,109.004Z" style="fill-rule:nonzero;"/>
            <path d="M82.025,69.788C82.051,70.208 81.892,70.618 81.506,70.861C81.148,72.145 80.501,73.341 80.06,74.597C79.514,76.151 79.142,77.759 78.8,79.368C78.45,81.016 78.041,82.658 77.93,84.343C77.868,85.276 77.86,86.211 77.865,87.146C80.507,85.601 83.254,84.24 86.091,83.101C87.719,82.448 89.381,81.881 91.065,81.392C91.144,80.737 91.468,80.164 91.498,79.5C91.515,79.134 91.429,78.777 91.464,78.407C91.508,77.943 91.598,77.481 91.686,77.024C91.987,75.454 91.917,73.866 92.374,72.319C93.19,69.551 94.394,66.838 94.722,63.96C92.147,64.733 89.633,65.709 87.215,66.883C85.414,67.755 83.689,68.729 82.025,69.788Z" style="fill-rule:nonzero;"/>
            <path d="M186.26,127.26C189.026,126.206 191.93,125.597 194.813,124.962C195.258,124.864 195.699,124.783 196.142,124.695C195.937,123.213 195.239,121.819 194.755,120.395C194.077,118.404 193.534,116.358 192.679,114.431C191.805,112.462 190.755,110.557 189.775,108.635C189.578,108.734 189.38,108.832 189.191,108.945C188.444,109.393 187.81,109.997 187.053,110.436C186.253,110.901 185.411,111.319 184.661,111.863C184.007,112.337 183.461,112.944 182.841,113.459C181.439,114.625 179.831,115.517 178.435,116.689C177.714,117.294 177.038,117.959 176.359,118.61C175.782,119.164 175.312,119.819 174.719,120.352C174.351,120.682 173.934,120.757 173.554,120.676C173.533,120.708 173.511,120.739 173.489,120.769C174.003,121.579 174.516,122.388 174.988,123.223C176.378,125.677 177.155,128.465 178.984,130.644C181.364,129.423 183.775,128.207 186.26,127.26Z" style="fill-rule:nonzero;"/>
        </g>
    </g>
</svg>
