<?xml version="1.0" encoding="UTF-8" standalone="no"?>
<!DOCTYPE svg PUBLIC "-//W3C//DTD SVG 1.1//EN" "http://www.w3.org/Graphics/SVG/1.1/DTD/svg11.dtd">
<svg width="100%" height="100%" viewBox="0 0 262 248" version="1.1" xmlns="http://www.w3.org/2000/svg" xmlns:xlink="http://www.w3.org/1999/xlink" xml:space="preserve" xmlns:serif="http://www.serif.com/" style="fill-rule:evenodd;clip-rule:evenodd;stroke-linejoin:round;stroke-miterlimit:2;">
    <g transform="matrix(1,0,0,1,-880.197,-64.5146)">
        <g>
            <path d="M990.056,156.245C991.053,156.158 992.05,156.07 993.048,155.992C993.739,155.937 994.431,155.893 995.123,155.843C993.759,154.484 992.843,152.733 992.967,150.735C993.074,149.003 993.887,147.601 994.85,146.209C995.179,145.732 995.594,145.121 995.788,144.673C996.001,144.183 996.092,143.67 996.02,143.104C995.945,142.52 995.636,141.705 995.331,141.302C995.024,140.896 994.581,140.56 994.066,140.258C992.905,139.578 991.501,139.193 990.17,139.11C988.92,139.031 987.584,139.161 986.714,139.797C986.259,140.13 985.736,140.899 985.664,141.582C985.573,142.437 986.041,143.236 986.518,143.904C987.674,145.524 989.329,146.675 990.365,148.404C991.457,150.227 991.831,152.698 991.055,154.72C990.817,155.336 990.467,155.825 990.056,156.245Z" style="fill-rule:nonzero;"/>
            <path d="M977.377,160.076C976.379,160.199 975.381,160.327 974.384,160.459C974.254,160.476 974.125,160.493 973.995,160.511C973.954,160.516 973.913,160.522 973.872,160.528C973.666,160.556 973.46,160.584 973.254,160.612C972.835,160.669 972.416,160.728 971.997,160.787C970.144,161.048 968.286,161.307 966.444,161.637C966.201,161.681 965.956,161.668 965.734,161.602C965.696,161.617 965.664,161.635 965.623,161.647C962.564,162.551 959.578,163.683 956.73,165.125C951.419,167.814 946.512,171.579 943.137,176.485C939.714,181.461 938.035,187.304 938.054,193.338C938.056,193.905 938.075,194.47 938.104,195.035C938.638,195.728 939.145,196.443 939.628,197.172C941.552,200.073 943.133,203.188 945.104,206.06C947.079,208.939 949.502,211.236 952.451,213.098C955.556,215.059 958.905,216.635 961.862,218.828C963.317,219.907 964.618,221.146 965.922,222.401C967.2,223.631 968.429,224.907 969.464,226.353C970.486,227.781 971.126,229.332 971.689,230.982C972.289,232.74 973.211,234.31 974.164,235.893C976.004,238.95 977.49,242.532 980.611,244.517C983.102,246.101 986.076,246.624 988.978,246.809C992.515,247.034 996.084,246.918 999.625,246.918C1007.58,246.918 1015.54,246.824 1023.5,247.025C1026.03,247.089 1028.57,247.17 1031.1,247.082C1033.32,247.006 1035.19,246.843 1037.31,246.245C1039.13,245.734 1040.92,244.864 1042.35,243.692C1044.18,242.18 1045.64,240.319 1046.87,238.297C1047.69,236.965 1048.39,235.577 1049.07,234.172C1049.91,232.433 1051.03,230.811 1052.25,229.319C1054.52,226.533 1057.53,224.533 1060.34,222.334C1063.17,220.111 1065.56,217.46 1067.81,214.652C1069.82,212.134 1071.64,209.446 1073.15,206.597C1076.25,200.776 1077.81,194.346 1078.42,187.81C1078.45,187.541 1078.54,187.29 1078.68,187.083C1078.07,183.793 1076.95,180.619 1075.12,177.718C1071.06,171.283 1064.33,166.542 1057.4,163.609C1052.31,161.453 1046.44,160.102 1040.84,159.218C1034.79,158.264 1028.64,157.82 1022.5,157.635C1022.28,157.687 1022.06,157.682 1021.85,157.614C1021.76,157.612 1021.68,157.608 1021.59,157.606C1015.02,157.434 1008.44,157.571 1001.87,157.911C996.065,158.212 990.264,158.675 984.478,159.274C982.107,159.516 979.74,159.784 977.377,160.076Z" style="fill-rule:nonzero;"/>
            <path d="M898.684,124.583C898.61,124.782 898.544,124.983 898.484,125.187C898.332,125.707 898.218,126.239 898.123,126.772C898.094,126.937 898.066,127.103 898.041,127.269C898.028,127.355 898.015,127.441 898.003,127.527C898.001,127.54 898,127.544 897.999,127.551C897.998,127.557 897.998,127.559 897.997,127.566C897.955,127.9 897.918,128.234 897.888,128.569C897.821,129.312 897.781,130.058 897.767,130.804C897.752,131.596 897.767,132.389 897.813,133.18C897.86,133.987 897.95,134.849 898.046,135.449C898.17,136.23 898.334,137.005 898.549,137.766C898.656,138.143 898.775,138.517 898.91,138.885C899.068,139.317 899.053,139.286 899.247,139.692C899.413,140.039 899.596,140.379 899.8,140.705C899.879,140.832 899.962,140.958 900.047,141.081C900.1,141.157 900.154,141.232 900.21,141.306C900.211,141.308 900.211,141.308 900.213,141.31C900.225,141.324 900.235,141.335 900.253,141.357C900.474,141.619 900.706,141.869 900.961,142.098C901.001,142.134 901.196,142.29 901.221,142.315C901.331,142.394 901.442,142.472 901.556,142.543C901.723,142.647 901.895,142.737 902.069,142.828C902.112,142.85 902.158,142.87 902.203,142.89C902.227,142.9 902.254,142.911 902.268,142.916C902.586,143.03 902.906,143.116 903.236,143.186C903.252,143.189 903.421,143.214 903.452,143.22C903.503,143.226 903.553,143.232 903.604,143.235C903.81,143.247 904.015,143.258 904.221,143.256C904.566,143.254 905.051,143.207 905.219,143.181C905.493,143.137 905.766,143.16 906.008,143.248C906.755,142.782 907.6,142.451 908.504,142.291C908.893,142.222 909.273,142.192 909.646,142.19C909.868,141.979 910.154,141.845 910.463,141.879C910.496,141.883 910.673,141.891 910.769,141.896C910.774,141.885 910.778,141.876 910.785,141.862C910.796,141.838 910.802,141.828 910.81,141.813C910.814,141.796 910.817,141.782 910.825,141.754C910.845,141.678 910.865,141.604 910.882,141.528C910.949,141.242 910.916,141.406 910.931,141.057C910.965,140.285 910.848,139.525 910.807,138.757C910.715,137.013 910.744,135.249 910.726,133.502C910.707,131.666 910.756,129.958 910.196,128.188C909.966,127.459 909.69,126.743 909.425,126.026C909.227,125.492 908.974,124.952 908.539,124.569C907.776,123.897 906.664,123.637 905.681,123.518C904.507,123.376 903.291,123.415 902.121,123.564C901.124,123.69 899.991,123.83 899.087,124.292C898.874,124.401 898.838,124.45 898.684,124.581C898.685,124.582 898.685,124.582 898.684,124.583Z" style="fill-rule:nonzero;"/>
            <path d="M1106.07,143.186C1106.07,143.185 1106.06,143.183 1106.06,143.183C1106,143.191 1106.03,143.19 1106.07,143.186Z" style="fill-rule:nonzero;"/>
            <path d="M1079.33,213.667C1079.46,213.691 1079.59,213.712 1079.73,213.734C1080.37,213.842 1081,214.012 1081.63,214.156C1083.09,214.485 1084.5,214.562 1085.98,214.55C1089.18,214.525 1092.32,214.542 1095.49,214.078C1096.95,213.864 1098.42,213.684 1099.88,213.5C1101.21,213.334 1102.49,213.011 1103.8,212.76C1105.83,212.372 1108.39,212.75 1109.83,210.949C1110.41,210.215 1110.65,209.274 1110.83,208.374C1111.08,207.154 1111.33,205.912 1111.43,204.669C1111.49,203.979 1111.52,203.26 1111.42,202.572C1111.39,202.359 1111.35,202.122 1111.27,201.92C1111.27,201.963 1111.13,201.802 1111.25,201.887C1111.16,201.818 1111.14,201.826 1110.96,201.796C1110.91,201.786 1110.64,201.77 1110.51,201.763C1109.91,201.731 1109.31,201.72 1108.71,201.661C1107.36,201.53 1106.08,201.102 1104.73,200.982C1103.34,200.858 1101.94,200.901 1100.55,200.942C1097.72,201.024 1094.93,200.891 1092.11,201.223C1089.71,201.504 1087.23,201.188 1084.92,201.988C1083.7,202.411 1082.35,203.001 1081.02,203.089C1080.5,206.305 1079.76,209.486 1078.87,212.588C1078.83,212.748 1078.78,212.906 1078.73,213.065C1079.03,213.192 1079.23,213.411 1079.33,213.667Z" style="fill-rule:nonzero;"/>
            <path d="M1117.74,125.562C1117.63,125.478 1117.57,125.404 1117.37,125.305C1116.95,125.098 1116.47,124.99 1116.02,124.894C1113.84,124.432 1111.3,124.288 1109.17,125.055C1108.09,125.444 1107.44,126.123 1107.06,127.204C1106.58,128.558 1106.05,129.958 1105.9,131.395C1105.73,133.043 1105.92,134.772 1105.94,136.428C1105.95,137.731 1106.03,139.054 1105.95,140.355C1105.91,141.087 1105.84,141.826 1105.92,142.559C1105.92,142.625 1105.98,143.007 1106.07,143.173C1106.07,143.174 1106.08,143.175 1106.08,143.176C1106.07,143.171 1106.07,143.166 1106.07,143.16C1106.07,143.166 1106.08,143.171 1106.08,143.177C1106.09,143.179 1106.1,143.181 1106.11,143.183C1106.14,143.179 1106.17,143.178 1106.11,143.186C1106.12,143.187 1106.12,143.187 1106.12,143.187C1106.52,143.139 1106.91,143.21 1107.2,143.427C1108.25,143.412 1109.36,143.648 1110.55,144.219C1110.65,144.268 1110.74,144.323 1110.84,144.376C1111,144.297 1111.18,144.257 1111.36,144.281C1111.84,144.346 1112.33,144.382 1112.82,144.365C1113.38,144.346 1113.35,144.349 1113.84,144.227C1114.04,144.178 1114.24,144.116 1114.43,144.05C1114.45,144.045 1114.52,144.015 1114.58,143.994C1114.63,143.967 1114.74,143.919 1114.73,143.921C1115.03,143.762 1115.32,143.594 1115.59,143.393C1115.61,143.371 1115.87,143.156 1115.91,143.11C1116.06,142.975 1116.19,142.833 1116.33,142.686C1116.65,142.325 1116.57,142.415 1116.86,141.973C1117.09,141.62 1117.29,141.251 1117.46,140.872C1117.51,140.77 1117.56,140.668 1117.6,140.565C1117.61,140.551 1117.61,140.539 1117.62,140.521C1117.7,140.334 1117.77,140.146 1117.83,139.956C1118.88,136.963 1118.99,133.91 1118.74,130.683C1118.71,130.308 1118.68,129.933 1118.64,129.559C1118.62,129.414 1118.6,129.269 1118.58,129.124C1118.58,129.086 1118.54,128.832 1118.53,128.78C1118.44,128.175 1118.33,127.573 1118.18,126.978C1118.07,126.518 1117.92,126.073 1117.76,125.629C1117.74,125.609 1117.65,125.497 1117.74,125.567C1117.74,125.563 1117.74,125.563 1117.74,125.562Z" style="fill-rule:nonzero;"/>
            <path d="M898.691,124.566C898.753,124.484 898.754,124.403 898.691,124.566Z" style="fill-rule:nonzero;"/>
            <path d="M1117.59,140.59C1117.57,140.636 1117.56,140.679 1117.59,140.59Z" style="fill-rule:nonzero;"/>
            <path d="M1105.47,146.292C1104.89,146.565 1104.28,146.971 1103.88,147.304C1102.72,148.268 1101.73,149.439 1100.82,150.628C1098.85,153.184 1097.13,156.117 1094.61,158.182C1092.9,159.587 1090.88,160.654 1088.91,161.663C1086.74,162.777 1084.52,163.779 1082.31,164.829C1080.11,165.882 1077.91,166.984 1075.85,168.299C1075,168.838 1074.12,169.372 1073.44,170.119C1073.22,170.359 1073,170.617 1072.77,170.862C1074.7,172.792 1076.41,174.939 1077.79,177.3C1079.7,180.586 1080.85,184.244 1081.37,188.001C1081.61,189.681 1081.73,191.369 1081.76,193.061C1082.83,193.047 1083.9,193.029 1084.96,192.892C1086,192.758 1087.07,192.497 1088.01,192.018C1089.07,191.476 1089.93,190.677 1090.8,189.877C1092.58,188.234 1094.25,186.459 1095.75,184.556C1097.29,182.613 1098.57,180.483 1099.98,178.447C1100.7,177.412 1101.32,176.343 1101.79,175.172C1102.22,174.101 1102.58,173.003 1103.02,171.938C1103.96,169.668 1105.21,167.527 1106.34,165.35C1107.79,162.561 1109.19,159.753 1110.25,156.821C1110.75,155.439 1111.18,154.023 1111.44,152.574C1111.54,151.984 1111.59,151.562 1111.61,150.835C1111.62,150.523 1111.61,150.211 1111.59,149.9C1111.59,149.861 1111.56,149.628 1111.56,149.592C1111.55,149.494 1111.53,149.395 1111.51,149.297C1111.45,149.001 1111.37,148.716 1111.28,148.43C1111.26,148.385 1111.24,148.341 1111.23,148.297C1111.17,148.19 1111.12,148.085 1111.07,147.981C1110.99,147.847 1110.91,147.721 1110.83,147.592C1110.81,147.557 1110.79,147.534 1110.78,147.517C1110.77,147.509 1110.76,147.498 1110.75,147.479C1110.57,147.268 1110.37,147.074 1110.16,146.893C1110.15,146.886 1110.15,146.883 1110.14,146.878C1110.09,146.839 1110.04,146.8 1109.98,146.765C1109.86,146.685 1109.73,146.605 1109.6,146.532C1109.28,146.354 1109.13,146.292 1108.92,146.225C1108.17,145.978 1107.73,145.878 1107,145.911C1106.6,145.93 1106.63,145.928 1106.2,146.042C1106.03,146.085 1105.87,146.138 1105.71,146.194C1105.55,146.253 1105.49,146.283 1105.47,146.292Z" style="fill-rule:nonzero;"/>
            <path d="M1024.91,155.22C1026.67,155.296 1028.43,155.398 1030.19,155.528C1029.19,154.721 1028.65,153.594 1028.48,152.333C1028.31,151.087 1028.35,149.762 1028.8,148.578C1029.27,147.366 1030.01,146.284 1030.88,145.327C1032.04,144.058 1033.99,142.629 1034.07,140.749C1034.1,139.974 1033.58,139.117 1033.09,138.715C1032.66,138.375 1032.14,138.197 1031.48,138.066C1030.17,137.804 1028.6,138.015 1027.24,138.453C1026.58,138.669 1025.99,138.942 1025.39,139.332C1024.98,139.599 1024.46,140.067 1024.27,140.418C1023.91,141.059 1023.69,141.788 1023.7,142.493C1023.71,143.018 1023.88,143.482 1024.17,143.999C1024.89,145.258 1025.85,146.314 1026.4,147.672C1027.07,149.344 1026.88,151.07 1026.21,152.706C1025.86,153.554 1025.43,154.418 1024.91,155.22Z" style="fill-rule:nonzero;"/>
            <path d="M1039.92,96.975C1039.99,96.952 1039.97,96.955 1039.92,96.966C1039.92,96.969 1039.92,96.972 1039.92,96.975Z" style="fill-rule:nonzero;"/>
            <path d="M1065.97,84.182C1065.1,84.026 1064.22,84.489 1063.47,84.877C1062.44,85.409 1061.41,85.863 1060.25,85.982C1059.08,86.102 1057.94,85.699 1057.25,84.721C1056.69,83.936 1056.59,82.98 1056.41,82.067C1056.13,80.676 1055.68,78.646 1054.64,77.847C1054.18,77.496 1053.45,77.416 1052.72,77.542C1051.89,77.686 1051.17,78.039 1050.45,78.46C1049.16,79.215 1047.71,80 1046.28,79.053C1044.51,77.878 1044.11,75.882 1043.61,73.979C1043.56,73.801 1043.47,73.498 1043.43,73.396C1043.43,73.383 1043.34,73.269 1043.33,73.245C1043.08,73.068 1042.72,72.968 1042.43,72.894C1041.64,72.698 1040.68,72.534 1039.88,72.713C1038.98,72.913 1038.19,73.444 1037.36,73.813C1037.26,73.857 1037.16,73.896 1037.07,73.935C1038.86,75.049 1040.63,76.192 1042.43,77.276C1045.3,78.998 1048.2,80.656 1051.16,82.211C1056.97,85.26 1062.91,88.051 1068.57,91.385C1068.84,91.547 1069.12,91.709 1069.4,91.872C1069.37,90.927 1069.3,89.986 1069.14,89.056C1068.83,87.29 1068.08,84.557 1065.97,84.182Z" style="fill-rule:nonzero;"/>
            <path d="M1029.87,69.17C1029.88,69.174 1029.88,69.179 1029.89,69.183C1029.96,68.976 1029.77,69.066 1029.85,69.156C1029.85,68.981 1029.86,69.097 1029.87,69.17Z" style="fill-rule:nonzero;"/>
            <path d="M1039.91,97.108C1039.91,97.141 1039.91,97.16 1039.9,97.178C1039.91,97.197 1039.92,97.224 1039.94,97.269C1039.97,97.387 1040,97.507 1040.03,97.625C1040.06,97.7 1040.19,98.055 1040.18,98.046C1040.23,98.163 1040.29,98.28 1040.34,98.395C1040.51,98.734 1040.7,99.065 1040.89,99.389C1041.76,100.841 1042.61,101.92 1043.69,103.156C1044.82,104.455 1046.08,105.697 1047.33,106.878C1048.35,107.844 1049.59,108.618 1050.72,109.453C1051.87,110.299 1053.02,111.144 1054.17,111.983C1058.42,115.079 1062.76,118.098 1067.36,120.644C1067.62,120.228 1067.87,119.804 1068.09,119.364C1068.55,118.452 1068.69,117.463 1068.88,116.473C1069.31,114.299 1069.8,112.141 1070.18,109.96C1070.59,107.659 1071.03,105.363 1071.47,103.068C1071.76,101.529 1072.28,99.857 1072.24,98.245C1071.68,98.649 1071.06,98.98 1070.51,99.265C1069.38,99.85 1068.17,100.301 1066.94,100.603C1061.69,101.883 1056.13,100.851 1051,99.574C1048.46,98.943 1045.94,98.203 1043.41,97.539C1042.46,97.291 1041.37,96.963 1040.55,96.933C1040.4,96.928 1040.25,96.934 1040.11,96.944C1040.08,96.952 1040,96.969 1039.92,96.986C1039.92,97.036 1039.91,97.086 1039.91,97.108Z" style="fill-rule:nonzero;"/>
            <path d="M1030.85,70.095C1031.81,70.826 1032.85,71.426 1033.9,72.027C1034.18,71.877 1034.52,71.83 1034.86,71.884C1035.79,72.031 1036.76,71.328 1037.55,70.948C1038.65,70.422 1039.75,70.086 1040.97,70.18C1042.17,70.272 1043.5,70.42 1044.54,71.058C1045.51,71.65 1045.84,72.599 1046.1,73.652C1046.33,74.615 1046.46,75.436 1046.95,76.177C1047.15,76.486 1047.47,76.852 1047.65,76.965C1047.68,76.985 1047.68,76.991 1047.7,77.002C1047.72,77.009 1047.75,77.016 1047.77,77.022C1047.85,76.997 1048.03,76.961 1047.79,77.017C1048.14,76.933 1048.08,76.946 1048.5,76.715C1048.82,76.537 1049.13,76.342 1049.45,76.161C1050.3,75.681 1051.2,75.288 1052.17,75.117C1054.22,74.753 1056.09,75.339 1057.27,77.114C1058.32,78.691 1058.62,80.652 1059.02,82.461C1059.2,83.309 1059.39,83.642 1060.32,83.465C1061.33,83.272 1062.17,82.699 1063.1,82.292C1064.23,81.797 1065.4,81.508 1066.63,81.776C1067.76,82.02 1068.8,82.767 1069.53,83.639C1071.76,86.308 1071.92,90.019 1071.91,93.435C1072.06,93.533 1072.21,93.629 1072.35,93.731C1073.04,94.216 1073.62,94.866 1073.74,95.628C1074.11,95.719 1074.42,95.991 1074.53,96.488C1075,98.701 1074.43,100.885 1074,103.056C1073.53,105.484 1073.07,107.917 1072.64,110.353C1072.21,112.711 1071.69,115.045 1071.24,117.397C1071.03,118.46 1070.8,119.44 1070.34,120.427C1070.12,120.907 1069.85,121.367 1069.57,121.817C1074.47,124.301 1079.78,126.189 1085.28,126.608C1091.99,127.118 1098.77,126.407 1105.26,124.712C1105.37,124.684 1105.47,124.672 1105.57,124.669C1106.34,123.641 1107.47,122.981 1108.69,122.587C1110.64,121.956 1112.89,121.895 1115,122.179C1115.06,122.08 1115.13,121.982 1115.24,121.891C1117.29,120.078 1119.06,117.897 1120.13,115.361C1121.26,112.7 1121.38,109.695 1121.46,106.842C1121.54,103.907 1121.39,100.952 1120.91,98.055C1119.97,92.487 1117.85,87.251 1114.46,82.725C1109.52,76.141 1102.28,71.688 1094.59,69.026C1086.19,66.118 1077.23,65.075 1068.38,64.964C1059.52,64.854 1050.64,65.676 1041.91,67.148C1038.02,67.803 1034.16,68.587 1030.32,69.505C1030.28,69.514 1030.24,69.524 1030.21,69.533C1030.32,69.646 1030.44,69.754 1030.56,69.859C1030.61,69.897 1030.83,70.078 1030.85,70.095Z" style="fill-rule:nonzero;"/>
            <path d="M1106.07,143.188C1106.09,143.221 1106.11,143.247 1106.13,143.252C1106.12,143.237 1106.11,143.222 1106.1,143.207C1106.09,143.201 1106.08,143.193 1106.07,143.188C1106.08,143.188 1106.08,143.188 1106.07,143.188Z" style="fill-rule:nonzero;"/>
            <path d="M1106.09,143.184L1106.09,143.184L1106.09,143.183L1106.09,143.184Z" style="fill-rule:nonzero;"/>
            <path d="M1029.7,69.676C1029.68,69.731 1029.69,69.717 1029.72,69.668C1029.71,69.671 1029.71,69.674 1029.7,69.676Z" style="fill-rule:nonzero;"/>
            <path d="M1106.11,143.187C1106.11,143.187 1106.11,143.186 1106.11,143.186C1106.1,143.187 1106.1,143.187 1106.09,143.188L1106.09,143.189C1106.1,143.188 1106.11,143.188 1106.11,143.187Z" style="fill-rule:nonzero;"/>
            <path d="M1106.08,143.182L1106.08,143.182L1106.08,143.183L1106.08,143.185L1106.08,143.182Z" style="fill-rule:nonzero;"/>
            <path d="M1101.61,271.869C1101.02,268.537 1100.72,265.115 1099.58,261.909C1099.05,260.434 1098.29,259.005 1097.24,257.84C1096.85,257.42 1096.45,257.014 1096,256.686C1095.86,257.289 1095.66,257.883 1095.48,258.46C1095.1,259.705 1094.47,260.739 1093.76,261.821C1093.15,262.754 1092.46,263.639 1091.44,264.142C1090.94,264.389 1090.41,264.577 1089.88,264.725C1090.02,264.916 1090.1,265.166 1090.09,265.481C1090.04,266.379 1090.63,267.307 1090.91,268.149C1091.21,269.073 1091.52,269.991 1091.83,270.911C1092.11,271.744 1092.31,272.603 1092.61,273.43C1092.93,274.292 1093.46,274.962 1094.06,275.649C1094.57,276.239 1095.03,277.011 1095.81,277.255C1096.25,277.395 1096.74,277.392 1097.22,277.371C1097.29,277.36 1097.36,277.341 1097.43,277.333C1097.52,277.323 1097.62,277.332 1097.7,277.35C1097.77,277.347 1097.83,277.343 1097.89,277.341C1099.4,277.294 1101.02,277.631 1102.54,277.452C1102.7,275.609 1101.92,273.645 1101.61,271.869Z" style="fill-rule:nonzero;"/>
            <path d="M1093.68,254.934C1093.68,254.894 1093.68,254.865 1093.68,254.863C1093.65,254.88 1093.66,254.906 1093.68,254.934Z" style="fill-rule:nonzero;"/>
            <path d="M1079.1,198.215C1077.81,202.865 1075.87,207.303 1073.23,211.382C1071.29,214.378 1069.05,217.177 1066.66,219.828C1064.18,222.596 1061.23,224.691 1058.32,226.985C1055.39,229.303 1052.86,232.032 1051.22,235.429C1049.92,238.117 1048.48,240.715 1046.56,243.012C1043.68,246.447 1039.81,248.53 1035.4,249.192C1030.22,249.97 1024.91,249.515 1019.7,249.434C1011.12,249.299 1002.53,249.409 993.955,249.411C987.795,249.412 980.776,249.222 976.43,244.159C975.106,242.617 974.138,240.798 973.123,239.047C972.101,237.282 970.954,235.579 970.115,233.715C969.38,232.082 968.968,230.324 968.063,228.771C967.228,227.338 966.125,226.11 964.956,224.944C963.663,223.653 962.348,222.326 960.901,221.205C959.448,220.08 957.861,219.131 956.273,218.214C953.082,216.372 949.775,214.649 947.032,212.15C943.428,208.866 941.27,204.516 938.759,200.42C939.529,204.45 940.879,208.374 942.554,212.129C942.585,212.145 942.617,212.154 942.649,212.173C943.103,212.432 943.364,213.079 943.233,213.606C943.546,214.267 943.865,214.924 944.195,215.573C944.914,216.988 945.65,218.394 946.394,219.795C946.889,220.013 947.11,220.546 947.067,221.054C950.897,228.184 955.03,235.152 959.426,241.946C960.39,243.437 961.416,244.865 962.529,246.221C963.132,246.245 963.698,246.642 963.661,247.419C963.659,247.453 963.65,247.484 963.647,247.517C964.399,248.354 965.188,249.163 966.028,249.934C968.403,252.112 971.061,253.954 973.895,255.486C979.727,258.639 986.225,260.396 992.76,261.344C999.572,262.332 1006.52,262.404 1013.38,262.047C1019.97,261.704 1026.53,260.932 1033.05,259.949C1039.5,258.977 1046.11,257.893 1051.76,254.45C1056.51,251.559 1059.86,247.159 1062.72,242.395C1064.48,239.467 1066.07,236.446 1067.68,233.436C1069.46,230.116 1071.08,226.713 1072.52,223.231C1075.63,215.655 1078.12,207.636 1078.98,199.461C1079.03,199.048 1079.06,198.632 1079.1,198.215Z" style="fill-rule:nonzero;"/>
            <path d="M1097.34,279.853C1096.44,280.029 1095.83,281.457 1095.38,282.102C1094.58,283.251 1093.58,284.255 1092.83,285.438C1092.08,286.61 1091.66,287.942 1091.28,289.268C1091.05,290.06 1090.57,291.119 1090.64,292.024C1091.77,291.78 1092.79,291.213 1093.68,290.468C1094.92,289.445 1096.12,288.279 1097.12,287.025C1098.22,285.653 1099.12,284.13 1100.13,282.693C1100.74,281.83 1101.36,280.951 1101.71,279.974C1100.34,279.98 1098.95,279.801 1097.59,279.848C1097.51,279.851 1097.42,279.851 1097.34,279.853Z" style="fill-rule:nonzero;"/>
            <path d="M1086.63,250.768C1085.54,250.119 1084.49,249.401 1083.4,248.747C1082.28,248.078 1081.14,247.45 1080.03,246.771C1078.97,246.12 1077.98,245.362 1076.87,244.778C1075.84,244.233 1074.82,243.661 1073.8,243.105C1071.8,242.03 1069.7,241.007 1067.39,240.955C1067.07,240.948 1066.81,240.839 1066.62,240.674C1065.38,242.907 1064.07,245.105 1062.62,247.192C1063.12,247.31 1063.56,247.694 1063.59,248.352C1063.61,248.79 1064.08,249.189 1064.37,249.472C1064.82,249.903 1065.29,250.312 1065.76,250.707C1066.76,251.539 1067.89,252.103 1068.97,252.814C1070.12,253.569 1071.21,254.404 1072.37,255.147C1073.58,255.926 1074.78,256.733 1075.94,257.59C1079.53,260.235 1083.97,263.49 1088.72,262.455C1089.64,262.256 1090.55,261.956 1091.16,261.207C1091.77,260.459 1092.38,259.527 1092.77,258.649C1093.18,257.734 1093.55,256.565 1093.68,255.574C1093.7,255.465 1093.68,255.131 1093.68,254.963C1093.31,254.72 1092.99,254.356 1092.63,254.097C1090.76,252.761 1088.6,251.938 1086.63,250.768Z" style="fill-rule:nonzero;"/>
            <path d="M1139.89,201.041C1138.9,203.469 1137.49,205.817 1137.04,208.425C1136.84,209.604 1136.56,210.721 1136.18,211.853C1136.09,212.136 1135.98,212.438 1135.86,212.733C1136.41,212.852 1136.95,213.08 1137.46,213.46C1138.05,213.899 1138.62,214.355 1139.1,214.887C1139.19,214.475 1139.28,214.062 1139.36,213.65C1139.7,211.941 1140,210.216 1140.27,208.494C1140.51,206.888 1140.6,205.285 1140.58,203.661C1140.56,202.292 1140.46,200.913 1140.56,199.546C1140.29,200.022 1140.08,200.583 1139.89,201.041Z" style="fill-rule:nonzero;"/>
            <path d="M1064.16,280.472C1064.76,277.985 1065,275.4 1065.01,272.843C1065.01,271.588 1064.94,270.328 1064.69,269.096C1064.43,267.838 1063.96,266.641 1063.49,265.453C1062.98,264.202 1062.43,262.971 1061.84,261.758C1061.32,260.7 1060.83,259.673 1060.05,258.782C1059.33,257.955 1058.55,257.151 1058.03,256.176C1057.73,255.604 1057.47,254.57 1056.76,254.404C1056.59,254.363 1056.45,254.295 1056.33,254.211C1053.82,256.254 1051.01,257.839 1048,259.036C1048.05,259.239 1048.06,259.452 1047.99,259.657C1047.72,260.383 1047.57,261.128 1047.41,261.88C1047.26,262.609 1047.06,263.28 1047.05,264.031C1047.03,265.439 1046.9,266.926 1047.07,268.326C1047.23,269.699 1047.84,270.931 1048.44,272.153C1049.12,273.506 1049.83,274.838 1050.5,276.194C1051.11,277.421 1051.73,278.637 1052.36,279.851C1052.98,281.052 1053.54,282.322 1054.29,283.449C1054.94,284.42 1055.76,285.264 1056.52,286.146C1057.27,287.021 1057.99,287.907 1058.95,288.575C1059.43,288.91 1059.94,289.224 1060.49,289.432C1060.54,289.451 1060.87,289.565 1061.11,289.632C1061.14,289.559 1061.18,289.488 1061.22,289.415C1061.22,289.404 1061.31,289.096 1061.34,288.999C1061.45,288.633 1061.54,288.26 1061.66,287.898C1062.5,285.413 1063.54,283.028 1064.16,280.472Z" style="fill-rule:nonzero;"/>
            <path d="M1141.19,198.744C1141.25,198.745 1141.21,198.696 1141.22,198.727C1141.22,198.721 1141.23,198.711 1141.19,198.744Z" style="fill-rule:nonzero;"/>
            <path d="M1115.78,235.767C1117.12,235.765 1118.39,235.73 1119.7,235.381C1120.98,235.04 1122.19,234.525 1123.39,233.958C1124.54,233.409 1125.73,232.879 1126.77,232.132C1128.56,230.849 1130.07,229.146 1131.77,227.744C1133.44,226.371 1134.87,224.864 1136.25,223.209C1137.34,221.913 1138.43,220.351 1138.16,218.57C1138.02,217.627 1137.59,216.745 1136.85,216.136C1136.13,215.542 1135.56,214.998 1134.57,215.115C1133.57,215.234 1132.62,215.715 1131.74,216.172C1130.73,216.694 1129.77,217.277 1128.87,217.968C1127.1,219.33 1125.53,220.958 1123.97,222.552C1120.66,225.929 1116.95,228.865 1113.6,232.204C1113.67,233.436 1113.27,234.713 1112.64,235.785C1113.69,235.778 1114.73,235.769 1115.78,235.767Z" style="fill-rule:nonzero;"/>
            <path d="M1061.07,289.71C1061.06,289.714 1061.05,289.718 1061.06,289.719C1061.02,289.708 1061.03,289.775 1061.07,289.71Z" style="fill-rule:nonzero;"/>
            <path d="M931.283,273.306C931.576,272.476 931.769,271.615 932.045,270.78C932.362,269.819 932.671,268.856 932.978,267.891C933.237,267.076 933.792,266.202 933.736,265.334C933.717,265.034 933.788,264.791 933.918,264.604C933.275,264.437 932.653,264.199 932.093,263.873C931.079,263.282 930.441,262.334 929.806,261.379C929.033,260.218 928.475,259.079 928.088,257.734C927.981,257.362 927.863,256.977 927.761,256.586C927.115,257.038 926.529,257.703 926.067,258.308C924.061,260.934 923.419,264.339 922.923,267.527C922.666,269.177 922.459,270.835 922.161,272.479C921.872,274.074 921.247,275.783 921.396,277.431C922.921,277.597 924.536,277.242 926.054,277.277C926.113,277.278 926.174,277.282 926.234,277.284C926.324,277.265 926.417,277.256 926.512,277.265C926.584,277.272 926.65,277.291 926.721,277.301C927.2,277.318 927.687,277.316 928.132,277.169C928.907,276.913 929.362,276.137 929.866,275.542C930.453,274.847 930.977,274.171 931.283,273.306Z" style="fill-rule:nonzero;"/>
            <path d="M1061.23,289.661C1061.29,289.676 1061.34,289.683 1061.34,289.672C1061.36,289.64 1061.3,289.645 1061.23,289.661Z" style="fill-rule:nonzero;"/>
            <path d="M926.597,279.781C926.482,279.779 926.365,279.778 926.251,279.775C924.921,279.742 923.571,279.927 922.234,279.936C922.616,280.952 923.28,281.86 923.916,282.749C924.916,284.145 925.813,285.628 926.9,286.959C927.933,288.223 929.164,289.425 930.446,290.436C931.338,291.139 932.331,291.666 933.424,291.892C933.432,291.598 933.364,291.3 933.275,290.973C933.099,290.32 932.91,289.669 932.716,289.021C932.33,287.734 931.902,286.45 931.165,285.316C930.38,284.108 929.339,283.09 928.515,281.908C928.075,281.277 927.48,279.946 926.597,279.781Z" style="fill-rule:nonzero;"/>
            <path d="M938.329,262.342C940.735,262.01 943.106,260.66 945.11,259.348C946.197,258.637 947.184,257.791 948.229,257.021C949.289,256.241 950.376,255.5 951.478,254.781C952.529,254.096 953.517,253.333 954.55,252.622C955.542,251.938 956.622,251.42 957.564,250.658C958.312,250.053 959.014,249.394 959.751,248.775C960.078,248.5 960.4,248.216 960.699,247.911C959.386,246.314 958.187,244.625 957.057,242.874C956.585,242.143 956.121,241.406 955.655,240.671C953.132,240.916 950.853,242.244 948.682,243.47C947.482,244.148 946.257,244.771 945.115,245.547C943.9,246.373 942.652,247.123 941.391,247.878C939.202,249.189 937.113,250.647 934.843,251.818C933.792,252.36 932.732,252.893 931.739,253.538C931.248,253.857 930.788,254.204 930.348,254.59C930.329,254.607 930.11,254.817 930.028,254.876C930.021,254.991 930.025,255.121 930.027,255.194C930.044,255.757 930.277,256.315 930.43,256.852C930.573,257.354 930.708,257.866 930.906,258.35C931.278,259.262 931.92,260.169 932.518,260.951C933.78,262.599 936.469,262.598 938.329,262.342Z" style="fill-rule:nonzero;"/>
            <path d="M963.957,289.913C963.976,289.945 963.992,289.97 963.994,289.969C963.994,289.969 963.976,289.936 963.957,289.913Z" style="fill-rule:nonzero;"/>
            <path d="M1024.46,311.461C1024.54,311.506 1024.62,311.551 1024.7,311.595C1024.7,311.6 1024.71,311.602 1024.71,311.606C1024.73,311.61 1024.74,311.612 1024.76,311.619C1024.87,311.65 1024.97,311.683 1025.08,311.709C1025.19,311.738 1025.31,311.761 1025.42,311.78C1025.46,311.785 1025.47,311.788 1025.49,311.792C1025.52,311.793 1025.55,311.795 1025.62,311.8C1027.08,311.916 1028.6,311.772 1030.06,311.637C1036.31,311.06 1042.53,309.179 1047.85,305.804C1053,302.533 1057.08,297.777 1059.27,292.072C1059.24,291.922 1059.24,291.768 1059.26,291.615C1058.39,291.219 1057.56,290.655 1056.96,290.18C1055.94,289.366 1055.14,288.354 1054.29,287.376C1054.09,287.575 1053.81,287.709 1053.45,287.712C1052.19,287.724 1051.39,287.866 1050.16,288.113C1048.72,288.404 1047.3,288.782 1045.9,289.213C1042.82,290.157 1039.8,291.343 1036.97,292.895C1035.9,293.482 1034.71,294.214 1033.84,294.91C1033.07,295.535 1032.35,296.256 1031.95,296.896C1030.05,299.975 1028.13,303.06 1026.32,306.19C1025.69,307.282 1025.01,308.486 1024.63,309.553C1024.53,309.815 1024.45,310.081 1024.38,310.351C1024.36,310.456 1024.34,310.561 1024.32,310.667C1024.31,310.682 1024.31,310.686 1024.31,310.697C1024.31,310.709 1024.31,310.715 1024.31,310.732C1024.31,310.789 1024.31,311.008 1024.31,311.102C1024.32,311.159 1024.34,311.263 1024.36,311.339C1024.37,311.355 1024.38,311.37 1024.39,311.386C1024.4,311.393 1024.41,311.4 1024.42,311.407C1024.45,311.401 1024.57,311.439 1024.45,311.446C1024.46,311.445 1024.45,311.428 1024.42,311.407C1024.4,311.413 1024.4,311.426 1024.46,311.461Z" style="fill-rule:nonzero;"/>
            <path d="M926.511,224.835C923.788,225.614 921.115,226.563 918.498,227.646C917.132,228.211 915.784,228.822 914.45,229.459C913.751,229.793 913.056,230.135 912.364,230.484C911.935,230.701 911.473,230.892 911.129,231.23C910.63,231.72 910.518,232.364 910.634,232.996C910.789,233.842 911.177,234.587 911.709,235.271C913.144,237.112 915.238,237.492 917.461,237.996C928.336,240.458 940.256,238.348 949.919,232.899C950.233,232.722 950.538,232.698 950.81,232.769C950.173,231.693 949.542,230.612 948.918,229.528C947.528,227.109 946.166,224.671 944.843,222.212C938.638,222.324 932.488,223.125 926.511,224.835Z" style="fill-rule:nonzero;"/>
            <path d="M977.796,267.46C977.804,266.76 977.728,266.065 977.725,265.366C977.723,264.77 977.765,264.169 977.71,263.575C977.648,262.902 977.408,262.226 977.264,261.565C977.126,260.937 976.973,260.32 976.751,259.716C976.737,259.677 976.733,259.637 976.724,259.597C973.583,258.256 970.584,256.6 967.823,254.599C967.135,254.869 966.866,256.033 966.525,256.617C965.889,257.704 964.935,258.541 964.202,259.553C963.38,260.686 962.842,262.086 962.274,263.358C961.679,264.693 961.13,266.051 960.651,267.432C959.796,269.895 959.756,272.491 959.935,275.067C960.114,277.657 960.545,280.159 961.325,282.638C962.03,284.879 962.976,287.031 963.684,289.269C963.749,289.475 963.789,289.6 963.856,289.736C963.86,289.744 963.871,289.764 963.885,289.788C964.084,289.711 964.33,289.683 964.524,289.606C965.615,289.172 966.578,288.404 967.38,287.559C969.016,285.836 970.544,283.96 971.611,281.835C972.832,279.403 974.026,276.957 975.252,274.528C976.384,272.284 977.768,270.045 977.796,267.46Z" style="fill-rule:nonzero;"/>
            <path d="M979.305,307.029C984.883,310.012 991.232,311.475 997.532,311.686C998.246,311.71 998.973,311.745 999.685,311.661C999.726,311.654 999.821,311.64 999.848,311.635C999.945,311.616 1000.04,311.597 1000.14,311.572C1000.24,311.545 1000.35,311.512 1000.45,311.479C1000.47,311.473 1000.48,311.471 1000.49,311.468C1000.5,311.462 1000.5,311.46 1000.51,311.452C1000.6,311.405 1000.68,311.356 1000.76,311.304C1000.77,311.292 1000.78,311.282 1000.79,311.273C1000.8,311.265 1000.8,311.257 1000.81,311.249C1000.81,311.259 1000.84,311.186 1000.86,311.129C1000.87,311.099 1000.88,311.07 1000.89,311.039C1000.89,311.031 1000.89,311.03 1000.89,311.023C1000.89,310.875 1000.89,310.73 1000.88,310.584C1000.87,310.518 1000.84,310.349 1000.83,310.311C1000.81,310.202 1000.78,310.093 1000.75,309.985C1000.68,309.749 1000.59,309.517 1000.51,309.287C1000.37,308.936 1000.14,308.463 999.914,308.013C999.213,306.649 998.404,305.342 997.593,304.043C996.593,302.441 995.572,300.852 994.581,299.245C994.085,298.441 993.617,297.617 993.115,296.818C993.069,296.744 992.836,296.424 992.838,296.417C992.697,296.243 992.547,296.076 992.392,295.914C990.745,294.206 988.47,293.005 986.262,291.962C983.677,290.742 980.965,289.776 978.213,289.01C975.934,288.376 973.769,287.835 971.531,287.833C971.178,287.833 970.907,287.708 970.709,287.52C970.311,287.988 969.908,288.453 969.511,288.919C968.629,289.953 967.523,290.871 966.321,291.509C966.147,291.601 965.958,291.695 965.764,291.786C965.785,291.934 965.782,292.085 965.755,292.231C968.293,298.676 973.221,303.776 979.305,307.029Z" style="fill-rule:nonzero;"/>
            <path d="M978.125,97.477C978.119,97.467 978.111,97.461 978.106,97.448L978.106,97.455C978.108,97.459 978.11,97.463 978.113,97.467C978.115,97.469 978.121,97.474 978.125,97.477Z" style="fill-rule:nonzero;"/>
            <path d="M1071.82,233.184C1077.35,236.239 1083.55,238.161 1089.83,238.808C1095.41,239.382 1101.1,239.012 1106.49,237.409C1107.49,237.112 1108.28,236.893 1109.06,236.234C1109.77,235.634 1110.35,234.892 1110.75,234.049C1111.08,233.336 1111.23,232.523 1111.05,231.917C1110.96,231.61 1110.83,231.399 1110.58,231.158C1110.21,230.811 1109.68,230.598 1109.22,230.37C1104.05,227.823 1098.66,225.726 1093.05,224.363C1087.38,222.985 1081.58,222.416 1075.75,222.434C1075.67,222.434 1075.59,222.424 1075.52,222.411C1074.07,226.081 1072.42,229.675 1070.62,233.185C1070.95,232.985 1071.38,232.94 1071.82,233.184Z" style="fill-rule:nonzero;"/>
            <path d="M957.542,86.99C956.852,86.974 956.153,86.798 955.527,86.559C953.738,85.877 951.953,84.27 950.191,85.908C948.917,87.093 948.486,88.978 948.277,90.64C948.23,91.012 948.202,91.386 948.175,91.76C948.481,91.596 948.785,91.433 949.083,91.268C951.849,89.739 954.686,88.344 957.542,86.99Z" style="fill-rule:nonzero;"/>
            <path d="M1113.08,209.572C1113.1,209.566 1113.12,209.555 1113.15,209.551C1113.79,209.445 1114.29,209.031 1114.8,208.661C1115.37,208.257 1116,207.946 1116.52,207.491C1117.68,206.491 1118.9,205.556 1120.05,204.538C1121.21,203.509 1122.29,202.405 1123.34,201.274C1124.39,200.161 1125.48,199.078 1126.4,197.859C1127.28,196.691 1127.93,195.37 1128.71,194.131C1129.48,192.888 1130.31,191.675 1131.11,190.449C1132.7,188.011 1134.24,185.5 1135.48,182.861C1136.05,181.639 1136.71,180.304 1136.91,178.958C1137.09,177.8 1136.59,176.835 1135.85,175.983C1135.13,175.156 1134.27,174.405 1133.27,173.936C1133.08,173.842 1132.88,173.787 1132.69,173.759C1132.35,174.095 1131.79,174.186 1131.33,174.026C1131.19,174.095 1131.06,174.17 1130.91,174.256C1128.87,175.499 1127.31,177.644 1125.95,179.562C1124.33,181.857 1122.91,184.289 1121.43,186.674C1119.91,189.128 1118.23,191.459 1116.93,194.05C1116.34,195.236 1115.85,196.476 1115.25,197.659C1115.03,198.106 1114.77,198.537 1114.55,198.988C1114.46,199.184 1114.38,199.376 1114.31,199.586C1114.28,199.713 1114.27,200.03 1114.23,199.749C1114.31,200.321 1114.13,200.892 1113.63,201.168C1113.87,201.805 1113.94,202.52 1113.97,203.181C1114.03,204.659 1113.77,206.142 1113.51,207.591C1113.38,208.27 1113.25,208.934 1113.08,209.572Z" style="fill-rule:nonzero;"/>
            <path d="M1134.33,152.436C1134.22,153.124 1134.21,153.826 1134.13,154.517C1134.03,155.373 1133.85,156.22 1133.79,157.081C1133.67,158.834 1133.56,160.579 1133.37,162.328C1133.18,164.075 1132.95,165.82 1132.93,167.58C1132.92,168.805 1132.97,170.029 1133,171.254C1134.52,171.458 1135.99,172.481 1137.13,173.669C1137.14,170.762 1137.15,167.855 1137.13,164.949C1137.12,163.183 1137.13,161.44 1136.8,159.7C1136.48,158.053 1136.21,156.334 1135.67,154.744C1135.34,153.788 1134.91,152.799 1134.43,151.895C1134.39,152.076 1134.35,152.26 1134.33,152.436Z" style="fill-rule:nonzero;"/>
            <path d="M980.888,75.077C980.507,74.956 980.128,74.802 979.741,74.615C978.88,74.199 978.015,73.633 977.026,73.636C976.044,73.639 975.123,73.843 974.221,74.2C974.203,74.207 974.172,74.231 974.145,74.253C974.12,74.289 974.091,74.332 974.085,74.35C974.075,74.381 973.989,74.633 973.94,74.806C973.797,75.314 973.697,75.832 973.572,76.344C973.17,77.991 972.053,80.111 970.212,80.443C968.598,80.734 967.359,79.47 965.982,78.882C965.285,78.584 964.375,78.374 963.666,78.501C963.017,78.617 962.643,78.946 962.309,79.483C961.383,80.969 961.276,82.781 960.815,84.45C960.686,84.917 960.489,85.352 960.221,85.727C965.377,83.304 970.53,80.899 975.524,78.14C977.326,77.145 979.106,76.108 980.888,75.077Z" style="fill-rule:nonzero;"/>
            <path d="M1133.98,151.164C1133.91,151.097 1133.88,151.158 1133.98,151.164Z" style="fill-rule:nonzero;"/>
            <path d="M969.672,78.015C969.672,78.015 969.671,78.014 969.67,78.014C969.647,78.017 969.643,78.018 969.672,78.015Z" style="fill-rule:nonzero;"/>
            <path d="M905.659,151.458C905.801,152.156 905.984,152.845 906.194,153.526C906.642,154.977 907.193,156.354 907.804,157.703C909.089,160.542 910.603,163.27 912.123,165.988C912.714,167.044 913.311,168.097 913.868,169.17C914.637,170.65 915.17,172.225 915.837,173.75C916.844,176.055 918.481,178.02 919.901,180.078C921.292,182.093 922.859,183.977 924.573,185.725C925.397,186.566 926.254,187.374 927.138,188.152C928.053,188.957 928.965,189.767 930.075,190.296C931.788,191.113 933.745,191.186 935.629,191.175C935.778,188.527 936.223,185.899 937.028,183.348C938.699,178.052 941.825,173.343 945.873,169.577C945.135,169.266 944.586,168.568 944.049,168.006C943.354,167.279 942.448,166.77 941.59,166.253C940.564,165.635 939.507,165.069 938.436,164.534C936.26,163.449 934.022,162.497 931.798,161.514C928.01,159.839 923.853,158.156 920.957,155.091C918.699,152.702 916.962,149.875 914.704,147.486C913.77,146.498 912.636,145.5 911.574,145.046C910.305,144.504 909.224,144.516 907.905,145.056C907.549,145.201 906.913,145.602 906.725,145.777C906.61,145.883 906.497,145.991 906.392,146.107C906.363,146.139 906.275,146.246 906.235,146.293C906.201,146.347 906.088,146.513 906.068,146.546C906.006,146.647 905.948,146.75 905.893,146.855C905.857,146.924 905.824,146.995 905.791,147.066C905.79,147.068 905.79,147.068 905.79,147.069C905.748,147.182 905.707,147.296 905.671,147.411C905.592,147.665 905.54,147.924 905.487,148.184C905.481,148.211 905.477,148.238 905.473,148.261C905.466,148.324 905.458,148.388 905.453,148.451C905.443,148.583 905.433,148.714 905.428,148.846C905.416,149.138 905.418,149.431 905.433,149.724C905.468,150.459 905.509,150.721 905.659,151.458Z" style="fill-rule:nonzero;"/>
            <path d="M899.987,87.217C897.411,92.535 896.353,98.494 896.299,104.371C896.273,107.197 896.276,110.164 897.225,112.857C898.17,115.54 899.925,117.886 901.977,119.825C902.38,120.206 902.429,120.663 902.28,121.056C904.674,120.796 907.271,120.865 909.35,122.094C909.896,122.417 910.33,122.815 910.69,123.267C910.959,122.995 911.356,122.857 911.841,123C914.927,123.917 918.076,124.625 921.266,125.063C927.403,125.906 933.696,125.936 939.699,124.288C942.683,123.469 945.556,122.329 948.341,120.995C948.028,120.461 947.729,119.92 947.482,119.352C947.047,118.353 946.848,117.369 946.68,116.297C946.308,113.931 945.86,111.581 945.516,109.21C945.162,106.761 944.79,104.314 944.397,101.871C944.047,99.694 943.525,97.48 944.071,95.289C944.146,94.99 944.296,94.774 944.485,94.629C944.656,94.19 944.966,93.786 945.392,93.46C945.459,93.409 945.532,93.365 945.6,93.316C945.658,89.653 946.129,85.664 949.206,83.518C950.258,82.785 951.488,82.526 952.746,82.736C953.844,82.92 954.812,83.486 955.795,83.975C956.345,84.248 957.577,84.821 958.137,84.373C958.385,84.175 958.442,83.675 958.507,83.362C958.604,82.896 958.67,82.425 958.782,81.962C959.19,80.27 959.716,78.305 961.065,77.103C962.682,75.663 964.974,75.775 966.871,76.569C967.643,76.892 968.333,77.334 969.064,77.734C969.154,77.783 969.244,77.831 969.335,77.877C969.364,77.891 969.571,77.98 969.46,77.937C969.52,77.96 969.627,78.001 969.67,78.015C969.673,78.015 969.674,78.014 969.677,78.014C969.67,78.01 969.664,78.007 969.645,77.999C969.51,77.939 969.662,78.007 969.73,78C969.845,77.99 969.734,78.006 969.677,78.014C969.677,78.014 969.678,78.015 969.679,78.015C969.686,78.014 969.689,78.014 969.699,78.013C969.757,78.006 969.787,78.005 969.801,78.006C969.8,78 969.808,77.986 969.857,77.954C970.401,77.597 970.897,76.698 971.081,76.016C971.329,75.099 971.451,74.14 971.849,73.27C972.679,71.456 975.44,71.065 977.219,71.145C978.349,71.196 979.362,71.636 980.358,72.138C981.034,72.479 981.854,72.997 982.647,72.872C983.157,72.791 983.668,72.93 983.969,73.316C984.016,73.289 984.063,73.262 984.111,73.235C985.315,72.56 986.555,71.96 987.709,71.196C987.902,71.068 988.092,70.936 988.279,70.8C988.308,70.779 988.318,70.771 988.335,70.759C988.402,70.706 988.469,70.651 988.535,70.595C988.61,70.531 988.68,70.463 988.752,70.395C987.063,69.889 985.334,69.483 983.622,69.068C979.537,68.076 975.416,67.229 971.27,66.536C962.354,65.045 953.276,64.254 944.233,64.592C935.581,64.915 926.73,66.275 918.768,69.819C910.76,73.381 903.85,79.244 899.987,87.217Z" style="fill-rule:nonzero;"/>
            <path d="M969.449,77.931C969.454,77.933 969.456,77.934 969.46,77.935C969.443,77.928 969.429,77.923 969.423,77.921C969.427,77.923 969.435,77.926 969.449,77.931Z" style="fill-rule:nonzero;"/>
            <path d="M929.082,200.47C927.602,200.39 926.138,200.126 924.656,200.077C923.177,200.029 921.697,200.138 920.218,200.128C917.723,200.112 915.215,199.916 912.771,200.531C911.546,200.84 910.306,200.939 909.049,201.005C908.847,201.016 908.638,201.017 908.437,201.049C908.437,201.054 908.314,201.087 908.243,201.103C908.229,201.119 908.157,201.159 908.145,201.155C908.14,201.16 908.135,201.166 908.13,201.171C908.149,201.187 908.037,201.505 908.039,201.495C907.785,202.606 907.945,203.862 908.125,204.973C908.305,206.083 908.494,207.214 908.783,208.301C909.288,210.197 910.487,211.315 912.448,211.593C913.498,211.742 914.561,211.757 915.608,211.936C916.824,212.144 918.007,212.46 919.237,212.61C921.829,212.927 924.432,213.343 927.036,213.534C928.378,213.632 929.722,213.599 931.066,213.592C932.412,213.584 933.768,213.63 935.113,213.566C936.254,213.512 937.363,213.286 938.466,213.004C938.971,212.875 939.471,212.767 939.984,212.674C940.008,212.67 940.039,212.666 940.065,212.661C938.818,209.807 937.758,206.869 936.981,203.855C936.798,203.143 936.634,202.425 936.483,201.704C935.301,201.709 934.264,200.856 933.113,200.635C931.792,200.381 930.419,200.542 929.082,200.47Z" style="fill-rule:nonzero;"/>
            <path d="M880.229,199.072L880.235,199.072C880.208,199.045 880.205,199.045 880.197,199.055C880.208,199.061 880.215,199.065 880.229,199.072Z" style="fill-rule:nonzero;"/>
            <path d="M880.901,205.207C880.94,206.829 881.166,208.419 881.455,210.014C881.731,211.537 882.002,213.066 882.331,214.579C882.373,214.772 882.414,214.966 882.456,215.159C882.543,215.061 882.633,214.965 882.727,214.876C883.485,214.159 884.459,213.293 885.484,213.016C885.542,213 885.601,212.992 885.659,212.979C885.485,212.56 885.35,212.124 885.225,211.741C885.04,211.177 884.836,210.619 884.707,210.039C884.529,209.239 884.449,208.42 884.231,207.628C883.835,206.187 883.13,204.758 882.469,203.421C882.044,202.561 881.708,201.666 881.308,200.795C881.177,200.51 881.035,200.224 880.88,199.945C880.898,200.143 880.915,200.34 880.922,200.538C880.977,202.093 880.864,203.651 880.901,205.207Z" style="fill-rule:nonzero;"/>
            <path d="M1029.69,69.68C1029.54,69.735 1029.63,69.831 1029.69,69.68Z" style="fill-rule:nonzero;"/>
            <path d="M1134.73,151.173C1135.05,151.057 1134.73,151.035 1134.73,151.173Z" style="fill-rule:nonzero;"/>
            <path d="M884.621,184.029C886.019,186.615 887.637,189.067 889.276,191.504C890.864,193.865 892.153,196.442 894.073,198.557C895.943,200.617 897.89,202.641 900.024,204.43C901.053,205.293 902.095,206.177 903.161,206.992C903.68,207.388 904.279,207.686 904.815,208.063C905.292,208.398 905.744,208.736 906.329,208.829C906.346,208.832 906.359,208.84 906.375,208.843C906.26,208.429 906.158,208.007 906.075,207.575C905.812,206.209 905.535,204.835 905.457,203.443C905.404,202.503 905.399,201.375 905.746,200.439C905.255,200.161 905.076,199.591 905.157,199.024C905.114,199.322 905.062,198.844 905.01,198.704C904.922,198.468 904.806,198.245 904.69,198.022C904.456,197.572 904.192,197.139 903.973,196.681C903.276,195.227 902.631,193.755 901.859,192.337C900.348,189.56 898.439,187.004 896.766,184.322C895.317,181.998 893.876,179.647 892.159,177.508C891.402,176.565 890.607,175.637 889.715,174.817C889.183,174.327 888.548,173.784 887.852,173.454C887.385,173.631 886.81,173.544 886.45,173.194C885.799,173.312 885.177,173.758 884.681,174.142C883.826,174.806 883.003,175.668 882.525,176.649C881.953,177.824 882.381,179.075 882.826,180.217C883.337,181.526 883.952,182.794 884.621,184.029Z" style="fill-rule:nonzero;"/>
            <path d="M886.125,170.726C886.156,169.226 886.207,167.725 886.135,166.226C886.043,164.301 885.734,162.385 885.527,160.47C885.342,158.759 885.326,157.021 885.05,155.323C884.91,154.464 884.804,153.608 884.73,152.742C884.691,152.288 884.648,151.807 884.527,151.358C884.445,151.521 884.365,151.685 884.3,151.831C883.778,152.998 883.265,154.168 882.975,155.418C882.598,157.045 882.226,158.746 882.036,160.406C881.831,162.191 881.939,164.036 881.948,165.831C881.96,168.286 881.991,170.741 882.018,173.196C882.932,172.262 884.016,171.456 885.231,170.968C885.528,170.847 885.827,170.77 886.125,170.726Z" style="fill-rule:nonzero;"/>
            <path d="M886.389,224.637C887.879,226.329 889.577,227.664 891.285,229.122C892.977,230.566 894.44,232.227 896.46,233.233C898.549,234.273 900.702,235.315 903.015,235.739C904.219,235.96 905.453,235.879 906.67,235.873C907.498,235.869 908.326,235.868 909.153,235.867C908.451,234.733 908.035,233.476 908.095,232.275C906.228,230.444 904.246,228.738 902.279,227.015C900.249,225.237 898.325,223.371 896.403,221.478C894.801,219.9 893.141,218.338 891.208,217.169C890.272,216.603 889.263,216.063 888.228,215.705C887.406,215.421 886.474,215.154 885.702,215.669C884.961,216.164 884.228,216.765 883.838,217.579C883.467,218.354 883.301,219.271 883.467,220.121C883.819,221.915 885.226,223.316 886.389,224.637Z" style="fill-rule:nonzero;"/>
            <path d="M978.148,97.492L978.149,97.492L978.145,97.488L978.148,97.492Z" style="fill-rule:nonzero;"/>
            <path d="M978.128,97.471C978.121,97.464 978.113,97.457 978.111,97.454C978.116,97.459 978.122,97.468 978.128,97.474L978.128,97.471Z" style="fill-rule:nonzero;"/>
            <path d="M978.106,97.447L978.106,97.448L978.112,97.453L978.106,97.447Z" style="fill-rule:nonzero;"/>
            <path d="M978.128,97.482L978.128,97.479L978.125,97.477L978.128,97.482Z" style="fill-rule:nonzero;"/>
            <path d="M978.105,97.447L978.106,97.448L978.105,97.447Z" style="fill-rule:nonzero;"/>
            <path d="M1039.84,96.996C1039.85,96.994 1039.86,96.986 1039.87,96.98C1039.79,97 1039.71,97.023 1039.84,96.996Z" style="fill-rule:nonzero;"/>
            <path d="M978.096,97.439C978.07,97.417 978.064,97.423 978.104,97.46C978.104,97.458 978.104,97.456 978.105,97.454C978.102,97.449 978.099,97.444 978.096,97.439Z" style="fill-rule:nonzero;"/>
            <path d="M978.128,97.495C978.127,97.492 978.125,97.489 978.123,97.486C978.123,97.486 978.121,97.485 978.122,97.485C978.119,97.479 978.115,97.473 978.112,97.466C978.11,97.464 978.106,97.461 978.105,97.46C978.104,97.474 978.104,97.487 978.105,97.5C978.113,97.502 978.12,97.504 978.127,97.506C978.128,97.502 978.128,97.499 978.128,97.495Z" style="fill-rule:nonzero;"/>
            <path d="M978.141,97.49L978.143,97.49C978.138,97.484 978.133,97.478 978.128,97.473L978.128,97.479C978.132,97.483 978.137,97.487 978.141,97.49Z" style="fill-rule:nonzero;"/>
            <path d="M978.129,97.447C978.138,97.352 978.117,97.382 978.107,97.435C978.113,97.443 978.122,97.455 978.128,97.465C978.129,97.459 978.128,97.452 978.129,97.447Z" style="fill-rule:nonzero;"/>
            <path d="M978.181,97.52L978.172,97.515L978.177,97.519L978.181,97.52Z" style="fill-rule:nonzero;"/>
            <path d="M978.147,97.511C978.211,97.583 978.295,97.574 978.187,97.522C978.185,97.521 978.185,97.521 978.184,97.52C978.183,97.52 978.182,97.52 978.181,97.519C978.188,97.525 978.199,97.535 978.202,97.537C978.19,97.529 978.188,97.525 978.178,97.518C978.174,97.517 978.17,97.516 978.166,97.515C978.168,97.518 978.169,97.519 978.171,97.522C978.169,97.519 978.168,97.518 978.165,97.515C978.158,97.514 978.153,97.513 978.147,97.511Z" style="fill-rule:nonzero;"/>
            <path d="M977.539,97.433C976.61,97.436 975.652,97.704 974.673,97.926C969.544,99.086 964.45,100.527 959.181,100.892C956.628,101.069 954.02,100.968 951.527,100.35C950.307,100.048 949.116,99.604 947.996,99.034C947.451,98.757 946.866,98.436 946.319,98.063C946.397,99.397 946.732,100.754 946.931,102.023C947.286,104.287 947.635,106.551 947.961,108.819C948.282,111.056 948.709,113.272 949.064,115.503C949.215,116.456 949.334,117.399 949.724,118.292C949.963,118.839 950.261,119.36 950.57,119.875C952.342,118.948 954.081,117.957 955.787,116.923C958.315,115.39 960.784,113.763 963.231,112.105C964.429,111.293 965.623,110.473 966.816,109.654C967.987,108.85 969.284,108.113 970.349,107.173C972.811,104.999 975.294,102.601 977.011,99.964C977.229,99.63 977.436,99.289 977.624,98.937C977.71,98.775 977.791,98.611 977.869,98.445C977.874,98.433 977.883,98.413 977.892,98.394C977.914,98.339 977.937,98.284 977.956,98.228C978.009,98.068 978.048,97.904 978.101,97.745C978.11,97.717 978.116,97.701 978.123,97.684C978.123,97.679 978.122,97.678 978.122,97.672C978.123,97.634 978.125,97.595 978.125,97.555C978.112,97.543 978.106,97.523 978.104,97.501C978.051,97.486 977.998,97.472 977.944,97.46C977.949,97.471 977.609,97.433 977.539,97.433Z" style="fill-rule:nonzero;"/>
            <path d="M978.154,97.568C978.164,97.569 978.153,97.542 978.135,97.508C978.132,97.507 978.13,97.507 978.127,97.506C978.127,97.522 978.126,97.538 978.126,97.554C978.133,97.561 978.142,97.567 978.154,97.568Z" style="fill-rule:nonzero;"/>
        </g>
    </g>
</svg>
