<?xml version="1.0" encoding="UTF-8" standalone="no"?>
<!DOCTYPE svg PUBLIC "-//W3C//DTD SVG 1.1//EN" "http://www.w3.org/Graphics/SVG/1.1/DTD/svg11.dtd">
<svg width="100%" height="100%" viewBox="0 0 1496 900" version="1.1" xmlns="http://www.w3.org/2000/svg" xmlns:xlink="http://www.w3.org/1999/xlink" xml:space="preserve" xmlns:serif="http://www.serif.com/" style="fill-rule:evenodd;clip-rule:evenodd;stroke-linejoin:round;stroke-miterlimit:2;">
    <g transform="matrix(1,0,0,1,-1344.11,-1116.29)">
        <g id="cloud2.svg" transform="matrix(4.16667,0,0,4.16667,2091.98,1566.04)">
            <g transform="matrix(1,0,0,1,-179.49,-107.94)">
                <clipPath id="_clip1">
                    <rect x="0" y="0" width="358.98" height="215.88"/>
                </clipPath>
                <g clip-path="url(#_clip1)">
                    <g id="Layer_2">
                        <g id="Layer_1-2">
                            <path d="M359,113.05C359.006,131.512 346.321,147.73 328.4,152.17C325.325,153.552 321.991,154.264 318.62,154.26L314.18,154.26C307.893,177.594 286.572,193.931 262.406,193.931C252.435,193.931 242.658,191.149 234.18,185.9C226.491,204.033 208.616,215.869 188.92,215.869C168.587,215.869 150.259,203.254 143,184.26C132.034,193.654 118.06,198.822 103.62,198.822C75.629,198.822 51.113,179.406 44.7,152.16C42.132,152.902 39.473,153.279 36.8,153.279C21.196,153.279 8.356,140.439 8.356,124.835C8.356,112.206 16.767,101.018 28.9,97.51C27.509,92.965 26.803,88.238 26.803,83.485C26.803,57.186 48.444,35.545 74.743,35.545C86.048,35.545 96.996,39.544 105.64,46.83C115.42,24.12 138.81,8.12 166.12,8.12C195,8.12 219.51,26.01 228.12,50.83C235.938,45.262 245.301,42.268 254.9,42.268C276.101,42.268 294.707,56.875 299.74,77.47C305.575,74.359 312.087,72.731 318.7,72.731C340.808,72.731 359,90.923 359,113.031C359,113.038 359,113.044 359,113.05Z" style="fill-opacity:0.1;fill-rule:nonzero;"/>
                            <path d="M350.85,104.93C350.836,123.375 338.155,139.567 320.25,144C317.181,145.39 313.849,146.106 310.48,146.1L306,146.1C299.713,169.434 278.392,185.771 254.226,185.771C244.255,185.771 234.478,182.989 226,177.74C218.31,195.878 200.431,207.718 180.73,207.718C160.392,207.718 142.06,195.098 134.8,176.1C123.837,185.481 109.874,190.64 95.445,190.64C67.462,190.64 42.951,171.236 36.53,144C33.727,144.898 30.802,145.355 27.859,145.355C12.263,145.355 -0.571,132.521 -0.571,116.925C-0.571,103.991 8.254,92.61 20.78,89.39C19.386,84.839 18.677,80.106 18.677,75.347C18.677,49.053 40.313,27.417 66.607,27.417C77.915,27.417 88.866,31.419 97.51,38.71C107.29,16 130.69,0 158,0C186.88,0 211.38,17.89 220,42.7C227.817,37.133 237.18,34.139 246.777,34.139C267.982,34.139 286.59,48.751 291.62,69.35C297.44,66.26 303.93,64.643 310.52,64.643C332.623,64.643 350.813,82.827 350.82,104.93L350.85,104.93Z" style="fill:white;fill-rule:nonzero;"/>
                        </g>
                    </g>
                </g>
            </g>
        </g>
    </g>
</svg>
