<?xml version="1.0" encoding="UTF-8" standalone="no"?>
<!DOCTYPE svg PUBLIC "-//W3C//DTD SVG 1.1//EN" "http://www.w3.org/Graphics/SVG/1.1/DTD/svg11.dtd">
<svg width="100%" height="100%" viewBox="0 0 1607 811" version="1.1" xmlns="http://www.w3.org/2000/svg" xmlns:xlink="http://www.w3.org/1999/xlink" xml:space="preserve" xmlns:serif="http://www.serif.com/" style="fill-rule:evenodd;clip-rule:evenodd;stroke-linejoin:round;stroke-miterlimit:2;">
    <g transform="matrix(1,0,0,1,-406.76,-1972)">
        <g id="cloud3.svg" transform="matrix(4.16667,0,0,4.16667,1209.91,2377.36)">
            <g transform="matrix(1,0,0,1,-192.755,-97.285)">
                <clipPath id="_clip1">
                    <rect x="0" y="0" width="385.51" height="194.57"/>
                </clipPath>
                <g clip-path="url(#_clip1)">
                    <g id="Layer_2">
                        <g id="Layer_1-2">
                            <path d="M385.51,143.92C385.51,163.92 374.72,181.27 359.06,189.48C352.741,192.812 345.704,194.552 338.56,194.55L60.37,194.55C56.057,194.56 51.791,193.646 47.86,191.87C24.967,186.167 8.77,165.441 8.77,141.849C8.77,113.569 32.041,90.299 60.32,90.299C68.736,90.299 77.024,92.359 84.46,96.3C90.864,69.938 114.664,51.227 141.793,51.227C154.09,51.227 166.084,55.072 176.09,62.22C187.16,30.49 218.51,7.6 255.46,7.6C301.65,7.6 339.1,43.37 339.1,87.49C339.1,89.43 339.03,91.36 338.89,93.27C364.67,93.47 385.51,116.06 385.51,143.92Z" style="fill-opacity:0.1;fill-rule:nonzero;"/>
                            <path d="M376.79,136.32C376.79,156.32 366,173.68 350.34,181.88C344.022,185.215 336.984,186.959 329.84,186.96L51.65,186.96C47.34,186.965 43.079,186.051 39.15,184.28C16.172,178.638 -0.115,157.868 -0.115,134.207C-0.115,105.922 23.16,82.647 51.445,82.647C59.92,82.647 68.265,84.737 75.74,88.73C82.183,62.378 105.991,43.69 133.12,43.69C145.399,43.69 157.377,47.518 167.38,54.64C178.44,22.89 209.79,0 246.74,0C292.93,0 330.38,35.77 330.38,79.89C330.38,81.89 330.31,83.76 330.17,85.67C356,85.87 376.79,108.46 376.79,136.32Z" style="fill:white;fill-rule:nonzero;"/>
                        </g>
                    </g>
                </g>
            </g>
        </g>
    </g>
</svg>
