<?xml version="1.0" encoding="UTF-8" standalone="no"?>
<!DOCTYPE svg PUBLIC "-//W3C//DTD SVG 1.1//EN" "http://www.w3.org/Graphics/SVG/1.1/DTD/svg11.dtd">
<svg width="100%" height="100%" viewBox="0 0 1759 892" version="1.1" xmlns="http://www.w3.org/2000/svg" xmlns:xlink="http://www.w3.org/1999/xlink" xml:space="preserve" xmlns:serif="http://www.serif.com/" style="fill-rule:evenodd;clip-rule:evenodd;stroke-linejoin:round;stroke-miterlimit:2;">
    <g transform="matrix(1,0,0,1,-467.594,-502.28)">
        <g id="cloud4.svg" transform="matrix(4.16667,0,0,4.16667,1346.7,948.113)">
            <g transform="matrix(1,0,0,1,-210.985,-107)">
                <clipPath id="_clip1">
                    <rect x="0" y="0" width="421.97" height="214"/>
                </clipPath>
                <g clip-path="url(#_clip1)">
                    <g id="Layer_2">
                        <g id="Layer_1-2">
                            <path d="M422,70.08C422,87.854 407.374,102.48 389.6,102.48C388.6,102.48 387.55,102.48 386.54,102.34C376.703,133.722 345.411,153.669 312.81,149.34C297.093,188.318 259.079,213.978 217.051,213.978C191.37,213.978 166.591,204.397 147.59,187.12C137.292,193.343 125.486,196.633 113.454,196.633C88.683,196.633 65.915,182.687 54.66,160.62C50.812,162.026 46.747,162.745 42.65,162.745C23.45,162.745 7.65,146.945 7.65,127.745C7.65,108.545 23.45,92.745 42.65,92.745C47.742,92.745 52.772,93.856 57.39,96C71.429,73.374 97.858,61.383 124.13,65.72C141.372,30.198 177.54,7.55 217.025,7.55C239.719,7.55 261.793,15.031 279.81,28.83C291.765,19.425 306.543,14.309 321.755,14.309C342.821,14.309 362.729,24.122 375.56,40.83C379.938,38.728 384.733,37.636 389.59,37.636C407.37,37.636 422,52.266 422,70.046C422,70.057 422,70.069 422,70.08Z" style="fill-opacity:0.1;fill-rule:nonzero;"/>
                            <path d="M414.44,62.51L414.44,62.54C414.44,80.314 399.814,94.94 382.04,94.94C382.027,94.94 382.013,94.94 382,94.94C381,94.94 379.95,94.94 378.94,94.8C370.118,123.053 343.778,142.421 314.18,142.42C311.17,142.417 308.164,142.22 305.18,141.83C289.46,180.793 251.454,206.442 209.439,206.442C183.768,206.442 158.997,196.866 140,179.6C129.708,185.814 117.91,189.099 105.887,189.099C81.121,189.099 58.358,175.159 47.1,153.1C43.314,154.456 39.323,155.149 35.301,155.149C16.101,155.149 0.301,139.349 0.301,120.149C0.301,101.062 15.914,85.314 35,85.15C40.118,85.14 45.175,86.26 49.81,88.43C63.863,65.819 90.279,53.83 116.55,58.14C133.796,22.621 169.964,-0.023 209.448,-0.023C232.162,-0.023 254.254,7.47 272.28,21.29C284.235,11.885 299.013,6.769 314.225,6.769C335.291,6.769 355.199,16.582 368.03,33.29C372.4,31.197 377.184,30.11 382.03,30.11C399.806,30.11 414.434,44.734 414.44,62.51Z" style="fill:white;fill-rule:nonzero;"/>
                        </g>
                    </g>
                </g>
            </g>
        </g>
    </g>
</svg>
