<?xml version="1.0" encoding="UTF-8" standalone="no"?>
<!DOCTYPE svg PUBLIC "-//W3C//DTD SVG 1.1//EN" "http://www.w3.org/Graphics/SVG/1.1/DTD/svg11.dtd">
<svg width="100%" height="100%" viewBox="0 0 600 600" version="1.1" xmlns="http://www.w3.org/2000/svg" xmlns:xlink="http://www.w3.org/1999/xlink" xml:space="preserve" xmlns:serif="http://www.serif.com/" style="fill-rule:evenodd;clip-rule:evenodd;stroke-linejoin:round;stroke-miterlimit:2;">
    <g transform="matrix(1,0,0,1,-120.182,3.03928)">
        <g transform="matrix(6.45598,0,0,6.45598,-867.435,-2547.05)">
            <rect x="152.977" y="394.056" width="92.937" height="92.937" style="fill:none;"/>
        </g>
        <g transform="matrix(1,0,0,1,99.5371,-159.973)">
            <path d="M131.952,230.876C140.431,226.326 150.118,223.758 160.401,223.758C187.941,223.758 211.212,242.184 218.53,267.375C216.55,268.419 215.214,270.502 215.214,272.896C215.214,276.102 217.612,278.754 220.715,279.123C220.877,280.829 220.951,282.56 220.951,284.308C220.951,317.726 193.82,344.858 160.401,344.858C158.122,344.858 155.872,344.732 153.661,344.475L153.716,343.932C153.716,336.274 147.498,330.056 139.84,330.056C135.234,330.056 131.15,332.305 128.657,335.787C111.36,325.172 99.851,306.073 99.851,284.308C99.851,267.415 106.784,252.128 117.973,241.156C119.408,243.987 122.353,245.908 125.743,245.908C130.6,245.908 134.543,241.965 134.543,237.108C134.543,234.674 133.552,232.469 131.952,230.876Z" style="fill:rgb(204,204,204);"/>
            <g transform="matrix(1,0,0,1,-2.59871,-2.36248)">
                <circle cx="131.649" cy="298.296" r="8.8" style="fill:rgb(153,153,153);"/>
            </g>
            <g transform="matrix(0.227533,0,0,0.227533,94.4241,244.179)">
                <circle cx="131.649" cy="298.296" r="8.8" style="fill:rgb(153,153,153);"/>
            </g>
            <g transform="matrix(0.450201,0,0,0.450201,78.2945,181.363)">
                <circle cx="131.649" cy="298.296" r="8.8" style="fill:rgb(153,153,153);"/>
            </g>
            <g transform="matrix(0.246776,0,0,0.246776,112.768,231.448)">
                <circle cx="131.649" cy="298.296" r="8.8" style="fill:rgb(153,153,153);"/>
            </g>
            <g transform="matrix(0.246776,0,0,0.246776,145.185,229.126)">
                <circle cx="131.649" cy="298.296" r="8.8" style="fill:rgb(153,153,153);"/>
            </g>
            <g transform="matrix(0.246776,0,0,0.246776,178.086,221.384)">
                <circle cx="131.649" cy="298.296" r="8.8" style="fill:rgb(153,153,153);"/>
            </g>
            <g transform="matrix(0.246776,0,0,0.246776,108.123,194.193)">
                <circle cx="131.649" cy="298.296" r="8.8" style="fill:rgb(153,153,153);"/>
            </g>
            <g transform="matrix(0.378727,0,0,0.378727,134.753,130.368)">
                <circle cx="131.649" cy="298.296" r="8.8" style="fill:rgb(153,153,153);"/>
            </g>
            <g transform="matrix(1,0,0,1,50.0843,20.3172)">
                <circle cx="131.649" cy="298.296" r="8.8" style="fill:rgb(153,153,153);"/>
            </g>
            <g transform="matrix(0.748322,0,0,0.748322,70.9179,44.5397)">
                <circle cx="131.649" cy="298.296" r="8.8" style="fill:rgb(153,153,153);"/>
            </g>
            <g transform="matrix(1,0,0,1,-5.90618,-61.1879)">
                <path d="M137.858,292.064C139.459,293.657 140.449,295.862 140.449,298.296C140.449,303.153 136.506,307.096 131.649,307.096C128.259,307.096 125.314,305.175 123.88,302.344C128.001,298.28 132.703,294.804 137.858,292.064Z" style="fill:rgb(153,153,153);"/>
            </g>
            <g transform="matrix(0.716862,0,0,0.716862,127.148,59.0587)">
                <path d="M127.475,290.595C129.025,295.86 130.065,301.341 130.522,306.982C126.194,306.467 122.849,302.769 122.849,298.296C122.849,294.957 124.712,292.05 127.475,290.595Z" style="fill:rgb(153,153,153);"/>
            </g>
            <g transform="matrix(1.57676,0,0,1.57676,-67.7389,-126.409)">
                <path d="M124.556,293.13C126.137,290.922 128.728,289.496 131.649,289.496C136.506,289.496 140.449,293.439 140.449,298.296L140.414,298.64C134.639,298.001 129.249,296.079 124.556,293.13Z" style="fill:rgb(153,153,153);"/>
            </g>
        </g>
    </g>
</svg>
