<?xml version="1.0" encoding="UTF-8" standalone="no"?>
<!DOCTYPE svg PUBLIC "-//W3C//DTD SVG 1.1//EN" "http://www.w3.org/Graphics/SVG/1.1/DTD/svg11.dtd">
<svg width="100%" height="100%" viewBox="0 0 255 277" version="1.1" xmlns="http://www.w3.org/2000/svg" xmlns:xlink="http://www.w3.org/1999/xlink" xml:space="preserve" xmlns:serif="http://www.serif.com/" style="fill-rule:evenodd;clip-rule:evenodd;stroke-linejoin:round;stroke-miterlimit:2;">
    <g transform="matrix(1,0,0,1,-41.451,-385.364)">
        <g>
            <path d="M136.719,490.913C136.716,490.912 136.714,490.91 136.711,490.909C136.755,490.968 136.748,490.948 136.719,490.913Z" style="fill-rule:nonzero;"/>
            <path d="M136.735,490.921C136.727,490.916 136.724,490.915 136.717,490.911C136.718,490.912 136.718,490.913 136.719,490.913C136.725,490.916 136.73,490.918 136.735,490.921Z" style="fill-rule:nonzero;"/>
            <path d="M136.71,490.907L136.711,490.908L136.715,490.909L136.71,490.907Z" style="fill-rule:nonzero;"/>
            <path d="M136.811,490.941C136.812,490.939 136.779,490.928 136.733,490.914C136.737,490.917 136.742,490.922 136.746,490.925C136.778,490.94 136.807,490.951 136.811,490.941Z" style="fill-rule:nonzero;"/>
            <path d="M136.712,490.909L136.711,490.908L136.709,490.908L136.712,490.909Z" style="fill-rule:nonzero;"/>
            <path d="M136.717,490.91L136.715,490.909L136.717,490.911L136.717,490.91Z" style="fill-rule:nonzero;"/>
            <path d="M124.768,489.311C124.758,489.326 124.756,489.325 124.748,489.335C124.748,489.336 124.749,489.337 124.749,489.339C124.755,489.329 124.759,489.323 124.768,489.311Z" style="fill-rule:nonzero;"/>
            <path d="M131.088,489.024C131.097,489.026 131.103,489.023 131.111,489.024C131.115,489.021 131.116,489.022 131.12,489.02C131.107,489.023 131.095,489.026 131.088,489.024Z" style="fill-rule:nonzero;"/>
            <path d="M136.755,490.933C136.895,491.051 136.825,490.978 136.755,490.933Z" style="fill-rule:nonzero;"/>
            <path d="M124.736,489.349C124.74,489.345 124.744,489.34 124.748,489.335C124.739,489.304 124.731,489.287 124.736,489.349Z" style="fill-rule:nonzero;"/>
            <path d="M130.579,490.434C130.583,490.447 130.586,490.455 130.591,490.475C130.633,490.64 130.676,490.801 130.732,490.962C130.747,490.983 130.834,491.181 130.852,491.213C130.9,491.3 130.951,491.385 131.006,491.468C131.016,491.484 131.092,491.589 131.114,491.623C131.16,491.679 131.206,491.734 131.254,491.787C131.388,491.935 131.536,492.066 131.683,492.2C131.696,492.212 131.701,492.217 131.71,492.226C131.715,492.229 131.715,492.229 131.721,492.233C131.789,492.277 131.853,492.326 131.922,492.37C132.029,492.439 132.14,492.503 132.253,492.562C132.272,492.572 132.352,492.609 132.396,492.63C132.568,492.699 132.743,492.762 132.92,492.815C133.11,492.872 133.301,492.91 133.493,492.953C133.51,492.957 133.515,492.958 133.527,492.961C133.538,492.961 133.542,492.961 133.556,492.962C133.645,492.967 133.734,492.975 133.824,492.977C133.941,492.979 134.056,492.97 134.172,492.966L134.187,492.966C134.195,492.964 134.196,492.963 134.206,492.961C134.367,492.92 134.524,492.88 134.681,492.827C134.751,492.79 134.823,492.756 134.893,492.717C134.971,492.672 135.047,492.625 135.122,492.574C135.139,492.563 135.196,492.516 135.234,492.486C135.395,492.345 135.552,492.201 135.697,492.042C135.77,491.962 135.84,491.879 135.909,491.795C135.933,491.767 135.947,491.75 135.96,491.736C135.972,491.718 135.988,491.694 136.013,491.658C136.138,491.477 136.264,491.298 136.374,491.108C136.421,491.028 136.466,490.946 136.507,490.863C136.51,490.858 136.511,490.856 136.513,490.851C136.449,490.834 136.396,490.82 136.384,490.818C136.341,490.809 136.265,490.805 136.211,490.791C136.197,490.79 136.183,490.788 136.169,490.787C135.815,490.755 135.46,490.751 135.106,490.753C134.464,490.757 133.988,490.225 133.96,489.607C133.947,489.317 134.069,489.051 134.26,488.847C134.139,488.838 134.019,488.826 133.898,488.819C133.491,488.793 133.084,488.775 132.676,488.779C132.505,488.781 132.333,488.786 132.162,488.797C132.052,488.804 131.942,488.816 131.832,488.826C131.825,488.828 131.824,488.828 131.815,488.83C131.64,488.866 131.466,488.899 131.295,488.952C131.279,488.957 131.245,488.973 131.209,488.988C131.223,488.998 131.183,489.03 131.113,489.023C131.112,489.023 131.112,489.023 131.111,489.024C131.063,489.054 131.011,489.087 130.96,489.115C130.946,489.13 130.916,489.154 130.887,489.18C130.877,489.202 130.862,489.229 130.837,489.272C130.816,489.308 130.685,489.602 130.698,489.548C130.681,489.598 130.663,489.648 130.648,489.698C130.628,489.765 130.615,489.833 130.6,489.901C130.598,489.928 130.577,490.064 130.576,490.094C130.572,490.193 130.58,490.291 130.581,490.391C130.58,490.412 130.579,490.421 130.579,490.434Z" style="fill-rule:nonzero;"/>
            <path d="M131.12,489.02C131.145,489.014 131.175,489.002 131.207,488.989C131.199,488.983 131.174,488.988 131.12,489.02Z" style="fill-rule:nonzero;"/>
            <path d="M135.753,494.848C136.465,494.931 137.208,494.949 137.894,494.755C138.326,494.633 138.497,494.536 138.939,494.317C139.496,494.041 140.042,493.74 140.568,493.409C140.706,493.322 140.811,493.258 140.906,493.196C140.462,492.25 139.671,491.446 138.833,490.804C138.806,491.159 138.712,491.521 138.556,491.869C138.104,492.876 137.312,493.797 136.427,494.447C136.216,494.602 135.989,494.735 135.753,494.848Z" style="fill-rule:nonzero;"/>
            <path d="M165.486,654.837C166.751,651.533 167.004,647.697 166.607,644.207C166.209,640.701 164.895,637.23 162.634,634.499C162.47,634.301 162.365,634.069 162.327,633.833C160.493,632 158.84,629.638 158.583,627.044C157.412,627.766 156.225,628.361 154.8,628.535C153.536,628.69 152.232,628.622 150.958,628.64C149.681,628.658 148.41,628.624 147.145,628.434C145.974,628.258 144.761,627.891 143.873,627.071C142.867,626.142 142.681,624.811 142.932,623.523C143.214,622.074 145.423,622.691 145.142,624.132C145.119,624.247 145.094,624.482 145.107,624.721C145.113,624.728 145.141,624.901 145.154,624.951C145.167,625 145.172,625.025 145.174,625.04C145.179,625.046 145.188,625.057 145.203,625.084C145.223,625.119 145.299,625.232 145.327,625.279C145.367,625.317 145.469,625.425 145.494,625.45C145.522,625.477 145.531,625.488 145.534,625.494C145.549,625.502 145.571,625.515 145.614,625.542C145.701,625.597 145.788,625.651 145.878,625.7C146.14,625.842 146.083,625.819 146.463,625.939C146.707,626.016 146.957,626.077 147.207,626.128C148.176,626.326 149.399,626.359 150.541,626.352C151.675,626.345 152.821,626.36 153.954,626.312C155.579,626.243 156.762,625.508 158.095,624.642C159.42,623.781 160.966,622.859 161.629,621.351C162.245,619.95 162.315,618.258 162.059,616.767C161.791,615.207 161.219,613.709 160.198,612.485C159.059,611.12 157.968,609.672 156.565,608.561C153.379,606.037 149.147,605.214 145.178,605.281C140.841,605.355 136.548,606.052 132.241,606.494C127.951,606.934 123.596,607.105 119.35,606.2C117.327,605.769 115.388,605.034 113.477,604.254C111.598,603.487 110.107,602.412 108.673,600.98C105.997,598.307 104.356,594.888 103.655,591.179C103.4,589.83 103.307,588.468 103.364,587.107C103.285,587.203 103.212,587.302 103.13,587.395C102.53,588.08 101.864,588.7 101.152,589.264C101.195,589.449 101.205,589.648 101.179,589.847C101.072,590.643 100.963,591.439 100.863,592.236C100.393,595.96 99.971,599.875 100.667,603.598C101.355,607.277 103.524,610.675 105.741,613.628C108.066,616.725 110.897,619.481 113.97,621.832C115.542,623.035 117.074,624.313 118.687,625.46C120.377,626.661 122.194,627.422 124.142,628.1C126.235,628.828 128.36,629.468 130.511,630.001C132.549,630.506 134.605,630.93 136.634,631.471C138.601,631.995 140.528,632.631 142.402,633.427C144.279,634.224 146.058,635.227 147.866,636.164C149.52,637.021 151.167,637.905 152.653,639.038C154.254,640.259 155.504,641.699 156.637,643.356C158.955,646.747 160.953,650.291 161.426,654.44C161.739,657.186 161.012,659.746 159.287,661.775C161.977,660.159 164.347,657.81 165.486,654.837Z" style="fill-rule:nonzero;"/>
            <path d="M46.123,520.906C44.879,525.275 44.375,530.411 47.203,533.945C47.911,531.828 48.884,529.818 50.004,527.878C48.088,525.934 46.793,523.512 46.123,520.906Z" style="fill-rule:nonzero;"/>
            <path d="M248.977,549.388C244.501,550.19 240.153,551.591 236.074,553.603C232.234,555.498 228.654,557.861 225.223,560.413C225.194,560.443 225.164,560.471 225.136,560.501C224.749,560.909 224.381,561.333 224.023,561.766C224.003,561.791 223.925,561.892 223.898,561.925C223.86,561.977 223.822,562.029 223.784,562.081C223.551,562.407 223.332,562.742 223.125,563.086C222.304,564.454 221.71,565.989 221.58,567.59C221.437,569.351 221.567,571.179 221.716,572.937C221.959,575.814 222.508,579.075 223.638,581.617C224.376,583.277 225.339,584.578 226.651,585.79C229.244,588.186 232.718,589.537 236.267,590.123C240.273,590.784 244.863,590.412 248.818,588.816C243.594,587.823 240.554,582.932 240.621,577.797C240.656,575.103 241.456,572.386 242.928,570.127C244.005,568.474 245.411,567.06 246.878,565.754C248.386,564.411 249.935,563.113 251.663,562.058C257.969,558.208 265.444,557.155 272.217,554.426C275.601,553.063 278.845,551.157 281.228,548.348C283.467,545.71 284.471,542.389 284.222,538.956C283.955,535.28 282.512,531.965 280.602,528.873C280.023,532.781 277.972,536.371 275.216,539.215C268.341,546.309 258.237,547.73 248.977,549.388Z" style="fill-rule:nonzero;"/>
            <path d="M266.638,500.632C266.947,499.112 267.531,497.708 268.301,496.408C267.471,496.091 266.654,495.736 265.857,495.336C263.018,493.909 260.604,491.91 258.317,489.726C255.528,487.063 252.974,484.169 250.62,481.115C248.348,478.167 246.276,475.067 244.405,471.85C242.542,468.649 240.692,465.315 239.532,461.785C238.384,458.292 238.015,454.614 237.916,450.955C237.864,449.039 237.739,447.058 237.939,445.148C238.051,444.083 238.296,443.087 238.724,442.105C239.041,441.377 239.428,440.687 239.692,439.942C239.692,439.854 239.693,439.766 239.693,439.678C237.716,438.545 235.843,437.23 234.238,435.622C232.96,434.342 231.911,432.874 231.174,431.222C230.196,429.03 229.351,426.782 229.086,424.381C228.926,422.93 229.067,421.497 229.438,420.124C228.708,419.59 227.975,419.06 227.232,418.543C220.827,414.089 213.927,410.27 206.632,407.486C200.507,405.148 194.046,403.451 187.484,403.046C184.769,402.879 181.831,402.93 179.259,403.304C178.014,403.485 176.777,403.733 175.562,404.062C174.486,404.353 173.144,404.809 172.295,405.175C170.202,406.079 168.3,407.263 166.744,408.704C165.101,410.226 163.957,411.778 162.971,413.837C162.691,414.422 162.587,414.673 162.363,415.293C162.164,415.842 161.99,416.401 161.84,416.965C161.515,418.184 161.316,419.349 161.212,420.503C160.954,423.356 161.17,426.233 161.686,429.045C161.728,429.276 161.715,429.508 161.649,429.717C163.882,433.447 165.383,437.577 165.84,441.928C167.764,440.444 169.786,439.088 171.924,437.932C178.233,434.519 185.372,432.971 192.493,434.172C200.21,435.473 206.911,439.869 212.564,445.101C223.156,454.906 230.661,468.221 232.898,482.532C235.373,498.372 231.331,514.273 224.596,528.579C221.163,535.87 217.039,542.844 212.494,549.494C208.511,555.322 204.081,560.927 198.805,565.645C193.558,570.337 187.456,574.111 180.649,576.043C172.958,578.226 164.715,577.918 157.029,575.878C141.808,571.839 129.548,561.089 119.784,549.142C109.916,537.068 102.276,523.191 97.593,508.305C95.214,500.743 93.432,492.842 93.287,484.887C93.255,483.105 93.323,481.329 93.488,479.567C93.055,479.607 92.605,479.446 92.389,479.033C91.844,477.991 91.217,476.996 90.557,476.023C89.185,473.999 87.679,472.057 86.488,469.916C85.339,467.851 84.628,465.707 84.407,463.354C84.185,460.988 84.321,458.599 84.47,456.234C84.627,453.762 84.744,451.31 85.363,448.898C86.673,443.799 89.467,439.269 92.169,434.812C94.68,430.669 97.259,426.505 100.648,423.009C104.03,419.52 108.297,416.694 112.696,414.652C117.012,412.648 121.629,411.599 126.384,411.473C131.64,411.334 137.092,411.798 142.087,413.515C146.648,415.083 150.776,417.794 154.367,420.985C156.024,422.457 157.563,424.076 158.946,425.814C158.509,420.896 159.138,415.788 161.631,411.461C164.077,407.217 168.1,404.265 172.644,402.585C177.895,400.643 183.706,400.36 189.234,400.891C196.214,401.562 203.031,403.493 209.495,406.172C216.864,409.227 223.802,413.221 230.255,417.902C231.045,416.233 232.165,414.707 233.491,413.422C234.834,412.121 236.344,411.09 237.95,410.23C237.544,410.045 237.204,409.642 237.263,409.193C237.519,407.242 236.904,405.52 235.871,403.824C234.644,401.811 232.971,400.093 231.215,398.537C228.105,395.782 224.558,393.459 220.858,391.576C216.458,389.337 211.591,387.878 206.779,386.846C196.27,384.593 184.687,384.649 174.696,388.985C174.567,389.31 174.281,389.567 173.929,389.707C172.903,390.117 171.861,390.485 170.798,390.788C167.104,391.843 163.274,392.093 159.476,391.539C156.34,391.081 153.342,390.044 150.405,388.887C147.805,387.862 145.22,386.711 142.486,386.085C139.666,385.439 136.716,385.302 133.811,385.387C127.209,385.58 120.663,387.139 114.501,389.468C108.194,391.852 102.116,395.16 96.878,399.424C94.407,401.435 92.106,403.668 90.11,406.155C89.199,407.29 88.367,408.492 87.619,409.739C87.25,410.354 86.904,410.982 86.58,411.622C86.195,412.381 85.589,413.279 85.739,414.174C85.777,414.403 85.765,414.632 85.702,414.839C86.771,416.334 87.628,418.079 87.967,419.88C88.413,422.25 88.039,424.649 87.257,426.908C86.572,428.885 85.735,430.91 84.461,432.585C83.298,434.114 81.886,435.384 80.338,436.514C77.344,438.698 73.927,440.23 70.511,441.625C69.935,441.86 69.25,441.367 69.101,440.824C69.079,440.743 69.066,440.664 69.061,440.587C69.023,441.059 68.715,441.548 68.233,441.624C67.356,441.762 66.522,441.78 65.646,441.615C63.479,441.206 61.762,439.702 60.454,437.93C59.091,438.245 57.787,438.728 56.547,439.38C50.809,442.396 46.381,447.951 43.671,453.748C41.728,457.904 41.046,462.427 41.682,466.842C41.769,467 41.819,467.176 41.799,467.362C41.794,467.407 41.796,467.45 41.793,467.494C41.886,468.029 41.994,468.563 42.126,469.094C42.258,469.388 42.417,469.675 42.588,469.953C43.8,471.93 45.616,473.424 47.48,474.758C49.79,476.411 52.288,477.875 54.939,478.91C58.381,480.254 61.913,481.357 65.398,482.583C72.015,484.912 79.273,487.689 83.751,493.383C86.081,496.346 87.379,499.842 87.746,503.583C88.202,508.225 87.202,512.742 84.926,516.806C82.492,521.153 78.89,524.839 74.787,527.636C70.921,530.271 66.302,532.298 61.566,532.417C58.045,532.505 54.542,531.451 51.723,529.367C50.555,531.46 49.547,533.735 48.929,536.075C48.934,536.301 48.877,536.528 48.772,536.72C48.059,539.806 48.056,542.984 49.322,545.99C52.066,552.505 59.069,555.214 65.292,557.266C68.527,558.333 71.792,559.351 74.868,560.833C78.167,562.422 80.951,564.68 83.472,567.321C85.585,569.534 87.204,572.077 87.884,575.084C88.436,577.524 88.445,580.139 87.727,582.548C87.049,584.826 85.707,586.892 83.703,588.212C82.786,588.816 81.785,589.196 80.748,589.413C81.572,589.778 82.425,590.086 83.298,590.325C89.686,592.075 97.721,590.663 101.905,585.297C103.111,583.75 103.777,582.098 104.283,580.235C105.124,577.136 105.473,573.942 105.549,570.738C105.583,569.308 105.602,567.9 105.248,566.504C104.911,565.174 104.33,563.943 103.591,562.79C103.114,562.047 102.631,561.465 102.009,560.779C101.667,560.402 101.312,560.034 100.927,559.701C100.738,559.538 100.75,559.552 100.556,559.425C100.524,559.404 100.487,559.386 100.451,559.366C100.415,559.354 100.35,559.33 100.321,559.323C98.877,559.014 99.492,556.805 100.93,557.113C102.009,557.344 102.922,558.377 103.63,559.158C104.431,560.041 105.187,560.985 105.803,562.007C106.691,563.479 107.367,565.12 107.655,566.82C107.961,568.628 107.878,570.484 107.783,572.308C107.681,574.26 107.503,576.291 107.134,578.282C107.2,578.493 107.214,578.727 107.183,578.96C107.026,580.114 106.76,581.246 106.482,582.377C105.94,584.585 105.51,586.729 105.667,589.015C105.803,590.998 106.397,592.966 107.148,594.799C108.505,598.109 111.318,600.973 114.649,602.263C116.724,603.066 118.783,603.806 120.984,604.183C123.159,604.555 125.385,604.614 127.587,604.538C132.119,604.381 136.599,603.609 141.111,603.212C145.533,602.824 149.948,602.816 154.109,604.559C156.013,605.357 157.77,606.42 159.238,607.884C159.883,608.527 160.467,609.226 161.046,609.927C161.643,610.649 162.284,611.351 162.78,612.149C164.645,615.147 165.138,619.451 163.532,622.66C162.949,623.824 161.967,624.718 160.912,625.489C160.587,626.97 161.137,628.436 161.907,629.689C163.402,632.123 165.799,634.134 168.297,635.483C169.285,636.017 170.321,636.431 171.38,636.782C170.308,635.683 169.609,634.339 169.359,632.765C169.056,630.857 169.238,628.871 169.916,627.058C170.627,625.158 171.847,623.769 173.192,622.289C174.534,620.812 175.984,619.46 177.736,618.48C179.754,617.35 181.989,616.568 184.256,616.124C184.678,616.041 185.102,615.974 185.527,615.914C185.658,615.767 185.838,615.648 186.081,615.586C190.171,614.542 194.305,613.249 197.913,611.005C200.424,609.444 202.701,607.276 203.589,604.432C204.062,602.916 204.116,601.38 203.944,599.797C203.788,598.368 203.686,596.935 203.559,595.503C203.304,592.623 202.951,589.597 201.724,586.938C200.335,583.927 197.914,581.766 194.828,580.571C194.249,580.347 193.85,579.809 194.028,579.161C194.18,578.607 194.86,578.137 195.438,578.361C197.53,579.171 199.484,580.296 201.058,581.914C202.419,583.313 203.41,584.981 204.132,586.784C205.346,589.813 205.655,593.125 205.923,596.349C206.056,597.949 206.303,599.57 206.331,601.174C206.362,602.922 206.029,604.648 205.34,606.253C203.967,609.451 201.192,611.801 198.223,613.485C196.65,614.377 194.994,615.116 193.298,615.757C195.043,615.878 196.783,616.066 198.501,616.25C203.249,616.757 208.016,617.383 212.801,617.194C215.148,617.102 217.476,616.795 219.745,616.176C220.887,615.865 221.995,615.455 223.112,615.066C224.064,614.735 225.01,614.395 225.889,613.897C227.517,612.974 229.017,611.515 230.186,610.062C231.418,608.53 232.191,606.669 232.767,604.806C233.388,602.795 233.619,600.661 233.318,598.568C232.979,596.213 232.086,593.977 231.737,591.623C231.722,591.52 231.719,591.417 231.723,591.316C228.663,590.25 225.785,588.522 223.719,586.025C222.297,584.306 221.376,582.378 220.742,580.246C219.72,576.805 219.318,573.193 219.258,569.612C219.231,567.962 219.319,566.341 219.839,564.761C220.319,563.305 221.047,561.923 221.964,560.696C222.258,560.302 222.572,559.922 222.897,559.551C222.992,559.316 223.158,559.103 223.376,558.939C223.48,558.86 223.586,558.784 223.69,558.706C223.817,558.576 223.936,558.438 224.066,558.311C224.791,557.604 225.702,556.696 226.737,556.495C226.744,556.494 226.75,556.494 226.757,556.493C229.722,554.441 232.811,552.574 236.088,551.057C240.218,549.146 244.544,547.833 249.026,547.056C253.801,546.228 258.623,545.46 263.219,543.872C267.341,542.448 271.174,540.285 274.121,537.027C276.793,534.072 278.575,530.303 278.473,526.267C278.469,526.1 278.498,525.955 278.546,525.826C277.139,523.884 275.636,522.017 274.231,520.189C270.015,514.705 265.146,507.972 266.638,500.632Z" style="fill-rule:nonzero;"/>
            <path d="M52.928,527.355C52.923,527.363 52.918,527.372 52.912,527.38C53.396,527.757 53.898,528.114 54.442,528.421C57.934,530.394 62.078,530.533 65.873,529.425C70.319,528.127 74.384,525.537 77.71,522.343C80.973,519.209 83.706,515.325 84.924,510.926C85.955,507.204 85.801,503.008 84.513,499.365C83.455,496.372 81.473,493.86 78.992,491.83C73.689,487.489 66.611,485.407 60.169,483.21C55.965,481.776 51.815,480.318 48.047,477.907C46.963,477.213 45.872,476.475 44.842,475.667C46.024,477.749 47.417,479.715 48.909,481.577C51.308,484.57 53.872,487.426 56.749,489.966C59.784,492.646 62.641,495.514 63.972,499.437C65.068,502.665 64.843,506.167 63.799,509.376C61.602,516.136 56.676,521.458 52.928,527.355Z" style="fill-rule:nonzero;"/>
            <path d="M256.04,438.512C254.24,441.233 251.594,443.278 248.182,442.72C247.78,442.654 247.501,442.305 247.395,441.918C247.371,442.017 247.339,442.112 247.291,442.194C246.951,442.775 246.292,442.847 245.723,442.605C244.962,442.281 244.204,441.95 243.454,441.602C242.944,441.366 242.436,441.12 241.93,440.868C241.864,441.089 241.74,441.262 241.578,441.386C241.327,441.946 241.046,442.493 240.797,443.057C240.376,444.012 240.209,445.027 240.171,446.064C240.094,448.153 240.163,450.271 240.26,452.359C240.441,456.238 241.095,460.079 242.691,463.646C245.564,470.068 249.473,476.202 253.937,481.629C256.263,484.457 258.79,487.122 261.517,489.567C263.553,491.393 265.827,492.908 268.349,493.98C268.772,494.16 269.201,494.323 269.634,494.478C270.757,493.053 272.083,491.771 273.466,490.616C275.138,489.219 276.891,487.914 278.441,486.376C279.932,484.897 281.33,483.308 282.576,481.617C286.944,475.687 289.452,468.583 289.035,461.175C288.617,453.749 285.32,446.721 280.713,440.975C275.613,434.614 268.828,429.439 260.573,428.269C260.447,428.251 260.335,428.198 260.234,428.129C260.173,428.307 260.114,428.486 260.053,428.665C258.916,432.001 258.008,435.538 256.04,438.512Z" style="fill-rule:nonzero;"/>
            <path d="M134.7,492.823C134.839,492.775 134.76,492.8 134.7,492.823Z" style="fill-rule:nonzero;"/>
            <path d="M75.779,436.686C77.551,435.723 79.246,434.62 80.732,433.274C81.898,432.217 82.918,431.023 83.64,429.618C84.623,427.705 85.475,425.582 85.784,423.444C86.321,419.725 84.457,416.281 81.768,413.833C78.852,411.178 75.162,409.811 71.432,408.739C70.396,408.442 69.384,408.22 68.308,408.147C67.306,408.079 66.3,408.072 65.3,407.963C63.969,407.818 62.707,407.466 61.415,407.131C60.105,406.79 58.772,406.449 57.419,406.346C56.815,406.3 56.115,406.291 55.636,406.387C55.471,406.42 55.309,406.462 55.149,406.512C55.119,406.521 54.976,406.58 54.946,406.589C54.833,406.643 54.722,406.705 54.619,406.774C54.599,406.788 54.56,406.81 54.449,406.921C54.141,407.229 53.957,407.738 53.851,408.316C53.729,408.976 53.749,409.681 53.794,410.353C53.898,411.928 54.262,413.477 54.631,415.007C55.032,416.669 55.385,418.343 55.848,419.99C56.455,422.152 57.187,424.276 57.935,426.392C59.034,429.504 59.895,432.751 61.627,435.565C62.92,437.665 64.974,439.834 67.627,439.417C68.241,439.321 68.857,439.565 69.037,440.217C69.065,440.321 69.071,440.434 69.066,440.547C69.054,440.029 69.417,439.615 69.905,439.416C70.618,439.125 71.327,438.826 72.031,438.514C72.924,438.117 73.817,437.698 74.7,437.252C74.149,437.226 73.618,436.861 73.619,436.15C73.625,433.523 74.105,430.707 73.693,428.134C73.318,425.792 72.346,423.538 71.228,421.461C70.093,419.353 68.752,417.341 67.21,415.508C64.325,412.078 60.223,408.411 55.407,408.884C54.787,408.945 54.261,408.311 54.261,407.738C54.261,407.075 54.791,406.653 55.407,406.592C58.246,406.313 61.043,407.355 63.38,408.907C67.742,411.803 71.16,416.287 73.525,420.911C74.727,423.261 75.721,425.781 76.026,428.416C76.321,430.97 75.917,433.588 75.912,436.15C75.908,436.36 75.858,436.536 75.779,436.686Z" style="fill-rule:nonzero;"/>
            <path d="M124.747,489.361C124.746,489.357 124.744,489.36 124.743,489.357C124.741,489.359 124.739,489.362 124.738,489.364C124.74,489.385 124.742,489.408 124.747,489.444C124.766,489.591 124.824,489.802 124.924,490.028C125.444,491.203 126.398,492.199 127.513,492.82C128.274,493.244 129.111,493.502 129.958,493.706C129.309,493.114 128.793,492.377 128.497,491.511C128.214,490.684 128.22,489.761 128.491,488.928C127.463,488.935 126.337,488.874 125.486,489.054C125.345,489.084 125.205,489.118 125.069,489.164C125.052,489.17 125.004,489.187 124.964,489.201C124.946,489.21 124.872,489.247 124.821,489.272C124.799,489.294 124.773,489.324 124.752,489.349C124.762,489.391 124.77,489.441 124.747,489.361Z" style="fill-rule:nonzero;"/>
            <path d="M261.979,409.557C261.902,409.007 261.733,408.41 261.443,408.063C261.217,407.792 260.904,407.633 260.431,407.516C259.374,407.254 257.966,407.471 256.795,407.72C255.514,407.992 254.262,408.377 252.994,408.702C251.351,409.124 249.675,409.123 247.994,409.251C245.914,409.41 243.834,410.173 241.891,410.899C238.686,412.096 235.514,414.064 233.502,416.891C232.475,418.335 231.649,420.012 231.387,421.779C231.082,423.836 231.573,425.92 232.259,427.851C232.859,429.54 233.566,431.257 234.676,432.682C235.668,433.955 236.901,435.058 238.207,436C238.704,436.359 239.216,436.695 239.734,437.021C239.806,434.488 239.997,431.961 240.509,429.471C241.618,424.088 244.228,419.113 247.684,414.87C250.745,411.112 255.302,407.156 260.506,407.689C261.124,407.752 261.652,408.163 261.652,408.835C261.652,409.409 261.123,410.044 260.506,409.981C258.028,409.728 255.76,410.713 253.764,412.141C249.922,414.889 247.006,419.134 244.972,423.341C243.782,425.804 242.943,428.555 242.49,431.322C242.111,433.635 242.016,435.984 241.991,438.328C243.581,439.175 245.225,439.925 246.878,440.628C247.151,440.744 247.319,440.999 247.391,441.284C247.579,440.665 248.189,440.415 248.789,440.513C249.373,440.608 249.927,440.561 250.461,440.413C252.923,439.727 254.472,436.969 255.476,434.765C256.092,433.411 256.514,431.982 256.987,430.574C257.688,428.482 258.421,426.401 259.087,424.298C260.159,420.918 261.003,417.434 261.666,413.949C261.938,412.526 262.181,410.997 261.979,409.557Z" style="fill-rule:nonzero;"/>
            <path d="M159.002,441.623C157.099,439.922 155.047,438.38 152.745,437.259C150.437,436.135 147.898,435.553 145.337,435.469C138.257,435.237 131.22,437.952 125.188,441.448C118.803,445.149 112.75,449.789 107.615,455.095C102.546,460.333 98.518,466.508 96.752,473.642C94.857,481.296 95.438,489.363 97.01,497.019C98.502,504.289 100.787,511.429 103.694,518.256C109.591,532.105 118.117,544.941 128.69,555.662C139.241,566.361 152.791,574.78 168.194,575.245C175.49,575.465 182.609,573.691 188.934,570.049C194.844,566.645 199.856,561.901 204.224,556.703C208.801,551.256 212.745,545.259 216.368,539.147C220.388,532.366 223.936,525.275 226.588,517.843C229.167,510.615 230.919,503.055 231.289,495.374C231.637,488.138 230.735,480.921 228.515,474.022C226.398,467.445 223.144,461.255 219.031,455.708C214.692,449.857 209.258,444.387 202.994,440.614C197.076,437.05 190.157,435.241 183.266,436.361C176.813,437.411 171.004,440.627 165.991,444.732C165.96,445.222 165.67,445.536 165.302,445.671C164.932,446.034 164.574,446.407 164.246,446.807C164.127,446.681 164.007,446.555 163.888,446.43C162.953,446.797 161.912,445.744 162.394,444.888C161.294,443.768 160.173,442.669 159.002,441.623ZM165.3,523.417C167.206,523.33 168.886,522.869 170.653,522.173C171.483,521.846 172.317,521.519 173.18,521.29C173.528,520.985 174.061,520.931 174.606,520.91C175.052,520.893 175.547,520.886 175.923,521.082C176.225,521.102 176.526,521.127 176.827,521.161C177.545,521.241 178.283,521.346 178.989,521.544C179.043,520.649 179.059,519.753 179.004,518.856C178.789,515.316 177.882,511.896 177.156,508.441C176.51,505.364 175.964,502.268 175.582,499.147C174.864,493.279 174.708,487.097 176.446,481.382C178.155,475.766 181.88,471.121 187.184,468.524C190.874,466.717 194.664,465.25 198.739,464.594C202.792,463.942 206.962,463.987 210.944,465.048C212.551,465.476 213.962,466.221 215.413,467.016C216.809,467.78 218.169,468.611 219.433,469.581C221.968,471.528 224.053,474.088 224.231,477.4C224.239,477.559 224.216,477.697 224.176,477.821C224.28,478.204 224.162,478.624 223.896,478.957C223.217,479.807 222.29,480.308 221.39,480.884C220.488,481.462 219.886,482.322 219.118,483.049C217.457,484.621 215.199,485.628 213.086,486.424C212.027,486.823 210.959,487.158 209.836,487.315C208.67,487.478 207.504,487.472 206.33,487.502C205.4,487.526 204.479,487.64 203.56,487.772C203.64,488.161 203.64,488.583 203.528,489.034C203.118,490.67 201.826,492.175 200.487,493.144C199.284,494.015 197.841,494.494 196.406,494.821C194.736,495.202 193.029,495.571 191.337,495.837C189.594,496.11 188.005,496.024 186.377,495.342C185.249,494.87 183.757,494.338 182.936,493.382C182.582,492.97 182.491,492.394 182.786,491.945C182.794,491.876 182.807,491.808 182.832,491.741C183.826,489.035 186.42,486.917 189.211,485.926C189.429,485.659 189.762,485.481 190.107,485.482C190.415,485.483 190.728,485.466 191.042,485.445C191.215,485.416 191.389,485.387 191.561,485.368C193.552,485.142 195.559,485.401 197.551,485.471C198.867,485.517 200.283,485.361 201.562,485.763C203.071,485.564 204.571,485.273 206.097,485.217C207.174,485.177 208.257,485.221 209.329,485.089C210.345,484.964 211.324,484.64 212.281,484.287C214.143,483.601 216.22,482.704 217.644,481.284C218.395,480.535 219.033,479.734 219.91,479.118C220.621,478.619 221.372,478.259 221.98,477.658C221.959,477.577 221.945,477.49 221.94,477.398C221.905,476.74 221.76,476.091 221.513,475.479C220.46,472.875 217.873,471.104 215.55,469.727C214.36,469.021 213.129,468.32 211.871,467.741C211.071,467.373 210.144,467.189 209.287,467.001C208.368,466.799 207.439,466.651 206.502,466.562C202.62,466.197 198.714,466.693 194.986,467.802C191.707,468.777 188.352,470.178 185.537,472.15C181.189,475.197 178.834,480.003 177.908,485.118C176.902,490.677 177.402,496.492 178.286,502.032C178.747,504.919 179.335,507.784 179.981,510.635C180.833,514.397 181.591,518.3 181.249,522.173C181.234,522.344 181.188,522.507 181.118,522.655C181.815,523.33 182.165,524.245 182.06,525.283C181.92,526.677 181.133,527.742 179.984,528.502C179.027,529.134 177.913,529.501 176.856,529.928C176.21,530.189 175.306,530.866 174.48,530.82C174.333,530.893 174.177,530.96 174.061,531.039C173.685,531.294 173.373,531.642 173.112,532.014C172.375,533.063 171.907,534.28 171.424,535.458C170.488,537.739 169.294,539.772 167.175,541.147C166.544,541.557 165.839,541.869 165.11,542.056C165.1,543.089 165.09,544.123 165.125,545.152C165.153,545.967 165.366,546.787 165.558,547.615C165.56,547.621 165.562,547.628 165.564,547.634C165.671,547.934 165.807,548.221 165.948,548.507C166.297,549.214 166.692,549.897 167.078,550.584C167.789,551.848 168.356,553.177 169.328,554.276C170.934,556.093 173.154,557.209 175.56,557.485C177.866,557.749 180.202,557.483 182.053,556.246C184.024,554.929 185.668,553.157 187.429,551.585C188.841,550.325 190.694,548.558 192.741,548.638C194.213,548.696 194.216,550.988 192.741,550.93C192.654,550.927 192.569,550.932 192.484,550.937C192.436,550.945 192.362,550.958 192.336,550.966C192.231,551 192.126,551.031 192.021,551.067C191.974,551.088 191.856,551.136 191.843,551.143C191.329,551.407 190.846,551.723 190.387,552.074C189.39,552.838 188.365,553.824 187.403,554.717C185.584,556.406 183.675,558.317 181.313,559.217C180.137,559.665 178.778,559.796 177.529,559.843C176.128,559.896 174.695,559.747 173.342,559.373C170.53,558.597 168.143,556.811 166.546,554.376C165.814,553.259 165.243,552.014 164.594,550.845C164.485,550.648 164.375,550.449 164.266,550.247C164.224,550.231 164.182,550.216 164.143,550.196C163.791,551.035 163.322,551.838 162.888,552.609C162.113,553.984 161.464,555.408 160.484,556.657C158.746,558.871 156.212,560.377 153.45,560.899C150.928,561.375 147.915,561.325 145.581,560.152C143.315,559.014 141.464,557.063 139.623,555.362C138.789,554.592 137.911,553.771 137.028,553.142C136.623,552.854 136.195,552.572 135.736,552.375C135.757,552.392 135.389,552.271 135.31,552.25C135.29,552.245 135.282,552.242 135.27,552.238L135.256,552.238C135.169,552.235 135.084,552.233 134.997,552.237C133.52,552.295 133.527,550.003 134.997,549.945C136.072,549.902 137.106,550.429 137.972,551.016C139.058,551.753 140.043,552.639 141.008,553.525C142.708,555.087 144.361,556.846 146.39,557.988C148.16,558.984 150.891,559.086 153,558.658C155.411,558.169 157.583,556.861 159.007,554.831C159.749,553.773 160.275,552.576 160.909,551.453C161.257,550.837 161.603,550.218 161.906,549.578C162.027,549.323 162.137,549.065 162.226,548.797C162.307,548.551 162.371,548.305 162.38,548.186C162.416,547.712 162.683,547.295 163.1,547.124C163.094,547.075 163.086,547.026 163.081,546.977C162.966,546.428 162.87,545.874 162.84,545.308C162.784,544.274 162.796,543.229 162.811,542.186C162.155,542.081 161.516,541.846 160.931,541.451C159.789,540.681 158.975,539.538 158.434,538.285C157.828,536.881 158.031,535.321 157.495,533.911C156.958,532.497 155.498,531.729 154.213,531.119C153.117,530.598 152.094,530.294 150.862,529.914C149.672,529.547 148.415,529.141 147.446,528.33C146.537,527.569 146.09,526.376 146.037,525.214C145.995,524.29 146.233,523.416 146.676,522.702C146.71,522.473 146.811,522.26 146.995,522.109C147.548,521.654 147.67,521.17 147.927,520.531C148.225,519.788 148.597,519.093 148.836,518.325C149.358,516.65 149.417,514.951 149.492,513.213C149.656,509.442 149.855,505.667 149.76,501.892C149.689,499.033 149.311,496.263 148.429,493.534C147.589,490.935 146.358,488.48 144.84,486.212C141.858,481.755 137.653,477.872 132.798,475.55C130.239,474.326 127.47,473.67 124.662,473.346C121.443,472.974 118.138,472.946 114.933,473.459C110.954,474.097 105.831,475.631 104.808,480.053C104.848,480.075 104.887,480.091 104.927,480.119C106.252,481.028 107.427,482.093 108.607,483.177C109.539,484.033 110.517,484.833 111.7,485.322C112.541,485.67 113.432,485.851 114.323,486.015C115.273,486.19 116.213,486.425 117.169,486.574C119.156,486.885 121.27,486.699 123.277,486.7C123.663,486.7 123.945,486.859 124.129,487.09C124.468,486.946 124.83,486.843 125.196,486.785C126.777,486.536 128.413,486.663 130.008,486.569C131.744,486.466 133.551,486.321 135.278,486.637C135.513,486.648 135.749,486.655 135.985,486.654C136.337,486.653 136.636,486.815 136.842,487.061C139.588,488.04 142.266,490.206 143.26,492.913C143.299,493.02 143.309,493.129 143.307,493.237C143.415,493.623 143.305,494.051 143.028,494.377C142.602,494.88 141.961,495.248 141.4,495.583C140.755,495.967 140.087,496.318 139.399,496.617C137.396,497.488 135.292,497.155 133.22,496.713C130.209,496.071 126.911,495.761 124.607,493.484C123.514,492.403 122.271,490.685 122.484,489.059C122.487,489.037 122.495,489.018 122.499,488.996C120.556,489.017 118.583,489.094 116.667,488.8C115.675,488.648 114.699,488.405 113.713,488.224C112.818,488.059 111.938,487.869 111.09,487.531C108.167,486.366 106.307,483.837 103.769,482.097C103.428,481.863 103.279,481.538 103.261,481.21C102.658,481.017 102.405,480.412 102.506,479.818C103.579,473.542 110.895,471.567 116.283,470.986C122.645,470.3 129.528,471.105 135.195,474.208C140.371,477.042 144.795,481.525 147.784,486.593C149.302,489.166 150.476,491.97 151.19,494.872C151.964,498.021 152.09,501.239 152.071,504.468C152.05,508.018 151.918,511.588 151.696,515.131C151.592,516.787 151.296,518.439 150.664,519.979C150.521,520.328 150.37,520.672 150.221,521.016C150.286,521.026 150.352,521.035 150.418,521.048C152.086,520.724 153.727,521.461 155.232,522.1C156.538,522.654 157.82,523.236 159.225,523.292C161.25,523.377 163.275,523.509 165.3,523.417Z" style="fill-rule:nonzero;"/>
            <path d="M154.495,524.261C153.834,523.979 153.171,523.697 152.483,523.485C151.944,523.319 151.314,523.187 150.902,523.281C150.725,523.321 150.561,523.322 150.412,523.294C150.264,523.321 150.103,523.32 149.929,523.281C149.169,523.109 148.676,523.523 148.447,524.262C148.215,525.011 148.308,525.94 148.831,526.501C149.477,527.194 150.84,527.518 151.794,527.805C153.031,528.178 154.201,528.589 155.37,529.143C156.674,529.762 157.901,530.519 158.805,531.667C159.762,532.883 159.969,534.268 160.147,535.758C160.291,536.956 160.709,538.106 161.55,538.996C161.97,539.44 162.484,539.753 162.976,539.892C163.357,539.233 164.39,539.184 164.869,539.745C165.134,539.651 165.397,539.538 165.661,539.388C166.477,538.924 167.18,538.288 167.766,537.542C169.108,535.834 169.578,533.61 170.607,531.724C171.164,530.703 171.873,529.763 172.842,529.102C173.268,528.811 173.826,528.446 174.363,528.438C174.451,528.437 174.536,528.452 174.62,528.468C174.737,528.406 174.907,528.31 174.861,528.333C175.038,528.244 175.216,528.158 175.397,528.077C175.852,527.874 176.316,527.691 176.779,527.508C177.57,527.195 178.539,526.821 179.126,526.299C179.605,525.873 179.952,525.129 179.759,524.601C179.734,524.566 179.672,524.455 179.673,524.44C179.628,524.391 179.566,524.321 179.573,524.328C179.511,524.268 179.468,524.225 179.253,524.1C178.914,523.904 178.642,523.819 178.197,523.704C177.321,523.477 176.522,523.404 175.603,523.352C175.335,523.337 175.039,523.344 174.738,523.342C174.437,523.376 174.137,523.406 173.873,523.474C172.841,523.739 171.856,524.152 170.865,524.538C169.012,525.26 167.174,525.63 165.186,525.713C163.163,525.797 161.14,525.662 159.119,525.583C157.457,525.519 156.005,524.905 154.495,524.261Z" style="fill-rule:nonzero;"/>
            <path d="M150.316,420.611C148.524,419.267 146.623,418.03 144.615,417.033C142.373,415.92 139.971,415.157 137.524,414.645C135.07,414.131 132.573,413.89 130.07,413.798C127.633,413.708 125.181,413.722 122.76,414.04C118.439,414.607 114.356,416.153 110.602,418.337C106.475,420.737 102.832,423.65 99.851,427.396C96.934,431.063 94.558,435.198 92.187,439.229C89.672,443.505 87.326,448.135 86.954,453.167C86.793,455.357 86.645,457.56 86.599,459.755C86.554,461.874 86.587,464.053 87.259,466.084C88.567,470.04 91.559,473.147 93.69,476.681C93.743,476.701 93.793,476.726 93.841,476.754C94.647,471.635 96.348,466.697 99.109,462.212C103.061,455.791 108.61,450.514 114.544,445.937C120.71,441.181 127.441,436.858 134.982,434.67C141.056,432.907 147.595,432.385 153.472,435.076C157.376,436.864 160.628,439.791 163.647,442.87C163.614,442.376 163.571,441.883 163.507,441.392C162.397,432.984 156.975,425.604 150.316,420.611Z" style="fill-rule:nonzero;"/>
            <path d="M174.484,528.524C174.344,528.505 174.373,528.573 174.484,528.524Z" style="fill-rule:nonzero;"/>
            <path d="M277.827,515.008C279.801,514.616 281.608,513.55 283.267,512.449C288.383,509.053 291.872,503.884 293.891,498.147C294.416,496.655 294.854,495.134 295.225,493.597C295.414,492.815 295.585,492.029 295.741,491.24C295.82,490.842 295.894,490.444 295.965,490.044C295.998,489.859 296.03,489.674 296.061,489.489C296.075,489.409 296.088,489.329 296.101,489.248C296.102,489.242 296.101,489.243 296.102,489.236C296.115,489.114 296.119,488.989 296.128,488.866C296.084,488.929 296.043,488.995 295.998,489.058C292.729,493.616 287.779,496.695 282.271,497.726C278.366,498.457 274.344,498.231 270.547,497.157C269.426,498.93 268.694,500.912 268.649,503.099C268.578,506.525 270.022,509.762 271.744,512.646C271.833,512.796 271.928,512.942 272.02,513.091C272.459,512.982 272.957,513.092 273.28,513.563C274.258,514.985 276.237,515.324 277.827,515.008Z" style="fill-rule:nonzero;"/>
            <path d="M201.349,488.184C201.35,488.188 201.351,488.196 201.352,488.202C201.363,488.206 201.367,488.206 201.385,488.213C201.384,488.213 201.369,488.2 201.35,488.183C201.351,488.183 201.349,488.183 201.349,488.184Z" style="fill-rule:nonzero;"/>
            <path d="M201.343,488.192L201.342,488.193L201.342,488.198L201.345,488.199L201.343,488.192Z" style="fill-rule:nonzero;"/>
            <path d="M140.653,659.456C140.655,659.458 140.657,659.46 140.658,659.462C140.632,659.386 140.638,659.42 140.653,659.456Z" style="fill-rule:nonzero;"/>
            <path d="M140.681,659.498L140.68,659.497L140.681,659.497L140.681,659.498Z" style="fill-rule:nonzero;"/>
            <path d="M140.662,659.473C140.661,659.471 140.659,659.469 140.658,659.468C140.66,659.472 140.662,659.476 140.664,659.479C140.663,659.477 140.662,659.475 140.662,659.473Z" style="fill-rule:nonzero;"/>
            <path d="M124.736,489.349L124.735,489.35L124.736,489.351L124.736,489.349Z" style="fill-rule:nonzero;"/>
            <path d="M189.298,489.763C189.292,489.765 189.28,489.769 189.28,489.77C189.281,489.772 189.286,489.771 189.289,489.771C189.291,489.768 189.294,489.766 189.298,489.763Z" style="fill-rule:nonzero;"/>
            <path d="M124.737,489.356L124.739,489.353L124.736,489.351L124.737,489.356Z" style="fill-rule:nonzero;"/>
            <path d="M189.506,489.444C189.506,489.445 189.507,489.446 189.507,489.447C189.535,489.282 189.509,489.361 189.506,489.444Z" style="fill-rule:nonzero;"/>
            <path d="M124.743,489.358C124.746,489.355 124.749,489.351 124.751,489.348C124.75,489.345 124.75,489.342 124.749,489.339C124.745,489.344 124.741,489.35 124.738,489.354C124.74,489.355 124.742,489.354 124.743,489.358Z" style="fill-rule:nonzero;"/>
            <path d="M189.379,489.735C189.371,489.74 189.366,489.742 189.355,489.748C189.366,489.743 189.376,489.738 189.386,489.732C189.384,489.734 189.382,489.734 189.379,489.735Z" style="fill-rule:nonzero;"/>
            <path d="M195.512,488.777C195.507,488.763 195.503,488.751 195.496,488.727C195.467,488.627 195.443,488.526 195.414,488.426C195.406,488.399 195.403,488.39 195.399,488.374C195.357,488.28 195.309,488.188 195.257,488.1C195.232,488.057 195.217,488.03 195.207,488.008C195.178,487.982 195.147,487.958 195.134,487.943C195.122,487.935 195.111,487.927 195.1,487.92C195.043,487.89 194.979,487.858 194.925,487.823C194.86,487.802 194.795,487.778 194.729,487.759C194.581,487.716 194.43,487.689 194.279,487.658C194.27,487.656 194.269,487.656 194.262,487.654C194.18,487.647 194.099,487.637 194.017,487.631C193.287,487.576 192.562,487.628 191.836,487.685C192.011,487.888 192.122,488.149 192.135,488.436C192.163,489.052 191.589,489.585 190.989,489.582C190.887,489.581 189.777,489.563 189.769,489.632C189.947,489.606 189.975,489.603 189.851,489.622C189.804,489.63 189.758,489.638 189.711,489.647C189.667,489.656 189.624,489.667 189.581,489.677C189.584,489.682 189.586,489.687 189.588,489.692C189.629,489.775 189.674,489.856 189.721,489.937C189.845,490.15 189.985,490.354 190.132,490.552C190.166,490.594 190.255,490.708 190.257,490.71C190.326,490.792 190.397,490.871 190.471,490.949C190.593,491.078 190.723,491.195 190.856,491.311C190.893,491.341 190.956,491.392 190.974,491.404C191.049,491.454 191.125,491.502 191.203,491.547C191.244,491.571 191.457,491.668 191.426,491.662C191.444,491.669 191.462,491.676 191.48,491.682C191.617,491.729 191.757,491.758 191.898,491.787C191.938,491.794 191.985,491.801 192.009,491.803C192.096,491.808 192.184,491.809 192.271,491.808C192.361,491.806 192.45,491.798 192.539,491.793C192.553,491.792 192.558,491.792 192.568,491.792C192.58,491.789 192.585,491.787 192.601,491.784C192.827,491.733 193.051,491.686 193.272,491.615C193.373,491.583 193.472,491.549 193.572,491.512C193.594,491.504 193.692,491.459 193.743,491.436C193.889,491.362 194.034,491.289 194.172,491.2C194.24,491.156 194.305,491.107 194.373,491.063C194.379,491.059 194.38,491.059 194.384,491.056C194.393,491.047 194.399,491.042 194.412,491.03C194.584,490.873 194.753,490.718 194.907,490.542C194.923,490.524 195.02,490.391 195.026,490.386C195.065,490.329 195.105,490.273 195.141,490.213C195.193,490.129 195.242,490.042 195.288,489.954C195.298,489.935 195.343,489.829 195.361,489.789C195.416,489.629 195.459,489.468 195.501,489.303C195.504,489.288 195.505,489.281 195.507,489.27C195.511,489.22 195.515,489.17 195.517,489.12C195.52,489.02 195.514,488.922 195.512,488.822C195.511,488.801 195.511,488.791 195.512,488.777Z" style="fill-rule:nonzero;"/>
            <path d="M187.278,489.984C187.255,489.873 187.242,489.761 187.235,489.651C186.383,490.319 185.543,491.171 185.116,492.18C185.307,492.295 185.499,492.408 185.696,492.512C186.243,492.801 186.806,493.069 187.381,493.297C188.366,493.687 189.34,493.749 190.33,493.656C189.828,493.417 189.368,493.09 188.957,492.68C188.253,491.978 187.481,490.985 187.278,489.984Z" style="fill-rule:nonzero;"/>
            <path d="M201.342,488.193L201.342,488.188C201.34,488.182 201.338,488.174 201.337,488.169C201.315,488.149 201.291,488.127 201.271,488.108C201.264,488.104 201.258,488.101 201.25,488.096C200.519,488.184 199.785,488.248 199.044,488.246C198.593,488.245 198.282,488.029 198.107,487.732C197.934,487.729 197.762,487.724 197.589,487.722C197.6,487.754 197.614,487.783 197.624,487.815C197.993,488.939 197.78,490.176 197.219,491.196C196.934,491.715 196.544,492.186 196.087,492.593C197.294,492.292 198.449,491.864 199.395,491.117C200.213,490.471 201.259,489.219 201.345,488.27C201.344,488.238 201.343,488.215 201.342,488.196C201.339,488.195 201.331,488.192 201.328,488.192C201.334,488.195 201.337,488.194 201.342,488.193Z" style="fill-rule:nonzero;"/>
        </g>
    </g>
</svg>
