<?xml version="1.0" encoding="UTF-8" standalone="no"?>
<!DOCTYPE svg PUBLIC "-//W3C//DTD SVG 1.1//EN" "http://www.w3.org/Graphics/SVG/1.1/DTD/svg11.dtd">
<svg width="100%" height="100%" viewBox="0 0 262 235" version="1.1" xmlns="http://www.w3.org/2000/svg" xmlns:xlink="http://www.w3.org/1999/xlink" xml:space="preserve" xmlns:serif="http://www.serif.com/" style="fill-rule:evenodd;clip-rule:evenodd;stroke-linejoin:round;stroke-miterlimit:2;">
    <g transform="matrix(1,0,0,1,-632.991,-579.694)">
        <g>
            <path d="M662.505,702.399C662.328,702.398 662.174,702.363 662.038,702.307C661.9,702.363 661.746,702.398 661.568,702.399C660.568,702.401 659.569,702.449 658.573,702.554C651.249,703.33 644.276,707.612 641.874,714.832C641.733,715.257 641.611,715.686 641.501,716.118C641.233,717.667 641.014,719.348 640.893,721.072C640.905,727.876 644.253,734.71 649.889,738.596C657.417,743.787 667.885,743.432 675.019,737.712C678.275,735.101 680.853,731.58 682.038,727.555C683.224,723.526 682.877,719.174 681.152,715.348C677.946,708.235 670.5,702.432 662.505,702.399Z" style="fill-rule:nonzero;"/>
            <path d="M869.021,705.994C872.156,706.064 875.291,706.133 878.426,706.203C878.494,705.731 878.617,705.264 878.772,704.819C878.996,704.178 879.306,703.545 879.441,702.877C879.464,702.762 879.478,702.645 879.498,702.529L879.498,702.527C879.515,702.398 879.532,702.269 879.55,702.139C879.586,701.88 879.623,701.621 879.685,701.367C879.767,701.03 879.893,700.717 880.063,700.433C875.31,700.327 870.558,700.222 865.805,700.116C865.961,700.427 866.107,700.745 866.305,701.038C866.75,701.694 867.267,702.294 867.672,702.979C868.222,703.91 868.874,704.912 869.021,705.994Z" style="fill-rule:nonzero;"/>
            <path d="M863.637,728.394C863.758,728.279 863.878,728.163 863.993,728.042C864.038,727.994 864.083,727.946 864.126,727.898C864.134,727.889 864.15,727.867 864.169,727.844C864.154,727.807 864.135,727.775 864.123,727.735C863.474,725.653 863.102,723.493 862.379,721.433C862.037,720.459 861.583,719.536 861.138,718.607C860.896,718.101 860.68,717.636 860.541,717.155C859.764,717.132 858.988,717.103 858.216,717.012C857.287,716.903 856.39,716.698 855.478,716.502C854.764,716.349 854.193,716.324 853.455,716.326C853.033,716.327 852.655,716.249 852.33,716.088C852.425,716.423 852.539,716.753 852.658,717.082C852.976,717.96 853.309,718.833 853.645,719.704C854.308,721.424 854.989,723.136 855.644,724.858C856.291,726.559 857.087,728.19 857.83,729.849C858.164,730.595 858.501,731.343 858.757,732.121C858.898,732.55 859.02,733.011 859.245,733.408C860.097,732.116 861.112,730.936 862.168,729.809C862.636,729.31 863.14,728.863 863.637,728.394Z" style="fill-rule:nonzero;"/>
            <path d="M885.608,733.323C885.383,733 885.155,732.678 884.927,732.357C884.813,732.196 884.699,732.036 884.584,731.876C884.552,731.831 884.496,731.76 884.493,731.755C884.462,731.717 884.43,731.679 884.398,731.642C883.751,730.895 882.955,730.303 882.237,729.63C881.142,729.947 880.091,730.391 879.02,730.783C878.003,731.155 876.914,731.475 875.918,731.867C875.93,733.088 876.161,734.293 876.222,735.514C876.285,736.78 876.18,738.053 876.126,739.32C877.877,738.648 879.671,738.097 881.44,737.462C883.301,736.794 885.118,736.01 887.006,735.431C886.998,735.419 886.987,735.408 886.979,735.395C886.541,734.69 886.081,734.002 885.608,733.323Z" style="fill-rule:nonzero;"/>
            <path d="M866.639,706.249C866.633,706.252 866.629,706.259 866.626,706.267C866.608,706.203 866.593,706.138 866.573,706.075C866.555,706.017 866.535,705.96 866.514,705.903C866.512,705.897 866.458,705.772 866.448,705.744C866.432,705.71 866.416,705.678 866.411,705.668C866.376,705.595 866.34,705.523 866.302,705.451C866.052,704.97 865.767,704.505 865.486,704.042C865.096,703.4 864.597,702.835 864.18,702.212C864.006,701.952 863.877,701.68 863.748,701.396C863.689,701.267 863.629,701.137 863.558,701.014C862.868,701.792 862.221,702.605 861.594,703.442C860.555,704.83 859.424,706.144 858.33,707.488C856.635,709.571 855.247,711.913 853.444,713.903C853.48,713.903 853.517,713.903 853.553,713.902C853.772,713.897 853.99,713.876 854.209,713.884C855.002,713.913 855.799,714.092 856.57,714.267C858.008,714.593 859.353,714.695 860.837,714.741C862.033,713.552 862.872,712.078 863.953,710.748C864.556,710.006 865.173,709.279 865.748,708.515C866.075,708.08 866.412,707.655 866.766,707.245C866.641,706.978 866.602,706.665 866.66,706.372C866.587,706.738 866.625,706.524 866.64,706.368C866.649,706.388 866.655,706.386 866.643,706.337C866.65,706.284 866.65,706.244 866.639,706.249Z" style="fill-rule:nonzero;"/>
            <path d="M881.328,727.369C881.356,727.323 881.391,727.278 881.425,727.234C881.894,725.46 882.785,723.837 883.312,722.064C883.826,720.335 884.18,718.557 884.932,716.922C883.936,715.724 883.201,714.335 882.29,713.07C881.714,712.27 881.103,711.496 880.553,710.676C880.072,709.959 879.583,709.27 878.997,708.636C875.657,708.562 872.316,708.487 868.976,708.413C868.482,708.931 868.034,709.484 867.606,710.054C866.987,710.879 866.318,711.661 865.669,712.46C864.666,713.695 863.857,715.087 862.763,716.243C862.77,716.481 862.949,716.792 863.041,716.987C863.259,717.451 863.486,717.91 863.703,718.374C864.138,719.299 864.541,720.24 864.859,721.212C865.427,722.948 865.787,724.743 866.291,726.497C867.674,726.933 868.981,727.563 870.325,728.106C871.739,728.678 873.184,729.172 874.565,729.824C875.769,729.319 877.012,728.937 878.242,728.495C879.272,728.125 880.282,727.694 881.328,727.369Z" style="fill-rule:nonzero;"/>
            <path d="M873.5,731.991C872.211,731.372 870.853,730.925 869.531,730.382C868.454,729.94 867.4,729.443 866.308,729.046C865.739,729.887 864.806,730.542 864.142,731.244C863.551,731.869 862.966,732.502 862.415,733.163C862.062,733.586 861.749,733.996 861.432,734.466C863.281,735.165 865.074,736.007 866.908,736.751C869.166,737.667 871.476,738.451 873.697,739.453C873.749,738.142 873.863,736.825 873.799,735.513C873.742,734.334 873.525,733.169 873.5,731.991Z" style="fill-rule:nonzero;"/>
            <path d="M881.896,702.703L881.896,702.706C881.88,702.824 881.865,702.942 881.849,703.06C881.822,703.255 881.797,703.452 881.75,703.643C881.59,704.285 881.304,704.894 881.089,705.518C880.983,705.826 880.888,706.139 880.824,706.459C880.82,706.479 880.803,706.608 880.795,706.657C880.793,706.697 880.791,706.743 880.79,706.752C880.786,706.843 880.795,706.934 880.798,707.025C881.427,707.717 881.985,708.471 882.505,709.248C883.037,710.044 883.615,710.804 884.181,711.576C885.076,712.796 885.778,714.174 886.745,715.327C886.867,715.355 886.986,715.4 887.097,715.46C887.156,715.453 887.215,715.446 887.275,715.45C889.401,715.612 891.427,715.501 893.447,715.104C891.838,713.079 890.607,710.769 889.087,708.673C888.063,707.26 886.989,705.886 886.019,704.435C885.119,703.09 884.189,701.793 883.075,700.615C883.04,700.578 883.016,700.539 882.986,700.5C882.88,700.498 882.773,700.495 882.667,700.493C882.711,700.917 882.498,701.346 882.16,701.616C882.159,701.618 882.157,701.621 882.156,701.623C882.149,701.629 882.143,701.636 882.137,701.642C882.141,701.639 882.146,701.636 882.15,701.634C882.138,701.655 882.126,701.677 882.114,701.697C882.064,701.911 881.992,702.118 881.953,702.336C881.932,702.457 881.916,702.581 881.896,702.703Z" style="fill-rule:nonzero;"/>
            <path d="M872.799,741.713L872.826,741.703C872.687,741.639 872.546,741.579 872.406,741.516L872.799,741.713Z" style="fill-rule:nonzero;"/>
            <path d="M882.071,701.687C882.084,701.678 882.092,701.673 882.103,701.665C882.105,701.662 882.106,701.66 882.107,701.658C882.095,701.667 882.084,701.679 882.071,701.687Z" style="fill-rule:nonzero;"/>
            <path d="M887.275,717.871C887.237,717.868 887.202,717.859 887.165,717.854C886.431,719.385 886.131,721.081 885.647,722.708C885.148,724.388 884.147,725.992 883.736,727.709C884.532,728.496 885.459,729.149 886.181,730.011C886.732,730.669 887.21,731.396 887.699,732.1C888.068,732.63 888.426,733.169 888.774,733.713C889.543,730.981 890.264,728.236 891.093,725.521C891.622,723.79 892.196,722.073 892.853,720.386C893.172,719.568 893.51,718.758 893.863,717.955C893.937,717.787 894.014,717.615 894.085,717.441C891.848,717.894 889.55,718.044 887.275,717.871Z" style="fill-rule:nonzero;"/>
            <path d="M655.344,588.276C655.342,588.284 655.337,588.298 655.338,588.302C655.363,588.408 655.354,588.322 655.344,588.276Z" style="fill-rule:nonzero;"/>
            <path d="M763.457,620.346C763.46,620.343 763.464,620.337 763.467,620.333C763.47,620.311 763.466,620.316 763.457,620.346Z" style="fill-rule:nonzero;"/>
            <path d="M770.69,620.09C770.367,619.802 769.781,619.429 769.383,619.255C768.486,618.864 767.451,618.771 766.523,618.896C766.502,618.901 766.271,618.939 766.207,618.952C766.091,618.975 765.975,619.001 765.861,619.03C765.638,619.085 765.418,619.151 765.202,619.227C765.151,619.245 764.934,619.332 764.916,619.336C764.846,619.367 764.776,619.399 764.707,619.432C764.528,619.52 764.353,619.615 764.184,619.72C764.086,619.781 763.992,619.85 763.895,619.913C763.886,619.919 763.883,619.92 763.877,619.924C763.869,619.932 763.864,619.937 763.853,619.947C763.739,620.052 763.632,620.166 763.519,620.271C763.515,620.274 763.51,620.282 763.505,620.287C763.502,620.293 763.499,620.298 763.499,620.3C763.496,620.323 763.47,620.367 763.445,620.407C763.373,621.045 762.824,621.35 762.302,621.318C762.297,621.329 762.293,621.339 762.289,621.348C762.119,621.761 761.962,622.179 761.817,622.602C760.089,627.641 759.527,632.98 759.143,638.235C758.672,644.675 758.661,651.168 759.15,657.608C759.545,662.813 760.138,668.202 762.043,673.141C762.092,673.268 762.143,673.394 762.193,673.52C762.208,673.557 762.224,673.594 762.239,673.631C762.246,673.647 762.253,673.664 762.257,673.674C762.354,673.894 762.452,674.113 762.558,674.33C762.746,674.719 762.95,675.1 763.176,675.468C763.398,675.83 763.646,676.174 763.903,676.512C763.937,676.555 764.048,676.698 764.077,676.733C764.142,676.814 764.208,676.894 764.275,676.973C764.402,677.124 764.533,677.272 764.667,677.416C764.922,677.692 765.191,677.956 765.476,678.2C765.542,678.256 765.609,678.309 765.675,678.364C765.684,678.37 765.69,678.374 765.701,678.382C765.828,678.469 765.954,678.559 766.085,678.639C766.208,678.714 766.335,678.779 766.462,678.846C766.495,678.864 766.516,678.875 766.533,678.885C766.549,678.89 766.568,678.895 766.598,678.905C767.042,678.933 767.494,678.941 767.948,678.925C768.115,678.826 768.279,678.73 768.441,678.625C768.488,678.586 768.642,678.467 768.693,678.419C768.788,678.33 768.879,678.238 768.967,678.143C769.07,678.031 769.163,677.912 769.263,677.798C769.264,677.796 769.265,677.796 769.266,677.794C769.308,677.734 769.353,677.676 769.395,677.615C769.58,677.351 769.75,677.077 769.909,676.797C770.09,676.479 770.256,676.154 770.411,675.823C770.494,675.646 770.573,675.468 770.652,675.289C770.658,675.275 770.662,675.267 770.664,675.262C770.669,675.248 770.675,675.234 770.684,675.212C770.724,675.11 770.766,675.009 770.806,674.908C771.5,673.144 771.994,671.302 772.408,669.454C772.647,668.383 772.857,667.306 773.044,666.225C773.145,665.645 773.239,665.064 773.328,664.481C773.373,664.183 773.418,663.885 773.46,663.586C773.48,663.444 773.5,663.302 773.52,663.16C773.523,663.138 773.549,662.946 773.558,662.881C774.242,657.752 774.577,652.574 774.7,647.403C774.817,642.503 774.748,637.587 774.352,632.7C774.268,631.666 774.168,630.632 774.045,629.602C774.016,629.362 773.986,629.123 773.955,628.883C773.951,628.853 773.949,628.834 773.947,628.819C773.945,628.804 773.942,628.783 773.937,628.752C773.922,628.644 773.907,628.537 773.892,628.429C773.829,627.992 773.761,627.555 773.685,627.119C773.362,625.245 772.958,623.301 771.97,621.653C771.616,621.06 771.215,620.556 770.69,620.09Z" style="fill-rule:nonzero;"/>
            <path d="M763.529,620.248C763.575,620.184 763.553,620.212 763.529,620.248Z" style="fill-rule:nonzero;"/>
            <path d="M763.473,620.325L763.467,620.333L763.473,620.325Z" style="fill-rule:nonzero;"/>
            <path d="M758.317,712.083C757.852,712.895 757.391,713.699 756.952,714.492C755.497,717.121 754.068,719.862 753.534,722.849C752.986,725.914 753.874,728.875 755.813,731.285C756.545,732.195 757.421,732.954 758.268,733.742C757.543,731.697 757.161,729.5 756.924,727.405C756.49,723.572 756.635,719.645 757.351,715.855C757.583,714.617 757.892,713.331 758.317,712.083Z" style="fill-rule:nonzero;"/>
            <path d="M763.446,620.391L763.446,620.396C763.458,620.37 763.465,620.348 763.468,620.333C763.466,620.336 763.459,620.345 763.458,620.347C763.453,620.359 763.45,620.37 763.446,620.391Z" style="fill-rule:nonzero;"/>
            <path d="M763.775,780.384C763.791,780.392 763.847,780.429 763.86,780.438C763.928,780.481 763.996,780.522 764.066,780.562C764.197,780.637 764.333,780.706 764.469,780.772C764.742,780.904 765.024,781.008 765.313,781.098C765.985,781.308 766.663,781.422 767.368,781.382C767.984,781.347 768.59,781.193 769.138,780.908C769.35,780.798 769.566,780.68 769.764,780.543C769.774,780.53 769.827,780.483 769.865,780.449C769.882,780.422 769.9,780.397 769.912,780.367C769.912,780.366 769.912,780.366 769.913,780.365C769.924,780.334 769.936,780.302 769.946,780.27C769.982,780.152 770.02,780.035 770.054,779.917C770.146,779.604 770.238,779.291 770.319,778.975C770.467,778.4 770.592,777.796 770.443,777.21C770.365,776.905 770.224,776.643 770.048,776.385C770.047,776.384 770.047,776.385 770.047,776.384C770.027,776.359 770.007,776.334 769.986,776.311C769.907,776.222 769.828,776.133 769.745,776.047C769.393,775.682 769.02,775.368 768.653,775.11C768.405,774.936 768.062,774.725 767.768,774.561C767.758,774.561 767.748,774.56 767.738,774.561C767.622,774.566 767.506,774.574 767.391,774.583C767.31,774.59 767.229,774.599 767.148,774.607C767.144,774.607 767.13,774.609 767.113,774.611C767.078,774.616 767.019,774.625 767.007,774.627C766.948,774.638 766.888,774.647 766.829,774.658C766.73,774.677 766.631,774.697 766.532,774.719C766.335,774.764 766.144,774.821 765.952,774.883C765.935,774.889 765.919,774.895 765.902,774.902C765.809,774.953 765.712,774.996 765.619,775.048C765.535,775.095 765.454,775.146 765.373,775.199C765.331,775.226 765.11,775.383 765.155,775.348C765.093,775.395 764.809,775.644 764.674,775.778C764.507,775.942 764.35,776.116 764.199,776.295C764.174,776.325 764.157,776.345 764.143,776.361C764.138,776.368 764.135,776.372 764.127,776.383C764.094,776.427 764.062,776.471 764.03,776.516C763.956,776.62 763.884,776.727 763.815,776.836C763.688,777.036 763.571,777.242 763.467,777.455C763.332,777.728 763.17,778.186 763.092,778.643C763.091,778.651 763.09,778.651 763.089,778.657C763.088,778.673 763.088,778.686 763.087,778.71C763.084,778.759 763.081,778.808 763.079,778.858C763.075,778.972 763.083,779.085 763.084,779.198L763.084,779.246C763.087,779.257 763.091,779.273 763.097,779.297C763.121,779.406 763.15,779.512 763.182,779.619C763.185,779.629 763.204,779.678 763.217,779.712C763.228,779.734 763.241,779.759 763.243,779.763C763.297,779.857 763.351,779.951 763.414,780.04C763.447,780.079 763.482,780.117 763.518,780.153C763.6,780.23 763.684,780.312 763.775,780.384Z" style="fill-rule:nonzero;"/>
            <path d="M775.173,666.226C774.527,670.107 773.729,674.242 771.806,677.724C771.751,677.824 771.692,677.924 771.633,678.024C772.225,677.701 772.758,677.282 773.195,676.737C773.519,676.332 774.175,676.361 774.57,676.644C775.721,675.107 776.986,673.648 777.963,671.99C779.04,670.161 779.537,668.095 779.841,666.01C780.477,661.649 780.29,657.203 780.422,652.811C780.559,648.255 780.549,643.682 780.036,639.147C779.534,634.709 778.511,630.237 776.57,626.196C776.127,625.273 775.6,624.418 775.052,623.578C776.112,627.135 776.373,630.99 776.602,634.67C776.926,639.882 776.93,645.117 776.714,650.333C776.495,655.65 776.047,660.974 775.173,666.226Z" style="fill-rule:nonzero;"/>
            <path d="M755.031,632.424C753.869,636.837 753.445,641.402 753.339,645.953C753.237,650.327 753.404,654.717 753.496,659.091C753.585,663.328 753.591,668.174 755.765,671.954C756.578,673.367 757.604,674.651 758.603,675.948C758.89,675.733 759.279,675.679 759.68,675.944C760.064,676.197 760.392,676.497 760.659,676.84C761.147,677.24 761.695,677.573 762.282,677.85C762.12,677.639 761.962,677.428 761.811,677.218C760.595,675.534 759.858,673.513 759.277,671.534C757.597,665.816 757.07,659.721 756.81,653.792C756.52,647.165 756.686,640.489 757.431,633.895C757.754,631.04 758.175,628.185 758.833,625.386C759.08,624.338 759.358,623.287 759.699,622.257C758.891,623.467 758.048,624.653 757.394,625.976C756.379,628.035 755.615,630.208 755.031,632.424Z" style="fill-rule:nonzero;"/>
            <path d="M763.414,780.038C763.417,780.042 763.419,780.047 763.422,780.051C763.491,780.145 763.43,780.056 763.414,780.038Z" style="fill-rule:nonzero;"/>
            <path d="M715.31,588.327C714.021,587.446 712.74,586.517 711.309,585.876C709.843,585.219 708.364,585.139 706.787,585.065C705.009,584.982 703.225,584.864 701.446,584.965C700.023,585.046 698.76,585.391 697.527,586.113C696.285,586.839 695.186,587.769 694.126,588.735C691.902,590.76 689.834,592.883 687.234,594.441C684.754,595.926 682.127,596.566 679.254,596.667C675.439,596.802 671.615,596.626 667.798,596.715C666.56,596.744 665.322,596.787 664.085,596.825C664.556,597.178 665.034,597.521 665.527,597.844C667.28,598.991 669.179,599.837 671.307,599.833C673.579,599.829 675.846,599.917 678.118,599.977C682.496,600.092 687.312,600.131 691.344,598.158C692.923,597.386 693.85,595.734 694.902,594.401C696.04,592.961 697.482,591.925 699.14,591.151C702.65,589.513 706.616,588.942 710.463,588.952C712.376,588.957 714.29,589.121 716.175,589.446C716.54,589.509 723.126,592.175 723.486,592.257C722.842,591.801 715.965,588.774 715.31,588.327Z" style="fill-rule:nonzero;"/>
            <path d="M818.045,813.507C817.961,813.331 817.861,813.163 817.748,813.004C817.681,812.924 817.613,812.845 817.54,812.771C817.294,812.78 817.04,812.676 816.826,812.414C815.831,811.197 813.805,810.936 812.374,810.543C812.006,810.442 811.645,810.322 811.289,810.193C811.255,810.196 811.223,810.203 811.187,810.203L722.829,810.203C722.424,810.354 722.008,810.49 721.577,810.609C720.189,810.991 718.244,811.251 717.172,812.334C717.293,812.568 717.32,812.847 717.258,813.101C717.25,813.131 717.246,813.162 717.239,813.193C717.253,813.213 717.263,813.236 717.278,813.256C717.429,813.445 717.58,813.634 717.712,813.838C717.717,813.846 717.719,813.856 717.724,813.864C724.85,813.864 731.977,813.869 739.103,813.877C752.185,813.891 765.267,813.915 778.35,813.935C791.37,813.955 804.39,813.971 817.41,813.971C817.456,813.971 817.496,813.979 817.539,813.984C817.678,813.92 817.828,813.887 817.997,813.866C817.921,813.876 817.845,813.887 817.77,813.897C817.888,813.88 818.003,813.852 818.116,813.817C818.117,813.817 818.117,813.816 818.118,813.816C818.118,813.794 818.118,813.772 818.117,813.75C818.096,813.667 818.073,813.586 818.045,813.507Z" style="fill-rule:nonzero;"/>
            <path d="M658.147,596.81C658.123,596.808 658.1,596.805 658.077,596.803L658.204,596.854C658.201,596.852 658.197,596.85 658.194,596.848C658.177,596.835 658.163,596.821 658.147,596.81Z" style="fill-rule:nonzero;"/>
            <path d="M770.986,583.152C770.987,583.152 770.987,583.152 770.986,583.152C771.016,583.162 771.03,583.166 770.986,583.152Z" style="fill-rule:nonzero;"/>
            <path d="M771.064,583.205C771.05,583.184 771.022,583.17 770.991,583.158C771.038,583.21 771.123,583.298 771.064,583.205Z" style="fill-rule:nonzero;"/>
            <path d="M761.336,591.178C761.431,593.642 762.215,596.039 762.438,598.496C762.681,601.177 762.577,603.874 762.49,606.56C762.409,609.049 762.489,611.54 762.407,614.028C762.355,615.625 762.152,617.22 761.625,618.718C761.77,618.692 761.919,618.704 762.064,618.743C762.203,618.595 762.354,618.459 762.511,618.334C764.271,616.935 766.739,616.457 768.92,616.911C770.211,617.179 771.297,617.804 772.198,618.644C771.664,617.139 771.457,615.53 771.404,613.925C771.325,611.508 771.406,609.088 771.329,606.67C771.245,604.052 771.137,601.425 771.339,598.81C771.479,597.004 771.919,595.236 772.213,593.453C772.021,593.054 772.027,592.6 772.384,592.243C772.384,592.243 772.385,592.242 772.386,592.242C772.422,591.921 772.45,591.6 772.468,591.277C772.603,588.769 771.356,586.501 771.404,584.008C771.404,583.973 771.412,583.944 771.416,583.911C771.247,583.86 771.09,583.778 770.972,583.66C770.799,583.487 770.709,583.281 770.685,583.069C770.604,583.046 770.525,583.021 770.442,583.002C770.262,582.961 770.079,582.931 769.897,582.901C769.872,582.897 769.847,582.893 769.822,582.89C769.818,582.89 769.817,582.89 769.812,582.889C769.712,582.878 769.611,582.866 769.511,582.856C769.07,582.812 768.628,582.786 768.186,582.77C767.178,582.735 766.167,582.757 765.161,582.83C764.923,582.847 764.684,582.868 764.447,582.892C764.331,582.904 764.216,582.916 764.1,582.93C764.062,582.934 763.945,582.95 763.898,582.955C763.494,583.012 763.09,583.081 762.693,583.175C762.511,583.218 762.33,583.266 762.151,583.323C762.123,583.332 762.095,583.341 762.068,583.351C762.267,583.521 762.403,583.774 762.41,584.112C762.454,586.536 761.242,588.747 761.336,591.178Z" style="fill-rule:nonzero;"/>
            <path d="M883.218,590.049C884.067,588.926 884.793,587.711 885.487,586.488C885.796,585.944 886.112,585.364 886.19,584.732C886.228,584.426 886.159,584.1 885.995,583.831C885.513,583.043 884.293,582.425 883.36,581.939C882.141,581.305 880.909,580.776 879.554,580.506C878.334,580.263 876.929,580.232 875.802,580.834C875.532,580.978 875.279,581.144 875.055,581.353C874.982,581.421 874.915,581.494 874.845,581.565C874.707,581.706 874.818,581.596 874.8,581.621C874.783,581.644 874.771,581.671 874.756,581.696C874.776,581.72 874.796,581.743 874.806,581.752C874.859,581.8 874.911,581.849 874.964,581.897C874.97,581.902 874.968,581.902 874.965,581.901C874.974,581.907 874.982,581.912 874.995,581.921C875.321,582.135 875.652,582.328 876,582.504C876.796,582.906 877.621,583.249 878.408,583.67C879.195,584.091 879.979,584.605 880.493,585.35C881.001,586.086 881.007,586.901 880.858,587.746C880.552,589.481 879.779,591.228 878.864,592.774C880.975,591.716 882.731,590.692 883.218,590.049Z" style="fill-rule:nonzero;"/>
            <path d="M878.865,592.776C876.363,594.033 873.367,595.338 871.398,596.12C873.937,595.211 878.311,593.668 878.339,593.626C878.518,593.352 878.693,593.066 878.865,592.776Z" style="fill-rule:nonzero;"/>
            <path d="M874.715,581.767C874.719,581.758 874.723,581.75 874.73,581.736C874.729,581.733 874.729,581.729 874.729,581.725C874.697,581.785 874.658,581.86 874.715,581.767Z" style="fill-rule:nonzero;"/>
            <path d="M874.751,581.72C874.756,581.717 874.758,581.718 874.759,581.723C874.76,581.722 874.757,581.716 874.752,581.708C874.75,581.711 874.749,581.714 874.747,581.717C874.748,581.718 874.749,581.719 874.751,581.72Z" style="fill-rule:nonzero;"/>
            <path d="M874.749,581.687C874.75,581.688 874.751,581.689 874.751,581.69C874.764,581.662 874.771,581.646 874.749,581.687Z" style="fill-rule:nonzero;"/>
            <path d="M874.731,581.744L874.729,581.747L874.731,581.744Z" style="fill-rule:nonzero;"/>
            <path d="M813.023,589.191C813.009,589.193 812.995,589.195 812.981,589.197C812.987,589.201 812.993,589.207 812.999,589.211C813.007,589.204 813.015,589.198 813.023,589.191Z" style="fill-rule:nonzero;"/>
            <path d="M721.188,589.993C721.146,589.983 721.104,589.973 721.061,589.962C721.087,589.983 721.113,590.003 721.138,590.024C721.155,590.015 721.171,590.002 721.188,589.993Z" style="fill-rule:nonzero;"/>
            <path d="M874.734,581.667L874.729,581.664L874.733,581.669L874.734,581.667Z" style="fill-rule:nonzero;"/>
            <path d="M875.097,594.198C875.13,594.197 875.164,594.197 875.197,594.195C875.227,594.166 875.254,594.132 875.284,594.102C875.224,594.135 875.16,594.166 875.097,594.198Z" style="fill-rule:nonzero;"/>
            <path d="M874.747,581.7C874.746,581.699 874.745,581.697 874.744,581.696C874.742,581.7 874.739,581.705 874.737,581.709C874.739,581.711 874.74,581.711 874.741,581.712C874.743,581.708 874.745,581.704 874.747,581.7Z" style="fill-rule:nonzero;"/>
            <path d="M747.283,788.686C745.205,789.949 743.086,791.176 741.164,792.674C739.156,794.24 737.154,795.909 735.26,797.612C733.489,799.206 732.421,801.142 731.145,803.118C729.933,804.992 728.388,806.667 726.636,808.05C726.617,808.065 726.597,808.079 726.578,808.094L807.382,808.094C805.569,806.763 804.012,805.066 802.765,803.168C801.44,801.152 800.369,799.145 798.551,797.509C796.702,795.845 794.744,794.233 792.794,792.688C789.075,789.741 784.675,787.797 780.976,784.813C779.035,783.247 777.415,781.347 775.662,779.584C774.698,778.614 773.581,777.8 772.524,776.931C772.593,777.263 772.633,777.607 772.614,777.973C772.571,778.848 772.322,779.697 772.074,780.532C771.907,781.093 771.7,781.649 771.251,782.047C769.992,783.162 768.082,783.64 766.436,783.465C764.86,783.298 762.957,782.742 761.889,781.489C760.988,780.432 760.8,779.054 761.132,777.731C761.209,777.424 761.313,777.118 761.438,776.816C761.262,776.95 761.086,777.083 760.912,777.217C759.929,777.97 759.023,778.811 758.151,779.689C756.443,781.407 754.863,783.26 752.983,784.798C751.196,786.258 749.25,787.49 747.283,788.686Z" style="fill-rule:nonzero;"/>
            <path d="M775.717,731.083C775.478,732.1 775.156,733.26 774.729,734.428C775.798,733.329 777.028,732.388 777.998,731.182C778.985,729.955 779.76,728.551 780.153,727.021C781.396,722.175 778.666,717.305 776.131,713.003C776.153,713.101 776.175,713.199 776.195,713.297C776.76,716.071 776.909,718.938 776.846,721.762C776.774,724.888 776.432,728.037 775.717,731.083Z" style="fill-rule:nonzero;"/>
            <path d="M874.732,581.677C874.725,581.667 874.723,581.664 874.719,581.659C874.632,581.592 874.687,581.659 874.728,581.7C874.728,581.688 874.73,581.682 874.732,581.677Z" style="fill-rule:nonzero;"/>
            <path d="M771.786,739.527C770.542,740.812 768.974,741.626 766.998,741.498C765.141,741.378 763.337,740.516 761.884,739.29C762.085,739.812 762.275,740.336 762.468,740.85C763.385,743.293 764.252,745.778 764.521,748.386C764.786,750.956 764.579,753.543 764.52,756.117C764.459,758.812 764.478,761.512 764.467,764.208C764.457,766.648 764.621,769.117 764.494,771.553C764.458,772.234 764.352,772.876 764.153,773.48C764.446,773.286 764.751,773.116 765.068,772.979C765.113,772.553 765.395,772.118 765.829,772.052C766.672,771.922 767.489,772.105 768.255,772.443C768.657,772.45 769.059,772.486 769.445,772.56C769.392,772.281 769.352,771.996 769.33,771.699C769.146,769.264 769.352,766.769 769.343,764.328C769.333,761.558 769.351,758.783 769.289,756.014C769.232,753.505 769.036,750.988 769.27,748.483C769.507,745.943 770.312,743.539 771.189,741.157C771.387,740.622 771.581,740.075 771.786,739.527Z" style="fill-rule:nonzero;"/>
            <path d="M763.901,708.253C763.949,708.161 763.971,708.066 763.981,707.908C763.973,708.036 763.942,708.148 763.901,708.253Z" style="fill-rule:nonzero;"/>
            <path d="M761.131,707.162C761.492,706.79 761.931,706.778 762.285,706.958C762.43,706.802 762.606,706.668 762.803,706.552C763.946,705.884 765.445,705.708 766.738,705.656C768.531,705.583 770.377,705.89 771.984,706.712C772.353,706.901 772.687,707.117 772.998,707.354C772.02,705.384 771.172,703.344 770.688,701.205C770.34,699.666 770.168,698.066 770.287,696.488C770.455,694.263 771.124,692.108 771.321,689.884C771.549,687.317 771.126,684.72 771.719,682.183C771.901,681.403 772.18,680.656 772.52,679.938C772.215,680.094 771.902,680.234 771.582,680.356C770.527,680.76 769.398,680.964 768.256,681.025C767.597,681.191 766.921,681.17 766.261,680.992C765.607,680.936 764.961,680.842 764.333,680.713C763.235,680.487 762.108,680.129 761.07,679.61C761.484,680.399 761.827,681.228 762.053,682.125C762.702,684.709 762.256,687.367 762.489,689.988C762.683,692.17 763.327,694.285 763.513,696.466C763.846,700.384 762.538,704.067 760.786,707.565C760.902,707.431 761.008,707.289 761.131,707.162Z" style="fill-rule:nonzero;"/>
            <path d="M720.737,592.423C720.715,592.405 720.692,592.387 720.67,592.369C720.659,592.371 720.648,592.371 720.637,592.373L720.737,592.423Z" style="fill-rule:nonzero;"/>
            <path d="M730.822,593.82C732.5,593.748 734.173,593.557 735.853,593.535C737.77,593.51 739.688,593.533 741.605,593.533C743.817,593.533 745.991,593.615 748.196,593.76C750.516,593.913 752.849,594.05 755.175,593.947C756.227,593.9 757.022,593.841 757.994,593.601C758.199,593.55 758.402,593.493 758.602,593.424C758.673,593.399 758.744,593.373 758.815,593.345C758.845,593.332 758.886,593.313 758.917,593.297C759.011,593.247 759.102,593.193 759.195,593.142C759.221,593.128 759.244,593.113 759.263,593.1C759.305,593.06 759.36,593.004 759.401,592.965C759.325,592.439 759.263,591.912 759.235,591.38C759.173,590.23 759.4,589.132 759.659,588.043C759.5,587.926 759.368,587.759 759.287,587.532C759.062,586.896 758.787,586.31 758.431,585.718C755.511,580.862 749.061,579.942 743.756,580.316C740.921,580.516 738.073,581.115 735.373,582.09C733.876,582.631 732.494,583.352 730.882,583.872C729.908,584.186 728.933,584.525 728.138,585.195C727.413,585.807 726.826,586.559 726.279,587.329C725.261,588.761 724.277,590.306 722.862,591.373C723.928,592.168 725.074,592.996 726.337,593.437C727.758,593.933 729.34,593.883 730.822,593.82Z" style="fill-rule:nonzero;"/>
            <path d="M759.306,729.259C759.593,730.85 760,732.437 760.62,733.934C761.069,735.017 761.801,736.285 762.605,737.11C762.725,737.233 762.849,737.352 762.978,737.466C763.009,737.494 763.158,737.617 763.195,737.651C763.452,737.85 763.721,738.037 763.994,738.213C764.284,738.4 764.581,738.576 764.887,738.734C765.009,738.797 765.134,738.857 765.259,738.916C765.311,738.94 765.364,738.963 765.416,738.986C765.427,738.99 765.437,738.994 765.452,738.999C765.71,739.096 765.969,739.185 766.236,739.254C766.362,739.287 766.489,739.312 766.616,739.34C766.665,739.351 766.716,739.357 766.766,739.367C766.771,739.368 766.771,739.368 766.776,739.369L766.781,739.369C767.02,739.389 767.257,739.404 767.497,739.395C767.601,739.391 767.705,739.379 767.809,739.373C767.827,739.372 767.834,739.372 767.845,739.372C767.86,739.368 767.875,739.364 767.901,739.357C768.132,739.301 768.36,739.253 768.586,739.174C768.629,739.159 768.752,739.105 768.787,739.091C768.853,739.06 768.919,739.03 768.984,738.995C769.188,738.888 769.38,738.763 769.571,738.635C769.61,738.609 769.647,738.58 769.685,738.553L769.686,738.553C769.69,738.549 769.691,738.549 769.696,738.545C769.769,738.483 769.843,738.422 769.915,738.359C770.109,738.187 770.292,738.003 770.467,737.811C770.544,737.726 770.619,737.64 770.693,737.552C770.715,737.526 770.818,737.392 770.859,737.342C771.166,736.926 771.445,736.491 771.697,736.039C771.848,735.769 771.989,735.493 772.123,735.214C772.175,735.105 772.226,734.995 772.277,734.884C772.296,734.842 772.386,734.635 772.408,734.586C772.651,734.003 772.866,733.407 773.059,732.805C773.474,731.509 773.79,730.182 774.038,728.844C774.536,726.16 774.765,723.335 774.752,720.458C774.746,719.116 774.685,717.773 774.55,716.437C774.472,715.664 774.445,715.449 774.331,714.762C774.243,714.227 774.138,713.694 774.012,713.167C773.894,712.673 773.757,712.183 773.59,711.704C773.552,711.595 773.512,711.485 773.471,711.377C773.457,711.34 773.411,711.232 773.388,711.174C773.324,711.032 773.26,710.89 773.189,710.751C772.5,709.425 771.329,708.575 769.972,708.152C769.188,707.907 768.561,707.808 767.792,707.77C767.406,707.751 767.018,707.752 766.631,707.771C766.447,707.78 766.263,707.794 766.08,707.812C766.009,707.819 765.938,707.827 765.867,707.835C765.842,707.838 765.829,707.839 765.812,707.841C765.804,707.842 765.8,707.843 765.785,707.845C765.209,707.93 764.665,708.08 764.113,708.255C764.108,708.257 764.107,708.257 764.102,708.258C764.051,708.283 763.998,708.306 763.948,708.333C763.911,708.353 763.874,708.375 763.838,708.398C763.554,708.878 762.924,709.028 762.453,708.845C762.413,708.889 762.371,708.932 762.331,708.977C762.305,709.006 762.16,709.188 762.127,709.226C761.963,709.444 761.809,709.669 761.665,709.901C760.107,712.399 759.402,715.609 759.058,718.588C758.644,722.119 758.68,725.791 759.306,729.259Z" style="fill-rule:nonzero;"/>
            <path d="M759.393,593.007C759.396,593.003 759.401,592.999 759.404,592.994L759.404,592.992C759.399,592.998 759.398,593 759.393,593.007Z" style="fill-rule:nonzero;"/>
            <path d="M683.951,664.336C681.932,655.35 679.674,646.418 677.179,637.552C674.663,628.611 671.91,619.737 668.927,610.94C667.375,606.363 665.754,601.811 664.08,597.278C664.16,597.308 664.214,597.328 664.236,597.336C664.197,597.28 664.125,597.212 664.028,597.134C663.896,596.777 663.77,596.418 663.638,596.061C663.413,595.456 662.497,595.65 662.545,596.204C662.291,596.061 662.019,595.91 661.73,595.753C661.793,595.627 661.854,595.499 661.917,595.373C662.251,594.705 661.248,594.115 660.912,594.786C660.843,594.925 660.776,595.064 660.706,595.203C657.84,593.677 654.25,591.85 653.984,591.231C653.612,590.364 653.242,589.432 653.219,588.475C653.197,587.594 653.647,586.818 654.251,586.208C655.542,584.905 657.318,584.179 658.806,583.141C658.85,583.11 658.893,583.078 658.936,583.045C659.015,582.981 659.093,582.917 659.168,582.849C659.27,582.756 659.364,582.656 659.457,582.554C659.411,582.588 659.554,582.373 659.594,582.339C659.599,582.324 659.604,582.309 659.609,582.296C659.609,582.293 659.608,582.293 659.607,582.29C659.603,582.276 659.603,582.269 659.603,582.263C659.598,582.256 659.595,582.253 659.589,582.244C659.576,582.225 659.527,582.15 659.505,582.113C659.471,582.076 659.399,581.995 659.379,581.975C658.977,581.57 658.465,581.284 657.922,581.119C655.347,580.338 652.573,581.636 650.372,582.88C649.883,583.156 649.372,583.458 648.978,583.815C648.62,584.14 648.429,584.39 648.338,584.713C648.245,585.043 648.286,585.399 648.437,585.872C648.643,586.516 649.017,587.099 649.354,587.681C650.673,589.96 652.197,592.324 654.542,593.662C654.74,593.775 657.751,594.912 660.368,595.892C655.494,605.719 650.999,615.733 646.961,625.933C643.619,634.374 640.604,642.938 637.808,651.574C636.487,655.654 635.211,659.748 633.935,663.842C633.934,663.847 633.934,663.852 633.932,663.857L632.991,663.847C632.991,663.847 636.376,668.925 638.069,672.311C639.762,675.696 647.661,679.082 647.661,679.082C647.661,679.082 657.253,680.21 665.153,679.646C673.053,679.082 679.259,673.439 679.259,673.439L684.337,664.411L683.953,664.407C683.951,664.382 683.957,664.361 683.951,664.336ZM635.144,663.869C637.485,656.364 639.844,648.864 642.433,641.439C645.718,632.02 649.352,622.725 653.361,613.591C655.919,607.762 658.629,602.001 661.461,596.3C661.924,596.473 662.354,596.633 662.733,596.775C665.924,605.381 668.903,614.066 671.651,622.824C674.422,631.655 676.961,640.558 679.26,649.523C680.527,654.462 681.717,659.419 682.837,664.393L635.144,663.869Z" style="fill-rule:nonzero;"/>
            <path d="M872.799,680.773C880.699,680.209 886.905,674.566 886.905,674.566L891.983,665.538L891.599,665.534C891.597,665.51 891.603,665.49 891.597,665.465C889.578,656.479 887.319,647.547 884.825,638.681C882.309,629.74 879.556,620.866 876.573,612.069C875.021,607.492 873.4,602.94 871.726,598.407C871.806,598.437 871.86,598.457 871.882,598.465C871.843,598.409 871.771,598.341 871.674,598.263C871.542,597.906 871.416,597.547 871.284,597.19C871.059,596.585 870.143,596.779 870.191,597.333C869.972,597.209 869.733,597.078 869.487,596.943C869.599,596.864 869.714,596.788 869.826,596.708C870.197,596.585 870.74,596.381 871.396,596.121C870.72,596.363 870.176,596.56 869.877,596.671C870.042,596.551 870.206,596.429 870.369,596.305C870.12,596.301 869.872,596.294 869.623,596.289C869.628,596.242 869.631,596.195 869.624,596.151C869.572,596.195 869.522,596.242 869.47,596.286C866.894,596.23 864.318,596.14 861.742,596.136C859.749,596.133 857.754,596.163 855.761,596.135C854.311,596.114 852.851,596.029 851.429,595.733C848.61,595.147 846.016,593.563 843.826,591.74C841.569,589.861 839.62,587.592 837.153,585.972C836.038,585.24 834.828,584.656 833.491,584.496C831.689,584.28 829.849,584.387 828.042,584.474C826.391,584.553 824.768,584.53 823.189,585.086C821.769,585.586 820.497,586.448 819.259,587.287C818.443,587.84 813.288,589.108 810.67,589.979C810.201,589.496 809.777,588.972 809.394,588.46C808.279,586.968 807.332,585.169 805.686,584.186C804.78,583.645 803.754,583.391 802.764,583.052C801.946,582.772 801.179,582.39 800.389,582.045C799.363,581.597 797.939,581.122 796.72,580.793C793.928,580.039 791.098,579.653 788.204,579.698C782.901,579.779 777.102,581.601 775.196,586.986C775.011,587.509 774.559,587.72 774.121,587.703C774.379,588.742 774.616,589.787 774.593,590.876C774.58,591.489 774.52,592.097 774.436,592.702C774.439,592.704 774.442,592.705 774.445,592.707C774.503,592.737 774.562,592.765 774.621,592.792C774.653,592.805 774.709,592.828 774.745,592.84C774.943,592.906 775.139,592.97 775.341,593.022C777.298,593.53 779.562,593.468 781.698,593.4C783.88,593.33 786.055,593.141 788.235,593.025C789.49,592.958 790.746,592.983 792.003,592.983C793.968,592.983 795.935,592.953 797.9,592.986C799.633,593.016 801.358,593.214 803.089,593.278C804.573,593.333 806.139,593.36 807.552,592.838C808.854,592.356 810.035,591.489 811.138,590.666C811.185,590.631 811.231,590.593 811.278,590.557C811.162,590.457 811.052,590.349 810.941,590.242C813.23,589.823 817.047,589.148 817.324,589.088C818.297,588.878 819.284,588.732 820.272,588.617C822.281,588.383 824.316,588.341 826.333,588.5C830.197,588.804 834.49,589.759 837.541,592.297C838.988,593.5 840.06,595.073 841.415,596.37C842.859,597.752 844.794,598.357 846.708,598.796C851.04,599.791 855.549,599.439 859.951,599.319C862.081,599.261 864.218,599.472 866.254,598.724C866.661,598.575 867.055,598.391 867.442,598.194C862.79,607.645 858.487,617.267 854.609,627.062C851.267,635.503 848.252,644.067 845.456,652.703C844.135,656.783 842.859,660.877 841.583,664.971C841.581,664.976 841.581,664.981 841.58,664.986L840.639,664.976C840.639,664.976 844.024,670.054 845.717,673.44C847.41,676.825 855.309,680.211 855.309,680.211C855.309,680.211 864.9,681.338 872.799,680.773ZM842.791,664.998C845.132,657.493 847.49,649.993 850.08,642.568C853.365,633.149 856.999,623.854 861.008,614.72C863.567,608.891 866.276,603.13 869.108,597.429C869.571,597.602 870.001,597.762 870.38,597.904C873.572,606.51 876.55,615.195 879.298,623.953C882.069,632.784 884.608,641.687 886.907,650.652C888.173,655.591 889.364,660.548 890.484,665.522L842.791,664.998Z" style="fill-rule:nonzero;"/>
        </g>
    </g>
</svg>
