<?xml version="1.0" encoding="UTF-8" standalone="no"?>
<!DOCTYPE svg PUBLIC "-//W3C//DTD SVG 1.1//EN" "http://www.w3.org/Graphics/SVG/1.1/DTD/svg11.dtd">
<svg width="100%" height="100%" viewBox="0 0 290 389" version="1.1" xmlns="http://www.w3.org/2000/svg" xmlns:xlink="http://www.w3.org/1999/xlink" xml:space="preserve" xmlns:serif="http://www.serif.com/" style="fill-rule:evenodd;clip-rule:evenodd;stroke-linejoin:round;stroke-miterlimit:2;">
    <g transform="matrix(1,0,0,1,-872.959,-739.812)">
        <g>
            <path d="M1081,916.079C1080.65,915.14 1080.14,914.275 1079.72,913.37C1079.4,912.688 1079.08,912.005 1078.7,911.356C1078.66,911.498 1078.62,911.641 1078.61,911.788C1078.52,912.728 1078.91,913.815 1079.08,914.735C1079.42,916.683 1079.9,918.611 1080.09,920.583C1080.28,922.545 1080.05,924.462 1079.69,926.39C1079.51,927.343 1079.3,928.304 1079.22,929.273C1079.17,930 1079.17,930.73 1079.14,931.46C1079.97,927.862 1081,924.317 1082.25,920.842C1082.1,920.662 1082,920.438 1081.95,920.192C1081.72,918.799 1081.49,917.408 1081,916.079Z" style="fill-rule:nonzero;"/>
            <path d="M1072.65,920.859C1072.53,919.476 1072.04,918.152 1071.42,916.9C1071.67,917.742 1071.88,918.6 1072.02,919.48C1072.23,920.846 1072.26,922.177 1071.9,923.52C1071.58,924.728 1071.25,925.841 1071.28,927.105C1071.31,928.433 1071.47,929.752 1071.18,931.064C1070.92,932.272 1070.44,933.423 1070.28,934.655C1070.13,935.77 1069.89,936.993 1070.08,938.115C1070.2,938.797 1070.56,939.429 1070.81,940.066C1071.06,940.668 1071.2,941.296 1071.39,941.914C1071.81,943.245 1072.35,944.529 1072.76,945.861C1072.96,946.5 1073.12,947.15 1073.26,947.803C1073.75,946.773 1074.2,945.729 1074.68,944.71C1075.33,943.33 1075.96,941.941 1076.56,940.537C1074.66,939.592 1073.94,935.939 1073.54,934.281C1072.45,929.812 1073.02,925.385 1072.65,920.859Z" style="fill-rule:nonzero;"/>
            <path d="M1067.12,928.133C1066.44,930.574 1065.68,932.987 1065.93,935.554C1066.23,938.652 1066.72,941.838 1067.47,944.858C1068.1,947.368 1069.01,949.79 1069.7,952.279C1069.82,952.716 1069.93,953.156 1070.04,953.597C1070.05,953.578 1070.05,953.558 1070.06,953.538C1070.53,952.62 1071.12,951.764 1071.65,950.882C1071.67,950.852 1071.68,950.82 1071.7,950.79C1071.56,950.612 1071.46,950.391 1071.42,950.151C1071.17,948.645 1070.85,947.167 1070.34,945.727C1069.82,944.269 1069.36,942.805 1068.88,941.336C1068.48,940.106 1067.84,939.037 1067.79,937.708C1067.74,936.49 1067.91,935.232 1068.09,934.029C1068.27,932.802 1068.77,931.652 1069.01,930.438C1069.24,929.248 1069.02,928.026 1069.03,926.824C1069.04,925.512 1069.36,924.346 1069.69,923.091C1070.02,921.846 1069.94,920.668 1069.73,919.404C1069.59,918.594 1069.38,917.798 1069.12,917.014C1069.06,917.64 1068.97,918.264 1068.88,918.899C1068.39,922.001 1067.97,925.101 1067.12,928.133Z" style="fill-rule:nonzero;"/>
            <path d="M1067.1,832.285C1066.65,831.241 1066.06,830.265 1065.42,829.327C1064.08,827.336 1062.49,825.578 1060.71,823.962C1059.01,822.414 1057.27,820.927 1055.76,819.192C1053.23,818.082 1050.67,816.99 1048.02,816.189C1046.87,815.839 1045.56,815.466 1044.39,815.436C1043.06,815.402 1042.24,815.971 1040.71,815.608C1038.88,815.171 1037.29,813.759 1035.76,812.724C1034.72,812.025 1033.67,811.385 1032.69,810.612C1031.74,809.867 1030.74,808.946 1029.53,808.668C1027.66,808.239 1025.39,808.939 1023.63,809.515C1021.9,810.084 1019.96,810.798 1018.66,812.142C1016.97,813.9 1016.35,816.576 1014.72,818.223C1015.51,818.554 1016.39,818.746 1017.18,819.022C1018.39,819.445 1019.44,820.156 1020.52,820.831C1021.09,821.191 1021.68,821.556 1022.3,821.831C1022.87,822.084 1023.47,822.256 1024.05,822.492C1025.15,822.944 1026.19,823.583 1027.25,824.143C1029.16,825.162 1031.1,826.165 1033.15,826.899C1035.25,827.652 1037.4,827.827 1039.59,828.089C1040.77,828.23 1041.95,828.394 1043.11,828.63C1044.28,828.867 1045.39,829.249 1046.54,829.55C1047.7,829.854 1048.89,830.041 1050.05,830.367C1051.2,830.69 1052.27,831.16 1053.33,831.706C1055.46,832.803 1057.67,833.684 1059.83,834.709C1062.02,835.745 1064.15,836.892 1066.25,838.089C1067.48,838.794 1068.7,839.525 1069.91,840.272C1069.05,838.929 1068.41,837.471 1068.07,835.876C1067.82,834.657 1067.59,833.439 1067.1,832.285Z" style="fill-rule:nonzero;"/>
            <path d="M1073.47,841.242C1074.28,842.176 1075.08,843.132 1075.96,844.003C1076.91,844.599 1077.82,845.25 1078.58,846.071C1078.7,846.202 1078.8,846.345 1078.87,846.494C1080.07,846.989 1081.25,847.53 1082.39,848.125C1080.31,845.316 1078.44,842.364 1076.87,839.231C1075.65,836.788 1074.7,834.243 1073.75,831.687C1073.34,830.604 1072.93,829.522 1072.46,828.466C1072.34,828.184 1072.21,827.904 1072.08,827.627C1072.02,827.503 1071.96,827.379 1071.9,827.256C1071.89,827.251 1071.89,827.249 1071.89,827.244C1071.86,827.183 1071.83,827.122 1071.8,827.062C1071.51,826.526 1071.21,825.999 1070.88,825.486C1070.17,824.359 1069.36,823.297 1068.47,822.305C1067.42,821.144 1066.56,819.753 1065.97,818.203C1064.67,814.797 1064.24,811.087 1063.77,807.494C1063.68,806.764 1063.58,806.033 1063.47,805.305C1063.42,804.971 1063.37,804.638 1063.31,804.307C1063.3,804.24 1063.29,804.174 1063.27,804.108L1063.27,804.106C1063.25,803.996 1063.22,803.887 1063.2,803.778C1062.65,801.647 1061.26,799.741 1059.98,797.996C1057.35,794.411 1053.9,791.748 1050.15,789.412C1048.29,788.253 1046.39,787.157 1044.53,786.012C1043.55,785.416 1042.59,784.806 1041.64,784.171C1040.71,783.552 1039.84,782.834 1038.89,782.255C1037.81,781.597 1036.67,781.064 1035.61,780.364C1034.59,779.683 1033.71,778.824 1032.82,777.979C1030.99,776.234 1029.03,774.653 1027.27,772.822C1025.49,770.967 1023.71,769.076 1022.48,766.798C1021.29,764.606 1020.8,762.234 1020.01,759.905C1019.62,759.755 1019.32,759.436 1019.29,758.954C1019.28,758.79 1019.31,758.617 1019.38,758.454C1017.91,755.451 1017.37,752.097 1015.64,749.201C1014.6,747.442 1013.42,745.739 1012.06,744.207C1009.49,741.311 1006.05,738.972 1002.26,740.103C1003.2,741.436 1004.77,742.311 1005.65,743.712C1006.75,745.467 1006.86,747.824 1007.12,749.831C1007.69,754.236 1006.95,758.753 1008.22,763.062C1009.27,766.641 1011,770.108 1013.19,773.129C1015.48,776.29 1018.89,778.323 1021.48,781.211C1022.15,781.963 1022.68,782.7 1023.07,783.448C1023.65,784.089 1024.22,784.732 1024.83,785.337C1026.19,786.684 1027.85,787.679 1029.41,788.765C1040.82,796.668 1052.39,805.655 1058.48,818.485C1058.55,818.624 1058.57,818.773 1058.56,818.92C1060.02,820.397 1061.65,821.711 1063.15,823.152C1064.85,824.779 1066.37,826.604 1067.64,828.581C1068.26,829.55 1068.83,830.566 1069.27,831.629C1069.75,832.78 1069.96,833.998 1070.22,835.212C1070.71,837.56 1071.91,839.445 1073.47,841.242Z" style="fill-rule:nonzero;"/>
            <path d="M995.565,827.409C993.336,826.852 991.114,826.267 988.894,825.677C984.96,824.631 981.029,823.574 977.062,822.658C973.645,821.869 970.145,821.465 967.157,819.485C967.086,819.438 967.028,819.38 966.977,819.316C964.171,819.07 961.34,817.93 958.861,816.826C954.733,814.988 950.848,812.623 947.115,810.072C947.546,811.311 948.112,812.5 948.821,813.613C952.878,819.981 960.064,823.162 966.858,825.739C972.137,827.741 977.202,830.246 982.39,832.462C987.415,834.608 992.645,834.307 997.936,835.132C1002.86,835.899 1007.54,835.304 1012.46,834.774C1014.74,834.528 1017.03,834.318 1019.33,834.428C1021.61,834.537 1023.76,835.134 1025.91,835.9C1028.35,836.773 1030.73,837.864 1033.22,838.603C1035.67,839.33 1038.18,839.444 1040.72,839.524C1045.61,839.676 1050.39,839.844 1055.24,840.569C1060.67,841.379 1066.08,842.38 1071.35,843.919C1071.44,843.946 1071.54,843.975 1071.63,844.002C1071.21,843.737 1070.8,843.472 1070.39,843.202C1068.09,841.695 1065.7,840.333 1063.29,839.017C1061.16,837.855 1059,836.762 1056.77,835.799C1055.68,835.325 1054.58,834.894 1053.52,834.346C1052.49,833.816 1051.47,833.244 1050.39,832.833C1049.3,832.418 1048.12,832.231 1046.99,831.976C1045.82,831.715 1044.7,831.312 1043.54,831.036C1041.24,830.485 1038.87,830.287 1036.52,830.012C1032.17,829.502 1028.31,827.244 1024.51,825.237C1023.53,824.721 1022.53,824.366 1021.51,823.947C1020.39,823.485 1019.39,822.755 1018.36,822.125C1017.43,821.551 1016.48,821.14 1015.44,820.812C1014.37,820.479 1013.38,820.13 1012.44,819.515C1012.33,819.541 1012.22,819.575 1012.11,819.595C1006.89,820.491 1002.9,817.072 998.635,814.779C993.572,812.058 988.111,813.299 982.772,814.397C980.108,814.945 977.655,815.348 975.277,816.751C973.875,817.579 972.498,818.412 970.982,818.906C972.11,819.302 973.291,819.561 974.458,819.798C976.776,820.268 979.077,820.804 981.372,821.38C986.258,822.608 991.108,823.973 995.995,825.193C997.399,825.545 996.978,827.762 995.565,827.409Z" style="fill-rule:nonzero;"/>
            <path d="M1140.92,979.44L1140.91,979.444L1140.91,979.443L1140.92,979.44Z" style="fill-rule:nonzero;"/>
            <path d="M1115.52,984.375C1115.53,984.41 1115.53,984.446 1115.54,984.481C1115.54,984.472 1115.54,984.466 1115.54,984.46C1115.53,984.435 1115.53,984.409 1115.52,984.375Z" style="fill-rule:nonzero;"/>
            <path d="M1026.83,789.708C1025.85,789.037 1024.91,788.373 1024.02,787.62C1024,788.309 1023.91,789.032 1023.75,789.807C1023.42,791.417 1023.16,793.003 1023.87,794.559C1024.63,796.215 1026.19,797.126 1027.72,797.977C1031.2,799.921 1034.4,802.32 1037.85,804.327C1039.65,805.377 1041.51,806.345 1043.44,807.131C1044.53,807.571 1045.57,807.936 1046.58,808.519C1048.58,809.667 1050.49,811.007 1052.31,812.427C1051.65,811.494 1050.96,810.581 1050.24,809.692C1045.92,804.363 1040.67,799.847 1035.22,795.717C1032.47,793.639 1029.66,791.656 1026.83,789.708Z" style="fill-rule:nonzero;"/>
            <path d="M1111.7,979.584C1111.71,979.598 1111.71,979.607 1111.72,979.617C1111.73,979.625 1111.73,979.633 1111.74,979.64C1111.73,979.622 1111.71,979.603 1111.7,979.584Z" style="fill-rule:nonzero;"/>
            <path d="M1122.58,983.442C1122.54,983.377 1122.5,983.314 1122.45,983.251C1122.48,983.308 1122.31,983.116 1122.26,983.068C1122.19,983.034 1122.13,982.998 1122.06,982.968C1122.04,982.962 1121.96,982.932 1121.91,982.914C1121.87,982.904 1121.81,982.888 1121.8,982.886C1121.63,982.851 1121.46,982.819 1121.29,982.799C1121.09,982.775 1121.04,982.773 1120.83,982.78C1120.4,982.794 1119.98,982.859 1119.56,982.932C1119.44,982.952 1119.32,982.975 1119.21,982.998C1119.16,983.008 1119.02,983.04 1118.97,983.052C1118.72,983.11 1118.47,983.174 1118.22,983.244C1117.66,983.401 1117.12,983.585 1116.59,983.821C1116.52,983.852 1116.45,983.885 1116.38,983.916C1116.38,983.917 1116.38,983.917 1116.38,983.918C1116.38,983.918 1116.38,983.918 1116.38,983.919C1116.28,983.975 1116.18,984.028 1116.09,984.087C1116,984.143 1115.91,984.201 1115.83,984.264C1115.77,984.302 1115.71,984.357 1115.69,984.379C1115.65,984.428 1115.6,984.476 1115.56,984.521C1116.4,985.304 1117.01,986.284 1117.11,987.446C1117.11,987.45 1117.11,987.455 1117.11,987.459C1118.46,987.196 1119.86,987.132 1121.24,987.17C1121.74,987.184 1122.24,987.217 1122.73,987.283C1122.81,987.193 1122.9,987.115 1123.02,987.055C1123.08,986.854 1123.16,986.659 1123.27,986.474C1123.25,986.262 1123.21,986.051 1123.18,985.84C1123.18,985.832 1123.18,985.83 1123.18,985.823C1123.17,985.812 1123.17,985.804 1123.17,985.787C1123.15,985.731 1123.14,985.674 1123.13,985.618C1123.1,985.486 1123.07,985.354 1123.03,985.222C1122.9,984.68 1122.85,984.184 1122.72,983.789C1122.7,983.718 1122.56,983.424 1122.58,983.442Z" style="fill-rule:nonzero;"/>
            <path d="M1141.11,977.669C1141.15,976.902 1141.28,976.157 1141.43,975.405C1141.74,973.903 1142.12,972.406 1141.98,970.862C1141.86,969.449 1141.49,968.096 1141.01,966.774C1140.78,966.54 1140.64,966.191 1140.65,965.842C1140.01,964.232 1139.25,962.658 1138.61,961.066C1138.24,960.148 1137.95,959.215 1137.71,958.272C1136.19,956.586 1135.96,953.534 1135.72,951.497C1135.42,948.957 1135.1,946.445 1134.69,943.932C1134.49,943.815 1134.33,943.627 1134.24,943.35C1133.93,942.436 1133.33,941.867 1132.41,941.494C1131.54,941.144 1130.59,941.151 1129.6,941.283C1129.11,941.349 1128.7,941.48 1128.33,941.812C1128.02,942.091 1127.72,942.39 1127.42,942.689C1127.15,942.972 1126.77,943.413 1126.66,943.602C1126.61,943.697 1126.55,943.795 1126.51,943.896C1126.5,943.92 1126.49,943.933 1126.49,943.947C1126.49,943.963 1126.48,943.985 1126.48,944.019C1126.48,944.028 1126.48,944.031 1126.47,944.039C1126.47,944.055 1126.47,944.081 1126.47,944.124C1126.47,944.135 1126.47,944.138 1126.47,944.146C1126.48,944.153 1126.49,944.172 1126.51,944.221C1126.63,944.532 1126.6,944.808 1126.49,945.036C1128.21,945.056 1129.87,945.64 1131.22,946.706C1132.01,947.328 1131.52,948.618 1130.57,948.691C1130.47,948.699 1130.36,948.707 1130.26,948.715C1129.7,948.759 1129.33,948.442 1129.18,948.035C1128.33,947.54 1127.32,947.256 1126.37,947.289C1125.66,947.313 1124.85,947.471 1124.21,947.63C1123.51,947.803 1122.91,948.228 1122.24,948.465C1121.66,948.668 1121,948.351 1120.8,947.774C1120.6,947.199 1120.91,946.538 1121.49,946.336C1121.88,946.198 1122.24,946.008 1122.62,945.827C1123.05,945.613 1123.49,945.488 1123.97,945.393C1124.16,945.354 1124.36,945.314 1124.55,945.274C1124.49,945.186 1124.42,945.088 1124.38,944.968C1123.87,943.615 1124.67,942.317 1125.58,941.358C1125.77,941.155 1125.97,940.959 1126.17,940.766C1125.79,940.762 1125.43,940.577 1125.23,940.162C1125.21,940.15 1125.19,940.14 1125.18,940.132C1125.11,940.097 1125.03,940.064 1124.96,940.026C1124.94,940.017 1124.93,940.011 1124.92,940.005C1124.91,940.002 1124.89,939.999 1124.86,939.992C1124.62,939.931 1124.39,939.876 1124.14,939.838C1124.05,939.824 1123.95,939.812 1123.86,939.802C1123.84,939.826 1123.83,939.85 1123.81,939.874C1123.46,940.376 1122.65,940.369 1122.22,940.003C1122.22,940 1122.21,939.995 1122.21,939.992C1122.15,940.028 1122.09,940.063 1122.03,940.102C1121.65,940.349 1121.3,940.625 1120.95,940.912C1120.54,941.261 1120.37,941.412 1119.94,941.857C1119.63,942.179 1119.35,942.519 1119.08,942.874C1119.07,942.891 1119.06,942.9 1119.06,942.909C1119.05,942.923 1119.04,942.936 1119.03,942.959C1118.99,943.039 1118.95,943.119 1118.9,943.199C1118.9,943.21 1118.9,943.213 1118.89,943.223C1118.88,943.283 1118.87,943.343 1118.86,943.405C1118.82,944.016 1118.08,944.402 1117.54,944.298C1116.89,944.172 1116.61,943.583 1116.65,942.976C1116.71,942.08 1117.46,941.223 1118.03,940.595C1118.69,939.879 1119.43,939.217 1120.2,938.631C1120.85,938.144 1121.52,937.713 1122.33,937.577C1122.45,937.556 1122.59,937.549 1122.71,937.537C1124.11,935.634 1125.87,933.714 1128.46,934.455C1129.63,934.789 1130.47,935.419 1131.3,936.277C1131.69,936.684 1132.16,936.96 1132.6,937.309C1133.19,937.781 1133.53,938.347 1133.67,939.091C1133.7,939.266 1133.67,939.436 1133.6,939.592C1133.7,939.638 1133.8,939.684 1133.9,939.735C1130.82,924.718 1125.5,909.985 1117.85,896.695C1115.89,893.291 1113.69,890.039 1111.76,886.615C1109.83,883.196 1108.07,879.687 1106.34,876.165C1104.86,873.155 1103.15,870.215 1102.29,866.951C1101.31,863.252 1100.89,859.353 1100.29,855.569C1100.14,855.407 1100.03,855.188 1100.01,854.908C1099.53,849.578 1098.75,843.811 1095.82,839.197C1094.27,836.766 1092.06,835.008 1090.16,832.887C1089.62,832.289 1089.16,831.67 1088.77,831.032C1088.92,831.992 1089.08,832.953 1089.26,833.908C1089.7,836.243 1090.31,838.602 1090.98,840.882C1091.62,843.099 1092.78,845.101 1093.69,847.208C1094.08,848.089 1094.22,849.094 1094.87,849.822C1095.6,850.622 1096.43,851.415 1096.96,852.36C1097.27,852.892 1097.22,853.557 1096.68,853.93C1096.21,854.254 1095.41,854.176 1095.11,853.646C1094.61,852.771 1093.86,852.03 1093.18,851.297C1092.34,850.393 1092.11,849.271 1091.65,848.162C1090.76,845.964 1089.52,843.924 1088.85,841.63C1088.15,839.231 1087.54,836.758 1087.05,834.306C1086.8,833.03 1086.6,831.74 1086.4,830.455C1086.23,829.374 1086.41,828.384 1086.42,827.307C1086.43,826.908 1086.6,826.54 1086.9,826.317C1086.54,824.81 1086.32,823.235 1086.13,821.6C1085.71,818.124 1084.41,815.156 1082.88,812.043C1082.03,810.337 1081.15,808.643 1080.43,806.877C1079.81,805.329 1079.37,803.713 1078.81,802.142C1077.64,798.882 1075.52,796.41 1073.13,793.962C1070.93,791.702 1068.7,789.396 1066.24,787.408C1061.12,783.269 1055.2,780.307 1049.4,777.266C1046.47,775.73 1043.63,774.01 1040.63,772.606C1037.95,771.348 1035.09,770.571 1032.36,769.416C1029.38,768.152 1026.21,766.28 1023.62,763.923C1024.35,765.722 1025.36,767.367 1026.65,768.858C1028.34,770.798 1030.16,772.647 1032.1,774.339C1033.02,775.144 1033.93,775.94 1034.82,776.783C1035.7,777.619 1036.61,778.394 1037.66,778.998C1038.73,779.606 1039.83,780.146 1040.84,780.86C1041.75,781.506 1042.65,782.165 1043.58,782.775C1047.25,785.167 1051.14,787.194 1054.7,789.747C1058.53,792.492 1061.84,796.008 1064.08,800.173C1064.89,801.666 1065.39,803.083 1065.66,804.745C1065.91,806.311 1066.08,807.889 1066.3,809.459C1066.75,812.745 1067.25,816.496 1068.98,819.33C1069.72,820.545 1070.76,821.462 1071.66,822.655C1072.4,823.641 1073.07,824.686 1073.64,825.777C1074.77,827.924 1075.59,830.198 1076.43,832.467C1077.44,835.153 1078.56,837.788 1079.94,840.265C1082.13,844.183 1084.83,847.793 1087.72,851.215C1087.88,851.407 1087.94,851.652 1087.92,851.896C1093.75,857.434 1095.28,866.09 1095.71,873.929C1095.97,878.501 1096.16,883.185 1096.01,887.762C1095.85,892.81 1094.53,897.694 1092.7,902.377C1090.78,907.288 1088.26,911.934 1086.22,916.791C1084.19,921.601 1082.56,926.554 1081.39,931.641C1080.86,933.942 1080.62,936.416 1079.74,938.62C1079.72,938.739 1079.68,938.852 1079.62,938.957C1078.78,941.172 1077.82,943.335 1076.81,945.478C1075.87,947.491 1075.01,949.601 1073.88,951.522C1072.89,953.22 1071.75,954.762 1071.32,956.716C1071.11,957.694 1070.93,958.679 1070.71,959.656C1070.65,959.913 1070.59,960.174 1070.54,960.437C1070.49,960.934 1070.42,961.429 1070.35,961.924C1070.35,962.037 1070.34,962.15 1070.35,962.263C1070.37,962.529 1070.31,962.751 1070.2,962.928C1069.92,964.61 1069.59,966.288 1069.41,967.976C1068.77,973.756 1068.88,979.612 1069.61,985.378C1071.05,996.754 1075.11,1007.95 1080.58,1018.01C1082.82,1022.12 1086.42,1027.62 1091.59,1028.06C1095.75,1028.42 1099.63,1025.21 1102.96,1023.17C1111.89,1017.66 1120.71,1011.68 1127.72,1003.78C1131.28,999.77 1134.31,995.316 1136.61,990.461C1138.21,987.052 1138.58,982.617 1140.85,979.526C1140.88,979.195 1140.96,978.856 1141.04,978.559C1141.07,978.261 1141.09,977.965 1141.11,977.669ZM1096.55,1011.28C1096.73,1012.87 1097.3,1014.47 1096.7,1016.04C1096.55,1016.43 1096.34,1016.77 1096.07,1017.06C1095.96,1017.25 1095.83,1017.44 1095.68,1017.61C1094.66,1018.77 1092.94,1019 1091.56,1018.35C1090.53,1017.86 1089.83,1016.84 1089.57,1015.75C1089.06,1013.6 1089.53,1011.14 1090.88,1009.38C1091.65,1008.37 1092.74,1007.16 1094.16,1007.36C1095.97,1007.62 1096.39,1009.79 1096.55,1011.28ZM1109.54,1015.1C1107.69,1013.54 1106.3,1011.64 1105.22,1009.49C1104.23,1007.49 1103.54,1005.36 1102.73,1003.29C1102.14,1001.77 1101.53,1000.21 1100.53,998.911C1099.81,997.978 1098.86,997.137 1097.81,996.41C1096.11,995.217 1094.11,994.353 1092.05,993.809C1091.25,993.943 1090.42,993.805 1089.65,993.559C1089.35,993.462 1089.05,993.34 1088.75,993.221C1086.62,993.026 1084.47,993.21 1082.52,994.016C1080.32,994.928 1078.69,996.776 1078.08,999.25C1077.74,1000.66 1075.52,1000.24 1075.87,998.82C1076.68,995.496 1078.93,992.938 1082.14,991.744C1082.9,991.461 1083.69,991.262 1084.49,991.123C1082.49,990.065 1080.98,988.464 1080.54,986.173C1080.31,985.03 1080.39,983.871 1080.48,982.718C1080.57,981.606 1080.69,980.496 1080.86,979.394C1081.21,977.173 1081.79,974.978 1082.66,972.904C1083.61,970.661 1084.78,968.509 1085.96,966.385C1087.12,964.314 1088.21,962.161 1089.51,960.18C1091.27,957.503 1093.85,955.49 1095.87,953.028C1095.83,952.487 1096.22,952.088 1096.69,951.949C1096.98,951.534 1097.25,951.105 1097.49,950.655C1098.48,948.832 1099.14,946.854 1099.73,944.871C1100.34,942.801 1101.02,940.733 1101.58,938.647C1102.09,936.692 1102.4,934.641 1102.64,932.634C1102.79,931.388 1103.1,929.051 1104.82,929.109C1105.35,929.127 1105.75,929.359 1105.96,929.861C1106.46,931.031 1106.51,932.314 1106.67,933.556C1106.83,934.795 1107.09,936.024 1107.29,937.258C1107.68,939.725 1107.86,942.185 1107.75,944.683C1107.69,946.111 1107.55,947.529 1107.34,948.938C1107.56,949.104 1107.72,949.369 1107.72,949.74C1107.73,950.219 1108.01,950.532 1108.29,950.903C1108.6,951.322 1108.89,951.736 1109.09,952.225C1109.54,953.339 1109.46,954.563 1109.77,955.707C1110.07,956.836 1110.7,957.845 1111.15,958.914C1112,960.909 1112.33,963.32 1112.19,965.476C1112.06,967.52 1111.32,969.565 1110.25,971.307C1109.14,973.126 1107.67,974.563 1106.1,975.979C1102.51,979.204 1098.82,982.439 1095.61,986.055C1094.87,986.895 1094.12,987.769 1093.51,988.709C1093.07,989.375 1092.92,990.052 1093.13,990.829C1093.21,991.131 1093.29,991.478 1093.32,991.826C1095.48,992.479 1097.55,993.463 1099.39,994.771C1100.53,995.584 1101.57,996.556 1102.42,997.675C1103.52,999.116 1104.21,1000.87 1104.86,1002.54C1105.63,1004.49 1106.27,1006.49 1107.18,1008.38C1108.1,1010.31 1109.37,1012 1111.01,1013.38C1112.12,1014.31 1110.65,1016.03 1109.54,1015.1ZM1134.76,987.918C1134.83,989.367 1132.58,989.525 1132.51,988.072C1132.5,988.011 1132.5,987.951 1132.49,987.891C1132.49,987.89 1132.49,987.889 1132.49,987.888C1132.48,987.851 1132.38,987.633 1132.39,987.624C1132.35,987.558 1132.31,987.492 1132.26,987.43C1132.25,987.402 1132.07,987.196 1132.08,987.193C1131.69,986.787 1131.28,986.514 1130.86,986.291C1130.62,986.159 1130.4,986.055 1130.18,985.968C1129.8,986.067 1129.42,985.935 1129.15,985.672C1129.11,985.666 1129.08,985.657 1129.04,985.652C1129.02,985.649 1128.92,985.64 1128.87,985.634C1128.72,985.634 1128.57,985.648 1128.41,985.666C1128.39,985.669 1128.38,985.669 1128.36,985.67C1128.35,985.673 1128.35,985.674 1128.34,985.677C1128.23,985.712 1128.11,985.737 1128,985.772C1127.78,985.838 1127.57,985.916 1127.36,986.002C1127.23,986.054 1127.11,986.112 1126.99,986.166C1126.96,986.178 1126.95,986.184 1126.93,986.19C1126.92,986.198 1126.91,986.203 1126.89,986.214C1126.65,986.347 1126.41,986.485 1126.18,986.641C1126.01,986.761 1125.84,986.891 1125.68,987.029C1125.64,987.061 1125.59,987.112 1125.57,987.131C1125.56,987.147 1125.54,987.166 1125.53,987.182C1125.51,987.323 1125.5,987.463 1125.46,987.6C1125.41,987.801 1125.33,987.984 1125.24,988.151C1125.42,988.276 1125.61,988.413 1125.79,988.572C1126.88,989.561 1127.57,990.898 1128.41,992.088C1129.26,993.275 1127.4,994.555 1126.56,993.374C1125.86,992.399 1125.31,991.243 1124.44,990.404C1123.55,989.534 1122.38,989.435 1121.18,989.416C1118.55,989.373 1115.59,989.557 1113.66,991.609C1112.67,992.667 1110.95,991.207 1111.94,990.148C1112.84,989.19 1113.89,988.521 1115.03,988.061C1114.95,987.92 1114.9,987.765 1114.86,987.599C1114.85,987.5 1114.83,987.401 1114.81,987.302C1114.74,987.086 1114.63,986.892 1114.45,986.649C1114.22,986.338 1113.92,986.077 1113.55,985.807C1113.22,985.559 1112.82,985.335 1112.4,985.142C1111.94,984.926 1111.67,984.83 1111.28,984.732C1110.38,984.512 1109.38,984.452 1108.57,984.684C1107.73,984.925 1107.05,985.36 1106.57,986.163C1106.26,986.689 1105.65,986.974 1105.07,986.691C1104.55,986.443 1104.23,985.711 1104.54,985.186C1105.26,983.962 1106.33,983.026 1107.7,982.594C1108.99,982.188 1110.4,982.194 1111.71,982.517C1111.98,982.585 1112.26,982.67 1112.55,982.768C1112.47,982.627 1112.41,982.474 1112.39,982.315C1112.34,981.965 1112.29,981.614 1112.25,981.263C1112.23,981.094 1112.21,980.924 1112.18,980.756C1112.17,980.697 1112.16,980.638 1112.15,980.579C1112.15,980.565 1112.15,980.561 1112.15,980.551C1112.14,980.544 1112.14,980.542 1112.14,980.533C1112.11,980.396 1112.07,980.26 1112.02,980.127C1112,980.062 1111.96,979.998 1111.94,979.933L1111.94,979.931C1111.88,979.837 1111.82,979.746 1111.75,979.654C1111.77,979.68 1111.77,979.683 1111.73,979.617C1111.71,979.598 1111.7,979.578 1111.68,979.565C1111.62,979.509 1111.56,979.454 1111.5,979.403C1111.43,979.343 1111.35,979.287 1111.27,979.233C1111.26,979.227 1111.25,979.219 1111.23,979.21C1111.1,979.131 1110.96,979.044 1110.82,978.963C1110.55,978.803 1110.28,978.65 1109.99,978.517C1109.85,978.449 1109.7,978.394 1109.55,978.333C1109.55,978.332 1109.55,978.332 1109.55,978.331C1109.54,978.329 1109.53,978.327 1109.51,978.324C1109.42,978.302 1109.34,978.279 1109.25,978.262C1109.19,978.251 1109.13,978.248 1109.07,978.235C1109.3,978.285 1109.1,978.237 1109.01,978.24C1109,978.24 1108.98,978.242 1108.95,978.244C1108.91,978.254 1108.82,978.272 1108.8,978.278C1108.2,978.479 1107.6,978.161 1107.37,977.587C1107.14,977.027 1107.5,976.337 1108.06,976.149C1108.96,975.845 1109.89,976.024 1110.75,976.386C1111.49,976.694 1112.25,977.133 1112.88,977.62C1113.55,978.137 1114.04,978.886 1114.25,979.704C1114.46,980.51 1114.51,981.342 1114.64,982.162C1114.65,982.229 1114.65,982.295 1114.65,982.359C1115.04,982.079 1115.49,981.847 1115.93,981.655C1117.18,981.113 1118.55,980.791 1119.89,980.605C1120,980.589 1120.12,980.579 1120.24,980.567C1120.26,980.536 1120.26,980.504 1120.28,980.475C1120.58,979.93 1120.97,979.466 1121.41,979.072C1121.39,978.968 1121.36,978.864 1121.33,978.761C1121.23,978.407 1121.11,978.059 1120.95,977.724C1120.94,977.703 1120.93,977.683 1120.92,977.663C1120.88,977.601 1120.85,977.536 1120.82,977.473C1120.73,977.332 1120.64,977.194 1120.54,977.062C1120.5,977.007 1120.46,976.952 1120.42,976.899C1120.4,976.877 1120.39,976.865 1120.38,976.852C1120.28,976.753 1120.18,976.655 1120.07,976.564C1120.01,976.514 1119.95,976.465 1119.89,976.419C1119.88,976.412 1119.85,976.391 1119.82,976.369C1119.91,976.434 1119.71,976.305 1119.68,976.287C1119.62,976.254 1119.56,976.224 1119.5,976.194C1119.42,976.153 1119.14,976.093 1119.07,976.02C1119.05,976.012 1119.02,976.004 1118.99,975.997C1118.92,975.979 1118.85,975.962 1118.78,975.947C1118.6,975.91 1118.43,975.883 1118.25,975.864C1118.21,975.859 1118.17,975.856 1118.15,975.854C1118.07,975.851 1117.98,975.847 1117.89,975.846C1117.47,975.844 1117.05,975.881 1116.64,975.939C1116.01,976.027 1115.5,975.462 1115.43,974.891C1115.36,974.256 1115.9,973.77 1116.48,973.688C1118.24,973.441 1120.13,973.663 1121.53,974.843C1122.49,975.647 1123.05,976.741 1123.41,977.908C1125.11,977.314 1127.04,977.507 1128.54,978.526C1129.56,979.22 1130.34,980.169 1130.89,981.269C1131.32,982.145 1131.49,983.102 1131.49,984.067C1133.13,984.818 1134.67,986.136 1134.76,987.918Z" style="fill-rule:nonzero;"/>
            <path d="M1127.97,980.982C1127.76,980.768 1127.52,980.571 1127.28,980.391C1127.23,980.354 1127.17,980.318 1127.12,980.283C1127.21,980.336 1127.21,980.334 1127.11,980.274C1127,980.215 1126.9,980.157 1126.79,980.105C1126.71,980.067 1126.63,980.036 1126.54,980.004C1126.52,979.997 1126.37,979.949 1126.34,979.94C1126.12,979.884 1125.89,979.852 1125.66,979.826C1125.61,979.824 1125.55,979.823 1125.49,979.823C1125.37,979.824 1125.24,979.829 1125.12,979.839C1125.02,979.846 1124.93,979.856 1124.84,979.869C1124.81,979.873 1124.66,979.904 1124.6,979.914C1124.38,979.969 1124.16,980.028 1123.95,980.109C1123.87,980.143 1123.78,980.179 1123.69,980.217C1123.68,980.222 1123.67,980.227 1123.66,980.231C1123.49,980.51 1123.17,980.708 1122.86,980.775C1122.84,980.792 1122.82,980.807 1122.81,980.817C1122.81,980.824 1122.8,980.83 1122.79,980.837C1123.22,980.998 1123.62,981.225 1123.95,981.553C1124.63,982.234 1124.91,983.101 1125.07,984.029C1125.07,984.036 1125.11,984.422 1125.09,984.164C1125.06,983.949 1125.08,984.151 1125.09,984.196C1125.12,984.315 1125.15,984.433 1125.18,984.551C1125.18,984.563 1125.18,984.574 1125.19,984.586C1126.37,983.816 1127.82,983.306 1129.2,983.416C1129.19,983.351 1129.19,983.285 1129.18,983.22C1129.17,983.198 1129.12,982.981 1129.11,982.95C1128.93,982.309 1128.81,982.053 1128.44,981.532C1128.24,981.257 1128.15,981.155 1127.97,980.982Z" style="fill-rule:nonzero;"/>
            <path d="M1149.2,905.253C1147.63,902.932 1145.65,900.875 1144.23,898.465C1142.81,896.077 1142.06,893.452 1141.55,890.741C1140.99,887.773 1140.58,884.774 1140.06,881.798C1139.91,880.918 1139.82,880.04 1139.75,879.163C1138.4,883.705 1137.98,888.482 1139.19,893.152C1139.53,894.474 1140.02,895.74 1140.46,897.029C1140.73,897.803 1140.89,898.605 1141.16,899.381C1141.71,901.014 1142.52,902.55 1143.04,904.196C1143.58,905.893 1143.73,907.644 1144.43,909.295C1145.1,910.847 1145.99,912.288 1146.66,913.835C1147.96,916.821 1147.87,919.841 1147.57,923.016C1147.4,924.841 1147.16,926.676 1147.27,928.513C1147.36,929.928 1147.75,931.288 1148.03,932.671C1148.34,934.194 1148.55,935.763 1148.17,937.295C1147.83,938.693 1147.16,939.992 1146.62,941.318C1145.43,944.228 1144.9,947.432 1143.93,950.423C1143,953.291 1141.87,956.078 1140.15,958.568C1140.56,959.87 1141.08,961.134 1141.63,962.401C1141.68,961.147 1141.77,960.066 1142.24,958.873C1142.82,957.378 1143.7,956.023 1144.54,954.665C1145.45,953.208 1146.32,951.734 1147.25,950.294C1148.21,948.811 1149.15,947.331 1150.22,945.922C1151.21,944.614 1151.65,942.998 1152.25,941.488C1152.87,939.912 1153.29,938.317 1153.57,936.644C1153.7,935.799 1153.89,934.928 1153.83,934.07C1153.79,933.309 1153.61,932.564 1153.47,931.817C1153.15,930.117 1153.35,928.421 1153.43,926.706C1153.5,925.118 1153.53,923.53 1153.5,921.941C1153.46,921.688 1153.42,921.436 1153.39,921.184C1152.97,918.352 1152.81,915.479 1152.31,912.661C1151.83,909.973 1150.72,907.51 1149.2,905.253Z" style="fill-rule:nonzero;"/>
            <path d="M1130.56,919.275C1133.09,926.486 1135.07,933.882 1136.52,941.384C1136.94,943.569 1137.29,945.75 1137.58,947.948C1137.82,946.475 1138.12,945.008 1138.35,943.523C1138.57,942.063 1138.74,940.597 1138.98,939.138C1139.22,937.632 1139.33,936.175 1139.31,934.649C1139.26,931.548 1138.72,928.542 1138.22,925.49C1137.96,923.941 1137.71,922.391 1137.46,920.84C1137.21,919.274 1136.83,917.684 1136.76,916.098C1136.69,914.663 1136.86,913.216 1137.09,911.802C1137.32,910.476 1137.72,909.198 1137.99,907.883C1138.26,906.549 1138.13,905.347 1137.91,904.014C1137.65,902.437 1137.34,900.864 1137.12,899.281C1137.03,898.607 1136.98,897.941 1137.12,897.271C1137.14,897.174 1137.16,897.079 1137.18,896.982C1137.18,896.938 1137.18,896.894 1137.17,896.852C1137.13,896.292 1137.07,895.742 1136.98,895.186C1136.93,894.879 1137.06,894.584 1137.27,894.363C1136.89,893.091 1136.56,891.802 1136.4,890.451C1135.8,885.652 1136.66,880.865 1138.3,876.361L1137.96,876.481L1135.47,887.243L1129.1,914.796L1129.02,915.128C1129.56,916.492 1130.08,917.879 1130.56,919.275Z" style="fill-rule:nonzero;"/>
            <path d="M1161.92,946.446C1163.26,942.588 1160.63,937.704 1158.74,934.47C1157.7,932.699 1156.42,931.077 1155.54,929.22C1155.52,929.645 1155.51,930.069 1155.55,930.488C1155.63,931.426 1155.89,932.335 1156.02,933.266C1156.26,935.012 1155.87,936.88 1155.5,938.587C1155.13,940.319 1154.49,941.938 1153.85,943.586C1153.5,944.509 1153.19,945.471 1152.68,946.318C1152.28,946.977 1151.79,947.569 1151.33,948.185C1150.26,949.62 1149.33,951.189 1148.37,952.705C1147.43,954.204 1146.5,955.722 1145.6,957.246C1144.91,958.398 1144.1,959.713 1143.94,961.067C1143.79,962.412 1144.08,964.714 1143.14,966.086C1143.33,966.592 1143.5,967.103 1143.64,967.619C1143.75,967.483 1143.86,967.343 1143.97,967.213C1144.01,967.163 1144.05,967.132 1144.07,967.114C1144.35,966.61 1144.92,966.325 1145.51,966.42C1145.69,966.45 1145.87,966.526 1146.03,966.624C1146.2,966.511 1146.38,966.392 1146.54,966.27C1146.87,966.035 1147.18,965.789 1147.5,965.548C1148.21,965.013 1148.8,964.373 1149.31,963.65C1150.34,962.206 1150.94,960.523 1151.56,958.879C1152.2,957.18 1152.96,955.579 1154.23,954.249C1155.42,952.999 1156.78,951.925 1158.18,950.912C1159.39,949.389 1161.27,948.325 1161.92,946.446Z" style="fill-rule:nonzero;"/>
            <path d="M1092.41,980.14C1093.49,978.19 1094.55,976.244 1095.49,974.223C1096.46,972.166 1097.39,970.095 1098.38,968.049C1100.3,964.049 1102.2,960.054 1103.49,955.797C1104.69,951.862 1105.48,947.771 1105.53,943.65C1105.56,941.391 1105.32,939.169 1104.96,936.942C1104.84,936.24 1104.72,935.539 1104.6,934.837C1104.51,935.37 1104.42,935.902 1104.34,936.434C1103.87,939.22 1102.93,941.898 1102.14,944.607C1101.47,946.94 1100.76,949.302 1099.62,951.458C1099.2,952.242 1098.72,952.973 1098.2,953.671C1098.16,954.713 1097.69,955.843 1097.39,956.734C1096.91,958.159 1096.49,959.568 1096.13,961.028C1095.82,962.317 1095.51,963.699 1094.88,964.877C1094.56,965.466 1094.15,965.997 1093.76,966.538C1093.4,967.044 1093.15,967.576 1092.92,968.154C1091.88,970.796 1090.95,973.519 1090.29,976.287C1089.72,978.713 1089.46,981.188 1089.9,983.659C1089.99,984.139 1090.11,984.607 1090.25,985.071C1090.75,983.343 1091.54,981.704 1092.41,980.14Z" style="fill-rule:nonzero;"/>
            <path d="M1147.45,977.042C1150.08,976.972 1152.2,975.463 1153.68,973.338C1155.08,971.327 1155.84,968.921 1156.41,966.563C1157.08,963.829 1156.9,961.344 1156.69,958.571C1156.6,957.401 1156.55,956.171 1156.67,954.974C1156.12,955.488 1155.6,956.035 1155.16,956.635C1154.02,958.169 1153.55,960.115 1152.82,961.854C1152.02,963.772 1150.91,965.61 1149.32,966.975C1148.62,967.575 1147.85,968.18 1147.06,968.642C1146.61,968.904 1146.12,969.136 1145.59,969.017C1145.54,969.007 1145.5,968.983 1145.45,968.967C1145.42,969.008 1145.39,969.049 1145.35,969.09C1145.17,969.324 1145.11,969.62 1145.3,969.021C1145.13,969.555 1144.7,969.959 1144.14,969.929C1144.25,970.775 1144.3,971.629 1144.23,972.491C1144.11,973.902 1143.73,975.269 1143.49,976.659C1143.46,976.828 1143.43,976.997 1143.41,977.166C1143.49,977.252 1143.56,977.349 1143.62,977.453C1144.81,977.082 1146.12,977.077 1147.45,977.042Z" style="fill-rule:nonzero;"/>
            <path d="M1146.45,966.967C1146.5,967.027 1146.55,967.083 1146.54,967.112C1146.56,967.041 1146.52,966.997 1146.45,966.967Z" style="fill-rule:nonzero;"/>
            <path d="M1137.18,896.978C1137.18,896.972 1137.18,896.966 1137.18,896.96C1137.19,896.901 1137.18,896.797 1137.18,896.978Z" style="fill-rule:nonzero;"/>
            <path d="M1139.07,914.006C1138.91,915.536 1139.11,916.976 1139.36,918.482C1139.9,921.701 1140.4,924.925 1140.93,928.145C1141.43,931.169 1141.77,934.249 1141.49,937.317C1141.36,938.783 1141.05,940.227 1140.87,941.687C1140.67,943.247 1140.44,944.799 1140.15,946.344C1139.6,949.254 1139.15,952.106 1139.42,955.078C1139.43,955.192 1139.45,955.301 1139.46,955.414C1140.91,952.776 1141.82,949.829 1142.63,946.962C1143.09,945.352 1143.49,943.722 1143.96,942.117C1144.43,940.507 1145.25,939.036 1145.78,937.451C1146.81,934.405 1145.1,931.285 1145,928.211C1144.9,924.986 1145.69,921.794 1145.53,918.57C1145.35,915.03 1143.06,912.332 1141.93,909.097C1141.35,907.412 1141.2,905.637 1140.57,903.959C1140.38,903.454 1140.17,902.957 1139.96,902.46C1140.16,903.533 1140.35,904.611 1140.42,905.684C1140.52,907.165 1140.16,908.594 1139.79,910.015C1139.45,911.326 1139.2,912.656 1139.07,914.006Z" style="fill-rule:nonzero;"/>
            <path d="M1129.13,939.079C1129.77,938.969 1130.42,938.937 1131.07,938.977C1130.96,938.894 1130.85,938.813 1130.74,938.734C1130.37,938.483 1130.06,938.219 1129.75,937.902C1129.12,937.244 1128.75,936.846 1127.88,936.626C1127.02,936.405 1126.38,936.727 1125.75,937.348C1125.61,937.488 1125.48,937.638 1125.35,937.788C1126.17,938.021 1126.99,938.447 1127.3,939.295C1127.36,939.455 1127.38,939.605 1127.37,939.746C1127.9,939.409 1128.46,939.193 1129.13,939.079Z" style="fill-rule:nonzero;"/>
            <path d="M1118.89,943.229C1118.85,943.331 1118.88,943.314 1118.89,943.229Z" style="fill-rule:nonzero;"/>
            <path d="M1071.88,827.238C1071.8,827.075 1071.86,827.19 1071.88,827.238Z" style="fill-rule:nonzero;"/>
            <path d="M1093.8,1009.61L1093.8,1009.61L1093.8,1009.61L1093.8,1009.61L1093.8,1009.61Z" style="fill-rule:nonzero;"/>
            <path d="M1093.76,1009.59C1093.76,1009.59 1093.76,1009.58 1093.76,1009.58C1093.71,1009.58 1093.68,1009.58 1093.76,1009.59Z" style="fill-rule:nonzero;"/>
            <path d="M1093.76,1009.63C1093.77,1009.63 1093.77,1009.63 1093.78,1009.62C1093.79,1009.62 1093.79,1009.62 1093.79,1009.62C1093.78,1009.62 1093.77,1009.63 1093.76,1009.63Z" style="fill-rule:nonzero;"/>
            <path d="M1093.41,1009.9C1093.42,1009.89 1093.42,1009.89 1093.43,1009.88C1093.43,1009.88 1093.43,1009.88 1093.43,1009.88C1093.42,1009.89 1093.42,1009.89 1093.41,1009.9Z" style="fill-rule:nonzero;"/>
            <path d="M1093.78,1009.6C1093.78,1009.59 1093.78,1009.59 1093.77,1009.59C1093.77,1009.59 1093.78,1009.59 1093.78,1009.6Z" style="fill-rule:nonzero;"/>
            <path d="M1093.77,1009.59L1093.77,1009.59L1093.77,1009.58L1093.76,1009.58L1093.77,1009.59L1093.77,1009.59Z" style="fill-rule:nonzero;"/>
            <path d="M1093.76,1009.58L1093.76,1009.58L1093.76,1009.58L1093.76,1009.58L1093.76,1009.58Z" style="fill-rule:nonzero;"/>
            <path d="M1093.68,1013.65C1093.71,1013.67 1093.75,1013.69 1093.68,1013.65Z" style="fill-rule:nonzero;"/>
            <path d="M1093.74,1009.56C1093.73,1009.55 1093.71,1009.53 1093.69,1009.52C1093.71,1009.54 1093.72,1009.55 1093.74,1009.56C1093.74,1009.56 1093.74,1009.56 1093.74,1009.56Z" style="fill-rule:nonzero;"/>
            <path d="M1094.15,1014.18C1094.11,1014.11 1094.07,1014.05 1094.03,1013.99C1093.99,1013.94 1093.96,1013.9 1093.92,1013.85C1093.92,1013.85 1093.92,1013.85 1093.92,1013.85C1093.91,1013.84 1093.9,1013.84 1093.88,1013.82C1093.81,1013.76 1093.74,1013.7 1093.67,1013.64C1093.65,1013.64 1093.64,1013.63 1093.61,1013.62C1093.55,1013.59 1093.5,1013.56 1093.44,1013.54C1093.43,1013.53 1093.38,1013.51 1093.33,1013.5C1093.26,1013.54 1093.2,1013.58 1093.13,1013.62C1092.86,1013.78 1092.58,1013.92 1092.29,1014.01C1092.07,1014.09 1091.84,1014.09 1091.63,1014.03C1091.63,1014.08 1091.62,1014.13 1091.63,1014.19C1091.63,1014.4 1091.65,1014.62 1091.68,1014.83C1091.68,1014.85 1091.69,1014.9 1091.69,1014.95C1091.7,1014.98 1091.73,1015.12 1091.74,1015.15C1091.79,1015.34 1091.87,1015.52 1091.94,1015.71C1091.94,1015.71 1091.94,1015.71 1091.94,1015.72C1091.96,1015.74 1091.97,1015.76 1091.97,1015.76C1092.02,1015.83 1092.06,1015.9 1092.11,1015.97C1092.12,1015.98 1092.14,1016.01 1092.16,1016.03C1092.16,1016.04 1092.16,1016.04 1092.17,1016.04C1092.23,1016.09 1092.3,1016.15 1092.36,1016.2L1092.36,1016.21C1092.54,1016.04 1092.78,1015.93 1093.04,1015.89C1093.34,1015.83 1093.64,1015.78 1093.95,1015.74C1093.95,1015.74 1093.95,1015.74 1093.96,1015.74C1094,1015.73 1094.04,1015.72 1094.08,1015.71C1094.13,1015.69 1094.19,1015.67 1094.25,1015.65C1094.25,1015.65 1094.25,1015.65 1094.25,1015.65C1094.25,1015.63 1094.26,1015.61 1094.26,1015.61C1094.28,1015.54 1094.29,1015.48 1094.31,1015.41C1094.32,1015.35 1094.33,1015.28 1094.34,1015.21C1094.34,1015.21 1094.34,1015.18 1094.35,1015.16C1094.35,1015.12 1094.35,1015.06 1094.35,1015.04C1094.35,1014.99 1094.34,1014.94 1094.34,1014.88C1094.33,1014.8 1094.32,1014.71 1094.31,1014.62C1094.3,1014.61 1094.3,1014.61 1094.3,1014.59C1094.26,1014.46 1094.22,1014.34 1094.16,1014.21C1094.07,1013.99 1094.12,1014.14 1094.15,1014.18Z" style="fill-rule:nonzero;"/>
            <path d="M1092.22,1016.11C1092.23,1016.11 1092.21,1016.09 1092.19,1016.07C1092.2,1016.09 1092.21,1016.11 1092.22,1016.11Z" style="fill-rule:nonzero;"/>
            <path d="M1093.76,1009.58C1093.75,1009.57 1093.75,1009.57 1093.74,1009.57C1093.75,1009.57 1093.75,1009.58 1093.76,1009.58L1093.76,1009.58C1093.76,1009.58 1093.76,1009.58 1093.76,1009.58Z" style="fill-rule:nonzero;"/>
            <path d="M1093.88,1009.59L1093.88,1009.59L1093.88,1009.59Z" style="fill-rule:nonzero;"/>
            <path d="M1093.88,1009.59L1093.87,1009.59L1093.88,1009.59Z" style="fill-rule:nonzero;"/>
            <path d="M1093.84,1009.59C1093.84,1009.59 1093.84,1009.59 1093.84,1009.59C1093.85,1009.59 1093.86,1009.59 1093.87,1009.59L1093.87,1009.59C1093.86,1009.59 1093.85,1009.59 1093.84,1009.59Z" style="fill-rule:nonzero;"/>
            <path d="M1093.86,1009.59C1093.86,1009.59 1093.86,1009.59 1093.85,1009.59C1093.86,1009.6 1093.86,1009.6 1093.86,1009.6C1093.87,1009.59 1093.87,1009.59 1093.88,1009.59L1093.87,1009.59C1093.87,1009.59 1093.87,1009.59 1093.86,1009.59Z" style="fill-rule:nonzero;"/>
            <path d="M1090.76,967.505C1091.04,966.794 1091.33,966.129 1091.75,965.492C1092.07,965.012 1092.45,964.569 1092.74,964.075C1093.4,962.972 1093.66,961.623 1093.96,960.39C1094.2,959.406 1094.48,958.441 1094.79,957.481C1093.22,959.087 1091.74,960.703 1090.63,962.682C1089.28,965.099 1087.88,967.487 1086.59,969.939C1085.37,972.267 1084.24,974.63 1083.6,977.192C1083,979.607 1082.55,982.265 1082.64,984.76C1082.68,985.962 1083.02,987.079 1083.87,987.968C1084.64,988.788 1085.71,989.202 1086.69,989.708C1087.54,990.147 1088.38,990.619 1089.25,991.004C1089.56,991.037 1089.87,991.074 1090.17,991.12C1089.76,989.959 1089.25,988.831 1088.79,987.683C1088.21,986.241 1087.77,984.759 1087.56,983.217C1087.22,980.729 1087.52,978.185 1088.1,975.756C1088.77,972.953 1089.71,970.19 1090.76,967.505Z" style="fill-rule:nonzero;"/>
            <path d="M1093.95,1009.83C1093.91,1009.76 1093.87,1009.7 1093.83,1009.64C1093.82,1009.63 1093.81,1009.63 1093.81,1009.62C1093.8,1009.62 1093.79,1009.62 1093.78,1009.62C1093.7,1009.68 1093.62,1009.73 1093.55,1009.79C1093.53,1009.8 1093.51,1009.81 1093.5,1009.83C1093.52,1009.81 1093.51,1009.82 1093.43,1009.88C1093.28,1010.04 1093.13,1010.19 1092.99,1010.35C1092.84,1010.53 1092.69,1010.72 1092.55,1010.91C1092.49,1010.98 1092.44,1011.06 1092.38,1011.13C1092.38,1011.14 1092.38,1011.14 1092.38,1011.15C1092.3,1011.28 1092.24,1011.42 1092.17,1011.57C1092.5,1011.37 1092.84,1011.23 1093.22,1011.22C1093.59,1011.21 1093.95,1011.3 1094.3,1011.44C1094.27,1011.23 1094.25,1011.02 1094.22,1010.81C1094.2,1010.7 1094.19,1010.6 1094.17,1010.5C1094.18,1010.55 1094.21,1010.66 1094.15,1010.43C1094.12,1010.29 1094.08,1010.16 1094.03,1010.03C1094,1009.95 1093.98,1009.88 1093.94,1009.81C1093.88,1009.68 1093.94,1009.81 1093.95,1009.83Z" style="fill-rule:nonzero;"/>
            <path d="M1105.48,956.946C1104.12,961.245 1102.21,965.283 1100.26,969.342C1099.27,971.389 1098.35,973.462 1097.38,975.515C1096.43,977.524 1095.36,979.447 1094.29,981.394C1093.38,983.058 1092.56,984.794 1092.19,986.664C1093.06,985.457 1094.08,984.341 1095.11,983.277C1097.67,980.614 1100.41,978.112 1103.15,975.628C1105.46,973.524 1107.85,971.552 1109.11,968.605C1110.36,965.68 1110.19,962.242 1108.88,959.351C1108.51,958.53 1108.07,957.738 1107.77,956.884C1107.49,956.06 1107.39,955.205 1107.27,954.346C1107.18,953.648 1107.01,953.105 1106.67,952.557C1106.34,954.034 1105.94,955.498 1105.48,956.946Z" style="fill-rule:nonzero;"/>
            <path d="M1093.78,1009.6C1093.78,1009.6 1093.79,1009.6 1093.79,1009.6C1093.79,1009.61 1093.8,1009.61 1093.8,1009.61L1093.8,1009.61C1093.79,1009.61 1093.79,1009.6 1093.78,1009.6Z" style="fill-rule:nonzero;"/>
            <path d="M1093.81,1009.62C1093.82,1009.62 1093.82,1009.63 1093.83,1009.63C1093.82,1009.63 1093.81,1009.62 1093.81,1009.62Z" style="fill-rule:nonzero;"/>
            <path d="M1093.76,1009.59C1093.78,1009.6 1093.79,1009.61 1093.79,1009.6C1093.78,1009.6 1093.77,1009.59 1093.77,1009.59C1093.77,1009.59 1093.76,1009.59 1093.76,1009.59Z" style="fill-rule:nonzero;"/>
            <path d="M963.198,949.111C963.348,950.489 963.881,951.797 964.538,953.029C964.258,952.176 964.023,951.307 963.859,950.413C963.616,949.088 963.546,947.79 963.849,946.469C964.135,945.223 964.454,944.088 964.392,942.794C964.328,941.456 964.139,940.141 964.394,938.81C964.632,937.565 965.088,936.375 965.213,935.107C965.321,934.013 965.542,932.779 965.285,931.691C965.129,931.03 964.775,930.421 964.506,929.803C964.247,929.208 964.087,928.583 963.879,927.971C963.418,926.616 962.817,925.313 962.368,923.955C962.173,923.363 962.011,922.762 961.865,922.157C961.385,923.252 960.933,924.36 960.458,925.443C959.868,926.79 959.299,928.146 958.761,929.515C960.656,930.398 961.467,933.936 961.921,935.575C963.161,940.057 962.7,944.549 963.198,949.111Z" style="fill-rule:nonzero;"/>
            <path d="M1093.81,1009.62C1093.83,1009.61 1093.85,1009.61 1093.86,1009.6C1093.86,1009.6 1093.86,1009.6 1093.85,1009.6C1093.83,1009.6 1093.82,1009.61 1093.8,1009.61C1093.8,1009.61 1093.8,1009.62 1093.8,1009.62C1093.81,1009.62 1093.81,1009.62 1093.81,1009.62Z" style="fill-rule:nonzero;"/>
            <path d="M1093.8,1009.61L1093.79,1009.62L1093.8,1009.61L1093.8,1009.61Z" style="fill-rule:nonzero;"/>
            <path d="M968.529,941.633C969.143,939.171 969.838,936.747 969.518,934.182C969.141,931.169 968.577,928.089 967.785,925.159C967.11,922.66 966.139,920.261 965.365,917.794C965.208,917.294 965.065,916.79 964.933,916.284C964.912,916.328 964.896,916.374 964.875,916.418C964.42,917.355 963.857,918.233 963.343,919.139C963.493,919.321 963.598,919.549 963.645,919.797C964.22,922.79 965.406,925.565 966.389,928.436C966.821,929.699 967.517,930.77 967.61,932.139C967.69,933.326 967.541,934.547 967.409,935.726C967.275,936.926 966.835,938.06 966.609,939.241C966.364,940.521 966.64,941.813 966.659,943.102C966.68,944.428 966.356,945.622 966.064,946.9C965.783,948.129 965.907,949.343 966.172,950.569C966.336,951.331 966.56,952.076 966.82,952.809C966.865,952.18 966.94,951.552 967.023,950.912C967.428,947.797 967.768,944.687 968.529,941.633Z" style="fill-rule:nonzero;"/>
            <path d="M880.09,942.884C880.098,942.9 880.104,942.916 880.112,942.932C880.12,942.496 880.114,942.06 880.065,941.631C879.958,940.697 879.674,939.793 879.52,938.867C879.231,937.129 879.585,935.251 879.905,933.534C880.245,931.712 880.891,930.01 881.506,928.268C881.808,927.411 882.071,926.521 882.53,925.732C882.918,925.066 883.393,924.462 883.837,923.834C884.882,922.354 885.779,920.73 886.702,919.17C887.592,917.666 888.468,916.146 889.32,914.62C889.969,913.458 890.72,912.154 890.857,910.807C890.859,910.781 890.861,910.763 890.862,910.746C890.865,910.673 890.868,910.6 890.87,910.527C890.873,910.398 890.876,910.268 890.878,910.139C890.882,909.86 890.883,909.58 890.888,909.301C890.897,908.727 890.916,908.151 890.976,907.58C891.044,906.928 891.203,906.291 891.529,905.768C891.329,905.262 891.142,904.75 890.977,904.233C890.975,904.236 890.973,904.238 890.971,904.241C890.867,904.38 890.768,904.542 890.647,904.665C890.614,904.699 890.596,904.713 890.585,904.717C890.279,905.239 889.76,905.569 889.12,905.47C888.944,905.443 888.778,905.374 888.623,905.285C888.443,905.407 888.269,905.538 888.097,905.67C887.78,905.914 887.471,906.168 887.158,906.417C886.471,906.966 885.887,907.633 885.403,908.368C884.427,909.85 883.869,911.539 883.291,913.201C882.693,914.921 881.967,916.531 880.735,917.896C879.588,919.167 878.26,920.268 876.901,921.31C875.786,922.792 874.052,923.854 873.375,925.601C871.882,929.455 874.742,934.459 876.694,937.633C877.787,939.407 879.149,941.019 880.09,942.884Z" style="fill-rule:nonzero;"/>
            <path d="M878.282,905.442C877.699,908.09 877.829,910.495 878.13,913.166C878.278,914.481 878.394,915.875 878.287,917.233C878.841,916.693 879.353,916.118 879.783,915.491C880.865,913.914 881.29,911.969 881.971,910.207C882.72,908.27 883.784,906.399 885.345,905.005C886.032,904.392 886.779,903.758 887.566,903.278C888.01,903.007 888.493,902.77 889.028,902.887C889.067,902.895 889.101,902.915 889.138,902.927C889.176,902.878 889.213,902.828 889.251,902.779C889.431,902.548 889.376,902.557 889.297,902.841C889.442,902.317 889.871,901.923 890.414,901.929C890.281,901.109 890.219,900.28 890.268,899.443C890.351,898 890.685,896.598 890.9,895.173C890.925,895.007 890.943,894.841 890.959,894.676C890.879,894.593 890.811,894.498 890.748,894.397C889.633,894.78 888.387,894.842 887.127,894.901C884.436,895.026 882.345,896.47 880.859,898.685C879.506,900.701 878.799,903.091 878.282,905.442Z" style="fill-rule:nonzero;"/>
            <path d="M893.388,892.357C893.409,892.311 893.422,892.28 893.429,892.259C893.421,892.271 893.412,892.281 893.405,892.293C893.398,892.311 893.393,892.333 893.388,892.357Z" style="fill-rule:nonzero;"/>
            <path d="M888.393,943.384C888.268,941.972 887.826,940.626 887.515,939.249C887.171,937.727 886.929,936.175 887.263,934.629C887.567,933.224 888.216,931.907 888.716,930.568C889.816,927.623 890.257,924.408 891.154,921.392C892.012,918.51 893.069,915.711 894.712,913.184C894.271,911.892 893.717,910.639 893.134,909.384C893.128,909.966 893.129,910.549 893.079,911.13C893.025,911.762 892.814,912.363 892.6,912.957C892.056,914.468 891.214,915.844 890.408,917.225C889.526,918.736 888.676,920.262 887.764,921.756C886.898,923.175 886.054,924.604 885.077,925.95C884.065,927.344 883.638,929.002 883.054,930.602C882.474,932.192 882.105,933.805 881.876,935.481C881.77,936.257 881.624,937.058 881.667,937.843C881.709,938.616 881.906,939.362 882.068,940.115C882.448,941.882 882.317,943.619 882.287,945.413C882.26,947.003 882.273,948.593 882.337,950.181C882.368,950.344 882.399,950.508 882.428,950.671C882.936,953.524 883.174,956.427 883.756,959.266C884.318,962.005 885.483,964.472 887.1,966.742C888.725,969.023 890.761,971.023 892.252,973.395C893.769,975.808 894.592,978.5 895.164,981.272C895.76,984.157 896.264,987.062 896.841,989.951C897.014,990.819 897.129,991.687 897.222,992.555C898.454,987.966 898.738,983.169 897.401,978.519C897.024,977.206 896.505,975.954 896.026,974.677C895.739,973.91 895.553,973.113 895.269,972.344C894.67,970.726 893.821,969.212 893.255,967.581C892.672,965.899 892.479,964.153 891.728,962.521C891.023,960.989 890.094,959.57 889.379,958.042C887.999,955.089 888.029,952.071 888.246,948.887C888.373,947.059 888.555,945.216 888.393,943.384Z" style="fill-rule:nonzero;"/>
            <path d="M971.107,1037.5C971.579,1038.53 972.212,1039.5 972.87,1040.41C974.279,1042.38 975.927,1044.1 977.758,1045.67C979.483,1047.16 981.242,1048.59 982.782,1050.26C985.351,1051.31 987.948,1052.33 990.625,1053.07C991.8,1053.39 993.046,1053.72 994.275,1053.71C995.106,1053.71 995.179,1053.63 995.848,1053.49C996.557,1053.34 997.227,1053.3 997.945,1053.45C999.831,1053.86 1001.46,1055.26 1003.06,1056.27C1004.09,1056.91 1005.12,1057.52 1006.1,1058.25C1007.07,1058.96 1008.09,1059.86 1009.31,1060.09C1011.2,1060.45 1013.43,1059.7 1015.18,1059.07C1016.91,1058.45 1018.8,1057.68 1020.07,1056.31C1021.69,1054.54 1022.23,1051.86 1023.78,1050.17C1023.07,1049.9 1022.33,1049.72 1021.6,1049.48C1020.35,1049.09 1019.26,1048.46 1018.14,1047.79C1017.55,1047.44 1016.96,1047.08 1016.33,1046.8C1015.76,1046.55 1015.15,1046.39 1014.56,1046.18C1013.42,1045.77 1012.35,1045.15 1011.27,1044.61C1009.32,1043.64 1007.36,1042.67 1005.29,1041.99C1003.12,1041.28 1000.93,1041.14 998.676,1040.93C997.495,1040.82 996.315,1040.69 995.147,1040.48C993.974,1040.28 992.85,1039.93 991.693,1039.65C990.524,1039.38 989.329,1039.23 988.164,1038.93C987.01,1038.64 985.918,1038.19 984.848,1037.67C982.691,1036.63 980.461,1035.81 978.272,1034.84C976.06,1033.87 973.9,1032.78 971.769,1031.64C970.524,1030.97 969.3,1030.28 968.083,1029.57C968.978,1030.89 969.661,1032.35 970.04,1033.94C970.328,1035.15 970.583,1036.37 971.107,1037.5Z" style="fill-rule:nonzero;"/>
            <path d="M964.524,1028.72C963.682,1027.8 962.839,1026.86 961.923,1026C960.952,1025.42 960.023,1024.79 959.23,1023.98C959.117,1023.87 959.029,1023.74 958.964,1023.61C957.758,1023.15 956.571,1022.65 955.421,1022.09C957.541,1024.79 959.476,1027.64 961.083,1030.68C962.394,1033.15 963.455,1035.73 964.5,1038.33C965.43,1040.64 966.199,1042.45 967.546,1044.44C968.289,1045.55 969.152,1046.6 970.002,1047.49C971.174,1048.71 972.007,1050.05 972.646,1051.62C974.029,1055.02 974.547,1058.74 975.112,1062.34C975.228,1063.08 975.343,1063.82 975.476,1064.56C975.506,1064.73 975.538,1064.89 975.571,1065.06C975.584,1065.13 975.589,1065.16 975.592,1065.17C975.594,1065.18 975.601,1065.21 975.617,1065.28C975.671,1065.51 975.726,1065.75 975.794,1065.98C976.42,1068.1 977.9,1069.98 979.237,1071.7C981.956,1075.19 985.503,1077.73 989.294,1079.95C991.215,1081.07 993.172,1082.13 995.097,1083.25C996.057,1083.8 997.01,1084.37 997.945,1084.97C998.885,1085.57 999.781,1086.26 1000.75,1086.81C1001.85,1087.42 1003,1087.92 1004.05,1088.6C1005.09,1089.28 1006,1090.12 1006.92,1090.95C1008.76,1092.61 1010.73,1094.11 1012.5,1095.86C1014.34,1097.67 1016.17,1099.53 1017.47,1101.78C1018.7,1103.93 1019.26,1106.28 1020.09,1108.57C1020.5,1108.72 1020.82,1109.06 1020.85,1109.54C1020.86,1109.7 1020.83,1109.87 1020.77,1110.02C1022.24,1112.86 1022.86,1116.08 1024.54,1118.82C1025.58,1120.52 1026.75,1122.16 1028.09,1123.65C1030.68,1126.54 1034.47,1129.33 1038.39,1127.93C1037.43,1126.6 1035.79,1125.76 1034.87,1124.36C1033.74,1122.63 1033.57,1120.28 1033.25,1118.28C1032.56,1113.89 1033.18,1109.36 1031.8,1105.08C1030.65,1101.54 1028.82,1098.12 1026.55,1095.16C1024.22,1092.11 1020.81,1090.2 1018.18,1087.44C1017.45,1086.68 1016.87,1085.92 1016.42,1085.14C1015.82,1084.5 1015.22,1083.87 1014.58,1083.27C1013.14,1081.92 1011.41,1080.94 1009.76,1079.87C998.19,1072.29 986.485,1063.64 980.074,1051.02C980.007,1050.89 979.985,1050.75 979.993,1050.61C978.528,1049.2 976.906,1047.96 975.403,1046.61C973.642,1045.02 972.053,1043.22 970.71,1041.26C970.055,1040.31 969.462,1039.31 968.981,1038.25C968.459,1037.11 968.203,1035.9 967.914,1034.69C967.354,1032.34 966.129,1030.49 964.524,1028.72Z" style="fill-rule:nonzero;"/>
            <path d="M1042.77,1040.45C1047.8,1041.57 1052.8,1042.84 1057.84,1043.95C1060.2,1044.48 1062.56,1044.93 1064.94,1045.36C1067.1,1045.76 1069.25,1046.3 1071.12,1047.48C1071.26,1047.56 1071.37,1047.66 1071.47,1047.77C1074.31,1047.93 1077.2,1049.02 1079.74,1050.06C1083.91,1051.79 1087.84,1054.05 1091.63,1056.5C1091.17,1055.28 1090.58,1054.12 1089.86,1053.04C1085.69,1046.82 1078.46,1043.79 1071.65,1041.41C1066.42,1039.59 1061.38,1037.29 1056.24,1035.23C1053.71,1034.22 1051.2,1033.59 1048.49,1033.36C1045.88,1033.14 1043.26,1033.15 1040.66,1032.85C1038.17,1032.56 1035.83,1032.35 1033.31,1032.56C1030.82,1032.77 1028.34,1033.17 1025.85,1033.51C1021.14,1034.15 1016.86,1034.31 1012.29,1032.8C1009.92,1032.02 1007.61,1031.06 1005.21,1030.38C1002.63,1029.65 1000.03,1029.56 997.366,1029.54C992.343,1029.51 987.45,1029.46 982.453,1028.85C977.091,1028.18 971.737,1027.33 966.509,1025.95C966.429,1025.93 966.348,1025.91 966.268,1025.89C966.68,1026.14 967.093,1026.38 967.503,1026.64C969.821,1028.07 972.233,1029.36 974.656,1030.61C976.811,1031.72 979.003,1032.75 981.25,1033.66C982.356,1034.11 983.475,1034.5 984.553,1035.02C985.564,1035.51 986.559,1036.04 987.613,1036.42C988.709,1036.83 989.88,1036.99 991.022,1037.21C992.195,1037.44 993.328,1037.8 994.493,1038.06C996.809,1038.57 999.181,1038.72 1001.54,1038.92C1005.91,1039.29 1009.83,1041.39 1013.7,1043.31C1014.69,1043.8 1015.68,1044.16 1016.73,1044.54C1017.86,1044.95 1018.88,1045.63 1019.92,1046.23C1020.88,1046.79 1021.82,1047.22 1022.89,1047.52C1023.91,1047.81 1024.95,1048.09 1025.86,1048.65C1025.93,1048.69 1025.99,1048.74 1026.06,1048.79C1026.11,1048.78 1026.15,1048.76 1026.21,1048.75C1031.26,1047.57 1035.46,1050.76 1039.64,1052.97C1044.96,1055.76 1050.45,1054.37 1055.99,1053.09C1058.61,1052.48 1061.01,1052 1063.33,1050.55C1064.69,1049.69 1066.03,1048.84 1067.51,1048.31C1066.41,1047.95 1065.27,1047.71 1064.11,1047.51C1061.79,1047.1 1059.48,1046.63 1057.18,1046.12C1052.22,1045.01 1047.3,1043.77 1042.34,1042.67C1040.92,1042.35 1041.34,1040.14 1042.77,1040.45Z" style="fill-rule:nonzero;"/>
            <path d="M895.761,967.811C895.967,968.315 896.19,968.813 896.414,969.309C896.186,968.252 895.969,967.191 895.857,966.127C895.702,964.654 896.017,963.201 896.347,961.775C896.659,960.424 896.893,959.055 896.988,957.669C897.094,956.136 896.861,954.7 896.569,953.202C895.953,950.039 895.366,946.87 894.76,943.705C894.195,940.752 893.749,937.74 893.922,934.722C894.01,933.19 894.281,931.682 894.436,930.157C894.595,928.595 894.778,927.041 895.025,925.491C895.491,922.563 895.885,919.701 895.546,916.732C895.53,916.589 895.502,916.45 895.481,916.309C894.1,918.994 893.271,921.982 892.533,924.88C892.12,926.502 891.772,928.143 891.337,929.759C890.886,931.432 890.053,932.968 889.587,934.632C888.745,937.642 890.499,940.68 890.675,943.688C890.864,946.909 890.153,950.119 890.404,953.339C890.678,956.863 893.047,959.514 894.255,962.711C894.887,964.379 895.083,966.15 895.761,967.811Z" style="fill-rule:nonzero;"/>
            <path d="M1012.44,1078.94C1013.44,1079.59 1014.41,1080.23 1015.32,1080.96C1015.33,1080.37 1015.39,1079.76 1015.5,1079.11C1015.77,1077.54 1016.09,1075.98 1015.48,1074.43C1014.8,1072.7 1013.3,1071.75 1011.72,1070.91C1008.23,1069.05 1004.97,1066.82 1001.51,1064.89C999.688,1063.87 997.816,1062.93 995.871,1062.17C994.713,1061.71 993.543,1061.38 992.44,1060.8C990.329,1059.69 988.32,1058.34 986.397,1056.93C987.115,1057.88 987.862,1058.81 988.638,1059.72C993.107,1064.92 998.498,1069.3 1004.06,1073.27C1006.81,1075.23 1009.61,1077.11 1012.44,1078.94Z" style="fill-rule:nonzero;"/>
            <path d="M1026.4,914.583C1026.45,914.613 1026.49,914.636 1026.4,914.583Z" style="fill-rule:nonzero;"/>
            <path d="M1017.31,881.28C1017.31,881.278 1017.31,881.275 1017.3,881.273L1017.3,881.275C1017.3,881.278 1017.31,881.28 1017.31,881.285C1017.31,881.282 1017.31,881.282 1017.31,881.28Z" style="fill-rule:nonzero;"/>
            <path d="M1017.33,881.361C1017.34,881.426 1017.34,881.403 1017.33,881.361L1017.33,881.361Z" style="fill-rule:nonzero;"/>
            <path d="M954.986,954.11C955.363,955.048 955.903,955.916 956.356,956.82C956.676,957.458 957.008,958.111 957.401,958.74C957.438,958.588 957.47,958.435 957.479,958.278C957.53,957.352 957.124,956.286 956.937,955.387C956.539,953.472 956.026,951.576 955.774,949.633C955.514,947.635 955.705,945.673 956.019,943.693C956.174,942.716 956.371,941.728 956.399,940.737C956.419,940.034 956.42,939.332 956.426,938.63C955.699,942.261 954.754,945.839 953.6,949.355C953.756,949.538 953.864,949.771 953.913,950.024C954.179,951.41 954.459,952.796 954.986,954.11Z" style="fill-rule:nonzero;"/>
            <path d="M1032.44,929.244C1032.46,929.223 1032.47,929.351 1032.46,929.239C1032.46,929.279 1032.47,929.296 1032.46,929.225C1032.45,929.231 1032.44,929.24 1032.44,929.244Z" style="fill-rule:nonzero;"/>
            <path d="M1017.32,881.283L1017.31,881.281L1017.32,881.285L1017.32,881.29L1017.32,881.283Z" style="fill-rule:nonzero;"/>
            <path d="M1017.32,881.325C1017.32,881.318 1017.32,881.312 1017.32,881.305C1017.32,881.312 1017.32,881.319 1017.32,881.325L1017.32,881.325Z" style="fill-rule:nonzero;"/>
            <path d="M1044.55,941.596C1041.2,939.123 1037.81,936.701 1034.5,934.164C1033.38,933.308 1032.26,932.447 1031.22,931.491C1030.24,930.584 1029.38,929.572 1030.03,928.15C1030.78,926.518 1032.68,925.63 1034.14,924.758C1036.8,923.171 1039.07,920.9 1041.3,918.779C1043.24,916.928 1045.2,915.089 1047.09,913.185C1047.92,912.343 1048.77,911.489 1049.58,910.606C1045.63,912.021 1041.69,913.505 1037.65,914.617C1035.98,915.079 1034.38,915.747 1032.76,916.36C1031.24,916.934 1029.62,917.523 1027.97,917.559C1026.29,917.597 1024.78,916.982 1023.71,915.647C1022.25,913.814 1021.97,911.096 1021.62,908.868C1021.21,906.184 1021.03,903.472 1020.72,900.775C1020.41,898.021 1019.83,895.349 1019.23,892.648C1018.62,889.924 1018.03,887.189 1017.64,884.425C1017.6,884.13 1017.57,883.836 1017.55,883.542C1017.29,885.606 1017.03,887.671 1016.78,889.738C1015.86,897.568 1015.21,905.402 1015.07,913.287C1015.05,914.005 1014.6,914.647 1013.83,914.7C1013.58,914.718 1013.31,914.647 1013.08,914.514C1012.82,914.752 1012.46,914.88 1012,914.788C1009.11,914.203 1006.23,913.116 1003.65,911.679C1000.71,910.04 997.933,908.092 995.088,906.3C992.891,904.916 990.668,903.47 988.357,902.227C988.743,902.841 989.156,903.438 989.581,904.025C991.125,906.153 992.827,908.164 994.533,910.162C995.774,911.616 997.057,913.044 998.22,914.562C998.805,915.325 999.336,916.115 999.995,916.821C1001.05,917.951 1002.2,918.988 1003.35,920.018C1004.39,920.947 1005.44,921.862 1006.43,922.838C1007.5,923.887 1008.92,924.965 1009.31,926.478C1009.98,929.04 1008.07,930.946 1006.05,932.133C1002.47,934.242 998.271,935.287 994.323,936.512C991.786,937.299 989.251,938.092 986.736,938.949C985.942,939.22 985.146,939.496 984.352,939.783C987.749,940.455 991.239,940.783 994.656,941.091C997.782,941.373 1000.92,941.597 1004.05,941.824C1005.79,941.95 1007.7,942.018 1009.13,943.156C1010.99,944.643 1011.08,947.323 1011.35,949.489C1011.74,952.677 1012.05,955.874 1012.38,959.069C1012.65,961.727 1013.05,964.39 1013.14,967.062C1013.21,969.386 1013.17,971.715 1013.38,974.032C1013.46,974.888 1013.57,975.777 1013.78,976.63C1014.19,975.11 1014.51,973.566 1014.78,972.015C1015.18,969.714 1015.49,967.398 1015.89,965.097C1016.32,962.638 1016.9,960.217 1017.51,957.797C1018.15,955.239 1018.81,952.684 1019.33,950.098C1019.77,947.91 1019.45,945.607 1020.12,943.466C1020.35,942.716 1020.9,942.354 1021.67,942.417C1024.63,942.656 1027.58,942.94 1030.52,943.316C1033.94,943.753 1037.33,944.371 1040.74,944.883C1043.89,945.357 1047.06,945.678 1050.24,945.913C1050.09,945.794 1049.94,945.673 1049.79,945.555C1048.07,944.201 1046.31,942.896 1044.55,941.596Z" style="fill-rule:nonzero;"/>
            <path d="M940.158,857.041C940.145,857.042 940.14,857.043 940.128,857.044L940.13,857.044C940.141,857.043 940.152,857.042 940.158,857.041Z" style="fill-rule:nonzero;"/>
            <path d="M940.951,854.287C940.949,854.285 940.947,854.284 940.945,854.282C940.916,854.269 940.887,854.256 940.858,854.239C940.867,854.25 940.896,854.266 940.951,854.287Z" style="fill-rule:nonzero;"/>
            <path d="M939.298,856.482C939.325,856.521 939.353,856.559 939.382,856.597C939.401,856.62 939.436,856.662 939.446,856.671C939.519,856.738 939.594,856.805 939.675,856.861C939.784,856.937 939.708,856.879 939.688,856.868C939.761,856.909 939.836,856.939 939.911,856.976C939.923,856.982 940.007,857.012 940.024,857.02C940.033,857.022 940.041,857.024 940.05,857.027C940.133,856.972 940.214,856.915 940.299,856.863C940.556,856.708 940.83,856.574 941.113,856.472C941.32,856.397 941.537,856.394 941.741,856.444C941.741,856.411 941.743,856.379 941.741,856.346C941.732,856.127 941.713,855.91 941.681,855.693C941.672,855.633 941.658,855.565 941.652,855.536C941.639,855.48 941.626,855.425 941.61,855.37C941.555,855.178 941.465,855 941.404,854.812C941.396,854.8 941.387,854.785 941.383,854.779C941.337,854.708 941.293,854.637 941.243,854.569C941.221,854.539 941.197,854.509 941.173,854.479C941.125,854.435 941.079,854.387 941.029,854.346C941.005,854.327 940.981,854.308 940.956,854.29C940.768,854.459 940.524,854.576 940.256,854.631C940.098,854.663 939.939,854.693 939.78,854.722C939.736,854.73 939.502,854.777 939.472,854.78C939.389,854.799 939.305,854.818 939.223,854.844C939.174,854.859 939.121,854.884 939.082,854.902C939.07,854.947 939.058,854.991 939.048,855.036C939.033,855.104 939.025,855.173 939.011,855.242C939.011,855.246 939.006,855.277 939.003,855.305C939.001,855.347 938.998,855.408 938.999,855.422C938.999,855.475 939.001,855.528 939.004,855.58C939.009,855.668 939.02,855.755 939.032,855.843C939.033,855.85 939.033,855.852 939.034,855.858C939.037,855.866 939.038,855.87 939.041,855.881C939.08,856.017 939.125,856.15 939.178,856.282C939.183,856.295 939.208,856.338 939.223,856.365C939.247,856.404 939.271,856.444 939.298,856.482Z" style="fill-rule:nonzero;"/>
            <path d="M939.998,857.061C939.972,857.067 939.968,857.071 939.99,857.066C939.992,857.065 939.995,857.063 939.998,857.061Z" style="fill-rule:nonzero;"/>
            <path d="M939.635,860.953C939.552,860.985 939.595,860.973 939.635,860.953Z" style="fill-rule:nonzero;"/>
            <path d="M939.522,860.689C939.548,860.731 939.673,860.891 939.666,860.897C939.674,860.904 939.681,860.91 939.689,860.918C939.78,860.853 939.872,860.776 939.966,860.721C939.969,860.719 939.968,860.72 939.971,860.718C939.997,860.693 940.023,860.668 940.048,860.643C940.202,860.487 940.346,860.321 940.483,860.151C940.636,859.962 940.781,859.766 940.923,859.569C940.934,859.554 940.967,859.508 940.996,859.466C941.02,859.427 941.057,859.37 941.069,859.348C941.147,859.209 941.213,859.064 941.277,858.918C941.258,858.931 941.239,858.944 941.219,858.956C940.895,859.155 940.558,859.285 940.175,859.3C939.823,859.313 939.471,859.238 939.136,859.108C939.169,859.328 939.2,859.548 939.238,859.768C939.275,859.981 939.253,859.879 939.308,860.084C939.344,860.221 939.385,860.356 939.435,860.488C939.459,860.551 939.485,860.613 939.512,860.674C939.517,860.681 939.517,860.681 939.522,860.689Z" style="fill-rule:nonzero;"/>
            <path d="M952.42,912.518L952.414,912.518C952.456,912.519 952.479,912.518 952.42,912.518Z" style="fill-rule:nonzero;"/>
            <path d="M940.958,854.288L940.957,854.289C940.966,854.292 940.969,854.295 940.979,854.298C940.972,854.296 940.965,854.291 940.958,854.288Z" style="fill-rule:nonzero;"/>
            <path d="M960.819,912.203C960.418,912.275 960.013,912.297 959.61,912.28C959.493,912.4 959.353,912.5 959.19,912.564C958.892,912.68 958.484,913.051 958.154,913.323C957.96,913.483 957.753,913.627 957.536,913.752C957.574,913.785 957.611,913.82 957.649,913.849C957.652,913.851 957.652,913.851 957.654,913.854C957.718,913.891 957.78,913.929 957.845,913.963C958.362,914.243 958.918,914.434 959.46,914.66C959.603,914.72 959.745,914.784 959.889,914.843C959.956,914.87 960.023,914.897 960.091,914.923C960.122,914.935 960.172,914.947 960.213,914.955C960.327,914.976 960.283,914.97 960.213,914.955C960.19,914.951 960.163,914.946 960.126,914.94C960.354,914.98 960.57,915.051 960.8,915.083C960.837,915.083 960.873,915.084 960.909,915.083C961.041,915.08 961.174,915.069 961.306,915.054C961.609,915.021 961.91,914.968 962.21,914.915C962.484,914.867 962.735,914.962 962.938,915.125C963.209,914.508 963.434,913.868 963.567,913.176C963.711,912.427 963.838,911.675 963.974,910.925C963.007,911.535 961.959,911.996 960.819,912.203Z" style="fill-rule:nonzero;"/>
            <path d="M952.339,912.517L952.414,912.517L952.413,912.517C952.395,912.518 952.371,912.517 952.339,912.517Z" style="fill-rule:nonzero;"/>
            <path d="M918.62,886.624C918.626,886.646 918.632,886.67 918.639,886.7C918.631,886.67 918.629,886.64 918.623,886.611C918.622,886.612 918.622,886.613 918.621,886.614C918.621,886.619 918.621,886.62 918.62,886.624Z" style="fill-rule:nonzero;"/>
            <path d="M941.432,854.86C941.444,854.888 941.454,854.911 941.454,854.906C941.454,854.899 941.443,854.879 941.432,854.86Z" style="fill-rule:nonzero;"/>
            <path d="M939.74,860.964C939.748,860.968 939.758,860.973 939.764,860.975C939.837,860.989 939.789,860.975 939.737,860.962C939.738,860.963 939.739,860.964 939.74,860.964Z" style="fill-rule:nonzero;"/>
            <path d="M947.296,880.616C946.442,880.204 945.606,879.76 944.727,879.4C944.417,879.376 944.109,879.347 943.803,879.309C944.241,880.432 944.762,881.521 945.245,882.627C945.877,884.075 946.361,885.552 946.624,887.113C947.048,889.632 946.801,892.226 946.269,894.709C945.653,897.584 944.759,900.421 943.754,903.182C943.512,903.846 943.248,904.45 942.862,905.044C942.541,905.539 942.173,906.008 941.897,906.531C941.311,907.64 941.09,908.946 940.827,910.16C940.615,911.14 940.363,912.1 940.088,913.057C941.592,911.435 943.024,909.805 944.061,907.826C945.345,905.374 946.686,902.95 947.909,900.466C949.073,898.104 950.152,895.713 950.728,893.133C951.272,890.696 951.636,888.047 951.509,885.546C951.446,884.313 951.079,883.152 950.173,882.273C949.359,881.487 948.299,881.1 947.296,880.616Z" style="fill-rule:nonzero;"/>
            <path d="M928.334,918.3C928.622,916.838 928.975,915.388 929.387,913.954C930.62,909.66 932.4,905.603 934.224,901.536C935.154,899.464 936.029,897.368 936.939,895.287C937.832,893.245 938.843,891.28 939.868,889.303C940.772,887.56 941.584,885.754 941.919,883.807C941.068,885.048 940.071,886.204 939.065,887.306C936.574,890.036 933.899,892.611 931.232,895.166C929.006,897.299 926.713,899.295 925.519,902.214C924.312,905.165 924.535,908.623 925.908,911.493C926.313,912.34 926.801,913.15 927.134,914.031C927.442,914.846 927.558,915.702 927.694,916.557C927.803,917.246 927.99,917.772 928.334,918.3Z" style="fill-rule:nonzero;"/>
            <path d="M941.64,902.426C942.639,899.712 943.509,896.91 944.097,894.076C944.589,891.703 944.792,889.255 944.299,886.862C944.194,886.352 944.047,885.858 943.885,885.369C943.417,887.183 942.623,888.908 941.754,890.56C939.67,894.522 937.994,898.645 936.161,902.726C934.357,906.742 932.598,910.751 931.426,915.006C930.333,918.976 929.663,923.078 929.718,927.203C929.748,929.462 930.046,931.677 930.472,933.893C930.605,934.586 930.748,935.278 930.884,935.972C930.956,935.423 931.033,934.874 931.11,934.325C931.502,931.527 932.372,928.826 933.084,926.097C933.705,923.716 934.371,921.303 935.48,919.095C935.858,918.343 936.298,917.637 936.778,916.959C936.793,915.963 937.203,914.868 937.465,914.015C937.913,912.557 938.313,911.118 938.636,909.626C938.912,908.35 939.187,907.021 939.73,905.826C940.275,904.625 941.178,903.681 941.64,902.426Z" style="fill-rule:nonzero;"/>
            <path d="M964.354,908.336C964.366,908.225 964.38,908.113 964.393,908.002C964.392,907.869 964.396,907.736 964.383,907.604C964.355,907.328 964.415,907.1 964.531,906.92C964.76,905.237 965.043,903.556 965.182,901.868C965.666,895.987 965.387,890.041 964.471,884.216C962.691,872.907 958.308,861.805 952.534,851.939C950.202,847.954 946.445,842.655 941.325,842.417C937.178,842.225 933.407,845.508 930.147,847.638C921.44,853.327 912.882,859.474 906.107,867.45C902.672,871.494 899.769,875.959 897.587,880.801C895.973,884.384 895.688,888.941 893.451,892.229C893.436,892.576 893.364,892.934 893.287,893.243C893.275,893.494 893.27,893.745 893.259,893.996C893.225,894.829 893.118,895.639 892.973,896.46C892.69,898.048 892.371,899.594 892.589,901.212C892.767,902.531 893.154,903.792 893.638,905.023C893.807,905.158 893.942,905.334 894.009,905.527C894.071,905.704 894.081,905.875 894.058,906.038C894.754,907.637 895.565,909.198 896.242,910.781C896.625,911.677 896.935,912.591 897.187,913.518C898.664,915.19 898.992,917.885 899.304,919.969C899.824,923.446 900.336,926.874 901.108,930.313C904.583,945.793 910.375,960.913 918.664,974.465C920.665,977.736 922.9,980.853 924.879,984.139C926.995,987.653 928.918,991.274 930.828,994.903C932.352,997.799 934.087,1000.63 935.01,1003.79C936.082,1007.46 936.599,1011.35 937.3,1015.11C937.456,1015.27 937.568,1015.49 937.601,1015.77C938.216,1021.05 939.154,1026.75 942.166,1031.27C943.738,1033.63 945.94,1035.3 947.875,1037.32C948.495,1037.97 949.021,1038.65 949.477,1039.35C949.308,1038.43 949.134,1037.51 948.933,1036.59C948.417,1034.25 947.735,1031.89 947.019,1029.6C946.319,1027.36 945.086,1025.36 944.102,1023.24C943.655,1022.28 943.468,1021.31 942.711,1020.54C942.001,1019.81 941.214,1019.05 940.689,1018.18C939.942,1016.94 941.795,1015.65 942.543,1016.89C943.064,1017.76 943.845,1018.46 944.541,1019.19C945.416,1020.1 945.67,1021.26 946.178,1022.38C947.161,1024.54 948.434,1026.57 949.147,1028.85C949.9,1031.26 950.619,1033.74 951.139,1036.21C951.394,1037.42 951.626,1038.63 951.849,1039.85C952.046,1040.93 951.893,1041.92 951.913,1043C951.921,1043.42 951.734,1043.73 951.468,1043.92C951.814,1045.19 952.056,1046.52 952.25,1047.91C952.764,1051.59 954.008,1054.61 955.736,1057.89C957.296,1060.85 958.677,1063.76 959.815,1066.91C961.087,1070.43 963.079,1072.99 965.723,1075.59C967.914,1077.75 970.152,1079.95 972.561,1081.86C977.707,1085.95 983.714,1088.82 989.595,1091.68C992.477,1093.09 995.276,1094.66 998.187,1096C1001.01,1097.31 1003.99,1098.1 1006.9,1099.18C1009.56,1100.17 1011.96,1101.54 1014.26,1103.19C1015.01,1103.73 1015.76,1104.29 1016.47,1104.89C1015.68,1102.99 1014.58,1101.26 1013.16,1099.75C1011.45,1097.93 1009.67,1096.18 1007.75,1094.58C1006.79,1093.78 1005.82,1093 1004.89,1092.16C1003.99,1091.34 1003.08,1090.59 1002,1090C1000.92,1089.42 999.807,1088.91 998.781,1088.23C997.874,1087.62 996.984,1087 996.055,1086.43C992.273,1084.11 988.277,1082.14 984.596,1079.65C980.732,1077.04 977.391,1073.65 975.022,1069.61C974.157,1068.13 973.605,1066.71 973.287,1065.05C972.992,1063.51 972.781,1061.95 972.526,1060.4C971.983,1057.11 971.395,1053.4 969.616,1050.57C968.847,1049.35 967.758,1048.43 966.81,1047.25C966.037,1046.28 965.343,1045.26 964.735,1044.18C963.543,1042.07 962.672,1039.81 961.767,1037.57C960.671,1034.85 959.502,1032.31 958.025,1029.82C955.733,1025.96 952.942,1022.42 949.959,1019.08C949.797,1018.9 949.74,1018.66 949.755,1018.43C943.775,1013.05 942.036,1004.47 941.385,996.668C941.009,992.154 940.72,987.54 940.712,983.01C940.703,977.956 941.874,973.033 943.567,968.296C945.369,963.252 947.799,958.469 949.747,953.483C951.645,948.623 953.131,943.622 954.167,938.508C954.633,936.209 954.807,933.757 955.617,931.544C955.629,931.399 955.679,931.261 955.757,931.135C956.52,928.945 957.403,926.802 958.331,924.677C959.217,922.648 960.025,920.529 961.076,918.58C961.32,918.128 961.575,917.687 961.827,917.249C961.338,917.317 960.854,917.352 960.351,917.296C959.676,917.221 959.046,916.924 958.426,916.668C957.233,916.176 955.774,915.649 955.195,914.417C954.75,914.486 954.303,914.547 953.867,914.625C953.145,914.754 952.401,914.839 951.674,914.69C950.829,914.517 950.092,914.052 949.451,913.49C948.357,912.53 949.821,910.813 950.912,911.771C951.066,911.906 951.225,912.033 951.388,912.156C951.408,912.171 951.418,912.179 951.432,912.189C951.439,912.192 951.447,912.196 951.463,912.206C951.536,912.248 951.609,912.289 951.684,912.326C951.741,912.354 951.802,912.376 951.858,912.406C951.872,912.413 951.878,912.416 951.888,912.422C952.032,912.461 952.173,912.488 952.32,912.511C952.341,912.514 952.38,912.516 952.411,912.517L952.418,912.517C952.451,912.517 952.485,912.518 952.518,912.517C952.675,912.514 952.833,912.502 952.989,912.484C953.306,912.449 953.621,912.391 953.934,912.333C954.729,912.184 955.648,912.185 956.365,911.833C956.476,911.778 956.661,911.633 956.846,911.48C956.739,911.42 956.632,911.363 956.529,911.297C955.995,910.957 955.736,910.409 956.001,909.792C956.222,909.277 957.006,908.946 957.506,909.264C957.805,909.454 958.115,909.625 958.443,909.761C958.519,909.793 958.595,909.822 958.672,909.85C958.683,909.853 958.693,909.857 958.707,909.86C958.852,909.9 958.997,909.937 959.144,909.965C959.288,909.993 959.433,910.011 959.578,910.028C959.591,910.029 959.597,910.03 959.607,910.032C959.612,910.032 959.614,910.031 959.622,910.031C959.685,910.029 959.749,910.033 959.813,910.032C960.1,910.029 960.379,909.989 960.662,909.949L960.665,909.949C960.674,909.946 960.679,909.945 960.691,909.942C960.753,909.926 960.815,909.911 960.876,909.894C961.031,909.851 961.184,909.802 961.334,909.748C961.6,909.652 961.86,909.538 962.113,909.412C962.121,909.407 962.126,909.405 962.137,909.398C962.21,909.357 962.283,909.317 962.355,909.275C962.486,909.199 962.616,909.12 962.743,909.038C963.002,908.872 963.253,908.694 963.499,908.509C963.76,908.319 964.067,908.274 964.354,908.336ZM936.886,859.238C936.775,858.426 936.642,857.921 936.481,857.076C936.31,856.178 936.334,855.288 936.676,854.431C936.814,854.086 937.004,853.784 937.239,853.523C937.366,853.294 937.51,853.075 937.687,852.879C938.71,851.746 940.444,851.52 941.795,852.179C942.82,852.679 943.508,853.685 943.778,854.775C944.314,856.931 943.876,859.343 942.566,861.137C941.827,862.149 940.717,863.428 939.309,863.171C937.504,862.842 937.093,860.752 936.886,859.238ZM912.873,896.395C911.905,895.623 911.318,894.546 910.933,893.395C909.22,894.048 907.26,893.89 905.721,892.867C904.726,892.206 903.921,891.306 903.38,890.243C902.93,889.36 902.726,888.427 902.698,887.464C901.032,886.756 899.458,885.466 899.323,883.668C899.214,882.219 901.465,882.064 901.574,883.514C901.576,883.559 901.582,883.603 901.588,883.647C901.592,883.661 901.596,883.674 901.602,883.695C901.622,883.758 901.645,883.82 901.671,883.88C901.672,883.881 901.672,883.881 901.672,883.882C901.729,883.971 901.784,884.059 901.847,884.144C901.883,884.193 901.922,884.24 901.961,884.286C901.974,884.299 901.991,884.317 902.013,884.34C902.453,884.746 902.739,884.954 903.232,885.206C903.504,885.345 903.721,885.445 903.937,885.527C904.32,885.403 904.712,885.535 904.993,885.798C905.004,885.8 905.015,885.802 905.026,885.804C905.088,885.813 905.15,885.821 905.213,885.827C905.384,885.821 905.545,885.805 905.714,885.786C905.756,885.776 905.798,885.765 905.84,885.754C905.926,885.727 906.014,885.704 906.101,885.676C906.317,885.606 906.529,885.525 906.738,885.434C906.84,885.39 906.941,885.342 907.042,885.293C907.065,885.278 907.274,885.168 907.302,885.152C907.514,885.03 907.72,884.898 907.919,884.756C908.003,884.696 908.085,884.635 908.166,884.571C908.191,884.551 908.341,884.417 908.375,884.39C908.445,884.318 908.513,884.245 908.578,884.17C908.589,884.032 908.6,883.894 908.631,883.758C908.678,883.556 908.751,883.374 908.841,883.206C908.641,883.082 908.445,882.945 908.256,882.785C907.134,881.828 906.418,880.499 905.542,879.335C904.665,878.171 906.526,876.893 907.396,878.049C908.118,879.008 908.701,880.141 909.593,880.956C910.515,881.799 911.692,881.848 912.889,881.835C915.537,881.808 918.462,881.531 920.339,879.422C921.306,878.336 923.024,879.798 922.058,880.883C921.203,881.844 920.189,882.528 919.084,883.012C919.119,883.076 919.148,883.144 919.164,883.218C919.19,883.334 919.216,883.451 919.242,883.568C919.252,883.615 919.257,883.662 919.264,883.709C919.295,883.811 919.336,883.917 919.382,884.015C919.4,884.041 919.458,884.14 919.474,884.165C919.533,884.255 919.595,884.343 919.662,884.427C919.882,884.706 920.301,885.059 920.667,885.303C921.39,885.785 922.196,886.11 922.985,886.275C924.749,886.645 926.649,886.319 927.564,884.673C927.861,884.139 928.492,883.868 929.069,884.145C929.595,884.398 929.893,885.118 929.597,885.65C928.183,888.195 925.307,889.067 922.555,888.491C922.263,888.43 921.964,888.351 921.664,888.256C921.748,888.403 921.81,888.565 921.841,888.732C921.906,889.082 921.958,889.435 922.011,889.787C922.033,889.935 922.056,890.082 922.082,890.23C922.084,890.241 922.086,890.256 922.087,890.273L922.087,890.272C922.089,890.338 922.119,890.412 922.136,890.475C922.174,890.62 922.218,890.763 922.272,890.902C922.293,890.955 922.318,891.008 922.339,891.061C922.341,891.064 922.342,891.064 922.344,891.068C922.391,891.136 922.431,891.207 922.479,891.273C922.485,891.281 922.504,891.306 922.524,891.332C922.553,891.362 922.613,891.429 922.628,891.443C922.685,891.496 922.745,891.546 922.806,891.594C922.853,891.632 922.903,891.667 922.952,891.701C922.981,891.717 923.087,891.781 923.102,891.79C923.224,891.86 923.347,891.93 923.469,891.998C923.763,892.162 924.061,892.319 924.37,892.453C924.441,892.484 924.513,892.514 924.586,892.542C924.615,892.553 924.64,892.563 924.661,892.57C924.791,892.608 924.921,892.645 925.055,892.668C925.09,892.674 925.222,892.683 925.227,892.688C925.259,892.688 925.29,892.689 925.322,892.687C925.344,892.686 925.376,892.686 925.406,892.685C925.414,892.682 925.422,892.68 925.438,892.675C925.478,892.663 925.518,892.649 925.557,892.634C926.151,892.417 926.769,892.763 926.995,893.325C927.225,893.896 926.858,894.56 926.304,894.763C925.392,895.096 924.44,894.908 923.565,894.559C922.824,894.264 922.059,893.848 921.42,893.372C920.751,892.875 920.269,892.138 920.038,891.341C919.806,890.542 919.74,889.703 919.588,888.888C919.577,888.831 919.579,888.775 919.58,888.72C919.18,889.017 918.728,889.264 918.288,889.47C917.054,890.046 915.696,890.395 914.356,890.618C914.251,890.636 914.142,890.647 914.034,890.661C914.019,890.702 914.008,890.744 913.987,890.783C913.703,891.325 913.337,891.792 912.906,892.19C912.939,892.308 912.97,892.427 913.008,892.544C913.065,892.72 913.128,892.895 913.197,893.067C913.23,893.15 913.265,893.232 913.301,893.314C913.323,893.363 913.477,893.597 913.361,893.449C913.241,893.296 913.407,893.532 913.429,893.572C913.47,893.644 913.513,893.716 913.557,893.786C913.643,893.923 913.735,894.056 913.835,894.184C913.88,894.242 913.928,894.298 913.975,894.355C913.982,894.361 913.984,894.363 913.992,894.371C914.105,894.476 914.214,894.582 914.335,894.678C914.395,894.726 914.457,894.769 914.518,894.816C914.521,894.818 914.521,894.818 914.524,894.821C914.534,894.827 914.539,894.829 914.552,894.837C914.685,894.915 914.824,894.985 914.966,895.047C915.028,895.074 915.09,895.099 915.153,895.123C915.17,895.129 915.177,895.132 915.189,895.137C915.195,895.138 915.197,895.139 915.205,895.141C915.367,895.181 915.526,895.224 915.691,895.253C915.825,895.277 916.082,895.36 916.212,895.318C916.166,895.315 916.121,895.313 916.076,895.31C916.129,895.313 916.182,895.315 916.234,895.316C916.343,895.319 916.451,895.319 916.56,895.316C916.974,895.306 917.386,895.258 917.795,895.19C918.417,895.086 918.934,895.68 918.998,896.238C919.071,896.884 918.529,897.344 917.949,897.441C916.184,897.732 914.309,897.541 912.873,896.395ZM951.777,878.491C951.04,878.786 950.274,879.003 949.495,879.159C951.487,880.141 953.07,881.697 953.561,883.937C954.051,886.175 953.707,888.674 953.408,890.922C953.111,893.155 952.583,895.355 951.751,897.451C950.867,899.681 949.774,901.83 948.664,903.953C947.569,906.048 946.547,908.248 945.281,910.245C943.575,912.935 941.072,915.021 939.139,917.528C939.208,918.084 938.821,918.495 938.343,918.639C938.077,919.044 937.827,919.461 937.603,919.897C936.635,921.771 936.026,923.798 935.484,925.829C934.936,927.879 934.328,929.928 933.829,931.989C933.345,933.991 933.09,936.09 932.898,938.139C932.779,939.413 932.518,941.706 930.783,941.694C930.248,941.69 929.863,941.431 929.642,940.942C929.134,939.822 929.043,938.572 928.861,937.37C928.668,936.1 928.37,934.844 928.134,933.581C927.676,931.125 927.428,928.671 927.471,926.171C927.496,924.747 927.6,923.328 927.766,921.917C927.54,921.751 927.381,921.486 927.366,921.116C927.346,920.647 927.034,920.329 926.752,919.974C926.424,919.56 926.137,919.158 925.927,918.67C925.452,917.568 925.502,916.341 925.153,915.208C924.809,914.089 924.168,913.096 923.683,912.039C922.777,910.061 922.366,907.612 922.482,905.445C922.59,903.412 923.263,901.377 924.281,899.618C925.295,897.866 926.64,896.437 928.101,895.053C931.648,891.692 935.299,888.322 938.457,884.585C939.176,883.734 939.892,882.852 940.483,881.907C940.911,881.224 941.114,880.54 940.878,879.745C940.787,879.437 940.691,879.068 940.643,878.694C938.452,878.094 936.353,877.154 934.47,875.887C933.316,875.111 932.273,874.179 931.399,873.095C930.243,871.662 929.498,869.887 928.788,868.203C928,866.332 927.329,864.401 926.398,862.594C925.398,860.653 924.08,858.962 922.369,857.6C921.229,856.692 922.697,854.979 923.83,855.881C925.684,857.357 927.159,859.21 928.252,861.309C929.303,863.326 930.072,865.461 930.957,867.552C931.591,869.049 932.255,870.588 933.292,871.857C933.98,872.699 935.025,873.58 936.045,874.243C937.763,875.36 939.766,876.17 941.819,876.664C942.631,876.489 943.515,876.638 944.295,876.867C944.599,876.956 944.894,877.07 945.191,877.18C947.317,877.317 949.452,877.073 951.389,876.215C953.571,875.248 955.146,873.331 955.687,870.836C955.995,869.418 958.211,869.843 957.902,871.266C957.17,874.62 954.962,877.216 951.777,878.491Z" style="fill-rule:nonzero;"/>
            <path d="M911.597,887.819C911.613,887.846 911.627,887.873 911.644,887.899C911.682,887.958 911.816,888.095 911.805,888.094C911.853,888.133 911.905,888.176 911.917,888.19C912.003,888.237 912.09,888.28 912.178,888.321C912.2,888.331 912.213,888.338 912.225,888.344C912.238,888.345 912.257,888.348 912.285,888.353C912.355,888.366 912.424,888.386 912.494,888.399C912.622,888.423 912.874,888.457 912.932,888.461C913.04,888.469 913.295,888.47 913.469,888.457C913.845,888.43 914.219,888.364 914.589,888.292C914.636,888.281 914.85,888.235 914.904,888.222C915.025,888.193 915.146,888.163 915.266,888.132C915.531,888.063 915.794,887.988 916.055,887.905C916.592,887.736 917.111,887.531 917.624,887.299C917.64,887.292 917.645,887.29 917.656,887.285C917.664,887.28 917.666,887.279 917.676,887.273C917.726,887.244 917.778,887.217 917.828,887.188C917.925,887.132 918.021,887.074 918.114,887.012C918.202,886.954 918.286,886.89 918.371,886.828C918.4,886.807 918.42,886.794 918.436,886.784C918.442,886.776 918.445,886.771 918.455,886.759C918.503,886.7 918.556,886.638 918.608,886.579C918.607,886.578 918.606,886.578 918.605,886.577C918.479,886.71 918.529,886.636 918.588,886.561C917.738,885.8 917.12,884.838 916.977,883.687C915.627,883.987 914.213,884.087 912.828,884.086C912.337,884.086 911.852,884.064 911.376,884.012C911.294,884.098 911.198,884.171 911.093,884.23C911.035,884.441 910.951,884.644 910.846,884.838C910.857,884.925 910.867,885.012 910.88,885.1C910.886,885.138 910.91,885.252 910.915,885.277C910.92,885.299 910.924,885.321 910.93,885.343C910.994,885.606 911.064,885.868 911.134,886.13C911.207,886.398 911.272,886.666 911.324,886.939C911.367,887.162 911.398,887.323 911.515,887.631C911.529,887.671 911.595,887.807 911.597,887.819Z" style="fill-rule:nonzero;"/>
            <path d="M918.613,886.585C918.612,886.584 918.611,886.583 918.61,886.583C918.611,886.588 918.612,886.591 918.613,886.596L918.613,886.585Z" style="fill-rule:nonzero;"/>
            <path d="M910.339,889.815C909.634,889.198 909.312,888.315 909.135,887.421C909.125,887.372 909.116,887.323 909.107,887.274C909.098,887.236 909.085,887.183 909.088,887.191C909.056,887.075 909.027,886.958 908.995,886.842C908.989,886.819 908.984,886.796 908.977,886.773C907.818,887.575 906.391,888.12 904.997,888.051C905.023,888.207 905.054,888.358 905.092,888.485C905.137,888.636 905.189,888.786 905.247,888.932C905.259,888.963 905.378,889.224 905.377,889.231C905.499,889.461 905.641,889.681 905.796,889.89C905.882,890.007 905.974,890.121 906.071,890.23C906.1,890.258 906.212,890.373 906.228,890.388C906.462,890.615 906.715,890.816 906.978,891.008C907.08,891.082 907.249,891.183 907.454,891.277C907.54,891.317 907.629,891.35 907.718,891.384C907.759,891.394 907.893,891.434 907.926,891.442C908.133,891.491 908.344,891.521 908.556,891.539C908.618,891.539 908.775,891.543 908.805,891.543C908.901,891.541 908.996,891.535 909.091,891.528C909.219,891.518 909.346,891.502 909.472,891.482C909.505,891.477 909.537,891.471 909.569,891.465C909.583,891.461 909.606,891.456 909.646,891.446C909.862,891.38 910.077,891.322 910.287,891.238C910.378,891.202 910.468,891.16 910.557,891.119C910.572,891.111 910.593,891.1 910.617,891.088C910.79,890.806 911.101,890.599 911.411,890.525C911.416,890.52 911.42,890.516 911.425,890.512C911.442,890.493 911.459,890.474 911.476,890.455C911.063,890.31 910.674,890.109 910.339,889.815Z" style="fill-rule:nonzero;"/>
        </g>
    </g>
</svg>
