<?xml version="1.0" encoding="UTF-8" standalone="no"?>
<!DOCTYPE svg PUBLIC "-//W3C//DTD SVG 1.1//EN" "http://www.w3.org/Graphics/SVG/1.1/DTD/svg11.dtd">
<svg width="100%" height="100%" viewBox="0 0 74 74" version="1.1" xmlns="http://www.w3.org/2000/svg" xmlns:xlink="http://www.w3.org/1999/xlink" xml:space="preserve" xmlns:serif="http://www.serif.com/" style="fill-rule:evenodd;clip-rule:evenodd;stroke-linejoin:round;stroke-miterlimit:2;">
    <g transform="matrix(1,0,0,1,-534.783,-198.639)">
        <g transform="matrix(1,0,0,1,-3.7175,-3.57873)">
            <g transform="matrix(0.346405,0,0,0.346405,478.223,144.124)">
                <circle cx="279.953" cy="273.821" r="36.085" style="fill:rgb(255,141,30);"/>
            </g>
            <g>
                <g transform="matrix(0.00135501,0.234227,-0.317273,0.00183544,711.826,163.612)">
                    <path d="M255.189,431.604C255.189,428.219 251.467,425.472 246.882,425.472L222.929,425.472C218.345,425.472 214.623,428.219 214.623,431.604C214.623,434.988 218.345,437.736 222.929,437.736L246.882,437.736C251.467,437.736 255.189,434.988 255.189,431.604Z" style="fill:rgb(255,141,30);"/>
                </g>
                <g transform="matrix(0.00135501,0.234227,-0.317273,0.00183544,711.826,202.612)">
                    <path d="M255.189,431.604C255.189,428.219 251.467,425.472 246.882,425.472L222.929,425.472C218.345,425.472 214.623,428.219 214.623,431.604C214.623,434.988 218.345,437.736 222.929,437.736L246.882,437.736C251.467,437.736 255.189,434.988 255.189,431.604Z" style="fill:rgb(255,141,30);"/>
                </g>
            </g>
            <g transform="matrix(0.708276,-0.705936,0.705936,0.708276,-0.86374,475.76)">
                <g transform="matrix(0.00135501,0.234227,-0.317273,0.00183544,711.826,163.612)">
                    <path d="M255.189,431.604C255.189,428.219 251.467,425.472 246.882,425.472L222.929,425.472C218.345,425.472 214.623,428.219 214.623,431.604C214.623,434.988 218.345,437.736 222.929,437.736L246.882,437.736C251.467,437.736 255.189,434.988 255.189,431.604Z" style="fill:rgb(255,141,30);"/>
                </g>
                <g transform="matrix(0.00135501,0.234227,-0.317273,0.00183544,711.826,202.612)">
                    <path d="M255.189,431.604C255.189,428.219 251.467,425.472 246.882,425.472L222.929,425.472C218.345,425.472 214.623,428.219 214.623,431.604C214.623,434.988 218.345,437.736 222.929,437.736L246.882,437.736C251.467,437.736 255.189,434.988 255.189,431.604Z" style="fill:rgb(255,141,30);"/>
                </g>
            </g>
            <g transform="matrix(-0.00162103,0.999999,-0.999999,-0.00162103,815.065,-335.895)">
                <g transform="matrix(0.00135501,0.234227,-0.317273,0.00183544,711.826,163.612)">
                    <path d="M255.189,431.604C255.189,428.219 251.467,425.472 246.882,425.472L222.929,425.472C218.345,425.472 214.623,428.219 214.623,431.604C214.623,434.988 218.345,437.736 222.929,437.736L246.882,437.736C251.467,437.736 255.189,434.988 255.189,431.604Z" style="fill:rgb(255,141,30);"/>
                </g>
                <g transform="matrix(0.00135501,0.234227,-0.317273,0.00183544,711.826,202.612)">
                    <path d="M255.189,431.604C255.189,428.219 251.467,425.472 246.882,425.472L222.929,425.472C218.345,425.472 214.623,428.219 214.623,431.604C214.623,434.988 218.345,437.736 222.929,437.736L246.882,437.736C251.467,437.736 255.189,434.988 255.189,431.604Z" style="fill:rgb(255,141,30);"/>
                </g>
            </g>
            <g transform="matrix(0.705316,0.708893,-0.708893,0.705316,338.877,-337.353)">
                <g transform="matrix(0.00135501,0.234227,-0.317273,0.00183544,711.826,163.612)">
                    <path d="M255.189,431.604C255.189,428.219 251.467,425.472 246.882,425.472L222.929,425.472C218.345,425.472 214.623,428.219 214.623,431.604C214.623,434.988 218.345,437.736 222.929,437.736L246.882,437.736C251.467,437.736 255.189,434.988 255.189,431.604Z" style="fill:rgb(255,141,30);"/>
                </g>
                <g transform="matrix(0.00135501,0.234227,-0.317273,0.00183544,711.826,202.612)">
                    <path d="M255.189,431.604C255.189,428.219 251.467,425.472 246.882,425.472L222.929,425.472C218.345,425.472 214.623,428.219 214.623,431.604C214.623,434.988 218.345,437.736 222.929,437.736L246.882,437.736C251.467,437.736 255.189,434.988 255.189,431.604Z" style="fill:rgb(255,141,30);"/>
                </g>
            </g>
        </g>
        <g transform="matrix(0.834963,0,0,0.834963,133.043,32.6177)">
            <rect x="481.148" y="198.837" width="87.926" height="87.926" style="fill:none;"/>
        </g>
    </g>
</svg>
