<?xml version="1.0" encoding="UTF-8" standalone="no"?>
<!DOCTYPE svg PUBLIC "-//W3C//DTD SVG 1.1//EN" "http://www.w3.org/Graphics/SVG/1.1/DTD/svg11.dtd">
<svg width="100%" height="100%" viewBox="0 0 401 401" version="1.1" xmlns="http://www.w3.org/2000/svg" xmlns:xlink="http://www.w3.org/1999/xlink" xml:space="preserve" xmlns:serif="http://www.serif.com/" style="fill-rule:evenodd;clip-rule:evenodd;stroke-linejoin:round;stroke-miterlimit:2;">
    <g transform="matrix(1,0,0,1,-272.739,-121.224)">
        <g transform="matrix(1,0,0,1,-15.7712,-220.796)">
            <circle cx="489.01" cy="542.52" r="200.5" style="fill:rgb(41,171,226);"/>
        </g>
        <g transform="matrix(1,0,0,1,-15.7712,-220.796)">
            <path d="M464.25,345.84C464.99,350.26 465.7,354.99 463.86,359.08C462.02,363.17 456.57,365.93 452.86,363.36C451.22,362.21 450.22,360.24 448.42,359.36C446.821,358.764 445.079,358.66 443.42,359.06C436.96,360.01 430.42,361.55 424.98,365.16C419.54,368.77 415.36,374.82 415.46,381.35C415.52,384.96 418.16,389.27 421.67,388.41C424.36,387.75 425.4,384.6 426.75,382.18C432.12,372.52 445.62,372.13 456.63,372.98C453.77,376.54 456.13,381.71 458.01,385.87C459.89,390.03 460.43,396.29 456.16,397.92C452.96,399.14 449.07,396.64 446.07,398.29C442.48,400.29 443.38,406.21 440.13,408.68C438.905,409.459 437.514,409.938 436.07,410.08C425.2,411.98 414.19,414.15 404.38,419.2C394.57,424.25 386,432.62 383.09,443.28C381.56,448.92 380.26,456.48 374.46,457.28C373.19,448 365.29,439.77 356,439C346.71,438.23 337.16,445.56 336.33,454.89C336.11,457.37 336.54,460.08 338.25,461.89C339.42,463.13 341.05,463.82 342.46,464.78C347.322,468.238 349.278,474.573 347.21,480.17C346.63,481.63 345.77,483.03 345.69,484.61C345.6,486.4 346.53,488.06 347.44,489.61L359.73,510.55C360.153,511.485 360.851,512.27 361.73,512.8C364.33,513.98 366.47,510.62 368.08,508.26C371.95,502.6 379.64,500.61 386.41,501.64C393.18,502.67 399.3,506.16 405.23,509.59L432.09,525.11C436.51,527.66 441.18,530.48 443.37,535.11C445.17,538.89 445.32,543.85 448.81,546.18C453.09,549.04 460.63,546.55 462.81,551.18C463.66,553.04 463.08,555.29 463.81,557.18C465.66,562.11 472.9,560.63 477.97,562.03C485.47,564.1 488.28,573.03 489.89,580.67C490.66,584.34 491.43,588.22 490.23,591.77C488.03,598.31 480.37,601.04 475.82,606.22C471,611.69 469.84,619.66 465,625C460.68,629.74 454.18,631.66 448.43,634.48C427.85,644.56 415.6,669.29 420.05,691.77C420.39,693.52 420.72,695.63 419.39,696.82C418.651,697.384 417.749,697.693 416.82,697.7C413.507,697.983 410.182,697.287 407.26,695.7C400.17,691.84 396.83,683.64 394.03,676.07L391,668C386.2,655.07 381.34,641.81 381.17,628C381.03,617.53 382.93,605.18 375.07,598.26C372.47,595.97 369.12,594.69 366.46,592.47C359.63,586.78 358.96,576.77 355.9,568.47C352.65,559.62 346.28,549.8 351.17,541.74C352.37,539.74 354.17,538.18 355.17,536.08C357.32,531.45 354.88,526.08 352.48,521.59L335.48,489.74C334.08,487.11 332.63,484.41 330.36,482.48C328.58,480.97 326.36,480.02 324.49,478.66C318.49,474.43 315.94,466.66 316.16,459.32C316.38,451.98 319,445.02 321.65,438.2C350.21,385.088 404.129,350.203 464.28,345.92L464.25,345.84Z" style="fill:rgb(0,146,69);fill-rule:nonzero;"/>
        </g>
        <g transform="matrix(1,0,0,1,-15.7712,-220.796)">
            <path d="M462.8,346.24C463.58,350.89 464.66,357.12 460.8,360.77C459.463,362.157 457.596,362.911 455.67,362.84C453.47,362.62 452.38,360.67 450.9,359.3C447.31,356.01 441.83,357.66 437.58,358.59C432.575,359.537 427.813,361.486 423.58,364.32C417.25,368.85 411.08,378.32 415.24,386.16C416.99,389.45 420.92,391.33 424.16,388.82C425.569,387.535 426.675,385.954 427.4,384.19C428.22,382.457 429.341,380.882 430.71,379.54C437.32,373.32 448.26,373.85 456.64,374.48L455.35,372.22C452.56,376.01 454.17,380.75 455.84,384.65C457.13,387.65 459.52,392.73 456.84,395.65C455.3,397.36 452.68,396.65 450.71,396.36C448.74,396.07 446.57,396.06 444.8,397.28C441.54,399.53 442.12,403.84 439.92,406.73C438.47,408.64 435.32,408.64 433.15,409.03C430.43,409.53 427.71,410.03 425,410.63C419.493,411.766 414.095,413.382 408.87,415.46C400.07,419.07 391.97,424.59 386.48,432.46C383.805,436.541 381.884,441.07 380.81,445.83C379.81,449.63 378.58,454.99 374.01,455.73L375.86,456.73C373.78,442.89 358.77,432.97 345.65,439.48C339.65,442.48 335.05,448.48 334.71,455.29C334.363,458.938 336.088,462.488 339.17,464.47C340.741,465.319 342.191,466.375 343.48,467.61C345.802,470.277 346.844,473.831 346.33,477.33C346,479.33 344.85,481 344.33,482.94C343.24,487.11 346.53,491.06 348.5,494.43L355.88,506.99C357.47,509.7 359.29,514.85 363.24,514.36C366.57,513.95 368.07,510.26 369.98,508.01C372.381,505.353 375.629,503.607 379.17,503.07C387.62,501.51 395.69,505.76 402.78,509.82C411.1,514.58 419.39,519.41 427.69,524.21C431.27,526.28 435.14,528.21 438.27,530.96C441.4,533.71 442.43,536.76 443.63,540.5C444.63,543.5 446,546.5 449.05,547.91C451.8,549.18 454.86,549 457.77,549.56C459.013,549.666 460.173,550.233 461.02,551.15C462.19,552.75 461.59,555.15 462.08,556.97C462.84,559.8 465.2,561.41 467.93,562.06C470.93,562.77 474.06,562.56 477.05,563.3C480.157,564.169 482.771,566.284 484.27,569.14C485.908,572.126 487.097,575.337 487.8,578.67C488.8,582.67 490.05,587.27 488.66,591.29C486.44,597.74 478.66,600.37 474.46,605.29C469.46,611.12 468.46,619.51 462.87,624.83C457.28,630.15 449.32,631.65 443.01,635.65C437.287,639.325 432.31,644.048 428.34,649.57C420.051,660.88 416.354,674.925 418,688.85C418.21,690.48 418.69,692.14 418.78,693.78C418.93,696.72 415.86,696.43 413.67,696.21C409.592,695.708 405.845,693.699 403.17,690.58C397.96,684.77 395.74,676.58 393.09,669.43C389.88,660.79 386.6,652.12 384.54,643.11C383.476,638.566 382.844,633.932 382.65,629.27C382.52,625.58 382.72,621.87 382.73,618.18C382.73,611.51 382.22,604.26 377.78,598.91C375.26,595.91 371.7,594.37 368.55,592.18C365.563,589.965 363.294,586.917 362.03,583.42C360.794,580.005 359.74,576.526 358.87,573C357.796,569.344 356.483,565.763 354.94,562.28C353.34,558.53 351.57,554.65 351,550.57C350.713,548.74 350.808,546.871 351.28,545.08C351.89,542.92 353.28,541.28 354.62,539.53C357.058,536.582 357.961,532.646 357.05,528.93C356.12,524.72 353.76,520.93 351.75,517.13C347.19,508.55 342.623,499.973 338.05,491.4C336.19,487.9 334.46,484.02 331.39,481.4C328.32,478.78 324.67,477.56 322.14,474.4C316.98,467.97 316.91,459.08 318.75,451.4C319.72,447.011 321.145,442.734 323,438.64C323.92,436.73 325.08,434.89 326.15,433.06C328.87,428.447 331.79,423.97 334.91,419.63C362.387,381.356 404.232,355.802 450.83,348.84C455.27,348.16 459.73,347.67 464.21,347.34C466.12,347.2 466.14,344.2 464.21,344.34C406.236,348.44 353.816,380.734 324.08,430.67C322.95,432.56 321.87,434.46 320.81,436.39C319.051,439.935 317.66,443.651 316.66,447.48C314.38,455.13 313.53,463.41 316.66,470.95C317.987,474.235 320.14,477.121 322.91,479.33C324.46,480.54 326.21,481.42 327.85,482.5C329.67,483.722 331.191,485.339 332.3,487.23C334.75,491.23 336.78,495.48 338.98,499.6L345.83,512.47C348.04,516.61 350.42,520.7 352.41,524.95C354.3,528.95 355.41,533.34 352.54,537.21C351.304,538.668 350.197,540.231 349.23,541.88C348.421,543.55 347.939,545.359 347.81,547.21C347.52,551.04 348.71,554.9 350.07,558.43C351.57,562.31 353.44,566.05 354.77,570C355.97,573.56 356.77,577.23 357.89,580.82C358.826,584.197 360.32,587.395 362.31,590.28C364.61,593.38 367.67,595.21 370.92,597.19C374.135,598.982 376.632,601.835 377.98,605.26C379.095,608.586 379.656,612.072 379.64,615.58C379.74,619.2 379.56,622.83 379.55,626.45C379.551,630.907 379.949,635.354 380.74,639.74C382.38,648.93 385.53,657.74 388.74,666.5C391.48,673.93 393.74,681.96 398,688.72C402.05,695.19 408.75,699.94 416.68,699.22C420.83,698.84 422.12,695.94 421.49,692.12C420.827,688.595 420.493,685.017 420.49,681.43C420.906,667.225 426.953,653.752 437.29,644C439.895,641.529 442.77,639.358 445.86,637.53C449.136,635.731 452.508,634.112 455.96,632.68C459.544,631.222 462.824,629.105 465.63,626.44C468.27,623.72 469.93,620.3 471.46,616.88C472.99,613.46 474.52,609.74 477.14,606.88C479.48,604.35 482.41,602.49 485.14,600.38C487.793,598.496 489.918,595.961 491.31,593.02C492.98,589.02 492.24,584.65 491.38,580.54C490.07,574.31 488.19,567.1 482.98,562.93C480.518,561.124 477.579,560.081 474.53,559.93C471.92,559.64 468.18,559.93 466.1,557.99C464.77,556.78 464.94,554.93 464.79,553.29C464.743,551.637 464.113,550.053 463.01,548.82C461.01,546.82 458.01,546.57 455.33,546.29C451.88,545.92 448.94,545.29 447.39,541.87C445.84,538.45 445.5,534.96 443.3,531.95C441.1,528.94 437.96,526.77 434.78,524.86C430.78,522.47 426.78,520.2 422.73,517.86C414.66,513.2 406.73,508.1 398.33,503.99C391.33,500.57 383.42,498.38 375.79,500.91C372.491,501.932 369.573,503.918 367.41,506.61C366.513,507.995 365.51,509.309 364.41,510.54C363.92,511.01 363.3,511.54 362.57,511.41C361.49,511.16 360.8,509.32 360.32,508.51L352.91,496L349.4,490C348.16,487.9 346.6,485.79 347.46,483.25C348.187,481.631 348.792,479.959 349.27,478.25C350.154,473.212 348.401,468.056 344.63,464.6C343.2,463.35 341.44,462.6 339.97,461.45C338.19,460.03 337.69,457.87 337.75,455.68C337.945,452.045 339.456,448.603 342,446C346.887,440.676 354.66,439.024 361.29,441.9C367.583,444.839 371.99,450.758 373,457.63C373.12,458.49 374.12,458.79 374.84,458.68C383.34,457.31 383.29,445.44 386.08,439.3C390.16,430.36 398.08,423.8 406.86,419.65C412.144,417.235 417.668,415.385 423.34,414.13C426.14,413.47 428.95,412.9 431.78,412.37C434.34,411.89 437.22,411.73 439.63,410.68C443.54,408.98 443.63,404.89 445.22,401.51C446.33,399.17 448.31,399.06 450.66,399.39C452.84,399.71 455.04,400.1 457.12,399.14C461.12,397.29 461.37,392.32 460.51,388.56C459.51,384 454.61,378.28 457.95,373.73C458.68,372.73 457.67,371.55 456.65,371.48C449.08,370.91 440.91,370.78 433.84,373.96C430.615,375.364 427.871,377.684 425.95,380.63C424.95,382.22 424.33,384.08 423.18,385.58C421.72,387.48 419.69,387.33 418.32,385.43C415.82,381.97 417.14,377 419.06,373.61C421.366,369.686 424.803,366.549 428.92,364.61C433.638,362.439 438.677,361.044 443.84,360.48C446.33,360.14 447.94,360.48 449.66,362.3C451.04,363.78 452.4,365.18 454.44,365.65C458.34,366.54 462.38,364.19 464.44,361C467.44,356.45 466.44,350.45 465.64,345.42C465.38,343.54 462.49,344.35 462.8,346.24Z" style="fill:rgb(0,146,69);fill-rule:nonzero;"/>
        </g>
        <g transform="matrix(1,0,0,1,-15.7712,-220.796)">
            <path d="M480.11,344.93C482.11,343.34 484.96,345.16 487.23,346.4C490.028,347.917 493.231,348.525 496.39,348.14C499.06,347.8 501.96,346.8 504.29,348.14C505.16,348.64 505.84,349.42 506.68,349.96C508.92,351.37 511.81,350.8 514.45,350.96C514.902,350.957 515.341,351.113 515.69,351.4C515.955,351.722 516.106,352.123 516.12,352.54C516.629,358.273 512.702,363.531 507.06,364.67C505.39,364.94 503.67,364.83 501.99,365.1C499.29,365.616 496.783,366.861 494.74,368.7C493,370.18 491.49,371.92 489.66,373.28C487.897,374.766 485.619,375.503 483.32,375.33C480.407,374.88 478.236,372.348 478.236,369.4C478.236,368.17 478.614,366.968 479.32,365.96C480.06,365.135 480.755,364.271 481.4,363.37C483.17,360.19 480.4,356.26 481.02,352.67L480.11,344.93Z" style="fill:rgb(0,146,69);fill-rule:nonzero;"/>
        </g>
        <g transform="matrix(1,0,0,1,-15.7712,-220.796)">
            <path d="M480.87,346.23C482.42,345.16 484.41,346.56 485.81,347.33C487.631,348.393 489.625,349.127 491.7,349.5C493.791,349.822 495.921,349.788 498,349.4C500,349.07 502.24,348.46 504,349.76C505.76,351.06 506.92,352.02 509,352.31C509.925,352.429 510.857,352.482 511.79,352.47L514.61,352.47C514.62,352.47 514.61,353.05 514.61,353.24C514.635,353.643 514.635,354.047 514.61,354.45C514.528,355.348 514.32,356.23 513.99,357.07C513.345,358.667 512.315,360.079 510.99,361.18C509.67,362.314 508.046,363.037 506.32,363.26C504.1,363.55 501.89,363.39 499.73,364.09C495.5,365.46 492.78,368.63 489.52,371.43C487.93,372.79 485.85,374.1 483.66,373.88C481.845,373.685 480.317,372.411 479.8,370.66C479.19,368.49 480.34,367.01 481.65,365.45C482.919,364.025 483.551,362.142 483.4,360.24C483.24,358.07 482.4,355.98 482.35,353.8C482.372,352.892 482.338,351.984 482.25,351.08L481.53,344.88C481.31,342.99 478.31,342.96 478.53,344.88L479.25,351.08C479.338,351.984 479.372,352.892 479.35,353.8C479.35,356 480.23,358.06 480.4,360.24C480.529,361.192 480.316,362.16 479.8,362.97C478.997,363.893 478.242,364.858 477.54,365.86C476.499,367.81 476.36,370.12 477.16,372.18C478.94,376.66 484.02,377.82 488.16,375.92C492.56,373.92 495.09,369.3 499.58,367.35C501.96,366.35 504.44,366.54 506.95,366.19C508.95,365.904 510.842,365.105 512.44,363.87C515.631,361.478 517.55,357.747 517.64,353.76C517.64,351.56 516.98,349.76 514.57,349.49C512.4,349.27 509.95,349.82 507.91,348.9C506.81,348.4 506.04,347.4 505,346.81C503.902,346.212 502.67,345.906 501.42,345.92C498.76,345.92 496.22,346.84 493.54,346.67C490.86,346.5 488.54,345.29 486.06,344.04C483.95,342.95 481.44,342.11 479.3,343.59C477.77,344.73 479.27,347.33 480.87,346.23Z" style="fill:rgb(0,146,69);fill-rule:nonzero;"/>
        </g>
        <g transform="matrix(1,0,0,1,-15.7712,-220.796)">
            <path d="M377.77,468.11C378.648,468.315 379.46,468.738 380.13,469.34C380.793,469.986 380.866,471.038 380.3,471.77C379.767,472.178 379.098,472.368 378.43,472.3C373.7,472.3 368.73,471.44 365.05,468.47C364.25,467.721 363.364,467.07 362.41,466.53C361.41,466.06 359.96,465.65 359.99,464.53C360.026,464.194 360.136,463.87 360.31,463.58L361.19,461.93C361.331,461.591 361.563,461.296 361.86,461.08C362.157,460.943 362.484,460.884 362.81,460.91C366.169,460.947 369.426,462.074 372.09,464.12L377.77,468.11Z" style="fill:rgb(0,146,69);fill-rule:nonzero;"/>
        </g>
        <g transform="matrix(1,0,0,1,-15.7712,-220.796)">
            <path d="M372.44,476.63C371.977,477.143 371.617,477.741 371.38,478.39C371.129,479.059 371.23,479.812 371.65,480.39C372.146,480.961 372.969,481.13 373.65,480.8C374.311,480.455 374.687,479.729 374.59,478.99C374.473,478.253 373.931,477.652 373.21,477.46" style="fill:rgb(0,146,69);fill-rule:nonzero;"/>
        </g>
        <g transform="matrix(1,0,0,1,-15.7712,-220.796)">
            <path d="M371.91,476.1C371.242,476.803 370.775,477.674 370.56,478.62C370.349,479.621 370.74,480.658 371.56,481.27C372.336,481.78 373.338,481.808 374.14,481.34C374.934,480.842 375.392,479.945 375.33,479.01C375.221,477.914 374.449,476.992 373.39,476.69C373.325,476.672 373.258,476.663 373.19,476.663C372.777,476.663 372.438,477.002 372.438,477.415C372.438,477.752 372.665,478.05 372.99,478.14L373.1,478.14C373.1,478.14 373.21,478.14 373.1,478.14L373.23,478.14L373.42,478.27C373.3,478.18 373.42,478.27 373.5,478.34L373.58,478.43C373.58,478.43 373.65,478.52 373.58,478.43L373.63,478.5C373.63,478.5 373.75,478.76 373.68,478.59C373.711,478.662 373.738,478.735 373.76,478.81C373.782,478.885 373.76,478.92 373.76,478.93C373.76,478.94 373.76,478.78 373.76,478.87C373.765,478.94 373.765,479.01 373.76,479.08C373.765,479.12 373.765,479.16 373.76,479.2C373.755,479.24 373.76,479.03 373.76,479.2L373.7,479.43C373.7,479.43 373.64,479.55 373.7,479.43C373.695,479.456 373.695,479.484 373.7,479.51C373.667,479.572 373.63,479.632 373.59,479.69C373.52,479.8 373.59,479.69 373.59,479.69L373.51,479.77L373.34,479.93C373.45,479.84 373.34,479.93 373.27,479.93C373.2,479.93 373.14,480.01 373.27,479.93L373.05,479.99L372.76,479.99C372.66,479.99 372.89,479.99 372.76,479.99L372.68,479.99L372.46,479.92C372.46,479.92 372.58,479.98 372.51,479.92L372.38,479.85L372.28,479.79C372.28,479.79 372.38,479.88 372.28,479.79L372.14,479.65C372.05,479.56 372.14,479.65 372.14,479.65L372.08,479.54C372.061,479.515 372.044,479.488 372.03,479.46C372.03,479.4 372.03,479.35 372.03,479.46L371.97,479.25C371.97,479.18 371.97,479.02 371.97,479.17C371.96,479.003 371.96,478.837 371.97,478.67C371.97,478.83 371.97,478.61 371.97,478.56C371.991,478.461 372.021,478.364 372.06,478.27L372.06,478.17C372.06,478.3 372.06,478.17 372.06,478.17L372.21,477.88C372.31,477.72 372.41,477.56 372.52,477.4L372.71,477.15C372.76,477.08 372.71,477.15 372.71,477.15C372.71,477.15 372.8,477.03 372.85,476.98C373.13,476.685 373.13,476.215 372.85,475.92C372.559,475.629 372.081,475.629 371.79,475.92L371.91,476.1Z" style="fill:rgb(0,146,69);fill-rule:nonzero;"/>
        </g>
        <g transform="matrix(1,0,0,1,-15.7712,-220.796)">
            <path d="M379.86,476.4L377.59,476.92C377.142,476.967 376.722,477.165 376.4,477.48C375.91,478.07 376.23,478.96 376.64,479.61C376.837,480.008 377.129,480.351 377.49,480.61C378.096,480.9 378.774,481.008 379.44,480.92C379.688,480.92 379.933,480.869 380.16,480.77C380.326,480.671 380.472,480.542 380.59,480.39C381.201,479.671 381.731,478.886 382.17,478.05C382.45,477.52 382.67,476.8 382.24,476.37C381.857,476.107 381.374,476.033 380.93,476.17" style="fill:rgb(0,146,69);fill-rule:nonzero;"/>
        </g>
        <g transform="matrix(1,0,0,1,-15.7712,-220.796)">
            <path d="M379.66,475.68L377.39,476.19C376.717,476.289 376.11,476.648 375.7,477.19C374.95,478.33 375.7,479.87 376.54,480.76C377.034,481.278 377.705,481.592 378.42,481.64C379.093,481.741 379.78,481.672 380.42,481.44C381.023,481.043 381.524,480.508 381.88,479.88C382.268,479.347 382.603,478.778 382.88,478.18C383.108,477.867 383.231,477.489 383.231,477.102C383.231,476.098 382.405,475.272 381.401,475.272C381.153,475.272 380.908,475.322 380.68,475.42C380.281,475.531 380.042,475.95 380.15,476.35C380.27,476.737 380.676,476.967 381.07,476.87C381.24,476.858 381.41,476.858 381.58,476.87C381.49,476.87 381.63,476.87 381.63,476.87C381.63,476.87 381.54,476.79 381.68,476.87C381.58,476.8 381.68,476.93 381.68,476.87C381.68,476.81 381.68,476.99 381.68,476.92C381.68,476.85 381.68,477 381.68,477.02C381.68,477.04 381.68,477.02 381.68,477.02C381.686,477.077 381.686,477.133 381.68,477.19C381.641,477.367 381.574,477.535 381.48,477.69C381.235,478.154 380.962,478.601 380.66,479.03C380.53,479.2 380.41,479.38 380.27,479.55C380.146,479.732 380.002,479.9 379.84,480.05C379.695,480.125 379.532,480.156 379.37,480.14C379.127,480.155 378.883,480.155 378.64,480.14C378.27,480.149 377.911,480.012 377.64,479.76C377.376,479.466 377.166,479.127 377.02,478.76C376.959,478.605 376.912,478.444 376.88,478.28C376.876,478.203 376.876,478.127 376.88,478.05C376.88,478.16 376.88,478.05 376.88,478.05L376.88,477.98C376.971,477.883 377.09,477.817 377.22,477.79C377.489,477.705 377.763,477.635 378.04,477.58L379.97,477.15C380.295,477.06 380.522,476.762 380.522,476.425C380.522,476.012 380.183,475.673 379.77,475.673C379.702,475.673 379.635,475.682 379.57,475.7L379.66,475.68Z" style="fill:rgb(0,146,69);fill-rule:nonzero;"/>
        </g>
        <g transform="matrix(1,0,0,1,-15.7712,-220.796)">
            <path d="M385.44,476.35C385.5,477.08 384.51,477.6 384.59,478.35C384.651,478.641 384.81,478.902 385.04,479.09C385.767,479.765 386.694,480.186 387.68,480.29C388.048,480.349 388.426,480.304 388.77,480.16C389.429,479.747 389.812,479.006 389.77,478.23C389.805,477.326 389.545,476.434 389.03,475.69C388.498,474.953 387.658,474.496 386.75,474.45C386.437,474.415 386.125,474.53 385.91,474.76C385.81,474.907 385.745,475.074 385.72,475.25C385.57,475.93 385.459,476.617 385.39,477.31" style="fill:rgb(0,146,69);fill-rule:nonzero;"/>
        </g>
        <g transform="matrix(1,0,0,1,-15.7712,-220.796)">
            <path d="M384.69,476.35L384.69,476.49C384.69,476.41 384.69,476.42 384.69,476.49C384.69,476.56 384.57,476.69 384.51,476.79C384.329,477.01 384.172,477.248 384.04,477.5C383.706,478.227 383.909,479.095 384.53,479.6C385.104,480.132 385.786,480.535 386.53,480.78C387.289,481.078 388.125,481.121 388.91,480.9C390.45,480.33 390.65,478.46 390.39,477.05C390.143,475.549 389.082,474.303 387.64,473.82C386.785,473.454 385.783,473.704 385.2,474.43C384.998,474.855 384.873,475.312 384.83,475.78C384.74,476.28 384.67,476.78 384.62,477.29C384.625,477.699 384.961,478.035 385.37,478.04C385.775,478.025 386.105,477.695 386.12,477.29C386.179,476.664 386.28,476.043 386.42,475.43L386.49,475.19C386.49,475.27 386.43,475.19 386.55,475.19C386.67,475.19 386.47,475.19 386.61,475.19L386.82,475.19C386.918,475.195 387.016,475.212 387.11,475.24C388.036,475.516 388.733,476.29 388.91,477.24C388.96,477.474 388.99,477.711 389,477.95L389,478.36C389.009,478.456 389.009,478.554 389,478.65C388.965,478.825 388.904,478.993 388.82,479.15C388.783,479.223 388.732,479.288 388.67,479.34C388.608,479.392 388.54,479.44 388.6,479.4L388.47,479.47C387.987,479.579 387.483,479.53 387.03,479.33C386.546,479.174 386.1,478.918 385.72,478.58L385.48,478.34L385.48,478.2C385.48,478.27 385.48,478.26 385.48,478.2C385.48,478.3 385.48,478.2 385.48,478.2L385.48,478.14C385.537,478.036 385.601,477.936 385.67,477.84C386.039,477.428 386.258,476.902 386.29,476.35C386.29,475.939 385.951,475.6 385.54,475.6C385.129,475.6 384.79,475.939 384.79,476.35L384.69,476.35Z" style="fill:rgb(0,146,69);fill-rule:nonzero;"/>
        </g>
        <g transform="matrix(1,0,0,1,-15.7712,-220.796)">
            <path d="M687.28,568.15C676.28,577.47 675.96,594.71 670.16,607.92C665.79,617.92 657.16,625.49 652.62,635.4C647.62,646.31 647.02,660.71 636.62,666.74C631.3,669.84 624.75,669.74 618.62,669.17C617,669.03 615.17,668.75 614.23,667.43C612.16,664.5 616.48,660.99 616.55,657.43C616.62,653.87 612.71,651.74 611.41,648.49C609.69,644.19 612.87,639.66 615.41,635.8C623.092,624.116 626.346,610.061 624.58,596.19C624.2,593.29 623.66,590.13 625.16,587.63C626.36,585.63 628.63,584.51 630.04,582.63C634.92,576.21 626.95,567.52 627.35,559.47C627.54,555.8 629.46,551.84 627.59,548.68C626.18,546.27 623.16,545.46 620.76,544.04C616.63,541.59 613.67,536.85 608.93,536.11C606.73,535.77 604.52,536.37 602.34,536.82C592.031,538.922 581.315,537.656 571.78,533.21C562.13,528.69 553.33,518.3 556.78,508.21C557.59,505.84 559.02,503.72 559.86,501.36C561.98,495.36 560.03,488.8 559.37,482.47C558.71,476.14 560.24,468.47 566.12,466.02C568.19,465.16 570.55,465.09 572.47,463.95C577.14,461.2 576.69,454.22 579.82,449.8C581.98,446.8 585.64,445.22 589.17,444C596.01,441.64 603.54,440 610.4,442.26C619.22,445.26 626.4,454.44 635.59,452.87C637.67,452.52 639.69,451.59 641.8,451.7C645.63,451.9 648.9,455.46 652.68,454.89C653.23,449.67 653.22,443.26 648.68,440.59C646.17,439.1 643.05,439.35 640.17,438.86C637.29,438.37 634.1,436.45 634.17,433.53C632.17,436.4 627.17,436.23 625.41,433.23C624.81,432.23 624.41,430.86 623.31,430.48C621.48,429.85 620.24,432.28 618.7,433.48C616.43,435.21 612.77,433.8 611.61,431.19C610.97,429.75 610.83,427.94 609.54,427.02C607.4,425.51 604.7,427.86 602.13,428.36C598.43,429.09 594.78,425.78 591.13,426.65C585.39,428.02 585.62,437.53 580.19,439.85C576.09,441.6 571.77,438.12 568.66,434.93C566.16,432.37 563.56,429.61 562.79,426.12C562.02,422.63 564,418.28 567.56,417.87C571.77,417.4 576.87,422.08 579.56,418.78C580.86,417.17 580.32,414.57 581.73,413.06C582.57,412.17 583.87,411.92 584.98,411.4C588.63,409.73 590.12,405.1 589.45,401.14C588.78,397.18 586.45,393.75 584.15,390.45C582.49,391.24 580.59,389.83 579.66,388.24C578.73,386.65 578.23,384.75 576.82,383.57C574.13,381.31 569.82,382.92 566.68,381.29C565,380.39 564,378.66 563,377L555.21,364.17C560.57,363.17 569.95,361.46 575.21,362.88C591.98,370.95 631.08,392.59 659.28,438.47C693.88,494.86 687.61,550.08 687.28,568.15Z" style="fill:rgb(0,146,69);fill-rule:nonzero;"/>
        </g>
        <g transform="matrix(1,0,0,1,-15.7712,-220.796)">
            <path d="M686.22,567.09C674.22,577.44 674.77,594.89 668.34,608.3C664.56,616.21 658.34,622.55 653.8,630C649.8,636.62 648.12,644.07 645.63,651.31C643.14,658.55 639.36,665.17 631.57,667.19C627.191,668.151 622.673,668.3 618.24,667.63C616.57,667.44 614.8,666.84 615.34,664.84C615.8,663.17 616.88,661.7 617.5,660.09C618.93,656.37 617.11,653.61 614.78,650.82C613.52,649.3 612.39,647.74 612.45,645.67C612.51,643.6 613.68,641.38 614.8,639.54C617.19,635.6 619.73,631.89 621.56,627.64C625.12,619.447 626.828,610.569 626.56,601.64C626.48,599.41 626.23,597.2 625.95,594.99C625.67,592.78 625.34,590.55 626.37,588.62C627.4,586.69 629.37,585.77 630.68,584.27C631.866,582.994 632.671,581.411 633,579.7C633.67,576.11 632.34,572.51 631.16,569.18C629.84,565.5 628.46,561.8 629.1,557.83C629.74,553.86 631.03,549.43 627.63,546.28C626.147,545.087 624.504,544.108 622.75,543.37C621.029,542.454 619.433,541.322 618,540C615.2,537.51 612.33,534.87 608.41,534.54C606.05,534.35 603.73,535.04 601.41,535.48C599.069,535.937 596.694,536.204 594.31,536.28C589.591,536.451 584.873,535.922 580.31,534.71C572.05,532.52 563.89,528.02 559.63,520.31C557.671,516.997 557.106,513.038 558.06,509.31C558.71,507.09 559.98,505.12 560.88,503C561.768,500.866 562.263,498.59 562.34,496.28C562.69,488.13 558.41,479.19 562.57,471.44C563.317,469.972 564.46,468.742 565.87,467.89C567.75,466.81 570,466.72 571.99,465.89C575.33,464.55 576.99,461.57 578.08,458.32C579.17,455.07 579.91,451.32 582.8,448.89C586.1,446.14 590.9,444.89 594.98,443.89C599.72,442.7 604.76,442.17 609.51,443.61C613.35,444.77 616.72,447.15 620.06,449.31C623.16,451.31 626.42,453.31 630.06,454.2C631.812,454.617 633.624,454.712 635.41,454.48C637.62,454.18 639.83,453.04 642.09,453.29C645.87,453.71 648.73,456.9 652.73,456.46C653.541,456.429 654.199,455.771 654.23,454.96C654.73,450.07 654.89,443.79 650.78,440.28C648.38,438.22 645.31,437.98 642.3,437.68C639.93,437.46 635.82,436.68 635.76,433.6C635.738,432.787 635.064,432.13 634.251,432.13C633.73,432.13 633.246,432.399 632.97,432.84C631.552,434.405 629.138,434.616 627.47,433.32C626.61,432.63 626.34,431.48 625.72,430.61C625.067,429.585 623.935,428.959 622.72,428.95C620.12,429.03 619.43,431.95 617.28,432.66C614.79,433.5 613.28,431.15 612.59,429.18C611.77,426.73 610.18,424.78 607.35,425.18C604.52,425.58 602.58,427.5 599.76,426.9C597.12,426.32 594.66,424.9 591.89,425.13C589.931,425.312 588.126,426.279 586.89,427.81C584.42,430.81 583.89,435.23 580.89,437.81C576.3,441.81 570.15,434.64 567.41,431.47C565.64,429.41 563.88,426.77 564.22,423.92C564.47,421.79 565.83,419.55 568.22,419.46C572.22,419.32 577.22,423.99 580.7,419.96C581.504,418.85 582.007,417.551 582.16,416.19C582.234,415.493 582.474,414.824 582.86,414.24C583.466,413.664 584.199,413.239 585,413C587.54,411.974 589.512,409.892 590.4,407.3C592.77,400.91 589.01,394.77 585.49,389.67C585.14,389.09 584.445,388.808 583.79,388.98C582.23,389.56 581.17,387.84 580.57,386.64C580.003,385.245 579.224,383.947 578.26,382.79C576.02,380.52 572.82,380.79 569.91,380.55C566.05,380.21 564.63,376.91 562.82,373.93L556.44,363.41L555.54,365.62C560.226,364.594 564.996,363.995 569.79,363.83C571.618,363.67 573.458,363.916 575.18,364.55C576.18,365.05 577.18,365.55 578.18,366.05C583.433,368.717 588.563,371.613 593.57,374.74C608.107,383.803 621.434,394.677 633.23,407.1C649.18,423.869 661.982,443.374 671.02,464.68C679.014,483.898 683.938,504.253 685.61,525C686.73,538.43 686.36,551.8 685.86,565.24C685.86,566.24 685.8,567.24 685.78,568.17C685.78,570.11 688.78,570.11 688.78,568.17C688.88,563.07 689.19,557.97 689.32,552.87C689.51,545.31 689.44,537.74 688.98,530.18C687.841,509.688 683.62,489.484 676.46,470.25C668.027,448.078 655.624,427.627 639.86,409.9C627.783,396.319 613.947,384.411 598.72,374.49C593.34,370.977 587.803,367.723 582.11,364.73C580.017,363.477 577.831,362.387 575.57,361.47C573.475,360.914 571.301,360.715 569.14,360.88C566.518,360.98 563.904,361.231 561.31,361.63C559.12,361.95 556.94,362.35 554.76,362.76C554.114,362.945 553.666,363.54 553.666,364.212C553.666,364.478 553.736,364.74 553.87,364.97L561.03,376.77C562.91,379.87 564.79,382.83 568.64,383.44C570.27,383.69 571.92,383.59 573.54,383.83C575.54,384.11 576.54,385.18 577.39,386.93C578.72,389.64 581,393.26 584.61,391.93L582.91,391.24C586.09,395.84 590.31,402.06 586.97,407.69C586.346,408.759 585.411,409.614 584.29,410.14C582.9,410.79 581.48,411.09 580.47,412.35C579.769,413.35 579.325,414.508 579.18,415.72C578.96,416.72 578.79,418.1 577.61,418.44C576.586,418.566 575.546,418.403 574.61,417.97C573.31,417.55 572.05,417.03 570.72,416.71C568.505,416.007 566.081,416.417 564.22,417.81C559.74,421.45 560.96,427.81 564.01,431.81C565.808,434.227 567.889,436.42 570.21,438.34C572.38,440.13 574.94,441.74 577.84,441.8C582.78,441.9 585.09,437.49 586.92,433.64C587.71,431.97 588.53,429.98 590.04,428.82C592.2,427.16 594.92,428.44 597.18,429.18C599.758,430.15 602.618,430.06 605.13,428.93C606.13,428.5 607.89,427.47 608.9,428.35C609.91,429.23 609.9,431.01 610.49,432.11C611.728,434.417 614.184,435.822 616.8,435.72C618.185,435.611 619.484,434.999 620.45,434C621.14,433.35 622.3,431.39 623.25,432.22C623.7,432.62 623.89,433.49 624.25,434C624.593,434.56 625.021,435.063 625.52,435.49C626.49,436.3 627.668,436.824 628.92,437C631.473,437.428 634.061,436.382 635.6,434.3L632.8,433.54C632.95,436.123 634.582,438.399 636.98,439.37C639.86,440.75 642.98,440.37 646.04,441.12C652.13,442.62 651.77,449.96 651.27,454.9L652.77,453.4C648.7,453.85 645.49,450.11 641.37,450.2C639.11,450.25 637.04,451.25 634.82,451.5C632.957,451.671 631.079,451.429 629.32,450.79C625.56,449.5 622.32,447.05 618.96,444.94C615.39,442.67 611.64,440.64 607.41,440C602.62,439.402 597.757,439.821 593.14,441.23C589,442.36 584.49,443.73 581.08,446.44C578.08,448.88 576.85,452.37 575.73,455.97C575.305,457.591 574.673,459.15 573.85,460.61C572.726,462.226 570.986,463.311 569.04,463.61C565.21,464.61 562.11,466.1 560.12,469.67C558.478,472.861 557.689,476.424 557.83,480.01C557.88,484.8 559.24,489.47 559.4,494.25C559.543,496.809 559.127,499.368 558.18,501.75C557.106,503.853 556.138,506.009 555.28,508.21C552.85,516.13 557.36,524.08 563.18,529.21C569.96,535.21 579.03,538.21 587.92,539.04C592.72,539.491 597.559,539.249 602.29,538.32C604.7,537.85 607.21,537.03 609.66,537.74C611.512,538.421 613.197,539.492 614.6,540.88C616.001,542.196 617.469,543.438 619,544.6C620.65,545.77 622.54,546.47 624.27,547.49C626.222,548.519 627.308,550.691 626.96,552.87C626.77,555.16 626.02,557.36 625.96,559.67C625.83,563.53 627.35,567.23 628.61,570.81C629.73,573.99 631.28,578.03 629.31,581.2C628.2,582.99 626.25,584.03 624.89,585.61C623.56,587.192 622.815,589.184 622.78,591.25C622.822,593.411 623.019,595.567 623.37,597.7C623.606,600.025 623.703,602.363 623.66,604.7C623.458,614.172 620.915,623.448 616.26,631.7C614.09,635.52 610.9,639.06 609.83,643.41C609.298,645.403 609.457,647.519 610.28,649.41C611.163,651.042 612.252,652.555 613.52,653.91C614.7,655.39 615.52,656.83 614.87,658.73C614.31,660.47 613.21,661.97 612.62,663.73C611.33,667.55 614.07,670.13 617.69,670.6C625.96,671.68 635.36,671.21 641.54,664.9C646.77,659.57 648.71,651.9 650.83,645.01C651.874,641.277 653.26,637.648 654.97,634.17C657.181,630.215 659.699,626.441 662.5,622.88C665.272,619.308 667.779,615.538 670,611.6C671.828,608.063 673.295,604.351 674.38,600.52C676.65,592.94 678.09,584.95 681.7,577.85C683.315,574.564 685.561,571.628 688.31,569.21C689.8,568 687.67,565.84 686.22,567.09Z" style="fill:rgb(0,146,69);fill-rule:nonzero;"/>
        </g>
        <g transform="matrix(1,0,0,1,-15.7712,-220.796)">
            <path d="M563.21,396.9C564.14,399.22 565.11,401.62 566.88,403.4C568.65,405.18 571.44,406.19 573.73,405.16C574.035,405.046 574.304,404.852 574.51,404.6C574.732,404.236 574.843,403.816 574.83,403.39C575.029,399.34 573.561,395.381 570.77,392.44C570.14,391.79 569.45,391.19 568.86,390.5C567.14,388.5 566.34,385.8 564.48,383.93C562.638,382.119 560.019,381.322 557.48,381.8C556.963,381.847 556.491,382.117 556.19,382.54C556.035,382.899 555.993,383.297 556.07,383.68C556.365,386.267 557.138,388.776 558.35,391.08L563.21,396.9Z" style="fill:rgb(0,146,69);fill-rule:nonzero;"/>
        </g>
        <g transform="matrix(1,0,0,1,-15.7712,-220.796)">
            <path d="M552.94,394.18C552.56,396.507 552.263,398.84 552.05,401.18C551.934,401.714 552.027,402.272 552.31,402.74C552.746,403.142 553.328,403.348 553.92,403.31C554.968,403.499 556.05,403.341 557,402.86C557.633,402.377 558.113,401.72 558.38,400.97C558.981,399.51 559.267,397.939 559.22,396.36C559.253,395.744 559.069,395.135 558.7,394.64C558.043,394.095 557.187,393.848 556.34,393.96L554.41,393.96C553.81,393.96 552.98,394.24 553.13,394.82" style="fill:rgb(0,146,69);fill-rule:nonzero;"/>
        </g>
        <g transform="matrix(1,0,0,1,-15.7712,-220.796)">
            <path d="M555.08,730.17C545.67,724.24 533.08,725.72 523.27,731.04C521.735,732.046 520.046,732.796 518.27,733.26C515.6,733.72 512.96,732.53 510.32,731.92C506.68,731.09 502.89,731.37 499.17,731.59C486.472,732.313 473.74,732.176 461.06,731.18C457.32,730.89 453.23,730.36 450.69,727.6C448.44,725.17 447.98,721.6 446.52,718.6C445.06,715.6 441.35,713.05 438.59,714.88C435.18,717.13 436.93,723.55 433.36,725.52C432.264,725.972 431.103,726.246 429.92,726.33C427.256,726.857 424.934,728.485 423.53,730.81C443.526,737.053 464.289,740.506 485.23,741.07C514.54,741.89 539.46,734.73 555.08,730.17Z" style="fill:rgb(0,146,69);fill-rule:nonzero;"/>
        </g>
        <g transform="matrix(1,0,0,1,-15.7712,-220.796)">
            <path d="M555.84,728.87C547.25,723.57 536.36,723.93 527.21,727.56C524.967,728.511 522.777,729.582 520.65,730.77C519.526,731.442 518.249,731.817 516.94,731.86C515.419,731.753 513.919,731.444 512.48,730.94C506.79,729.33 501.03,730.03 495.21,730.28C489.017,730.547 482.827,730.61 476.64,730.47C470.676,730.457 464.718,730.123 458.79,729.47C456.558,729.319 454.406,728.573 452.56,727.31C450.62,725.78 449.89,723.31 449.11,721.11C448.498,718.897 447.363,716.863 445.8,715.18C444.32,713.614 442.233,712.764 440.08,712.85C437.902,713.169 436.086,714.705 435.41,716.8C434.69,718.66 434.64,720.7 433.93,722.56C432.99,725.01 430.54,724.56 428.41,725.22C425.841,726.064 423.653,727.794 422.24,730.1C422.11,730.329 422.042,730.587 422.042,730.85C422.042,731.525 422.492,732.123 423.14,732.31C439.611,737.426 456.604,740.676 473.8,742C493.234,743.462 512.777,742.054 531.8,737.82C539.8,736.07 547.66,733.88 555.51,731.59C556.137,731.396 556.567,730.813 556.567,730.157C556.567,729.334 555.89,728.657 555.067,728.657C554.947,728.657 554.827,728.671 554.71,728.7C539.49,733.14 524.12,737 508.32,738.7C488.616,740.606 468.739,739.622 449.32,735.78C440.736,734.146 432.252,732.023 423.91,729.42L424.81,731.63C426.028,729.655 428.021,728.279 430.3,727.84C432.45,727.41 434.41,727.23 435.8,725.33C436.695,723.9 437.271,722.293 437.49,720.62C437.78,719.22 437.99,717.29 439.2,716.32C440.86,715 443.02,716.55 444.15,717.83C445.64,719.51 446.15,721.83 446.91,723.92C447.593,726.096 448.855,728.045 450.56,729.56C452.353,730.915 454.451,731.811 456.67,732.17C462.04,733.17 467.67,733.17 473.16,733.39C479.1,733.603 485.04,733.623 490.98,733.45C493.98,733.37 496.89,733.24 499.85,733.07C502.737,732.785 505.647,732.805 508.53,733.13C511.22,733.53 513.74,734.71 516.48,734.86C519.22,735.01 521.37,733.81 523.63,732.56C532.89,727.44 544.94,725.69 554.3,731.48C556,732.48 557.48,729.88 555.84,728.87Z" style="fill:rgb(0,146,69);fill-rule:nonzero;"/>
        </g>
    </g>
</svg>
